<svg width="10" height="16" viewBox="0 0 10 16" fill="none" xmlns="http://www.w3.org/2000/svg">
<path d="M0.000933127 8.03448C0.00817147 8.30764 0.129999 8.56871 0.342832 8.76716L7.8451 15.6631C8.07594 15.8735 8.39191 15.9946 8.72377 15.9998C9.05563 16.005 9.37628 15.8939 9.61545 15.6909C9.85463 15.4878 9.99283 15.2093 9.99973 14.9165C10.0066 14.6237 9.88167 14.3404 9.65226 14.1288L2.98034 8L9.65226 1.87124C9.88167 1.65958 10.0066 1.3763 9.99973 1.08348C9.99283 0.79066 9.85463 0.5122 9.61545 0.309135C9.37628 0.10607 9.05563 -0.0050354 8.72377 0.000174522C8.39191 0.00538445 8.07594 0.126482 7.8451 0.336926L0.342832 7.23284C0.22817 7.33961 0.138846 7.46553 0.0801309 7.6032C0.021416 7.74086 -0.00550425 7.8875 0.000933127 8.03448Z" fill="black"/>
</svg>
