<svg width="10" height="16" viewBox="0 0 10 16" fill="none" xmlns="http://www.w3.org/2000/svg">
<path d="M9.99907 8.03448C9.99183 8.30764 9.87 8.56871 9.65717 8.76716L2.1549 15.6631C1.92406 15.8735 1.60809 15.9946 1.27623 15.9998C0.944374 16.005 0.623723 15.8939 0.384545 15.6909C0.145369 15.4878 0.00716877 15.2093 0.000271797 14.9165C-0.00662613 14.6237 0.118334 14.3404 0.347742 14.1288L7.01966 8L0.347742 1.87124C0.118334 1.65958 -0.00662613 1.3763 0.000271797 1.08348C0.00716877 0.79066 0.145369 0.5122 0.384545 0.309135C0.623723 0.10607 0.944374 -0.0050354 1.27623 0.000174522C1.60809 0.00538445 1.92406 0.126482 2.1549 0.336926L9.65717 7.23284C9.77183 7.33961 9.86115 7.46553 9.91987 7.6032C9.97858 7.74086 10.0055 7.8875 9.99907 8.03448Z" fill="black"/>
</svg>
