<svg width="20" height="20" viewBox="0 0 20 20" fill="none" xmlns="http://www.w3.org/2000/svg">
<path fill-rule="evenodd" clip-rule="evenodd" d="M0 19.9508C0.541707 18.2019 1.16958 16.5391 1.7436 14.8226C-2.06148 8.16767 2.6475 0.675786 9.02561 0.0534541C15.0476 -0.534207 19.985 3.79124 20 9.69442C20.0157 15.9232 13.9746 21.1536 7.17944 19.0277C6.66686 18.8673 6.03263 18.3448 5.43584 18.3097C4.60179 18.2606 3.50873 18.8594 2.66658 19.1302C1.74349 19.4272 0.940832 19.7248 0 19.9508ZM5.64099 16.4637C11.1283 19.7939 17.699 16.0586 18.2564 10.6175C18.7608 5.69188 14.8279 1.3092 9.53839 1.69447C3.49971 2.13422 -0.127605 9.34248 3.58967 14.6175C3.2606 15.5192 2.95267 16.4421 2.66658 17.3867C3.67409 17.095 4.60282 16.7246 5.64099 16.4637Z" fill="white"/>
<path fill-rule="evenodd" clip-rule="evenodd" d="M2.66626 17.3868C2.95235 16.4422 3.26028 15.5193 3.58935 14.6175C-0.128027 9.34254 3.49939 2.13428 9.53807 1.69453C14.8275 1.30926 18.7605 5.69194 18.2561 10.6176C17.6987 16.0585 11.128 19.7939 5.64067 16.4637C4.60239 16.7247 3.67367 17.0951 2.66626 17.3868ZM5.43552 8.66892C6.31542 11.1437 9.96181 14.4956 12.615 14.6176C13.8725 14.6755 15.3594 14.0231 15.2815 12.2587C14.5243 11.7168 13.6514 11.2906 12.7175 10.9254C12.2705 11.3672 11.9192 11.9048 11.3841 12.2587C9.77523 11.5428 8.54103 10.4523 7.79448 8.87407C9.2645 8.07233 8.37167 6.28648 7.79448 5.07915C5.51389 4.39199 4.91341 7.20054 5.43552 8.66892Z" fill="#25D366"/>
<path fill-rule="evenodd" clip-rule="evenodd" d="M7.79536 5.0791C8.37255 6.28643 9.26538 8.07218 7.79536 8.87402C8.54191 10.4523 9.77621 11.5428 11.385 12.2586C11.9201 11.9047 12.2714 11.3671 12.7184 10.9253C13.6523 11.2906 14.5252 11.7167 15.2824 12.2586C15.3603 14.0231 13.8734 14.6755 12.6158 14.6176C9.96269 14.4955 6.3162 11.1436 5.4364 8.66887C4.91429 7.20049 5.51477 4.39194 7.79536 5.0791Z" fill="white"/>
</svg>
