<svg width="71" height="35" viewBox="0 0 71 35" fill="none" xmlns="http://www.w3.org/2000/svg">
<g opacity="0.4">
<path d="M49.4494 13.5288C49.4494 13.5289 49.4493 13.5287 49.4494 13.5288C49.4464 13.5118 49.4425 13.4948 49.4383 13.478C49.4365 13.471 49.4347 13.4639 49.4327 13.457C49.4299 13.447 49.4268 13.4372 49.4236 13.4274C49.4208 13.4187 49.418 13.4099 49.415 13.4014C49.4145 13.4002 49.4142 13.399 49.4138 13.3978C49.4129 13.3954 49.4117 13.3933 49.4108 13.3909C49.4027 13.3696 49.3937 13.3488 49.384 13.3283C49.3806 13.3212 49.3774 13.3141 49.3738 13.3072C49.3636 13.287 49.3527 13.2673 49.341 13.2479C49.3363 13.2401 49.3313 13.2324 49.3263 13.2247C49.3161 13.2089 49.3055 13.1932 49.2944 13.178C49.2888 13.1703 49.2831 13.1627 49.2773 13.1553C49.2736 13.1504 49.2701 13.1454 49.2663 13.1406C49.2623 13.1356 49.2577 13.1313 49.2537 13.1264C49.2383 13.1078 49.2223 13.0899 49.2059 13.0724C49.1966 13.0626 49.1875 13.0527 49.1779 13.0432C49.1645 13.0299 49.1504 13.0172 49.1363 13.0045C49.1071 12.9782 49.077 12.9529 49.0457 12.9293C49.0416 12.9262 49.0377 12.9229 49.0335 12.9198C49.0131 12.9047 48.9921 12.8904 48.971 12.8764C48.9682 12.8746 48.9655 12.8725 48.9627 12.8706C48.961 12.8695 48.9591 12.8685 48.9574 12.8674C48.9269 12.8477 48.8958 12.8291 48.8642 12.8112C48.8577 12.8075 48.8512 12.8037 48.8446 12.8001C48.8214 12.7874 48.7976 12.7756 48.7739 12.7638C48.7554 12.7548 48.7371 12.7454 48.7183 12.7369C48.7126 12.7343 48.7067 12.7319 48.701 12.7293C48.5688 12.67 48.4301 12.6244 48.2888 12.591C48.2862 12.5904 48.2836 12.5897 48.281 12.5891C48.2547 12.5829 48.2283 12.5775 48.2018 12.5722C48.1862 12.569 48.1706 12.5658 48.1549 12.5629C48.1353 12.5593 48.1157 12.5561 48.096 12.553C48.0736 12.5494 48.0512 12.546 48.0288 12.543C48.0204 12.5419 48.0119 12.5403 48.0035 12.5392C47.9923 12.5378 47.9806 12.5368 47.9694 12.5354C47.9589 12.5342 47.9483 12.5331 47.9378 12.5319C47.718 12.5077 47.4786 12.4992 47.2555 12.5379C47.1224 12.5573 46.993 12.5947 46.8877 12.6696C46.7521 12.7661 46.6808 12.925 46.6345 13.084C46.6337 13.0867 46.633 13.0895 46.6322 13.0922C46.6246 13.1175 46.6182 13.1433 46.6118 13.169C46.6084 13.1827 46.6048 13.1966 46.6017 13.2102C46.5992 13.2209 46.5968 13.2322 46.5943 13.2431C46.5516 13.4313 46.5098 13.649 46.5442 13.8445C46.5446 13.8473 46.5445 13.8502 46.545 13.853C46.5473 13.8674 46.5505 13.8815 46.554 13.8954C46.5561 13.9037 46.5585 13.912 46.5609 13.9202C46.5644 13.9319 46.5667 13.944 46.5708 13.9554C46.5763 13.9704 46.5831 13.984 46.5903 13.9971C46.6031 14.0203 46.6175 14.0421 46.6316 14.0649C46.6353 14.0709 46.639 14.0767 46.6425 14.0829C46.6488 14.094 46.6527 14.1068 46.6554 14.1203V14.281C46.6554 14.2821 46.6553 14.2832 46.6553 14.2842C46.6553 14.385 46.6553 14.4858 46.6553 14.5865C46.5113 14.4125 46.4077 14.2204 46.3232 14.0115C46.2974 13.9476 46.273 13.8832 46.2492 13.8185C46.2213 13.7389 46.1949 13.6589 46.1691 13.5794C46.1084 13.3921 46.0464 13.2053 45.9849 13.0183C45.9553 12.925 45.9256 12.8318 45.8947 12.7392C45.7633 12.345 45.6334 11.9502 45.5003 11.5566C45.4984 11.5508 45.4965 11.545 45.4945 11.5392C45.4777 11.4887 45.4605 11.4381 45.4435 11.3875C45.2993 10.9571 45.1487 10.526 44.9753 10.1065C44.9527 10.0517 44.9311 9.99652 44.9076 9.94228C44.9048 9.93561 44.9022 9.92877 44.8993 9.92211C44.8988 9.92104 44.8984 9.91998 44.8979 9.91891C44.8956 9.91368 44.8932 9.90849 44.8909 9.90327C44.8683 9.85208 44.845 9.80123 44.8201 9.75103C44.8185 9.7478 44.8167 9.74476 44.8151 9.74154C44.8092 9.72971 44.8027 9.71826 44.7966 9.7065C44.7819 9.67819 44.767 9.65008 44.7513 9.62263C44.6815 9.49698 44.603 9.37637 44.509 9.26779C44.4185 9.16332 44.3144 9.07265 44.2032 8.99135C44.1687 8.96612 44.1337 8.94141 44.0978 8.91811C44.0917 8.9141 44.086 8.90974 44.0798 8.90579C44.0765 8.90372 44.0736 8.9014 44.0703 8.89935C43.9012 8.79281 43.72 8.70318 43.5334 8.62503C43.5272 8.62241 43.5209 8.61967 43.5147 8.61708C43.477 8.60118 43.4386 8.58659 43.4004 8.5716C43.1683 8.4804 42.9287 8.4062 42.687 8.34507C42.6292 8.33024 42.5711 8.31607 42.5129 8.30274C42.5034 8.3006 42.4939 8.29813 42.4843 8.29601C42.4638 8.29141 42.4432 8.28737 42.4226 8.28295C42.3701 8.2718 42.3176 8.26085 42.2652 8.25084C42.2616 8.25015 42.2579 8.2493 42.2542 8.2486C42.249 8.2476 42.2436 8.24683 42.2384 8.24584C42.0123 8.20331 41.7842 8.17082 41.5556 8.14619C41.5531 8.14591 41.5506 8.14568 41.5481 8.14541C41.506 8.1409 41.4639 8.13633 41.4218 8.13232C41.4094 8.13116 41.3971 8.1303 41.3848 8.12915C41.2833 8.1197 41.1817 8.11093 41.08 8.10308C40.9526 8.09363 40.8251 8.08575 40.6977 8.07857C40.4593 8.06451 40.2209 8.05288 39.9824 8.0461C39.9804 8.04605 39.9784 8.04595 39.9764 8.04589C39.9636 8.04553 39.9508 8.04527 39.938 8.04492C39.4606 8.02879 38.9828 8.02145 38.5053 8.01396C38.4546 8.01327 38.404 8.01195 38.3533 8.01137C38.3198 8.01099 38.2862 8.01107 38.2526 8.01074C37.7063 8.00384 37.1597 8.0048 36.6134 8.00344C36.2724 8.00151 35.9315 7.99895 35.5906 8.00045C35.2702 8.00186 34.9497 8.00324 34.6293 8.00464C34.0235 8.00676 33.4175 8.0066 32.8118 8.01626C32.7477 8.01729 32.6836 8.01855 32.6195 8.01963C32.4963 8.02145 32.373 8.02308 32.2498 8.02503C31.9417 8.02994 31.6334 8.03989 31.3253 8.05223C31.3056 8.05302 31.2859 8.05402 31.2662 8.05485C31.1144 8.06116 30.9626 8.06679 30.811 8.075C30.7901 8.07614 30.7691 8.0777 30.7482 8.07888C30.6574 8.08401 30.5666 8.08941 30.4758 8.09568C30.4637 8.0965 30.4517 8.09728 30.4396 8.09813C30.3244 8.10631 30.2092 8.11557 30.0942 8.12641C30.0906 8.12673 30.087 8.12713 30.0834 8.12747C29.9669 8.13855 29.8506 8.15117 29.7345 8.16583C29.7328 8.16604 29.731 8.16623 29.7293 8.16645C29.6195 8.18037 29.5101 8.1966 29.4009 8.21447C29.3916 8.21598 29.3823 8.21698 29.3731 8.21853C29.352 8.22205 29.3311 8.22617 29.3101 8.22988C29.2777 8.23557 29.2454 8.24119 29.2132 8.24733C29.1873 8.25223 29.1615 8.25769 29.1356 8.26286C29.0982 8.27033 29.0607 8.27722 29.0235 8.28528C28.5187 8.39452 27.9962 8.55571 27.5404 8.81075C27.4935 8.83698 27.4468 8.8635 27.4015 8.89179C27.3989 8.89336 27.3962 8.89472 27.3937 8.89631C27.3885 8.89957 27.3837 8.90338 27.3785 8.90669C27.3369 8.93323 27.2961 8.96088 27.2565 8.98999C27.2491 8.99534 27.242 9.00087 27.2347 9.00631C27.1941 9.03696 27.1545 9.06894 27.1164 9.10252C27.1116 9.10676 27.1067 9.11095 27.1019 9.11524C27.0636 9.14965 27.027 9.18585 26.9917 9.22342C26.9865 9.22902 26.981 9.23433 26.9758 9.24002C26.9685 9.24813 26.9604 9.25543 26.9532 9.26371C26.9265 9.29428 26.9021 9.32629 26.8777 9.35836C26.8741 9.3632 26.8698 9.36746 26.8662 9.37234C26.8653 9.37348 26.8646 9.37473 26.8638 9.37587C26.8252 9.42808 26.7892 9.48199 26.7555 9.53736C26.7539 9.53987 26.7526 9.54249 26.7511 9.545C26.7207 9.5952 26.6925 9.64667 26.6654 9.6988C26.6583 9.71255 26.6514 9.72639 26.6445 9.74026C26.6242 9.78085 26.6048 9.82189 26.5861 9.86323C26.5776 9.882 26.5689 9.90066 26.5607 9.91956C26.5424 9.96173 26.5248 10.0042 26.5076 10.0467C26.5031 10.0579 26.498 10.069 26.4936 10.0803C26.4903 10.0884 26.4873 10.0967 26.4841 10.1049C26.4621 10.1604 26.4412 10.2162 26.4198 10.2719C26.242 10.7327 26.0789 11.1988 25.922 11.667C25.918 11.6789 25.9137 11.6906 25.9098 11.7025C25.737 12.2209 25.5623 12.7386 25.3938 13.2584C25.3681 13.3377 25.343 13.4178 25.3175 13.498C25.2955 13.5637 25.2739 13.6295 25.2517 13.695C25.2369 13.7386 25.2218 13.7823 25.2063 13.8259C25.1882 13.876 25.1708 13.9264 25.1509 13.9757C25.063 14.1942 24.9552 14.4029 24.8036 14.5864V14.1173C24.8063 14.1057 24.8096 14.0945 24.8148 14.0849C24.8259 14.0642 24.8438 14.0462 24.8557 14.0255C24.8773 13.988 24.8921 13.9474 24.9027 13.9057C24.903 13.9044 24.9034 13.9031 24.9038 13.9017C24.9068 13.8899 24.9091 13.8777 24.9114 13.8655C24.9122 13.8613 24.9134 13.8572 24.9141 13.853C24.9143 13.8516 24.9143 13.8503 24.9145 13.8489C24.9148 13.8468 24.9153 13.8448 24.9156 13.8427C24.918 13.8266 24.9185 13.8105 24.9199 13.7943C24.9213 13.7786 24.9235 13.763 24.9241 13.7472C24.9245 13.7363 24.9238 13.7253 24.9239 13.7143C24.9243 13.6319 24.9162 13.5491 24.9046 13.468C24.904 13.4638 24.9035 13.4595 24.9029 13.4553C24.9029 13.4551 24.9028 13.4548 24.9028 13.4545C24.9025 13.4526 24.9023 13.4507 24.902 13.4488C24.8988 13.4274 24.895 13.406 24.8915 13.3846C24.8889 13.3692 24.8866 13.3538 24.8839 13.3384C24.8795 13.314 24.8744 13.2897 24.8693 13.2654C24.8664 13.2512 24.8637 13.2369 24.8606 13.2228C24.8551 13.1985 24.8487 13.1745 24.8424 13.1505C24.8386 13.1359 24.8349 13.1213 24.8308 13.1069C24.8246 13.0857 24.8176 13.0648 24.8106 13.0439C24.8065 13.0314 24.803 13.0186 24.7986 13.0063C24.7959 12.9988 24.7928 12.9917 24.79 12.9844C24.788 12.9793 24.7866 12.974 24.7846 12.969C24.7825 12.9636 24.7799 12.9586 24.7777 12.9533C24.7747 12.9461 24.7715 12.9391 24.7684 12.932C24.7625 12.9188 24.7564 12.9057 24.7499 12.8928C24.7456 12.8844 24.741 12.8762 24.7365 12.8681C24.7311 12.8583 24.7257 12.8486 24.7199 12.8391C24.7115 12.8253 24.7026 12.812 24.6933 12.7991C24.691 12.7959 24.6888 12.7925 24.6865 12.7894C24.6365 12.7214 24.5736 12.6647 24.4935 12.6248C24.4918 12.624 24.4903 12.6231 24.4887 12.6223C24.4845 12.6202 24.4808 12.6177 24.4765 12.6158C24.4678 12.6118 24.4584 12.6091 24.4496 12.6055C24.4417 12.6022 24.4344 12.5984 24.4263 12.5954C24.4218 12.5938 24.417 12.5928 24.4124 12.5912C24.3147 12.5556 24.2095 12.5347 24.1017 12.5239C23.9064 12.5023 23.7034 12.5116 23.5148 12.5326C23.5082 12.5334 23.5015 12.5341 23.4949 12.5348C23.4819 12.5364 23.4685 12.5376 23.4556 12.5392C23.4453 12.5405 23.435 12.5424 23.4246 12.5438C23.4047 12.5466 23.3846 12.5496 23.3647 12.5527C23.3437 12.5561 23.3228 12.5595 23.3019 12.5634C23.2858 12.5663 23.2697 12.5696 23.2536 12.5729C23.2286 12.578 23.2036 12.5831 23.1787 12.5889C23.1707 12.5908 23.1628 12.5929 23.1549 12.5948C23.1171 12.6041 23.0797 12.6143 23.0424 12.6253C23.0252 12.6303 23.0082 12.636 22.9911 12.6415C22.9702 12.6482 22.9493 12.6549 22.9285 12.6622C22.9114 12.6682 22.8944 12.6745 22.8775 12.6809C22.8553 12.6893 22.8333 12.698 22.8115 12.7071C22.7976 12.7129 22.7837 12.7187 22.7699 12.7247C22.7615 12.7284 22.7529 12.7317 22.7445 12.7355C22.7191 12.7471 22.6939 12.7595 22.6689 12.7722C22.659 12.7772 22.6491 12.7822 22.6393 12.7874C22.6202 12.7974 22.6012 12.8079 22.5824 12.8187C22.5623 12.8303 22.5424 12.8423 22.5227 12.8547C22.514 12.8602 22.505 12.865 22.4964 12.8706C22.4928 12.873 22.4894 12.8756 22.4858 12.878C22.475 12.8852 22.4644 12.8928 22.4537 12.9003C22.4389 12.9106 22.4243 12.9211 22.41 12.932C22.3971 12.9418 22.3845 12.9518 22.372 12.962C22.3606 12.9713 22.3495 12.9807 22.3384 12.9903C22.325 13.002 22.3118 13.0138 22.2989 13.026C22.2889 13.0355 22.2793 13.0454 22.2696 13.0553C22.2572 13.0678 22.2448 13.0803 22.2331 13.0933C22.221 13.1068 22.2097 13.1209 22.1983 13.135C22.1901 13.1451 22.1815 13.1548 22.1737 13.1651C22.1548 13.1904 22.1369 13.2166 22.1203 13.2438C22.1197 13.2448 22.1189 13.2457 22.1183 13.2468C22.1059 13.2672 22.0945 13.2885 22.0836 13.3101C22.0814 13.3145 22.0793 13.3189 22.0772 13.3233C22.0668 13.3447 22.0576 13.3667 22.049 13.389C22.0479 13.392 22.0464 13.3948 22.0453 13.3978C22.0441 13.4012 22.0432 13.4049 22.042 13.4083C22.0362 13.4244 22.0311 13.4407 22.0264 13.4571C22.0254 13.4606 22.0244 13.464 22.0234 13.4675C22.0175 13.4895 22.0123 13.5117 22.0087 13.5342C22.0076 13.5404 22.0064 13.5466 22.0056 13.5529C22.0046 13.5601 22.0039 13.5674 22.0032 13.5747C22.0018 13.5884 22.0006 13.6021 22.0002 13.6158C22.0002 13.6176 22.0002 13.6194 22.0001 13.6211C21.9998 13.6385 22.0002 13.6558 22.0015 13.6731C22.0016 13.6736 22.0015 13.674 22.0016 13.6745C22.0016 13.6749 22.0017 13.6754 22.0018 13.6758C22.0054 13.7182 22.0142 13.7598 22.0313 13.7987C22.0441 13.8277 22.0614 13.8543 22.0822 13.8782C22.1004 13.8993 22.1214 13.9175 22.1435 13.9345C22.1502 13.9397 22.1571 13.9449 22.1642 13.9498C22.1704 13.9542 22.1764 13.9588 22.1829 13.963C22.1841 13.9637 22.1851 13.9646 22.1862 13.9653C22.19 13.9677 22.1942 13.9696 22.1981 13.972C22.2158 13.9829 22.2342 13.9927 22.2526 14.0025C22.265 14.0089 22.2773 14.0153 22.2897 14.0212C22.3029 14.0275 22.3165 14.0328 22.3298 14.0388C22.3874 14.0649 22.4462 14.089 22.5059 14.1098C22.5354 14.1201 22.5649 14.1302 22.5941 14.1401C22.5982 14.1415 22.6024 14.1426 22.6066 14.144C22.6768 14.1673 22.7473 14.1894 22.8178 14.2097C22.8223 14.211 22.8269 14.2121 22.8314 14.2134C22.8499 14.2186 22.8685 14.2235 22.8871 14.2285C22.9552 14.247 23.0235 14.2642 23.0922 14.2797C23.0999 14.2814 23.1075 14.2837 23.1152 14.2854C23.1883 14.3015 23.2612 14.3144 23.3342 14.3251C23.5241 14.3544 23.7161 14.3683 23.9101 14.3601C23.9747 14.3574 24.0422 14.3545 24.1106 14.3494V14.7022V15.2699V15.3736C24.1105 15.374 24.1105 15.3745 24.1104 15.3749C24.0536 15.4342 23.9962 15.4934 23.9389 15.5528C23.8596 15.6028 23.7818 15.6554 23.7051 15.7096C23.6843 15.7231 23.6635 15.7367 23.6437 15.751C23.5382 15.8278 23.4362 15.9093 23.338 15.9952C22.9862 16.3036 22.6343 16.7042 22.5011 17.1638C22.4991 17.171 22.4968 17.1781 22.4948 17.1854C22.4933 17.1907 22.4915 17.196 22.4901 17.2014C22.4869 17.2134 22.4846 17.2255 22.4818 17.2376C22.4796 17.2468 22.4769 17.2558 22.4749 17.2651C22.474 17.2692 22.4735 17.2734 22.4726 17.2775C22.4697 17.2917 22.4673 17.306 22.4648 17.3202C22.4618 17.3371 22.4586 17.354 22.4561 17.371C22.4554 17.3753 22.455 17.3796 22.4544 17.3839C22.448 17.429 22.4434 17.4745 22.4399 17.5201C22.426 17.6878 22.4275 17.8577 22.4273 18.0245C22.4272 18.1118 22.4289 18.1993 22.4301 18.2867C22.4302 18.3006 22.4303 18.3146 22.4305 18.3285C22.4343 18.5734 22.4441 18.8184 22.4602 19.063C22.4634 19.1114 22.4663 19.16 22.47 19.2084C22.4728 19.2463 22.4757 19.2843 22.4788 19.3222C22.4855 19.4015 22.4927 19.4808 22.5013 19.56C22.5041 19.586 22.5076 19.6123 22.5114 19.6386C22.5141 19.6622 22.5158 19.686 22.5187 19.7097C22.5331 19.8268 22.5503 19.9436 22.5678 20.0604C22.5685 20.0764 22.5693 20.0924 22.5693 20.1084C22.5693 20.3095 22.5693 20.5106 22.5693 20.7117C22.5693 21.1089 22.5693 21.5062 22.5693 21.9035C22.5693 22.3972 22.5693 22.8909 22.5693 23.3847C22.5693 23.8779 22.5693 24.3712 22.5693 24.8644C22.5693 25.2603 22.5693 25.6561 22.5693 26.052C22.5693 26.2534 22.5689 26.4549 22.5693 26.6565C22.5694 26.6794 22.5714 26.7018 22.5744 26.724C22.5807 26.7775 22.5944 26.8291 22.6251 26.8788C22.635 26.8948 22.6463 26.9095 22.6582 26.9235C22.6631 26.9293 22.6685 26.9347 22.6738 26.9402C22.6786 26.9453 22.6833 26.9504 22.6884 26.9552C22.6983 26.9644 22.7087 26.9729 22.7195 26.9808C22.7207 26.9817 22.7218 26.9827 22.7231 26.9836C22.727 26.9865 22.7304 26.9897 22.7344 26.9924C22.7405 26.9965 22.7471 26.9991 22.7534 27.0027C22.7595 27.0062 22.7656 27.0096 22.7719 27.0128C22.781 27.0174 22.7901 27.0218 22.7996 27.0257C22.8322 27.0391 22.8669 27.0481 22.9027 27.0525C22.9781 27.0636 23.0576 27.0611 23.1339 27.0583C23.2977 27.0588 23.4617 27.0562 23.6253 27.056C23.6488 27.0561 23.6723 27.0559 23.6956 27.0559C24.0048 27.0559 24.3139 27.0559 24.6231 27.0559C24.898 27.0559 25.1728 27.0559 25.4477 27.0559C25.4698 27.0559 25.4918 27.0559 25.5139 27.0559C25.6953 27.0559 25.877 27.0588 26.0584 27.056C26.1328 27.0548 26.2035 27.038 26.2668 26.9977C26.2694 26.9961 26.2712 26.9942 26.2736 26.9926C26.2753 26.9915 26.2771 26.9909 26.2787 26.9897C26.2894 26.9824 26.2988 26.9744 26.3081 26.9664C26.317 26.9589 26.3249 26.951 26.3325 26.943C26.3388 26.9365 26.3452 26.93 26.3508 26.9232C26.357 26.9157 26.3624 26.9078 26.3678 26.8999C26.3723 26.8933 26.3767 26.8866 26.3807 26.8798C26.3845 26.8732 26.3882 26.8666 26.3917 26.8599C26.4718 26.7023 26.4411 26.4902 26.44 26.318C26.44 25.9495 26.44 25.5809 26.44 25.2125C26.44 25.1219 26.44 25.0314 26.44 24.9409C26.44 24.9404 26.4399 24.9393 26.4399 24.9386C26.4399 24.9034 26.4399 24.8683 26.4399 24.8331C26.4399 24.833 26.4399 24.8329 26.44 24.8328C26.4401 24.8327 26.4407 24.8327 26.4409 24.8326C26.4545 24.8326 26.4682 24.8326 26.4818 24.8326C26.482 24.8326 26.4826 24.8327 26.4828 24.8327C26.5943 24.8327 26.7058 24.8327 26.8174 24.8327C27.0294 24.8327 27.2416 24.8327 27.4536 24.8327C27.7523 24.8327 28.0508 24.8327 28.3495 24.8327C28.719 24.8327 29.0884 24.8327 29.4579 24.8327C29.888 24.8327 30.3182 24.8327 30.7483 24.8327C31.2214 24.8327 31.6945 24.8327 32.1676 24.8327C32.6745 24.8327 33.1813 24.8327 33.6881 24.8327C34.2128 24.8327 34.7374 24.8327 35.2621 24.8327C35.7883 24.8327 36.3145 24.8327 36.8407 24.8327C37.3598 24.8327 37.8789 24.8327 38.3979 24.8327C38.8913 24.8327 39.3847 24.8327 39.8781 24.8327C40.3368 24.8327 40.7954 24.8327 41.2541 24.8327C41.6618 24.8327 42.0696 24.8327 42.4774 24.8327C42.8191 24.8327 43.1608 24.8327 43.5025 24.8327C43.7676 24.8327 44.0327 24.8327 44.2978 24.8327C44.4702 24.8327 44.6426 24.8327 44.815 24.8327C44.8629 24.8327 44.9108 24.8327 44.9587 24.8327C44.9589 24.8327 44.9594 24.8326 44.9596 24.8326C44.979 24.8326 44.9983 24.8326 45.0176 24.8326C45.0177 24.8326 45.0179 24.8326 45.0179 24.8327C45.0186 24.8333 45.0187 24.8352 45.0192 24.8365C45.0192 24.8504 45.0192 24.8642 45.0192 24.8781C45.0192 24.8781 45.0192 24.8781 45.0192 24.8781C45.0192 24.951 45.0192 25.0242 45.0192 25.0971C45.0192 25.3395 45.0192 25.5819 45.0192 25.8243C45.0192 25.986 45.0192 26.1477 45.0192 26.3094C45.0191 26.4242 45.0046 26.5577 45.0181 26.6814C45.0194 26.707 45.0216 26.7324 45.0267 26.757C45.0366 26.8056 45.0569 26.8498 45.0836 26.8892C45.0892 26.8974 45.0949 26.9057 45.1011 26.9134C45.1036 26.9167 45.1057 26.9202 45.1083 26.9233C45.1282 26.9477 45.1518 26.97 45.1803 26.9897C45.1863 26.9938 45.1926 26.9963 45.1987 27C45.2015 27.0017 45.2044 27.0032 45.2073 27.0049C45.2208 27.0126 45.2348 27.0195 45.2492 27.0256C45.2614 27.0305 45.2738 27.0349 45.2864 27.0384C45.2905 27.0397 45.2946 27.0411 45.2988 27.0422C45.3245 27.0491 45.3508 27.0544 45.3781 27.0557C45.6563 27.0692 45.9383 27.056 46.2172 27.056C46.6979 27.056 47.1787 27.056 47.6594 27.056C47.8647 27.056 48.0702 27.0572 48.2756 27.0568C48.3687 27.0593 48.4698 27.0662 48.5639 27.0511C48.5694 27.0502 48.5748 27.049 48.5803 27.048C48.5954 27.0451 48.6105 27.0418 48.6251 27.0373C48.6275 27.0366 48.6298 27.0356 48.6322 27.0349C48.6646 27.0247 48.6959 27.0117 48.7245 26.9924C48.731 26.9881 48.7359 26.9826 48.7419 26.9779C48.7546 26.9684 48.7669 26.9583 48.7783 26.9473C48.7795 26.9461 48.7806 26.9449 48.7817 26.9437C48.7915 26.934 48.8003 26.9233 48.809 26.9124C48.8148 26.9048 48.8208 26.8973 48.8259 26.8894C48.827 26.8877 48.828 26.8858 48.8291 26.8841C48.8474 26.856 48.863 26.8257 48.8733 26.7918C48.9091 26.675 48.8897 26.5316 48.8897 26.4119C48.8896 26.2919 48.8897 26.1719 48.8897 26.052C48.8897 25.6561 48.8897 25.2603 48.8897 24.8644C48.8897 24.3712 48.8897 23.8779 48.8897 23.3847C48.8897 22.8909 48.8897 22.3972 48.8897 21.9035C48.8897 21.5062 48.8897 21.1089 48.8897 20.7117C48.8897 20.537 48.8897 20.3623 48.8897 20.1876C48.8897 20.1193 48.8947 20.0514 48.902 19.9837C48.9152 19.8924 48.9291 19.8012 48.9403 19.7097C48.9423 19.6932 48.9435 19.6766 48.9454 19.6601C48.9498 19.6275 48.954 19.595 48.9575 19.5623C48.9667 19.4772 48.9747 19.392 48.9818 19.3066C48.9852 19.2662 48.9877 19.2257 48.9906 19.1852C48.9948 19.1289 48.9985 19.0725 49.002 19.0161C49.0156 18.797 49.0244 18.5776 49.0282 18.3583C49.0336 18.1629 49.0365 17.9669 49.0309 17.7716C49.0286 17.6013 49.0194 17.4306 48.9841 17.2651C48.9519 17.114 48.8924 16.9723 48.8185 16.8379C48.8009 16.805 48.7822 16.7723 48.7623 16.7399C48.7613 16.7383 48.7605 16.7366 48.7595 16.735C48.758 16.7327 48.7564 16.7304 48.7549 16.728C48.7369 16.699 48.7183 16.6704 48.6992 16.6422C48.6964 16.638 48.6936 16.6337 48.6907 16.6295C48.6881 16.6256 48.6856 16.6217 48.683 16.6179C48.6791 16.6122 48.6747 16.607 48.6708 16.6015C48.6402 16.5578 48.6085 16.515 48.5757 16.4732C48.5694 16.4651 48.5633 16.4569 48.557 16.4489C48.5217 16.4048 48.4851 16.3618 48.4476 16.3196C48.4378 16.3085 48.4278 16.2975 48.4178 16.2865C48.3795 16.2445 48.3404 16.2031 48.3001 16.163C48.2954 16.1583 48.2905 16.1538 48.2858 16.1491C48.2471 16.1111 48.2074 16.0741 48.167 16.0379C48.1546 16.0266 48.1427 16.0145 48.1301 16.0034C48.1049 15.9811 48.0783 15.9605 48.0525 15.9388C48.0293 15.9193 48.0063 15.8997 47.9827 15.8807C47.9437 15.8495 47.9041 15.8191 47.8642 15.7892C47.8482 15.7772 47.8322 15.7653 47.8161 15.7535C47.7925 15.7364 47.7697 15.7182 47.7459 15.7015C47.7284 15.6893 47.7103 15.6782 47.6926 15.6662C47.6633 15.6463 47.6338 15.6268 47.604 15.6075C47.5841 15.5946 47.5648 15.5808 47.5446 15.5681C47.5091 15.5458 47.4863 15.5226 47.4571 15.4918C47.4538 15.4883 47.4492 15.4843 47.4452 15.4806C47.4145 15.4483 47.3839 15.4159 47.3534 15.3835C47.3529 15.3824 47.3518 15.3814 47.3514 15.3804C47.3497 15.3768 47.3495 15.3716 47.3484 15.3674V14.3494C47.4168 14.3545 47.4844 14.3574 47.549 14.3601C47.5508 14.3602 47.5526 14.3601 47.5544 14.3602C47.5652 14.3607 47.5759 14.3615 47.5867 14.3618C47.6429 14.3635 47.6988 14.3624 47.7546 14.3606C47.7571 14.3605 47.7596 14.3606 47.7621 14.3605C47.9678 14.3531 48.1712 14.3236 48.372 14.2786C48.3732 14.2783 48.3745 14.278 48.3757 14.2777C48.4181 14.2683 48.4603 14.2581 48.5024 14.2473C48.5089 14.2456 48.5154 14.2438 48.522 14.2421C48.5491 14.2351 48.5762 14.2282 48.6032 14.2207C48.6153 14.2173 48.6273 14.2136 48.6393 14.2102C48.6399 14.21 48.6406 14.2099 48.6412 14.2097C48.6429 14.2092 48.6446 14.2087 48.6463 14.2082C48.6836 14.1975 48.7209 14.1864 48.7582 14.175C48.7816 14.1677 48.8048 14.1603 48.8281 14.1527C48.8415 14.1484 48.8548 14.144 48.8682 14.1396C48.9071 14.1264 48.9459 14.1127 48.9843 14.0982C48.9856 14.0978 48.9868 14.0973 48.9881 14.0968C49.021 14.0844 49.0535 14.0711 49.0859 14.0576C49.0943 14.0541 49.1029 14.051 49.1113 14.0474C49.1236 14.0421 49.1358 14.0361 49.148 14.0305C49.1551 14.0273 49.1623 14.0245 49.1693 14.0212C49.1714 14.0202 49.1734 14.0189 49.1756 14.0179C49.2065 14.0029 49.2371 13.9871 49.2662 13.9689C49.2726 13.9648 49.2792 13.961 49.2855 13.9568C49.295 13.9504 49.304 13.9432 49.3132 13.9363C49.3225 13.9291 49.3318 13.9217 49.3406 13.9139C49.3439 13.9109 49.3477 13.9084 49.351 13.9053C49.3571 13.8996 49.3622 13.8933 49.3677 13.8872C49.3706 13.8841 49.374 13.8815 49.3769 13.8782C49.3783 13.8766 49.3793 13.8748 49.3807 13.8731C49.3812 13.8725 49.3816 13.8719 49.382 13.8713C49.4004 13.8491 49.4162 13.825 49.4278 13.7987C49.4645 13.715 49.4658 13.6198 49.4494 13.5288ZM44.8931 15.8427C44.9256 15.8438 44.9581 15.8463 44.9906 15.8489C45.006 15.8502 45.0214 15.8513 45.0367 15.8529C45.0493 15.8543 45.0618 15.8558 45.0743 15.8574C45.0895 15.8592 45.1045 15.8611 45.1196 15.8632C45.1564 15.8688 45.1931 15.8752 45.2295 15.8828C45.5496 15.9499 45.8551 16.0962 46.0978 16.3168C46.3617 16.5568 46.5443 16.8833 46.5827 17.2405C46.6231 17.6162 46.4973 17.9916 46.2587 18.2816C46.0507 18.5345 45.766 18.7181 45.457 18.8224C45.1539 18.9247 44.8264 18.9523 44.5102 18.9048C44.1884 18.8564 43.8772 18.7298 43.6207 18.5284C43.3479 18.3142 43.1423 18.0144 43.0673 17.6734C43.0464 17.5782 43.0357 17.481 43.0357 17.3835C43.036 17.0146 43.1924 16.662 43.4458 16.3971C43.6722 16.1605 43.9675 15.9957 44.2825 15.9101C44.355 15.8905 44.4286 15.8753 44.5027 15.8639C44.5319 15.8598 44.5612 15.8557 44.5905 15.8528C44.5961 15.8521 44.6017 15.8515 44.6072 15.8508C44.6939 15.8427 44.781 15.8401 44.8681 15.8422C44.8687 15.8422 44.8693 15.8422 44.8699 15.8422C44.8776 15.8424 44.8853 15.8424 44.8931 15.8427ZM43.5612 23.6588C43.321 23.8096 43.0118 23.7786 42.7403 23.7786C42.0385 23.7786 41.3368 23.7786 40.635 23.7786C39.7025 23.7786 38.77 23.7786 37.8375 23.7786C37.1931 23.7786 36.5486 23.7786 35.9041 23.7786C35.6572 23.7786 35.4104 23.7786 35.1635 23.7786C34.3759 23.7786 33.5883 23.7786 32.8007 23.7786C31.8791 23.7786 30.9575 23.7786 30.0359 23.7786C29.5116 23.7786 28.9875 23.7786 28.4633 23.7786C28.2095 23.7786 27.9123 23.7459 27.7516 23.5226C27.655 23.3884 27.6372 23.2317 27.6405 23.0709C27.6431 22.9365 27.6412 22.7973 27.6593 22.6638C27.6656 22.617 27.6778 22.5702 27.7034 22.53C27.8408 22.3159 28.1808 22.349 28.3996 22.3485C29.005 22.3473 29.6104 22.3461 30.2158 22.3449C31.1436 22.343 32.0716 22.3412 32.9994 22.3393C33.7537 22.3378 34.5079 22.3363 35.2622 22.3348C35.4941 22.3343 35.726 22.3338 35.9579 22.3343C36.6232 22.3357 37.2885 22.337 37.9539 22.3384C38.8916 22.3402 39.8291 22.3421 40.7668 22.344C41.4666 22.3454 42.1665 22.3468 42.8663 22.3481C42.9725 22.3485 43.0787 22.3487 43.185 22.3489C43.4402 22.3447 43.7755 22.3833 43.803 22.6939C43.8321 23.0219 43.8855 23.455 43.5612 23.6588ZM26.3856 15.8573C26.4043 15.8551 26.4229 15.8524 26.4415 15.8507C26.5781 15.8381 26.7154 15.8381 26.8517 15.8508C26.8577 15.8514 26.8636 15.8523 26.8695 15.8529C26.8984 15.8561 26.9273 15.8594 26.9561 15.8638C27.0303 15.8753 27.104 15.8905 27.1765 15.9101C27.4915 15.9957 27.7868 16.1605 28.0132 16.3971C28.2666 16.662 28.4231 17.0146 28.4234 17.3835C28.4233 17.481 28.4127 17.5782 28.3917 17.6734C28.3167 18.0144 28.1111 18.3142 27.8383 18.5284C27.5818 18.7298 27.2705 18.8564 26.9488 18.9048C26.6326 18.9523 26.3051 18.9247 26.0021 18.8224C25.693 18.7181 25.4084 18.5345 25.2004 18.2816C24.9618 17.9916 24.8359 17.6162 24.8763 17.2405C24.9148 16.8833 25.0974 16.5568 25.3613 16.3168C25.6039 16.0962 25.9094 15.9499 26.2295 15.8828C26.2659 15.8752 26.3025 15.8688 26.3392 15.8632C26.3547 15.8609 26.3702 15.8593 26.3856 15.8573ZM26.7051 10.5751C26.719 10.5391 26.7325 10.5028 26.7467 10.467C26.7668 10.4165 26.7884 10.3668 26.8096 10.3169C26.8284 10.2726 26.8464 10.2279 26.8662 10.1842C26.8711 10.1732 26.8764 10.1624 26.8814 10.1516C26.8955 10.1211 26.91 10.0908 26.9253 10.0608C26.9305 10.0506 26.9362 10.0406 26.9415 10.0305C26.9578 9.99971 26.9747 9.96937 26.9928 9.93966C26.9986 9.93013 27.0049 9.92098 27.011 9.91159C27.0291 9.88311 27.048 9.85515 27.0683 9.82817C27.0775 9.81593 27.0877 9.80442 27.0974 9.79253C27.1165 9.76907 27.136 9.74588 27.1572 9.72395C27.1689 9.71178 27.1812 9.70005 27.1934 9.68836C27.209 9.67349 27.2246 9.65866 27.2409 9.64453C27.2545 9.63274 27.2685 9.62151 27.2825 9.61021C27.299 9.5969 27.3154 9.58356 27.3325 9.57091C27.3481 9.55932 27.3641 9.54832 27.38 9.53726C27.3963 9.52604 27.4124 9.51474 27.4289 9.50405C27.4461 9.49294 27.4636 9.48243 27.4811 9.47186C27.4974 9.46201 27.5136 9.45203 27.5302 9.44262C27.5466 9.43325 27.5633 9.42447 27.5799 9.41546C27.6052 9.40174 27.6306 9.38811 27.6563 9.37516C27.6683 9.36918 27.6804 9.36352 27.6924 9.35771C27.7225 9.34311 27.7527 9.32877 27.7833 9.31516C27.7936 9.31057 27.8041 9.30622 27.8145 9.30173C27.8463 9.28797 27.8783 9.2745 27.9106 9.2617C27.9219 9.25722 27.9333 9.25296 27.9446 9.24859C27.9758 9.23663 28.0069 9.22489 28.0384 9.21374C28.0521 9.20888 28.0658 9.20426 28.0795 9.19956C28.1086 9.1896 28.1376 9.1798 28.1669 9.17048C28.1834 9.1652 28.2 9.16013 28.2166 9.15504C28.2431 9.14691 28.2696 9.13888 28.2962 9.1312C28.3153 9.1257 28.3344 9.12039 28.3535 9.1151C28.3781 9.10832 28.4026 9.10161 28.4272 9.09516C28.4472 9.08992 28.4672 9.08482 28.4872 9.07979C28.506 9.07508 28.5248 9.07048 28.5435 9.06593C28.6004 9.05216 28.6577 9.04006 28.7149 9.02766C28.7566 9.01863 28.7981 9.00905 28.8399 9.00069C28.9036 8.98795 28.9674 8.9766 29.0314 8.96528C29.0609 8.96007 29.0903 8.95427 29.1199 8.94934C29.2001 8.93592 29.2806 8.92384 29.3612 8.91233C29.3757 8.91026 29.3902 8.90784 29.4047 8.90581C29.4707 8.89666 29.5367 8.88852 29.6027 8.88046C29.6383 8.87611 29.6739 8.87123 29.7095 8.86717C29.7241 8.86547 29.7388 8.86413 29.7534 8.86248C30.1222 8.82164 30.4924 8.79544 30.8631 8.7777C30.9706 8.77272 31.0781 8.76899 31.1857 8.76479C31.2841 8.76095 31.3826 8.75656 31.4811 8.75332C31.5935 8.74971 31.7059 8.74704 31.8184 8.74412C31.9122 8.74169 32.0061 8.73887 32.1 8.73681C32.3842 8.73082 32.668 8.72676 32.9522 8.72487C32.983 8.72465 33.0137 8.72421 33.0445 8.72404C33.6136 8.72077 34.1827 8.71758 34.7519 8.71431C35.0776 8.71238 35.4036 8.71053 35.7296 8.70866C36.0764 8.71068 36.4232 8.71261 36.7701 8.71461C37.3204 8.71772 37.8707 8.7209 38.421 8.72402C38.4443 8.72415 38.4676 8.72449 38.4909 8.72464C38.7814 8.72648 39.0716 8.73071 39.3621 8.73685C39.4375 8.73851 39.5128 8.74082 39.5882 8.74271C39.7192 8.746 39.8503 8.74923 39.9813 8.75345C40.0611 8.75607 40.141 8.75969 40.2208 8.7627C40.3473 8.76751 40.4738 8.77206 40.6003 8.77791C40.9696 8.79578 41.3385 8.82178 41.706 8.86252C41.7204 8.86413 41.7347 8.86544 41.749 8.86709C41.7901 8.87177 41.8311 8.87736 41.8721 8.88241C41.9314 8.88973 41.9908 8.89696 42.05 8.90516C42.0782 8.90907 42.1063 8.91369 42.1345 8.91781C42.2016 8.92762 42.2687 8.93753 42.3357 8.9487C42.3754 8.9553 42.4149 8.96298 42.4545 8.9701C42.5091 8.97992 42.5636 8.98954 42.6179 9.00042C42.664 9.00962 42.7097 9.02008 42.7555 9.0301C42.8099 9.04198 42.8643 9.05348 42.9183 9.0666C42.9381 9.07139 42.9578 9.07621 42.9775 9.08118C42.9955 9.08573 43.0135 9.09033 43.0315 9.09505C43.0576 9.1019 43.0838 9.10901 43.1099 9.11626C43.1277 9.12121 43.1455 9.12617 43.1632 9.1313C43.1906 9.13921 43.2179 9.14745 43.2452 9.15583C43.2611 9.16073 43.277 9.16562 43.2929 9.1707C43.3224 9.1801 43.3516 9.18993 43.3809 9.19997C43.3944 9.20462 43.408 9.20922 43.4215 9.21402C43.4529 9.22515 43.484 9.23685 43.5151 9.24881C43.5265 9.25318 43.5379 9.25746 43.5492 9.26193C43.5813 9.27469 43.6132 9.28809 43.6449 9.30181C43.6553 9.30633 43.6659 9.31072 43.6763 9.31535C43.7071 9.32908 43.7376 9.34353 43.7679 9.35825C43.7795 9.36385 43.7911 9.36929 43.8026 9.37504C43.8292 9.3884 43.8554 9.40248 43.8815 9.41668C43.897 9.42514 43.9128 9.43335 43.9281 9.44213C43.9455 9.45201 43.9626 9.46248 43.9797 9.47285C43.9961 9.48277 44.0125 9.49263 44.0286 9.50303C44.046 9.51425 44.063 9.5261 44.08 9.5379C44.0951 9.54833 44.1101 9.55871 44.1248 9.56962C44.1424 9.58258 44.1593 9.59621 44.1762 9.60987C44.1897 9.62073 44.2031 9.63153 44.2162 9.64284C44.2329 9.65729 44.2489 9.67239 44.2649 9.68762C44.2765 9.69863 44.288 9.70972 44.2991 9.72116C44.3209 9.74355 44.341 9.76717 44.3606 9.79114C44.3699 9.80254 44.3796 9.81363 44.3885 9.82536C44.4093 9.85279 44.4287 9.88118 44.4473 9.9102C44.4529 9.91892 44.4587 9.92744 44.4641 9.93628C44.4826 9.96657 44.5001 9.99746 44.5168 10.0289C44.5219 10.0385 44.5272 10.048 44.5322 10.0577C44.5477 10.0882 44.5626 10.1189 44.5769 10.1499C44.5818 10.1604 44.5868 10.1708 44.5915 10.1813C44.6111 10.2246 44.629 10.2687 44.6476 10.3125C44.6704 10.3661 44.6934 10.4195 44.715 10.4738C44.7241 10.4966 44.7326 10.5198 44.7415 10.5427C44.7669 10.6081 44.7922 10.6734 44.8165 10.7393C44.8783 10.9071 44.9375 11.0759 44.998 11.2431C45.0217 11.3085 45.0446 11.3742 45.068 11.4398C45.1676 11.7196 45.263 12.0006 45.3559 12.2828C45.5182 12.7753 45.6804 13.2678 45.8426 13.7603C45.8653 13.8289 45.8845 13.9069 45.859 13.9676C45.8551 13.9763 45.851 13.9849 45.8451 13.9928C45.844 13.9944 45.8424 13.9957 45.8412 13.9973C45.8358 14.0039 45.8295 14.0101 45.8224 14.0161C45.8187 14.0193 45.8152 14.0226 45.8109 14.0255C45.8017 14.0321 45.791 14.038 45.779 14.0432C45.7747 14.0451 45.7704 14.0471 45.766 14.0485C45.7636 14.0493 45.7612 14.05 45.7588 14.0507C45.7447 14.0549 45.7294 14.0565 45.7141 14.0577C45.6703 14.0601 45.6245 14.0519 45.5828 14.0486C45.316 14.0275 45.0491 14.0062 44.7823 13.985C44.7684 13.9839 44.7545 13.983 44.7406 13.982C44.7366 13.9816 44.7325 13.9813 44.7285 13.981C44.3744 13.9529 44.0206 13.9267 43.6662 13.9033C43.644 13.9018 43.6217 13.9003 43.5994 13.8988C43.4368 13.888 43.2742 13.8768 43.1115 13.8659C43.0057 13.8589 42.8999 13.8528 42.794 13.8463L42.8085 13.8459C42.8015 13.8459 42.7945 13.8459 42.7875 13.8459C42.6941 13.8401 42.6007 13.8337 42.5072 13.8286C42.0759 13.8052 41.6446 13.779 41.2132 13.7585C40.7708 13.7375 40.3282 13.7184 39.8856 13.7007C39.5002 13.6853 39.1144 13.6736 38.7288 13.6615C38.7214 13.6612 38.714 13.6609 38.7066 13.6607C38.7021 13.6605 38.6977 13.6605 38.6932 13.6603C38.6803 13.6599 38.6674 13.6595 38.6544 13.6591C38.2744 13.6471 37.894 13.6386 37.5139 13.6311C37.1373 13.6237 36.7606 13.6176 36.3841 13.6155C35.9293 13.613 35.4747 13.6134 35.0199 13.6158C34.6594 13.6178 34.2986 13.6238 33.9382 13.6313C33.5632 13.6391 33.188 13.6467 32.8131 13.659C32.796 13.6595 32.779 13.6598 32.7619 13.6603C32.738 13.661 32.7141 13.6621 32.6901 13.6628C32.3124 13.6752 31.9346 13.6856 31.5571 13.7014C31.1172 13.72 30.6772 13.7374 30.2375 13.7589C29.7956 13.7804 29.3539 13.8068 28.9122 13.8308C28.8306 13.8352 28.7491 13.8409 28.6676 13.8459C28.6619 13.846 28.6563 13.8459 28.6507 13.8459L28.6572 13.8466C28.4035 13.8622 28.1499 13.8796 27.8963 13.8966C27.8761 13.8979 27.8558 13.8992 27.8356 13.9005C27.8306 13.9008 27.8256 13.9012 27.8205 13.9016C27.7908 13.9035 27.7612 13.9054 27.7315 13.9074C27.6392 13.9135 27.547 13.9204 27.4548 13.9269C27.3861 13.9318 27.3175 13.9364 27.2489 13.9415C27.1818 13.9463 27.1146 13.9517 27.0475 13.9567C26.9451 13.9644 26.8428 13.9718 26.7404 13.9799C26.4657 14.0019 26.191 14.0237 25.9163 14.0455C25.916 14.0455 25.9157 14.0456 25.9154 14.0456C25.902 14.0467 25.8887 14.0477 25.8754 14.0488C25.8342 14.052 25.789 14.0601 25.7457 14.0578C25.7306 14.0567 25.7156 14.0552 25.7015 14.0511C25.6991 14.0505 25.6968 14.0497 25.6944 14.0489C25.6894 14.0473 25.6846 14.0453 25.6798 14.0432C25.6678 14.0379 25.6573 14.0318 25.648 14.0252C25.6439 14.0224 25.6403 14.0194 25.6367 14.0163C25.6283 14.0092 25.6208 14.0017 25.6147 13.9937C25.6138 13.9924 25.613 13.991 25.6121 13.9896C25.5693 13.9258 25.5917 13.8355 25.6175 13.7574C25.6215 13.7451 25.6256 13.7329 25.6296 13.7206C25.6307 13.7174 25.6318 13.7141 25.6328 13.7109C25.6347 13.7052 25.6365 13.6995 25.6384 13.6938C25.794 13.2215 25.9496 12.7492 26.1052 12.2769C26.1975 11.9964 26.2925 11.7171 26.3914 11.4389C26.414 11.3759 26.4359 11.3126 26.4587 11.2497C26.5211 11.0774 26.5821 10.9033 26.6459 10.7304C26.665 10.6784 26.6853 10.6268 26.7051 10.5751ZM24.7179 21.7298C24.5589 21.7298 24.3991 21.7346 24.2402 21.7298C24.2312 21.7295 24.2227 21.7283 24.2141 21.7273C24.1161 21.716 24.0427 21.6592 23.994 21.5707C23.9486 21.488 23.923 21.3952 23.9075 21.2995C23.8868 21.1714 23.8848 21.0379 23.8832 20.9152C23.8819 20.8207 23.8666 20.6784 23.9456 20.6063C23.9996 20.557 24.0795 20.5601 24.148 20.5601C24.3596 20.5601 24.5712 20.5601 24.7828 20.5601C25.639 20.5601 26.4951 20.5601 27.3513 20.5601C28.0305 20.5601 28.7098 20.5601 29.389 20.5601C29.4254 20.5602 29.4617 20.5602 29.498 20.5602C29.7314 20.5602 29.9477 20.7042 30.0377 20.9196C30.125 21.1286 30.0813 21.3758 29.9274 21.5421C29.766 21.7165 29.5621 21.7298 29.3411 21.7298C28.6254 21.7298 27.9098 21.7298 27.1941 21.7298C26.3687 21.7298 25.5433 21.7298 24.7179 21.7298ZM44.2649 21.7298C43.5493 21.7298 42.8336 21.7298 42.118 21.7298C41.8969 21.7298 41.693 21.7165 41.5317 21.5421C41.3778 21.3758 41.334 21.1286 41.4213 20.9196C41.5113 20.7042 41.7276 20.5602 41.961 20.5602C41.9973 20.5602 42.0336 20.5602 42.07 20.5601C42.7493 20.5601 43.4285 20.5601 44.1078 20.5601C44.9639 20.5601 45.8201 20.5601 46.6762 20.5601C46.8878 20.5601 47.0994 20.5601 47.3111 20.5601C47.3795 20.5601 47.4594 20.557 47.5134 20.6063C47.5925 20.6784 47.5771 20.8207 47.5758 20.9152C47.5742 21.0379 47.5723 21.1713 47.5516 21.2995C47.5361 21.3952 47.5105 21.488 47.4651 21.5707C47.4164 21.6592 47.343 21.716 47.245 21.7273C47.2363 21.7283 47.2278 21.7295 47.2188 21.7298C47.0599 21.7346 46.9001 21.7298 46.7412 21.7298C45.9158 21.7298 45.0903 21.7298 44.2649 21.7298Z" fill="white"/>
<path d="M11.333 6.74929C11.5662 2.80586 13.2289 0.556096 16.3211 0C16.4971 2.88798 14.8344 5.13775 11.333 6.74929Z" fill="white"/>
<path d="M10.918 9.59002C13.544 6.63889 16.2429 5.90296 19.0146 7.38222C17.3637 9.75827 14.6648 10.4942 10.918 9.59002Z" fill="white"/>
<path d="M9.64844 14.1521C11.9907 10.9712 14.6101 9.98909 17.5067 11.206C16.0822 13.7243 13.4628 14.7062 9.64844 14.1521Z" fill="white"/>
<path d="M9.17188 22.0208C11.2794 18.6796 13.8215 17.5119 16.798 18.5174C15.5583 21.1314 13.0162 22.2991 9.17188 22.0208Z" fill="white"/>
<path d="M9.77148 29.4141C11.879 26.0729 14.4211 24.9052 17.3976 25.9107C16.1579 28.5247 13.6158 29.6924 9.77148 29.4141Z" fill="white"/>
<path d="M11.0615 32.575C12.8301 29.7711 14.9632 28.791 17.4611 29.6348C16.4209 31.8287 14.2876 32.8086 11.0615 32.575Z" fill="white"/>
<path d="M9.34961 25.2142C11.8647 22.4203 14.4985 21.4772 17.2506 22.3849C15.6803 24.5784 13.0467 25.5215 9.34961 25.2142Z" fill="white"/>
<path d="M9.26172 17.4941C11.9797 14.9498 14.6706 14.1851 17.3346 15.2C15.6028 17.2187 12.9118 17.9834 9.26172 17.4941Z" fill="white"/>
<path d="M9.98322 8.49435C9.61935 4.56091 7.88312 2.3675 4.77414 1.91431C4.69401 4.80629 6.43044 6.9997 9.98322 8.49435Z" fill="white"/>
<path d="M8.73653 11.732C7.59537 7.95006 5.45629 6.1473 2.31934 6.32354C2.81788 9.17336 4.95696 10.9761 8.73653 11.732Z" fill="white"/>
<path d="M8.12609 17.5309C5.80959 14.331 3.19836 13.3277 0.291992 14.5212C1.69592 17.051 4.30735 18.0542 8.12609 17.5309Z" fill="white"/>
<path d="M8.06769 25.0644C5.47984 22.0797 2.79047 21.3092 0 22.7527C1.62013 25.1495 4.3093 25.9203 8.06769 25.0644Z" fill="white"/>
<path d="M9.31905 32.5029C7.30527 29.8695 5.09248 29.0854 2.68066 30.1506C3.91415 32.2417 6.12694 33.0258 9.31905 32.5029Z" fill="white"/>
<path d="M7.86464 21.7105C5.5907 18.7168 3.04461 17.5576 0.226562 18.2332C1.60871 20.5497 4.1548 21.7089 7.86464 21.7105Z" fill="white"/>
<path d="M8.4387 28.8846C5.85485 26.1541 3.19846 25.2765 0.469727 26.2522C2.09406 28.4061 4.75025 29.2837 8.4387 28.8846Z" fill="white"/>
<path d="M8.39562 14.5008C6.2126 11.4849 3.71666 10.2213 0.908203 10.7098C2.22341 13.0219 4.71915 14.2856 8.39562 14.5008Z" fill="white"/>
<path d="M10.4635 33.4718C10.5776 33.7985 10.6168 34.0883 10.5808 34.341C10.4212 34.1714 10.2871 33.9118 10.1786 33.5623C9.87785 32.5776 9.6107 31.5829 9.37391 30.5804C9.10016 29.4155 8.87635 28.2386 8.70251 27.0516C8.53666 25.9167 8.41678 24.7757 8.34884 23.6287C8.2809 22.5157 8.26091 21.3988 8.29088 20.2838C8.32086 19.1828 8.3988 18.0838 8.52468 16.9887C8.65057 15.8917 8.82441 14.8007 9.04621 13.7197C9.27 12.6207 9.54375 11.5317 9.86346 10.4547C10.0407 9.8572 10.2319 9.26454 10.4365 8.67648C10.6765 7.99449 10.9273 7.46397 11.1893 7.08472C11.1147 7.53651 10.9701 8.06643 10.7557 8.67448C10.5391 9.29152 10.3374 9.91376 10.1512 10.5406C9.83349 11.6076 9.56173 12.6886 9.33993 13.7797C9.12013 14.8527 8.9463 15.9357 8.82241 17.0227C8.69652 18.1077 8.62059 19.1987 8.59061 20.2918C8.56064 21.3988 8.58063 22.5058 8.64657 23.6108C8.7165 24.7477 8.8344 25.8827 8.99825 27.0097C9.17209 28.1866 9.39389 29.3555 9.66564 30.5125C9.90063 31.5074 10.1658 32.4947 10.4635 33.4718Z" fill="white"/>
<path d="M59.667 6.74929C59.4338 2.80586 57.7711 0.556096 54.6789 0C54.5029 2.88798 56.1656 5.13775 59.667 6.74929Z" fill="white"/>
<path d="M60.082 9.59002C57.456 6.63889 54.7571 5.90296 51.9854 7.38222C53.6363 9.75827 56.3352 10.4942 60.082 9.59002Z" fill="white"/>
<path d="M61.3516 14.1521C59.0093 10.9712 56.3899 9.98909 53.4933 11.206C54.9178 13.7243 57.5372 14.7062 61.3516 14.1521Z" fill="white"/>
<path d="M61.8281 22.0208C59.7206 18.6796 57.1785 17.5119 54.202 18.5174C55.4417 21.1314 57.9838 22.2991 61.8281 22.0208Z" fill="white"/>
<path d="M61.2285 29.4141C59.121 26.0729 56.5789 24.9052 53.6024 25.9107C54.8421 28.5247 57.3842 29.6924 61.2285 29.4141Z" fill="white"/>
<path d="M59.9385 32.575C58.1699 29.7711 56.0368 28.791 53.5389 29.6348C54.5791 31.8287 56.7124 32.8086 59.9385 32.575Z" fill="white"/>
<path d="M61.6504 25.2142C59.1353 22.4203 56.5015 21.4772 53.7494 22.3849C55.3197 24.5784 57.9533 25.5215 61.6504 25.2142Z" fill="white"/>
<path d="M61.7383 17.4941C59.0203 14.9498 56.3294 14.1851 53.6654 15.2C55.3972 17.2187 58.0882 17.9834 61.7383 17.4941Z" fill="white"/>
<path d="M61.0168 8.49435C61.3806 4.56091 63.1169 2.3675 66.2259 1.91431C66.306 4.80629 64.5696 6.9997 61.0168 8.49435Z" fill="white"/>
<path d="M62.2635 11.732C63.4046 7.95006 65.5437 6.1473 68.6807 6.32354C68.1821 9.17336 66.043 10.9761 62.2635 11.732Z" fill="white"/>
<path d="M62.8739 17.5309C65.1904 14.331 67.8016 13.3277 70.708 14.5212C69.3041 17.051 66.6926 18.0542 62.8739 17.5309Z" fill="white"/>
<path d="M62.9323 25.0644C65.5202 22.0797 68.2095 21.3092 71 22.7527C69.3799 25.1495 66.6907 25.9203 62.9323 25.0644Z" fill="white"/>
<path d="M61.681 32.5029C63.6947 29.8695 65.9075 29.0854 68.3193 30.1506C67.0859 32.2417 64.8731 33.0258 61.681 32.5029Z" fill="white"/>
<path d="M63.1354 21.7105C65.4093 18.7168 67.9554 17.5576 70.7734 18.2332C69.3913 20.5497 66.8452 21.7089 63.1354 21.7105Z" fill="white"/>
<path d="M62.5613 28.8846C65.1452 26.1541 67.8015 25.2765 70.5303 26.2522C68.9059 28.4061 66.2498 29.2837 62.5613 28.8846Z" fill="white"/>
<path d="M62.6044 14.5008C64.7874 11.4849 67.2833 10.2213 70.0918 10.7098C68.7766 13.0219 66.2808 14.2856 62.6044 14.5008Z" fill="white"/>
<path d="M60.5365 33.4718C60.4224 33.7985 60.3832 34.0883 60.4192 34.341C60.5788 34.1714 60.7129 33.9118 60.8214 33.5623C61.1221 32.5776 61.3893 31.5829 61.6261 30.5804C61.8998 29.4155 62.1236 28.2386 62.2975 27.0516C62.4633 25.9167 62.5832 24.7757 62.6512 23.6287C62.7191 22.5157 62.7391 21.3988 62.7091 20.2838C62.6791 19.1828 62.6012 18.0838 62.4753 16.9887C62.3494 15.8917 62.1756 14.8007 61.9538 13.7197C61.73 12.6207 61.4563 11.5317 61.1365 10.4547C60.9593 9.8572 60.7681 9.26454 60.5635 8.67648C60.3235 7.99449 60.0727 7.46397 59.8107 7.08472C59.8853 7.53651 60.0299 8.06643 60.2443 8.67448C60.4609 9.29152 60.6626 9.91376 60.8488 10.5406C61.1665 11.6076 61.4383 12.6886 61.6601 13.7797C61.8799 14.8527 62.0537 15.9357 62.1776 17.0227C62.3035 18.1077 62.3794 19.1987 62.4094 20.2918C62.4394 21.3988 62.4194 22.5058 62.3534 23.6108C62.2835 24.7477 62.1656 25.8827 62.0017 27.0097C61.8279 28.1866 61.6061 29.3555 61.3344 30.5125C61.0994 31.5074 60.8342 32.4947 60.5365 33.4718Z" fill="white"/>
</g>
</svg>
