<svg width="185" height="106" viewBox="0 0 185 106" fill="none" xmlns="http://www.w3.org/2000/svg">
<path d="M4.65857 92.9512V58.8761H12.5698V72.2683H27.203V58.8761H35.1142V92.9512H27.203V78.9902H12.5698V92.9512H4.65857ZM50.3295 93.4683C47.9509 93.4683 44.1763 92.5376 42.4182 88.5044C41.8495 87.16 41.4875 85.4537 41.4875 82.92V68.4937H49.2953V82.4546C49.2953 83.5405 49.4504 84.3678 49.8124 85.04C50.4329 86.1776 51.5187 86.9015 53.2768 86.9015C54.7246 86.9015 56.0173 86.4361 56.9997 85.5571V68.4937H64.8075V88.4527C64.8075 89.6419 64.8075 91.6068 65.2212 92.9512H58.6543L57.5685 90.6244C55.9138 92.1239 53.5353 93.4683 50.3295 93.4683ZM70.1689 92.9512V68.4937H76.8391L77.6148 70.9756C80.0967 69.0624 82.8372 67.8732 85.8362 67.8732C89.766 67.8732 94.0577 69.4244 94.0577 76.9737V92.9512H86.2499V79.3005C86.2499 76.7668 85.8362 74.5951 82.9406 74.5951C81.3377 74.5951 79.4245 75.2673 77.9767 76.4049V92.9512H70.1689ZM109.705 93.4683C104.793 93.4683 101.691 90.7278 101.691 86.281V74.4917H97.0886V68.4937H101.691V62.7024L109.498 60.479V68.4937H116.944L115.186 74.4917H109.498V84.2127C109.498 86.5395 110.222 87.3151 111.774 87.3151C113.066 87.3151 114.411 86.8498 115.341 86.281L117.513 91.5551C115.6 92.8478 112.187 93.4683 109.705 93.4683ZM142.906 83.0751H127.394C127.549 86.0741 130.134 87.4702 133.443 87.4702C136.029 87.4702 137.942 86.8498 139.752 85.8156L142.027 91.0898C139.131 92.8478 136.029 93.4683 132.823 93.4683C123.102 93.4683 119.586 87.2634 119.586 81.0068C119.586 73.6644 123.567 67.8732 131.272 67.8732C138.614 67.8732 142.906 72.9405 142.906 81.2654V83.0751ZM127.29 77.9044H135.098C135.046 75.7844 133.96 73.6644 131.116 73.6644C128.531 73.6644 127.29 75.7327 127.29 77.9044ZM146.922 92.9512V68.4937H153.54L154.368 70.9756C156.281 69.2693 158.246 67.8732 160.986 67.8732C162.227 67.8732 163.779 68.2351 165.02 69.1141L162.279 75.5259C160.883 74.6468 159.59 74.4917 158.97 74.4917C157.522 74.4917 156.436 74.8537 154.73 76.1463V92.9512H146.922Z" fill="#3C5EB3"/>
<path d="M4.65857 49V14.9249H25.1347L23.1181 21.5951H12.5698V28.4722H23.2732V35.1424H12.5698V42.3298H25.0312V49H4.65857ZM30.4795 49V24.5424H37.1497L37.9254 27.0244C40.4073 25.1112 43.1478 23.922 46.1468 23.922C50.0766 23.922 54.3683 25.4732 54.3683 33.0224V49H46.5605V35.3493C46.5605 32.8156 46.1468 30.6439 43.2512 30.6439C41.6483 30.6439 39.7351 31.3161 38.2873 32.4537V49H30.4795ZM71.3602 49.5171C63.087 49.5171 58.4334 44.1395 58.4334 36.9005C58.4334 28.9893 64.7934 23.922 71.8773 23.922C75.3934 23.922 77.6168 24.9044 78.8578 25.7317V32.1951C77.048 30.799 75.1865 30.0751 72.808 30.0751C68.7231 30.0751 66.3963 33.0741 66.3963 36.8488C66.3963 41.0888 68.8265 43.3639 72.4978 43.3639C74.566 43.3639 76.2207 42.7434 78.0821 41.7093L80.2539 46.9834C78.1856 48.4829 74.928 49.5171 71.3602 49.5171ZM98.5526 49L97.4667 46.9317C95.8121 48.3795 93.6921 49.5171 90.6414 49.5171C85.8326 49.5171 82.3165 46.2078 82.3165 41.5024C82.3165 38.1932 83.8677 36.1766 86.4014 34.8322C88.1594 33.9015 90.3828 33.4361 92.8648 33.3327L96.7428 33.1776V32.919C96.7428 30.6439 95.0882 29.7132 92.4511 29.7132C90.3828 29.7132 88.0043 30.282 86.2462 31.2127L83.816 26.3005C86.7116 24.8527 90.0209 23.922 93.8989 23.922C101.448 23.922 104.551 27.2829 104.551 33.2293V44.1912C104.551 45.6907 104.551 47.6556 104.964 49H98.5526ZM96.7428 38.0898L94.1058 38.1932C92.8648 38.2449 91.8823 38.4517 91.2102 38.8654C90.4862 39.3307 90.1243 39.9512 90.1243 40.9854C90.1243 42.6917 91.3136 43.519 93.175 43.519C94.8814 43.519 96.1741 43.002 96.7428 42.64V38.0898ZM109.757 49V24.5424H116.376L117.203 27.0244C119.116 25.318 121.081 23.922 123.822 23.922C125.063 23.922 126.614 24.2839 127.855 25.1629L125.114 31.5746C123.718 30.6956 122.426 30.5405 121.805 30.5405C120.357 30.5405 119.271 30.9024 117.565 32.1951V49H109.757Z" fill="#E23648"/>
</svg>
