<svg width="512" height="512" viewBox="0 0 512 512" fill="none" xmlns="http://www.w3.org/2000/svg">
<g clip-path="url(#clip0_3855_16)">
<path d="M256 512C397.385 512 512 397.385 512 256C512 114.615 397.385 0 256 0C114.615 0 0 114.615 0 256C0 397.385 114.615 512 256 512Z" fill="#F2F2F2"/>
<path d="M68.3042 165.056L121.904 108.704L133.888 121.152L80.2882 177.52L68.3042 165.056ZM85.5362 183.376L139.12 127.008L151.12 139.456L97.5362 195.824L85.5362 183.376ZM102.256 200.912L155.84 144.56L167.84 156.992L114.24 213.36L102.256 200.912ZM374.912 322.784L395.952 300.624L407.952 313.088L386.88 335.296L374.912 322.784ZM354.352 369.44L342.336 356.992L362.96 335.296L374.912 347.776L354.352 369.44ZM392.336 340.912L413.184 318.96L425.168 331.408L404.272 353.408L392.336 340.912ZM371.616 387.744L359.616 375.28L380.368 353.408L392.336 365.904L371.616 387.744ZM421.072 370.848L409.104 358.352L429.888 336.496L441.856 348.944L421.072 370.848ZM388.336 405.312L376.352 392.848L397.184 370.912L409.152 383.392L388.336 405.312ZM422.496 140.72L443.696 162.72L431.776 175.264L410.544 153.216L422.496 140.72ZM377.856 119.216L389.792 106.688L410.544 128.224L398.592 140.72L377.856 119.216ZM360.368 137.264L372.288 124.72L426.16 180.704L414.256 193.248L360.368 137.264ZM376.496 188.96L388.464 176.464L409.392 198.16L397.472 210.704L376.496 188.96ZM343.552 154.752L355.456 142.208L376.464 164L364.496 176.496L343.552 154.752ZM102.944 312.288L114.864 299.76L168.8 355.792L156.88 368.32L102.944 312.288ZM130.256 351.984L151.264 373.792L139.344 386.32L118.288 364.496L130.256 351.984ZM85.4562 330.336L97.3762 317.792L118.288 339.504L106.336 351.984L85.4562 330.336ZM68.6402 347.824L80.5442 335.296L134.48 391.248L122.56 403.776L68.6402 347.824Z" fill="#28292B"/>
<path d="M347.36 256C347.896 280.709 338.6 304.62 321.513 322.478C304.427 340.335 280.949 350.678 256.24 351.232C231.534 350.674 208.06 340.329 190.977 322.472C173.894 304.615 164.6 280.707 165.136 256C164.595 231.291 173.888 207.378 190.971 189.517C208.055 171.657 231.531 161.31 256.24 160.752C280.95 161.31 304.428 171.656 321.514 189.516C338.6 207.376 347.897 231.289 347.36 256Z" fill="#2E4593"/>
<path d="M346.88 256C346.901 260.454 346.596 264.903 345.968 269.312C343.328 250.448 333.472 216.416 296.144 215.76C286.951 214.597 277.643 216.737 269.881 221.798C262.118 226.858 256.405 234.511 253.76 243.392C245.424 265.008 244.528 291.392 207.888 291.392C197.762 292.093 187.737 289.01 179.755 282.74C171.774 276.47 166.404 267.46 164.688 257.456C164.656 256.987 164.656 256.517 164.688 256.048C164.645 240.48 168.303 225.125 175.36 211.248C182.788 196.204 194.242 183.515 208.45 174.592C222.659 165.669 239.063 160.861 255.84 160.704C280.543 161.287 304.006 171.65 321.075 189.518C338.144 207.385 347.425 231.296 346.88 256Z" fill="#DB2E2E"/>
</g>
<defs>
<clipPath id="clip0_3855_16">
<rect width="512" height="512" fill="white"/>
</clipPath>
</defs>
</svg>
