<svg width="193" height="132" viewBox="0 0 193 132" fill="none" xmlns="http://www.w3.org/2000/svg">
<path d="M157.545 55.248L149.676 50.3024L142.04 31.6546C139.259 24.865 134.289 19.1993 127.919 15.5577L107.291 3.76774C103.911 1.8356 100.172 0.61444 96.3024 0.179173C92.4332 -0.256094 88.5159 0.103709 84.7907 1.23651L69.2385 5.96763L60.3108 0.859937C59.3329 0.301295 58.2684 0.248521 57.3261 0.548575L57.3185 0.544051L57.2657 0.573454C56.7695 0.740289 56.3128 1.00743 55.9242 1.35827L1.88928 32.9668C0.787829 33.5971 0 34.7735 0 36.2225V49.2963L3.14679 55.6959C5.28634 60.0472 8.78665 63.5821 13.1168 65.7642L79.55 99.2424L128.689 127.518C131.736 129.272 135.099 130.407 138.585 130.86C142.071 131.313 145.613 131.074 149.006 130.157C164.09 126.08 177.725 117.846 188.356 106.396C191.359 103.162 192.999 98.8938 192.999 94.4804V90.3076C183.89 76.167 171.787 64.1987 157.545 55.248Z" fill="#ED5100"/>
<path d="M157.545 55.2478L149.676 50.3022L146.47 52.184L177.743 93.3038L150.84 108.192L97.4182 80.9748L94.9785 82.4076L102.965 87.4275C112.756 93.5808 125.891 107.887 133.072 116.138C136.386 119.945 141.483 121.681 146.435 120.712C165.319 117.014 182.02 106.108 193 90.3059C183.889 76.1663 171.786 64.1988 157.545 55.2478Z" fill="#E33400"/>
<path d="M44.0486 68.3808L28.8291 57.6746C26.5912 52.0792 22.8613 47.1068 18.6368 44.6668C11.7883 40.7133 6.2373 44.9099 6.2373 54.042C6.2373 63.1729 11.7883 73.7791 18.6368 77.7326C21.8838 79.6068 24.8361 79.6468 27.0462 78.2008L44.0486 68.3808ZM131.238 118.292L116.018 107.585C113.78 101.99 110.051 97.0175 105.826 94.579C98.9776 90.6255 93.4266 94.8221 93.4266 103.953C93.4266 113.084 98.9776 123.69 105.826 127.645C109.073 129.518 112.025 129.559 114.235 128.113L131.238 118.292Z" fill="#23292E"/>
<path d="M146.436 120.712C141.482 121.681 136.384 119.945 133.071 116.138C125.89 107.887 112.754 93.5808 102.965 87.4274L94.9771 82.4076L87.3408 63.7601C84.5607 56.97 79.5904 51.304 73.2202 47.6632L52.5934 35.8733C49.2128 33.9411 45.4731 32.7199 41.6037 32.2846C37.7342 31.8494 33.8167 32.2092 30.0913 33.342L14.539 38.0728L5.61281 32.9666C3.11324 31.5353 0 33.3405 0 36.2223V49.2961L3.14679 55.6956C5.28634 60.047 8.78665 63.5819 13.1168 65.764L79.55 99.2422L128.689 127.518C131.736 129.272 135.099 130.407 138.585 130.86C142.071 131.313 145.613 131.074 149.006 130.157C164.09 126.079 177.725 117.846 188.356 106.396C191.359 103.162 192.999 98.8935 192.999 94.4802V90.3073C182.019 106.108 165.318 117.014 146.436 120.712Z" fill="#872E02"/>
<path d="M14.5405 38.0732L69.2385 5.96748L60.3108 0.859788C59.3329 0.301145 58.2684 0.248372 57.3261 0.548426L57.3185 0.543902L57.2657 0.573304C56.7695 0.74014 56.3128 1.00728 55.9242 1.35812L1.88928 32.9666C0.787829 33.5969 0 34.7734 0 36.2224V49.2962L3.14679 55.6957C5.28634 60.0471 8.78665 63.5819 13.1168 65.7641L79.55 99.2423L104.846 113.798V102.53L14.5405 38.0732Z" fill="#E33400"/>
<path d="M189.041 98.334V103.267C178.98 113.458 166.61 121.477 152.978 125.868L147.593 127.601V122.309L156.123 119.586C167.427 115.979 177.701 109.71 186.079 101.307L189.041 98.334Z" fill="#23292E"/>
<path d="M118.226 118.27C118.226 127.401 112.675 131.597 105.826 127.644C98.9778 123.69 93.4268 113.084 93.4268 103.953C93.4268 94.8223 98.9778 90.6257 105.826 94.5792C112.675 98.533 118.226 109.139 118.226 118.27Z" fill="#2E373D"/>
<path d="M111.923 114.631C111.923 119.121 109.194 121.184 105.827 119.24C102.459 117.296 99.7305 112.081 99.7305 107.591C99.7305 103.102 102.459 101.039 105.827 102.982C109.194 104.926 111.923 110.142 111.923 114.631Z" fill="#CECECE"/>
<path d="M109.134 113.02C109.134 115.456 107.653 116.573 105.827 115.521C104.001 114.466 102.52 111.638 102.52 109.202C102.52 106.768 104.001 105.648 105.827 106.703C107.653 107.756 109.134 110.585 109.134 113.02Z" fill="#627681"/>
<path d="M31.0367 68.3593C31.0367 77.4913 25.4853 81.688 18.6368 77.7341C11.7883 73.7795 6.2373 63.1732 6.2373 54.0426C6.2373 44.9117 11.7883 40.715 18.6368 44.6685C25.4853 48.622 31.0367 59.2283 31.0367 68.3593Z" fill="#2E373D"/>
<path d="M24.7328 64.7204C24.7328 69.2099 22.0044 71.273 18.6367 69.3294C15.2705 67.3858 12.541 62.1703 12.541 57.6808C12.541 53.1913 15.2709 51.1282 18.6367 53.0718C22.0044 55.0153 24.7328 60.2309 24.7328 64.7204Z" fill="#CECECE"/>
<path d="M21.9445 63.1096C21.9445 65.5447 20.463 66.6627 18.6371 65.6084C16.8111 64.554 15.3301 61.7254 15.3301 59.2914C15.3301 56.8559 16.8115 55.7367 18.6371 56.7911C20.4627 57.8454 21.9445 60.6737 21.9445 63.1096Z" fill="#627681"/>
<path d="M97.4182 80.975L146.47 52.1826L138.993 34.4288C137.977 32.0156 135.074 31.0393 132.805 32.3495L92.9193 55.3761C90.3074 56.8839 89.1927 60.0763 90.2972 62.8828L97.4182 80.975Z" fill="#3B2F25"/>
<path d="M89.6261 81.0413L82.9351 63.2759C81.6734 59.9263 79.3055 57.108 76.2235 55.2879L49.3889 39.4426C47.982 38.612 46.3999 38.1229 44.7696 38.0146C43.1393 37.9064 41.5064 38.1821 40.0021 38.8195L35.8495 40.5792C31.9831 42.2182 31.6548 47.572 35.2916 49.6716L89.6261 81.0413Z" fill="#24170C"/>
<path d="M142.494 50.647L135.804 32.8797C135.664 32.5103 135.506 32.1492 135.34 31.7929C134.49 31.7206 133.608 31.8857 132.804 32.3493L121.804 38.7002L142.494 50.647Z" fill="#625951"/>
<path d="M185.366 77.4819C184.93 77.4819 184.494 77.6059 184.073 77.8487L179.205 80.6596L170.921 84.3542L177.743 93.3038C178.17 93.7399 178.731 93.965 179.287 93.965C179.723 93.965 180.159 93.8413 180.58 93.5971L185.45 90.7861C186.71 90.0586 187.661 88.2945 187.661 86.6837V80.193C187.661 78.413 186.505 77.4819 185.366 77.4819Z" fill="#872E02"/>
<path d="M185.366 77.4819C184.93 77.4819 184.494 77.6059 184.073 77.8487L179.205 80.6596C177.943 81.3872 176.993 83.1513 176.993 84.762V91.2543C176.993 93.0346 178.148 93.965 179.287 93.965C179.723 93.965 180.159 93.8413 180.58 93.5986L185.45 90.7876C186.71 90.0586 187.661 88.296 187.661 86.6852V80.193C187.661 78.413 186.505 77.4819 185.366 77.4819Z" fill="#E33400"/>
<path d="M184.761 89.5951L179.892 92.406C179.05 92.8919 178.368 92.3751 178.368 91.2544V84.7621C178.368 83.6403 179.05 82.3372 179.892 81.8513L184.761 79.0404C185.603 78.5556 186.284 79.0713 186.284 80.1931V86.6839C186.284 87.8057 185.603 89.1092 184.761 89.5951Z" fill="white"/>
<path d="M78.5766 86.8917L37.8555 60.2795V74.9939L78.5766 96.8723V86.8917Z" fill="#872E02"/>
<path d="M37.8555 60.2795L55.2454 71.6443L43.5908 66.0058V76.2235L55.2454 84.3367L37.8555 74.9939V60.2795Z" fill="#23292E"/>
<path d="M148.544 98.989C148.108 98.989 147.674 99.113 147.251 99.3573L142.384 102.168L131.029 107.231L140.915 114.808C141.344 115.247 141.906 115.474 142.466 115.474C142.902 115.474 143.338 115.35 143.759 115.105L148.628 112.294C149.889 111.567 150.84 109.803 150.84 108.192V101.701C150.84 99.9212 149.685 98.989 148.544 98.989Z" fill="#872E02"/>
<path d="M148.543 98.989C148.108 98.989 147.673 99.113 147.25 99.3573L142.383 102.168C141.122 102.896 140.171 104.66 140.171 106.271V112.761C140.171 114.541 141.326 115.474 142.467 115.474C142.903 115.474 143.337 115.35 143.759 115.105L148.627 112.294C149.89 111.567 150.839 109.803 150.839 108.192V101.701C150.839 99.9212 149.685 98.989 148.543 98.989Z" fill="#E33400"/>
<path d="M147.94 111.103L143.071 113.914C142.23 114.4 141.548 113.883 141.548 112.761V106.27C141.548 105.148 142.23 103.845 143.071 103.359L147.94 100.549C148.781 100.064 149.463 100.579 149.463 101.7V108.192C149.463 109.314 148.781 110.617 147.94 111.103H147.94Z" fill="white"/>
</svg>
