<svg width="100%" height="100%" viewBox="0 0 360 202" preserveAspectRatio="none" fill="none" xmlns="http://www.w3.org/2000/svg"><g clip-path="url(#clip0_3522_18474)">
<path d="M0 202H360V0H0V202Z" fill="#BAEAAD"/>
<path d="M227.641 202H230.405V0H227.641V202Z" fill="#4B9B78"/>
<path d="M250.698 202H253.462V0H250.698V202Z" fill="#4B9B78"/>
<path d="M304.77 202H307.534V0H304.77V202Z" fill="#4B9B78"/>
<path d="M329.643 202H332.407V0H329.643V202Z" fill="#8AB8DE"/>
<path d="M356.962 202H359.727V0H356.962V202Z" fill="#8AB8DE"/>
<path d="M228.899 202H359.603V131.749H228.899V202Z" fill="#74E570"/>
<path d="M359.727 142.77H253.462V103.439H359.727V142.77Z" fill="#74E570"/>
<path d="M329.643 135.125H359.727V0.000289917H329.643V135.125Z" fill="#74E570"/>
<path d="M329.643 78.7485H223.378V72.131H329.643V78.7485Z" fill="#4B9B78"/>
<path d="M329.643 109.163H223.378V102.545H329.643V109.163Z" fill="#4B9B78"/>
<path d="M329.643 14.083H223.378V7.46544H329.643V14.083Z" fill="#4B9B78"/>
<path d="M329.643 44.4976H223.378V37.88H329.643V44.4976Z" fill="#4B9B78"/>
<path d="M350.631 97.0234H338.726V81.1623H350.631V97.0234Z" fill="#4B9B78"/>
<path d="M350.631 129.68H338.726V113.819H350.631V129.68Z" fill="#4B9B78"/>
<path d="M350.631 160.897H338.726V145.036H350.631V160.897Z" fill="#4B9B78"/>
<path d="M350.631 192.926H338.726V177.065H350.631V192.926Z" fill="#4B9B78"/>
<path d="M247.934 162.22H235.655V146.359H247.934V162.22Z" fill="#4B9B78"/>
<path d="M247.934 193.25H235.655V177.388H247.934V193.25Z" fill="#4B9B78"/>
<path d="M324.876 129.26H312.597V113.399H324.876V129.26Z" fill="#4B9B78"/>
<path d="M324.876 161.917H312.597V146.055H324.876V161.917Z" fill="#4B9B78"/>
<path d="M324.876 193.134H312.597V177.273H324.876V193.134Z" fill="#4B9B78"/>
<path d="M297.817 129.462H285.538V113.601H297.817V129.462Z" fill="#4B9B78"/>
<path d="M297.817 162.118H285.538V146.257H297.817V162.118Z" fill="#4B9B78"/>
<path d="M297.817 193.336H285.538V177.475H297.817V193.336Z" fill="#4B9B78"/>
<path d="M0 202H189.959V88.4685H0V202Z" fill="#74E570"/>
<path d="M0 107.232H202.312V97.8319H0V107.232Z" fill="#5FC174"/>
<path d="M0 126.587H202.312V117.187H0V126.587Z" fill="#5FC174"/>
<path d="M0 145.089H202.312V135.689H0V145.089Z" fill="#5FC174"/>
<path d="M0 183.289H201.541V173.889H0V183.289Z" fill="#5FC174"/>
<path d="M0 164.072H202.312V154.672H0V164.072Z" fill="#5FC174"/>
<path d="M100.013 202H102.1V5.9158H100.013V202Z" fill="#4B9B78"/>
<mask id="mask0_3522_18474" style="mask-type:luminance" maskUnits="userSpaceOnUse" x="0" y="0" width="360" height="202">
<path d="M0 0H360V202H0V0Z" fill="white"/>
</mask>
<g mask="url(#mask0_3522_18474)">
<path d="M102.1 264.691H100.013V5.9159H102.1V264.691Z" stroke="#4B9B78" stroke-width="0.2" stroke-miterlimit="10"/>
</g>
<path d="M113.571 202H115.658V34.4335H113.571V202Z" fill="#4B9B78"/>
<mask id="mask1_3522_18474" style="mask-type:luminance" maskUnits="userSpaceOnUse" x="0" y="0" width="360" height="202">
<path d="M0 0H360V202H0V0Z" fill="white"/>
</mask>
<g mask="url(#mask1_3522_18474)">
<path d="M115.658 264.691H113.571V34.4336H115.658V264.691Z" stroke="#4B9B78" stroke-width="0.2" stroke-miterlimit="10"/>
<path d="M116.821 46.3237H99.0742C98.6975 46.3237 98.3921 46.0192 98.3921 45.6435V44.1307C98.3921 43.755 98.6975 43.4505 99.0742 43.4505H116.821C117.198 43.4505 117.503 43.755 117.503 44.1307V45.6435C117.503 46.0192 117.198 46.3237 116.821 46.3237Z" fill="#4B9B78"/>
<path d="M116.821 46.3237H99.0742C98.6975 46.3237 98.3921 46.0192 98.3921 45.6435V44.1307C98.3921 43.755 98.6975 43.4505 99.0742 43.4505H116.821C117.198 43.4505 117.503 43.755 117.503 44.1307V45.6435C117.503 46.0192 117.198 46.3237 116.821 46.3237Z" stroke="#4B9B78" stroke-width="0.2" stroke-miterlimit="10"/>
<path d="M116.821 35.8701H99.0742C98.6975 35.8701 98.3921 35.5656 98.3921 35.1899V33.6769C98.3921 33.3014 98.6975 32.9969 99.0742 32.9969H116.821C117.198 32.9969 117.503 33.3014 117.503 33.6769V35.1899C117.503 35.5656 117.198 35.8701 116.821 35.8701Z" fill="#4B9B78"/>
<path d="M116.821 35.8701H99.0742C98.6975 35.8701 98.3921 35.5656 98.3921 35.1899V33.6769C98.3921 33.3014 98.6975 32.9969 99.0742 32.9969H116.821C117.198 32.9969 117.503 33.3014 117.503 33.6769V35.1899C117.503 35.5656 117.198 35.8701 116.821 35.8701Z" stroke="#4B9B78" stroke-width="0.2" stroke-miterlimit="10"/>
<path d="M114.404 58.7544H101.056V57.4477H114.404V58.7544Z" fill="#4B9B78" stroke="#4B9B78" stroke-width="0.2" stroke-miterlimit="10"/>
<path d="M113.224 58.3247L101.006 45.5755L101.666 44.8867L113.884 57.6358L113.224 58.3247Z" fill="#4B9B78"/>
<path d="M113.224 58.3247L101.006 45.5755L101.666 44.8867L113.884 57.6358L113.224 58.3247Z" stroke="#4B9B78" stroke-width="0.2" stroke-miterlimit="10"/>
<path d="M114.429 70.7783H101.081V69.4717H114.429V70.7783Z" fill="#4B9B78" stroke="#4B9B78" stroke-width="0.2" stroke-miterlimit="10"/>
<path d="M113.249 70.3491L101.031 57.5999L101.691 56.9111L113.909 69.6603L113.249 70.3491Z" fill="#4B9B78"/>
<path d="M113.249 70.3491L101.031 57.5999L101.691 56.9111L113.909 69.6603L113.249 70.3491Z" stroke="#4B9B78" stroke-width="0.2" stroke-miterlimit="10"/>
<path d="M114.358 88.9912H101.011V87.6846H114.358V88.9912Z" fill="#4B9B78" stroke="#4B9B78" stroke-width="0.2" stroke-miterlimit="10"/>
<path d="M113.179 88.562L100.961 75.8128L101.621 75.124L113.839 87.8732L113.179 88.562Z" fill="#4B9B78"/>
<path d="M113.179 88.562L100.961 75.8128L101.621 75.124L113.839 87.8732L113.179 88.562Z" stroke="#4B9B78" stroke-width="0.2" stroke-miterlimit="10"/>
<path d="M114.383 101.59H101.036V100.283H114.383V101.59Z" fill="#4B9B78" stroke="#4B9B78" stroke-width="0.2" stroke-miterlimit="10"/>
<path d="M113.203 101.161L100.986 88.4115L101.646 87.7226L113.864 100.472L113.203 101.161Z" fill="#4B9B78"/>
<path d="M113.203 101.161L100.986 88.4115L101.646 87.7226L113.864 100.472L113.203 101.161Z" stroke="#4B9B78" stroke-width="0.2" stroke-miterlimit="10"/>
<path d="M114.396 113.576H101.048V112.27H114.396V113.576Z" fill="#4B9B78" stroke="#4B9B78" stroke-width="0.2" stroke-miterlimit="10"/>
<path d="M113.216 113.146L100.998 100.397L101.658 99.7086L113.876 112.458L113.216 113.146Z" fill="#4B9B78"/>
<path d="M113.216 113.146L100.998 100.397L101.658 99.7086L113.876 112.458L113.216 113.146Z" stroke="#4B9B78" stroke-width="0.2" stroke-miterlimit="10"/>
<path d="M114.421 125.6H101.073V124.294H114.421V125.6Z" fill="#4B9B78" stroke="#4B9B78" stroke-width="0.2" stroke-miterlimit="10"/>
<path d="M113.241 125.171L101.023 112.422L101.683 111.733L113.901 124.482L113.241 125.171Z" fill="#4B9B78"/>
<path d="M113.241 125.171L101.023 112.422L101.683 111.733L113.901 124.482L113.241 125.171Z" stroke="#4B9B78" stroke-width="0.2" stroke-miterlimit="10"/>
<path d="M114.433 138.736H101.086V137.429H114.433V138.736Z" fill="#4B9B78" stroke="#4B9B78" stroke-width="0.2" stroke-miterlimit="10"/>
<path d="M113.254 138.306L101.036 125.557L101.696 124.868L113.914 137.617L113.254 138.306Z" fill="#4B9B78"/>
<path d="M113.254 138.306L101.036 125.557L101.696 124.868L113.914 137.617L113.254 138.306Z" stroke="#4B9B78" stroke-width="0.2" stroke-miterlimit="10"/>
<path d="M114.458 150.76H101.111V149.453H114.458V150.76Z" fill="#4B9B78" stroke="#4B9B78" stroke-width="0.2" stroke-miterlimit="10"/>
<path d="M113.279 150.331L101.061 137.581L101.721 136.893L113.939 149.642L113.279 150.331Z" fill="#4B9B78"/>
<path d="M113.279 150.331L101.061 137.581L101.721 136.893L113.939 149.642L113.279 150.331Z" stroke="#4B9B78" stroke-width="0.2" stroke-miterlimit="10"/>
<path d="M114.59 164.627H101.242V163.321H114.59V164.627Z" fill="#4B9B78" stroke="#4B9B78" stroke-width="0.2" stroke-miterlimit="10"/>
<path d="M113.41 164.198L101.192 151.449L101.852 150.76L114.07 163.509L113.41 164.198Z" fill="#4B9B78"/>
<path d="M113.41 164.198L101.192 151.449L101.852 150.76L114.07 163.509L113.41 164.198Z" stroke="#4B9B78" stroke-width="0.2" stroke-miterlimit="10"/>
<path d="M114.615 177.513H101.267V176.207H114.615V177.513Z" fill="#4B9B78" stroke="#4B9B78" stroke-width="0.2" stroke-miterlimit="10"/>
<path d="M113.435 177.084L101.217 164.335L101.877 163.646L114.095 176.395L113.435 177.084Z" fill="#4B9B78"/>
<path d="M113.435 177.084L101.217 164.335L101.877 163.646L114.095 176.395L113.435 177.084Z" stroke="#4B9B78" stroke-width="0.2" stroke-miterlimit="10"/>
<path d="M114.352 189.787H101.004V188.48H114.352V189.787Z" fill="#4B9B78" stroke="#4B9B78" stroke-width="0.2" stroke-miterlimit="10"/>
<path d="M113.172 189.357L100.955 176.608L101.615 175.919L113.833 188.669L113.172 189.357Z" fill="#4B9B78"/>
<path d="M113.172 189.357L100.955 176.608L101.615 175.919L113.833 188.669L113.172 189.357Z" stroke="#4B9B78" stroke-width="0.2" stroke-miterlimit="10"/>
<path d="M114.377 201.811H101.03V200.504H114.377V201.811Z" fill="#4B9B78" stroke="#4B9B78" stroke-width="0.2" stroke-miterlimit="10"/>
<path d="M113.197 201.381L100.979 188.632L101.639 187.943L113.858 200.692L113.197 201.381Z" fill="#4B9B78"/>
<path d="M113.197 201.381L100.979 188.632L101.639 187.943L113.858 200.692L113.197 201.381Z" stroke="#4B9B78" stroke-width="0.2" stroke-miterlimit="10"/>
<path d="M113.21 214.517L100.992 201.768L101.652 201.079L113.87 213.828L113.21 214.517Z" fill="#4B9B78"/>
<path d="M113.21 214.517L100.992 201.768L101.652 201.079L113.87 213.828L113.21 214.517Z" stroke="#4B9B78" stroke-width="0.2" stroke-miterlimit="10"/>
<path d="M126.09 88.3379H114.429V70.7783L126.09 73.4232V88.3379Z" fill="#4B9B78"/>
<path d="M126.09 88.3379H114.429V70.7783L126.09 73.4232V88.3379Z" stroke="#4B9B78" stroke-width="0.2" stroke-miterlimit="10"/>
<path d="M208.868 43.4501H69.5349V44.8867H210.401L208.868 43.4501Z" fill="#4B9B78"/>
<path d="M208.868 43.4501H69.5349V44.8867H210.401L208.868 43.4501Z" stroke="#4B9B78" stroke-width="0.2" stroke-miterlimit="10"/>
<path d="M196.524 33.7152H55.6572V35.1519H196.524V33.7152Z" fill="#4B9B78" stroke="#4B9B78" stroke-width="0.2" stroke-miterlimit="10"/>
<path d="M113.427 34.6523L100.439 9.05558L102.468 7.93466L115.455 33.5314L113.427 34.6523Z" fill="#4B9B78"/>
<path d="M113.427 34.6523L100.439 9.05558L102.468 7.93466L115.455 33.5314L113.427 34.6523Z" stroke="#4B9B78" stroke-width="0.2" stroke-miterlimit="10"/>
<path d="M105.146 5.95541C105.146 7.90153 103.634 9.479 101.769 9.479C99.9039 9.479 98.3921 7.90153 98.3921 5.95541C98.3921 4.00929 99.9039 2.43164 101.769 2.43164C103.634 2.43164 105.146 4.00929 105.146 5.95541Z" fill="#4B9B78"/>
<path d="M105.146 5.95541C105.146 7.90153 103.634 9.479 101.769 9.479C99.9039 9.479 98.3921 7.90153 98.3921 5.95541C98.3921 4.00929 99.9039 2.43164 101.769 2.43164C103.634 2.43164 105.146 4.00929 105.146 5.95541Z" stroke="#4B9B78" stroke-width="0.2" stroke-miterlimit="10"/>
<path d="M55.6571 34.4336C55.6571 35.6772 54.6909 36.6855 53.4992 36.6855C52.3073 36.6855 51.3411 35.6772 51.3411 34.4336C51.3411 33.19 52.3073 32.1817 53.4992 32.1817C54.6909 32.1817 55.6571 33.19 55.6571 34.4336Z" fill="#4B9B78"/>
<path d="M55.6571 34.4336C55.6571 35.6772 54.6909 36.6855 53.4992 36.6855C52.3073 36.6855 51.3411 35.6772 51.3411 34.4336C51.3411 33.19 52.3073 32.1817 53.4992 32.1817C54.6909 32.1817 55.6571 33.19 55.6571 34.4336Z" stroke="#4B9B78" stroke-width="0.2" stroke-miterlimit="10"/>
<path d="M198.21 34.4336C198.21 35.6772 197.244 36.6855 196.052 36.6855C194.86 36.6855 193.894 35.6772 193.894 34.4336C193.894 33.19 194.86 32.1817 196.052 32.1817C197.244 32.1817 198.21 33.19 198.21 34.4336Z" fill="#4B9B78"/>
<path d="M198.21 34.4336C198.21 35.6772 197.244 36.6855 196.052 36.6855C194.86 36.6855 193.894 35.6772 193.894 34.4336C193.894 33.19 194.86 32.1817 196.052 32.1817C197.244 32.1817 198.21 33.19 198.21 34.4336Z" stroke="#4B9B78" stroke-width="0.2" stroke-miterlimit="10"/>
<path d="M53.4991 34.4336L101.769 2.9452L196.524 33.7152L208.941 44.0249" stroke="#4B9B78" stroke-width="0.9012" stroke-miterlimit="10"/>
<path d="M69.5351 52.5181H44.2836V42.1975H69.5351V52.5181Z" fill="#4B9B78" stroke="#4B9B78" stroke-width="0.2" stroke-miterlimit="10"/>
<path d="M55.6573 54.6953H38.4403V46.3233H55.6573V54.6953Z" fill="#4B9B78" stroke="#4B9B78" stroke-width="0.2" stroke-miterlimit="10"/>
<path d="M57.6399 46.1597H74.7526V54.6953H57.6399V46.1597Z" fill="#4B9B78" stroke="#4B9B78" stroke-width="0.2" stroke-miterlimit="10"/>
<path d="M45.953 43.4504L54.4051 35.1522L69.5351 44.1689V34.4338L85.4999 44.3125V34.4338L100.013 44.1689" stroke="#4B9B78" stroke-width="0.9012" stroke-miterlimit="10"/>
<path d="M117.503 34.4335L133.29 44.312V34.4335L148.733 44.312V34.4335L164.803 44.1684V34.4335L180.663 44.312L180.246 34.4335L196.052 44.1684V34.4335" stroke="#4B9B78" stroke-width="0.4486" stroke-miterlimit="10"/>
<path d="M180.559 129.171H185.093V44.8869H180.663L180.559 129.171Z" stroke="#4B9B78" stroke-width="0.9012" stroke-miterlimit="10"/>
<path d="M186.132 46.6108H179.888C179.512 46.6108 179.206 46.3063 179.206 45.9306V44.4176C179.206 44.0421 179.512 43.7376 179.888 43.7376H186.132C186.509 43.7376 186.814 44.0421 186.814 44.4176V45.9306C186.814 46.3063 186.509 46.6108 186.132 46.6108Z" fill="#4B9B78"/>
<path d="M186.132 46.6108H179.888C179.512 46.6108 179.206 46.3063 179.206 45.9306V44.4176C179.206 44.0421 179.512 43.7376 179.888 43.7376H186.132C186.509 43.7376 186.814 44.0421 186.814 44.4176V45.9306C186.814 46.3063 186.509 46.6108 186.132 46.6108Z" stroke="#4B9B78" stroke-width="0.2" stroke-miterlimit="10"/>
<path d="M180.149 129.459L182.768 132.476L185.503 129.459H180.149Z" fill="#4B9B78"/>
<path d="M180.149 129.459L182.768 132.476L185.503 129.459H180.149Z" stroke="#4B9B78" stroke-width="0.2" stroke-miterlimit="10"/>
</g>
<mask id="mask2_3522_18474" style="mask-type:luminance" maskUnits="userSpaceOnUse" x="0" y="0" width="360" height="202">
<path d="M0 0H360V202H0V0Z" fill="white"/>
</mask>
<g mask="url(#mask2_3522_18474)">
<path d="M131.313 180.369L128.572 182.746C122.983 187.59 114.516 186.998 109.659 181.424L71.9457 138.134C67.089 132.559 67.6823 124.112 73.2709 119.268L76.0122 116.892C81.6008 112.047 90.0683 112.639 94.9251 118.213L132.638 161.503C137.495 167.078 136.902 175.525 131.313 180.369Z" fill="#00345C"/>
</g>
<mask id="mask3_3522_18474" style="mask-type:luminance" maskUnits="userSpaceOnUse" x="0" y="0" width="360" height="202">
<path d="M0 0H360V202H0V0Z" fill="white"/>
</mask>
<g mask="url(#mask3_3522_18474)">
<path d="M158.075 123.833C164.152 128.414 165.356 137.042 160.763 143.103L131.341 181.941C126.749 188.003 118.1 189.203 112.023 184.623V184.622C105.946 180.041 104.743 171.414 109.335 165.352L138.757 126.515C143.35 120.453 151.999 119.252 158.075 123.833Z" fill="#00345C"/>
</g>
<mask id="mask4_3522_18474" style="mask-type:luminance" maskUnits="userSpaceOnUse" x="0" y="0" width="360" height="202">
<path d="M0 0H360V202H0V0Z" fill="white"/>
</mask>
<g mask="url(#mask4_3522_18474)">
<path d="M159.427 132.223C164.374 130.985 166.999 126.753 168.234 125.631C172.896 121.397 193.059 101.86 193.171 101.135C193.646 98.0336 190.627 98.8333 190.018 99.2725C191.396 97.67 192.314 97.0101 193.692 95.4076C194.062 94.9761 194.683 94.0117 194.606 93.4382C194.512 92.7341 193.935 91.7328 193.171 91.667C192.408 91.6012 191.694 91.8866 191.044 92.2057C191.915 91.4886 192.821 90.7234 193.159 89.6721C193.496 88.6205 193.024 87.2064 191.86 86.7872C190.445 86.2772 189.169 87.442 188.316 88.4932C188.896 87.5292 187.157 85.7854 185.958 85.9841C185.568 86.0488 185.231 86.2482 184.909 86.4487C176.564 91.6481 170.539 97.8385 162.953 105.114C162.754 105.306 162.393 105.385 162.122 105.246C161.884 105.123 161.546 104.848 161.562 104.606C161.909 99.0673 162.013 93.3681 160.836 89.5335C160.757 89.2776 160.593 89.0625 160.479 88.8059C159.75 87.1589 157.963 88.4541 157.551 89.137C157.138 89.8198 157.536 94.0871 157.297 94.8638C155.063 102.122 150.999 111.263 148.313 117.459C147.912 118.383 143.285 125.006 150.508 130.443C155.365 134.099 158.967 132.544 159.375 132.235" fill="#FFCA0A"/>
<path d="M188.075 88.1748C185.772 89.8088 183.513 91.5057 181.334 93.3026C179.603 94.7297 177.93 96.223 176.271 97.7316C175.306 98.609 174.343 99.489 173.373 100.361C173.055 100.646 173.525 101.113 173.841 100.828C175.506 99.3317 177.148 97.8091 178.823 96.3238C180.605 94.7434 182.434 93.2169 184.321 91.7609C185.661 90.7262 187.028 89.7255 188.409 88.7455C188.754 88.501 188.423 87.9275 188.075 88.1748Z" fill="black"/>
<path d="M190.881 91.6419C188.818 93.3824 186.776 95.1471 184.732 96.9092C182.796 98.5779 180.864 100.252 178.922 101.913C178.626 102.166 178.331 102.419 178.033 102.668C177.947 102.74 177.862 102.811 177.776 102.881C177.761 102.893 177.746 102.904 177.732 102.916C177.681 102.959 177.775 102.887 177.762 102.893C177.645 102.943 177.936 102.873 177.893 102.872C177.971 102.904 178.049 102.936 178.127 102.969L178.127 102.968C178.159 103.046 178.191 103.124 178.224 103.202V103.201C178.228 102.776 177.566 102.775 177.561 103.201C177.558 103.478 177.866 103.604 178.083 103.474C178.151 103.432 178.215 103.372 178.278 103.321C178.487 103.151 178.693 102.975 178.898 102.8C179.687 102.13 180.47 101.455 181.254 100.779C183.503 98.8422 185.748 96.9006 188 94.9672C189.113 94.0111 190.228 93.0559 191.349 92.1093C191.675 91.8341 191.205 91.3686 190.881 91.6419Z" fill="black"/>
<path d="M190.074 98.5961C187.455 100.138 185.415 102.49 183.271 104.598C182.566 105.291 181.846 105.972 181.104 106.627C180.784 106.909 181.254 107.375 181.572 107.094C182.831 105.985 184.015 104.798 185.198 103.61C186.258 102.545 187.321 101.476 188.484 100.522C189.091 100.024 189.731 99.5657 190.408 99.1667C190.775 98.9507 190.442 98.3791 190.074 98.5961Z" fill="black"/>
</g>
<mask id="mask5_3522_18474" style="mask-type:luminance" maskUnits="userSpaceOnUse" x="0" y="0" width="360" height="202">
<path d="M0 0H360V202H0V0Z" fill="white"/>
</mask>
<g mask="url(#mask5_3522_18474)">
<path d="M115.959 226.364C114.572 194.924 114.193 170.765 107.027 139.147C105.134 130.793 102.418 115.589 83.0466 109.415C71.1001 105.607 49.5254 108.668 33.452 121.761C25.1176 128.55 24.4531 131.755 23.7331 139.904C21.3033 167.398 22.9964 197.026 24.286 226.822C57.5712 227.299 85.0124 227.299 115.353 225.14" fill="#EA4D28"/>
<path d="M81.5624 108.295C85.1962 111.689 81.2508 142.929 80.7003 151.618C73.8749 140.465 67.6874 129.43 57.1282 110.104C62.0163 104.16 71.1967 109.615 80.1472 107.824" fill="#00345C"/>
<path d="M23.0766 198.398H114.75L113.77 183.32L22.875 183.107L23.0766 198.398Z" fill="white"/>
<path d="M80.3236 150.625C81.4385 155.487 82.2933 160.415 83.0883 165.338C83.8372 169.977 84.5169 174.628 85.1521 179.284C85.8845 184.651 86.5544 190.027 87.1479 195.41C87.7263 200.658 88.2367 205.914 88.6064 211.18C88.9083 215.481 89.1436 219.8 89.0697 224.113C89.0622 224.542 89.051 224.971 89.0356 225.4C89.0229 225.761 89.5854 225.76 89.5981 225.4C89.7477 221.232 89.5479 217.05 89.2835 212.891C88.9518 207.674 88.4667 202.468 87.9123 197.27C87.3354 191.865 86.6772 186.468 85.9572 181.08C85.318 176.296 84.6324 171.518 83.8797 166.75C83.1691 162.247 82.39 157.754 81.4749 153.288C81.2823 152.348 81.0804 151.411 80.866 150.476C80.7852 150.124 80.2428 150.273 80.3236 150.625Z" fill="black"/>
</g>
<mask id="mask6_3522_18474" style="mask-type:luminance" maskUnits="userSpaceOnUse" x="0" y="0" width="360" height="202">
<path d="M0 0H360V202H0V0Z" fill="white"/>
</mask>
<g mask="url(#mask6_3522_18474)">
<path d="M85.0254 93.707C84.7126 93.9911 84.2561 94.412 83.8389 94.4146C72.0343 94.4892 61.2136 93.9691 52.724 85.5264C46.2247 79.0633 42.38 67.6475 41.0979 58.6741C40.6503 55.5414 41.2108 52.2637 42.4031 49.3448C44.4046 44.4452 49.0269 41.0574 53.9735 39.5312C58.92 38.005 64.1973 38.1133 69.3433 38.5573C73.9976 38.9589 79.1323 39.9077 81.9729 43.724C83.6853 46.0247 84.251 48.9923 84.7335 51.8476C86.6688 63.3012 91.758 84.522 85.1222 93.7628" fill="#FFCA0A"/>
<path d="M78.6258 87.905C79.5764 94.6814 80.5272 101.458 81.4778 108.234C81.5924 109.05 81.7054 109.89 81.4761 110.686C81.2551 111.453 80.7331 112.117 80.2028 112.747C78.6415 114.601 76.8668 116.374 74.6118 117.493C72.3567 118.612 69.5399 118.996 67.2014 118.028C64.0589 116.728 58.891 112.006 57.7984 109.03C54.7028 100.597 53.6999 89.1421 50.9674 81.7094C50.6009 80.712 54.1386 82.3087 55.1101 81.7175C55.9214 81.2237 57.007 81.5224 57.9209 81.8355C62.8549 83.5263 67.7888 85.2169 72.7229 86.9078C75.1099 87.7257 77.8304 88.8797 78.3612 91.1471" fill="#FFCA0A"/>
<path d="M73.2596 60.7174C74.6786 63.7459 76.0408 66.8008 77.3409 69.882C77.7097 70.7566 78.0738 71.633 78.4333 72.5116C78.5237 72.3932 78.6142 72.2748 78.7046 72.1564C78.0221 72.2456 77.3462 72.5095 76.6925 72.7132C75.7848 72.9958 74.8805 73.2898 73.9687 73.5588C73.7887 73.6117 73.6085 73.6641 73.427 73.7118C73.3575 73.7299 73.2879 73.7479 73.2178 73.7636C73.1865 73.7707 73.0136 73.8001 73.1192 73.7864C72.9673 73.806 72.8396 73.9011 72.8379 74.067C72.8364 74.2033 72.9686 74.3671 73.1192 74.3475C73.8017 74.2583 74.4776 73.9942 75.1312 73.7907C76.0387 73.5079 76.9432 73.2139 77.855 72.9451C78.0348 72.892 78.2152 72.8398 78.3965 72.7921C78.4661 72.7738 78.5358 72.756 78.606 72.7403C78.6373 72.7332 78.81 72.7036 78.7046 72.7175C78.8627 72.6969 79.053 72.5514 78.9757 72.3625C77.6966 69.2369 76.3582 66.1355 74.9591 63.0615C74.5593 62.1836 74.1545 61.3078 73.7452 60.4342C73.5922 60.1073 73.1072 60.3919 73.2596 60.7174Z" fill="black"/>
<path d="M68.3373 55.3931L69.0075 55.1141C69.0075 55.1141 52.8695 57.4664 52.3335 58.0045C51.7972 58.5428 48.9633 64.6339 48.7682 65.6383C48.573 66.6427 51.5527 75.8834 51.5527 75.8834L49.523 78.5204L47.259 70.8613L45.1121 71.665L51.5527 84.3206L44.8053 84.8535C44.8053 84.8535 40.9614 80.5906 39.888 76.429C38.8145 72.2676 37.8138 66.141 37.8138 66.141L39.888 55.1141C39.888 55.1141 38.0338 34.702 50.9152 33.4965C63.7963 32.2912 73.7096 31.6265 75.2912 32.1598C76.8727 32.693 85.9025 47.3576 85.9025 47.3576" fill="black"/>
<path d="M47.192 70.8216C47.9409 73.7953 49.655 76.425 50.3819 79.4049C49.0443 79.4752 47.6866 79.9196 46.3904 79.565C45.0162 79.1888 43.9659 77.9417 43.4677 76.5426C43.0906 75.4836 42.992 74.2851 43.3601 73.2226C43.7279 72.16 44.6088 71.2676 45.6695 71.0866C45.8405 71.0574 46.0854 70.8644 45.9275 70.9396" fill="#FFCA0A"/>
<path d="M85.4072 96.4668C79.5244 97.2799 70.8278 97.1078 65.3123 94.9939C61.9007 93.6865 52.0894 81.9907 49.9425 77.7721L51.2199 75.0114L63.7808 88.8153L68.8343 78.3109C68.8343 78.3109 73.0226 75.8295 77.8224 75.2611C82.6221 74.6927 87.2852 75.918 88.4768 76.7103C89.1154 77.135 88.6896 80.7452 87.8413 86.8185C87.4476 89.6375 85.4072 96.4668 85.4072 96.4668Z" fill="black"/>
<path d="M46.0998 72.6285C45.3974 72.7308 44.8176 73.3596 44.6913 74.0782C44.5649 74.7966 44.8643 75.561 45.3965 76.0438C45.9286 76.5263 46.667 76.7364 47.374 76.6773" stroke="black" stroke-width="0.3682" stroke-miterlimit="10"/>
<path d="M85.7077 46.5546C88.0498 46.5546 88.2834 46.3399 89.9529 47.3774C91.6222 48.4153 91.514 48.8685 90.9772 50.7733C67.5811 55.7584 55.7576 57.1271 33.0118 68.0493C30.0262 67.5344 28.3755 65.5587 33.2116 62.3656C33.4569 46.6753 26.6596 29.9039 44.9171 24.0554C50.445 22.2847 55.8466 20.2385 65.0197 22.6493C71.5756 24.3721 78.4582 29.3747 81.2705 33.3994C84.1462 37.5148 84.5366 40.5281 86.0199 46.497" fill="#EA4D28"/>
<path d="M75.9194 42.5546C74.8237 38.857 73.0655 35.3619 70.7671 32.2631C68.489 29.1913 65.6984 26.5029 62.5135 24.3764C60.7417 23.1933 58.852 22.1973 56.8756 21.4003C56.5208 21.2572 56.3665 21.8309 56.7173 21.9725C60.1735 23.3659 63.3532 25.4225 66.091 27.9418C68.8553 30.4855 71.1777 33.4951 72.9353 36.8116C73.9328 38.6939 74.7408 40.6706 75.3458 42.7123C75.4542 43.0775 76.0283 42.9221 75.9194 42.5546Z" fill="black"/>
<path d="M75.531 42.3586C72.5605 43.0008 69.633 43.8371 66.7731 44.8647C65.959 45.1572 65.1505 45.4654 64.3476 45.7879C64.4595 45.8333 64.5715 45.8788 64.6834 45.9242C62.2498 42.067 59.8515 38.185 57.3758 34.3547C56.2438 32.6035 55.0452 30.8794 53.6147 29.355C52.3855 28.0446 50.9577 26.9312 49.4119 26.0151C47.7328 25.02 45.8215 24.1574 43.8435 24.0598C43.461 24.0409 43.462 24.6344 43.8435 24.6531C45.5408 24.7369 47.1887 25.4487 48.6535 26.2642C50.1853 27.1169 51.6173 28.1653 52.8482 29.4145C54.2802 30.8676 55.4723 32.5301 56.5872 34.2314C57.7819 36.0545 58.9258 37.9116 60.0887 39.7548C61.449 41.9112 62.8095 44.0675 64.1698 46.2237C64.2336 46.3247 64.383 46.4094 64.5057 46.36C67.3272 45.2268 70.2216 44.2768 73.1682 43.5242C74.0046 43.3104 74.8453 43.1131 75.6891 42.9307C76.063 42.8497 75.9049 42.2778 75.531 42.3586Z" fill="black"/>
<path d="M49.6683 34.0088C48.4347 32.5546 47.071 31.2122 45.5909 30.0083C44.3075 28.964 42.9344 27.9613 41.4728 27.1765C40.7842 26.8068 39.9648 26.4044 39.1595 26.4705C38.7807 26.5015 38.7774 27.095 39.1595 27.0637C39.8187 27.0097 40.481 27.3273 41.0498 27.6237C41.6692 27.9467 42.2555 28.3277 42.8367 28.7136C44.3667 29.7292 45.8005 30.8825 47.1211 32.1573C47.8677 32.8782 48.5765 33.637 49.2477 34.4283C49.4952 34.7201 49.9143 34.2987 49.6683 34.0088Z" fill="black"/>
<path d="M85.9214 46.1677C82.4877 47.3207 79.012 48.3442 75.5223 49.3138C71.9517 50.3059 68.3658 51.2418 64.783 52.1895C61.184 53.1417 57.5875 54.105 54.014 55.1492C50.6418 56.1347 47.3048 57.218 43.9904 58.3808C40.7705 59.5103 37.5456 60.6208 34.238 61.471C33.7771 61.5894 33.3153 61.7031 32.8523 61.8131C32.4801 61.9016 32.6378 62.4737 33.0106 62.3853C36.4032 61.5791 39.7131 60.5055 43.0019 59.3549C46.2693 58.2119 49.5415 57.1002 52.8591 56.1091C56.4198 55.0456 60.0065 54.072 63.5976 53.1178C67.1847 52.1646 70.777 51.2317 74.3568 50.2511C77.8668 49.2895 81.3659 48.2832 84.826 47.1547C85.2445 47.0183 85.6623 46.8799 86.0795 46.7398C86.4404 46.6186 86.2855 46.0453 85.9214 46.1677Z" fill="black"/>
<path d="M69.6791 25.9041C69.0133 25.1946 68.3559 24.4628 67.5787 23.871C66.8169 23.291 65.94 22.887 65.072 22.4931C64.7263 22.336 64.4237 22.8471 64.7719 23.0052C65.624 23.3922 66.4939 23.7868 67.2425 24.356C67.9892 24.9236 68.6195 25.6428 69.2585 26.3236C69.5207 26.6028 69.9407 26.1828 69.6791 25.9041Z" fill="black"/>
</g>
<mask id="mask7_3522_18474" style="mask-type:luminance" maskUnits="userSpaceOnUse" x="0" y="0" width="360" height="202">
<path d="M0 0H360V202H0V0Z" fill="white"/>
</mask>
<g mask="url(#mask7_3522_18474)">
<path d="M32.6131 205.788C24.2116 205.488 17.6451 198.45 17.9466 190.069L19.8783 136.374C20.1798 127.993 27.2348 121.443 35.6363 121.744C44.0376 122.045 50.6043 129.082 50.3028 137.463L48.3711 191.158C48.0698 199.539 41.0146 206.089 32.6131 205.788Z" fill="#00345C"/>
<path d="M52.5138 253.136L51.0277 253.603C43.9936 255.813 36.4949 251.917 34.2792 244.9L19.576 198.34C17.3602 191.323 21.2662 183.843 28.3002 181.633L29.7863 181.166C36.8204 178.956 44.3189 182.852 46.5348 189.869L61.238 236.429C63.4538 243.445 59.5478 250.925 52.5138 253.136Z" fill="#00345C"/>
</g>
<mask id="mask8_3522_18474" style="mask-type:luminance" maskUnits="userSpaceOnUse" x="0" y="0" width="360" height="202">
<path d="M0 0H360V202H0V0Z" fill="white"/>
</mask>
<g mask="url(#mask8_3522_18474)">
<path d="M84.1754 79.3155C81.6676 79.7952 80.3083 81.3358 74.2807 80.7641C73.4656 80.6866 72.9547 81.9781 72.9451 83.0564C72.9335 84.3576 74.6298 85.4228 75.7066 85.6618C79.2311 86.4442 81.6652 85.4022 82.9076 84.3193C84.7659 82.6995 84.899 80.0716 84.3599 79.3345" fill="white"/>
</g>
<mask id="mask9_3522_18474" style="mask-type:luminance" maskUnits="userSpaceOnUse" x="0" y="0" width="360" height="202">
<path d="M0 0H360V202H0V0Z" fill="white"/>
</mask>
<g mask="url(#mask9_3522_18474)">
<path d="M65.6967 65.773C65.6967 66.8873 64.8865 67.7905 63.8871 67.7905C62.8878 67.7905 62.0774 66.8873 62.0774 65.773C62.0774 64.6588 62.8878 63.7554 63.8871 63.7554C64.8865 63.7554 65.6967 64.6588 65.6967 65.773Z" fill="black"/>
</g>
<mask id="mask10_3522_18474" style="mask-type:luminance" maskUnits="userSpaceOnUse" x="0" y="0" width="360" height="202">
<path d="M0 0H360V202H0V0Z" fill="white"/>
</mask>
<g mask="url(#mask10_3522_18474)">
<path d="M83.5799 60.6759C83.5799 61.6728 82.865 62.481 81.9832 62.481C81.1013 62.481 80.3866 61.6728 80.3866 60.6759C80.3866 59.679 81.1013 58.8708 81.9832 58.8708C82.865 58.8708 83.5799 59.679 83.5799 60.6759Z" fill="black"/>
</g>
<mask id="mask11_3522_18474" style="mask-type:luminance" maskUnits="userSpaceOnUse" x="0" y="0" width="360" height="202">
<path d="M0 0H360V202H0V0Z" fill="white"/>
</mask>
<g mask="url(#mask11_3522_18474)">
<path d="M67.5011 57.2959C67.2007 56.345 63.9573 56.5169 60.2565 57.6799C56.5556 58.8429 53.799 60.5563 54.0991 61.5072C54.3995 62.4581 57.6431 62.2862 61.344 61.1232C65.0446 59.9604 67.8015 58.2468 67.5011 57.2959Z" fill="black"/>
</g>
<mask id="mask12_3522_18474" style="mask-type:luminance" maskUnits="userSpaceOnUse" x="0" y="0" width="360" height="202">
<path d="M0 0H360V202H0V0Z" fill="white"/>
</mask>
<g mask="url(#mask12_3522_18474)">
<path d="M88.3185 52.7961C88.1065 51.8221 84.8607 51.6982 81.0688 52.5197C77.2772 53.3414 74.3755 54.7971 74.5877 55.7713C74.7998 56.7456 78.0454 56.8693 81.8372 56.0478C85.6288 55.2261 88.5306 53.7704 88.3185 52.7961Z" fill="black"/>
</g>
<mask id="mask13_3522_18474" style="mask-type:luminance" maskUnits="userSpaceOnUse" x="0" y="0" width="360" height="202">
<path d="M0 0H360V202H0V0Z" fill="white"/>
</mask>
<g mask="url(#mask13_3522_18474)">
<path d="M220.473 110.346C220.473 110.346 223.579 93.0374 241.062 96.6285C255.963 99.6892 254.629 118.06 254.629 118.06L244.106 169.038C244.106 169.038 238.917 181.723 224.348 178.731C211.57 176.107 209.628 162.889 209.628 162.889L220.473 110.346Z" fill="#FFCA0A"/>
<path d="M214.633 127.325C214.633 127.325 216.407 91.5641 240.39 96.4903C263.486 101.234 253.857 135.382 253.857 135.382L214.633 127.325Z" fill="white"/>
</g>
<mask id="mask14_3522_18474" style="mask-type:luminance" maskUnits="userSpaceOnUse" x="0" y="0" width="360" height="202">
<path d="M0 0H360V202H0V0Z" fill="white"/>
</mask>
<g mask="url(#mask14_3522_18474)">
<path d="M207.206 223.555C207.206 223.555 202.28 228.798 192.624 226.613C180.662 223.905 188.192 209.871 188.192 209.871L211.912 155.209C211.912 155.209 221.277 144.568 233.417 153.198C244.064 160.767 239.565 171.643 239.565 171.643L207.206 223.555Z" fill="#FFCA0A"/>
</g>
<mask id="mask15_3522_18474" style="mask-type:luminance" maskUnits="userSpaceOnUse" x="0" y="0" width="360" height="202">
<path d="M0 0H360V202H0V0Z" fill="white"/>
</mask>
<g mask="url(#mask15_3522_18474)">
<path d="M236.646 97.9035C236.646 97.9035 246.845 90.8999 271.099 91.1268C295.352 91.3536 311.375 98.3876 311.375 98.3876C311.375 98.3876 323.761 154.08 323.391 156.729C323.021 159.379 223.544 148.245 223.544 148.245L237.131 99.8397" fill="white"/>
<path d="M281.774 90.1588C272.069 99.8399 258.967 129.851 258.967 129.851L256.509 90.5668L240.528 94.5153C240.528 94.5153 223.059 124.527 219.687 159.663C216.581 192.042 215.915 218.218 217.199 247.288C239.89 250.992 318.653 246.993 318.653 246.993C318.653 246.993 325.473 200.421 324.857 170.595C324.241 140.769 336.247 111.516 313.801 95.4834" fill="#EA4D28"/>
<path d="M217.267 192.669L324.962 192.778L325.818 177.374H217.978L217.267 192.669Z" fill="white"/>
<path d="M258.696 129.777C258.07 133.497 257.496 137.226 256.934 140.957C255.65 149.472 254.474 158.003 253.45 166.553C252.298 176.157 251.3 185.794 250.82 195.457C250.519 201.53 250.398 207.616 250.245 213.694C250.099 219.508 249.978 225.322 249.881 231.136C249.776 237.392 249.69 243.65 249.656 249.907C249.655 249.996 249.655 250.084 249.654 250.173C249.653 250.534 250.215 250.535 250.217 250.173C250.24 245.034 250.309 239.895 250.386 234.756C250.566 222.778 250.836 210.801 251.242 198.829C251.565 189.302 252.49 179.795 253.57 170.328C254.59 161.391 255.79 152.476 257.107 143.579C257.772 139.086 258.479 134.6 259.207 130.118C259.217 130.054 259.228 129.99 259.239 129.926C259.298 129.573 258.756 129.421 258.696 129.777Z" fill="black"/>
</g>
<mask id="mask16_3522_18474" style="mask-type:luminance" maskUnits="userSpaceOnUse" x="0" y="0" width="360" height="202">
<path d="M0 0H360V202H0V0Z" fill="white"/>
</mask>
<g mask="url(#mask16_3522_18474)">
<path d="M274.457 27.2437C274.89 27.2437 275.345 27.2525 275.932 27.2722C276.935 27.3064 277.988 27.4005 279.062 27.5518C280.143 27.7048 281.069 27.8879 281.894 28.1116L282.407 28.2509C283.016 28.4148 283.773 28.6188 284.484 28.838C285.542 29.1648 286.553 29.5402 287.49 29.9539C288.537 30.4161 289.493 31.009 290.382 31.5768C291.995 32.6059 293.384 33.8983 294.398 35.3142C294.87 35.9711 295.276 36.7441 295.607 37.6123C295.848 38.2411 296.014 38.9367 296.145 39.868C296.202 40.1158 296.241 40.3743 296.275 40.6023C296.35 41.0974 296.384 41.565 296.409 41.9996C296.413 42.0672 296.418 42.1358 296.422 42.2043L296.427 42.2707C296.441 42.445 296.455 42.6472 296.455 42.8408C296.454 43.1954 296.452 43.55 296.45 43.9056C296.443 45.1845 296.366 46.4857 296.291 47.59C296.21 48.7625 296.001 49.944 295.798 51.0865L295.769 51.2565C295.737 51.433 295.696 51.6094 295.654 51.786C295.633 51.873 295.612 51.9607 295.592 52.0477C295.573 52.1376 295.554 52.2244 295.537 52.311L295.527 52.3583C295.491 52.5285 295.454 52.6985 295.409 52.8656C295.366 53.0274 295.324 53.1901 295.283 53.3528C295.187 53.7287 295.079 54.155 294.937 54.5614C294.515 55.7856 294.078 56.988 293.636 58.1357C293.204 59.2602 292.71 60.4249 292.124 61.6961C291.951 62.0747 291.372 63.2044 291.372 63.2044C290.986 63.9701 290.545 64.7043 290.062 65.386C289.564 66.0882 288.228 70.4996 287.316 71.1239L285.177 72.7246C285.177 72.7246 285.19 74.7753 285.177 74.8589C285.15 75.0209 283.191 88.9897 283.037 89.7988C283.011 89.9341 274.479 99.403 263.781 98.8694C256.226 98.4927 255.788 90.5857 255.757 90.3323C255.739 90.1761 254.688 82.8624 254.688 82.8624C254.685 82.2152 254.039 81.8541 252.871 81.964C252.25 82.0224 251.612 82.0252 250.994 82.0278L250.833 82.0288L250.451 82.0302C249.906 82.0302 249.325 82.0177 248.765 81.9253C248.476 81.8782 248.261 81.803 247.988 81.708C247.725 81.6148 247.572 81.515 247.341 81.3636C247.147 81.2381 247.031 81.1113 246.883 80.9509L246.829 80.8916C246.679 80.7302 246.606 80.5845 246.514 80.4L246.475 80.322C246.18 79.7344 246.087 79.0794 245.998 78.4461L245.981 78.3286C245.896 77.7181 245.821 77.0983 245.743 76.3778C245.631 75.3433 245.61 74.2903 245.591 73.2719L245.58 72.7734C245.558 71.7324 245.548 70.7053 245.539 69.5669L245.537 69.3662C245.519 66.9611 245.504 64.5569 245.489 62.1508C245.487 61.7609 245.484 61.3761 245.481 60.9921C245.464 59.0109 245.447 56.9622 245.585 54.9394C245.665 53.7561 245.752 52.5975 245.937 51.4366C245.96 51.2973 245.98 51.1568 246.001 51.0165L246.023 50.8712C246.097 50.3658 246.172 49.8543 246.289 49.3594C246.318 49.2382 246.346 49.1164 246.373 48.9947L246.399 48.8798C246.498 48.4481 246.598 48.0088 246.73 47.5842L246.778 47.431C247.056 46.5428 247.341 45.6313 247.722 44.7553C248.254 43.53 248.96 42.3185 249.82 41.1548C250.237 40.5907 250.615 40.0838 251.01 39.5932C251.456 39.0402 251.879 38.5286 252.303 38.0292C252.684 37.5798 253.092 37.1361 253.487 36.7073L253.528 36.6629L253.647 36.5337C254.086 36.0586 254.56 35.6026 255.018 35.1616L255.258 34.9291C255.378 34.8124 255.512 34.7026 255.642 34.5965L255.807 34.4608L256.631 33.7695L256.652 33.7513C256.832 33.6006 257.025 33.4566 257.195 33.3296C257.295 33.2544 257.382 33.1895 257.468 33.1238L257.612 33.011C257.784 32.8779 257.953 32.7464 258.128 32.6244L258.225 32.5563L258.252 32.5376C258.866 32.1099 259.501 31.6674 260.162 31.2677L261.179 30.6514C261.995 30.1572 262.928 29.7512 263.734 29.4192C264.979 28.9069 266.293 28.5266 267.641 28.1503C268.095 28.0235 268.569 27.9253 269.028 27.8305L269.063 27.8232C269.247 27.7852 269.431 27.7465 269.614 27.707C270.603 27.4929 271.626 27.3971 272.675 27.31C273.221 27.2654 273.804 27.2437 274.457 27.2437Z" fill="#FFCA0A"/>
<path d="M292.077 56.243C289.62 52.6074 287.133 54.7856 286.343 54.5649C283.339 53.7261 285.577 47.393 282.542 46.0712C273.764 42.2482 263.703 42.4878 254.284 43.9278C251.026 44.426 246.763 45.1953 244.489 42.6134C242.13 39.9341 244.276 26.3683 254.941 21.4309C259.521 19.3105 278.126 18.5107 284.641 20.9738C294.953 24.8719 298.259 39.3611 297.652 44.4516C297.241 47.8993 296.518 51.3026 295.496 54.5973C295.238 55.4296 294.959 56.2533 294.666 57.0714C294.353 57.9434 294.48 58.8928 294.4 59.8216C294.255 61.5296 293.941 63.2189 293.483 64.86C291.622 71.5174 287.431 77.3661 282.128 81.2256C274.229 86.9732 264.283 88.6601 254.805 87.8184C251.771 87.5489 248.433 86.8391 246.607 84.1948C246.048 83.3847 245.673 82.4435 245.353 81.4925C244.147 77.9055 243.659 74.036 243.933 70.2291C244.012 69.1218 244.18 67.9547 244.837 67.1033C245.659 66.0389 247.025 65.7295 248.284 65.4858C253.265 64.522 260.402 64.6328 265.59 66.3109C267.019 66.773 268.826 68.9256 269.959 69.9465C272.203 71.9676 274.426 73.5924 277.332 73.8617C280.237 74.1311 283.306 72.4445 284.705 69.6669C285.904 67.2849 285.763 65.9285 286.07 63.2345C286.48 59.6359 293.716 67.9888 292.077 56.243Z" fill="black"/>
<path d="M256.9 50.278C256.601 53.392 256.284 56.5161 256.311 59.648C256.319 60.51 256.355 61.3717 256.435 62.2304C256.446 62.3531 256.514 62.4681 256.641 62.5009C257.827 62.8052 259.032 63.0191 260.25 63.14C260.61 63.1757 260.608 62.6144 260.25 62.5789C259.082 62.4629 257.927 62.2517 256.791 61.9598C256.86 62.0499 256.928 62.1401 256.997 62.2304C256.707 59.1166 256.943 55.966 257.219 52.86C257.296 51.9989 257.38 51.1385 257.462 50.278C257.497 49.9187 256.934 49.9211 256.9 50.278Z" fill="black"/>
<path d="M288.289 56.9026C288.745 56.911 289.108 57.2465 289.339 57.6135C289.593 58.0169 289.763 58.5156 289.595 58.9828C289.454 59.3731 289.098 59.6902 288.68 59.7435C288.254 59.7977 287.843 59.5961 287.586 59.2641C287.493 59.1442 287.286 59.1666 287.188 59.2641C287.07 59.3825 287.095 59.5405 287.188 59.661C287.785 60.431 288.962 60.5185 289.67 59.8581C290.018 59.534 290.231 59.057 290.228 58.5814C290.225 58.0601 289.993 57.5329 289.68 57.124C289.341 56.6815 288.862 56.3521 288.289 56.3414C287.927 56.3347 287.927 56.8958 288.289 56.9026Z" fill="black"/>
</g>
<mask id="mask17_3522_18474" style="mask-type:luminance" maskUnits="userSpaceOnUse" x="0" y="0" width="360" height="202">
<path d="M0 0H360V202H0V0Z" fill="white"/>
</mask>
<g mask="url(#mask17_3522_18474)">
<path d="M183.082 109.645H164.16C162.606 109.645 161.347 108.389 161.347 106.839V64.925C161.347 63.3756 162.606 62.1195 164.16 62.1195H183.082C184.635 62.1195 185.894 63.3756 185.894 64.925L185.894 106.839C185.894 108.389 184.635 109.645 183.082 109.645Z" fill="black"/>
<path d="M185.043 106.498H162.199V65.0155H185.043V106.498Z" fill="white"/>
<path fill-rule="evenodd" clip-rule="evenodd" d="M169.975 77.8348H180.731L180.731 81.6986C180.731 82.9708 180.416 83.929 179.786 84.573C179.157 85.217 178.212 85.5467 176.952 85.5624C178.209 85.5749 179.154 85.9049 179.786 86.5518C180.419 87.199 180.734 88.1572 180.731 89.4262L180.731 93.29H169.975C168.459 93.29 167.91 93.1327 167.355 92.8368C166.801 92.5413 166.366 92.1074 166.07 91.5545C165.773 91.0016 165.615 90.4532 165.615 88.9409V82.184C165.615 80.6716 165.773 80.1232 166.07 79.5705C166.366 79.0176 166.801 78.5837 167.355 78.288C167.91 77.9923 168.459 77.8348 169.975 77.8348Z" fill="#00C251"/>
<path fill-rule="evenodd" clip-rule="evenodd" d="M173.174 81.8872C173.277 83.1366 173.604 84.0355 174.154 84.5843C174.704 85.1331 175.605 85.4593 176.858 85.5625C175.605 85.6659 174.704 85.992 174.154 86.5407C173.604 87.0895 173.277 87.9886 173.174 89.2378C173.07 87.9886 172.743 87.0895 172.193 86.5407C171.643 85.992 170.741 85.6659 169.489 85.5625C170.741 85.4593 171.643 85.1331 172.193 84.5843C172.743 84.0355 173.07 83.1366 173.174 81.8872Z" fill="#FFD311"/>
</g>
<mask id="mask18_3522_18474" style="mask-type:luminance" maskUnits="userSpaceOnUse" x="0" y="0" width="360" height="202">
<path d="M0 0H360V202H0V0Z" fill="white"/>
</mask>
<g mask="url(#mask18_3522_18474)">
<path d="M249.594 56.3528C248.881 57.2427 247.235 56.3064 246.775 55.2596C246.381 54.3598 246.655 53.1442 247.515 52.6824C248.374 52.2206 251.845 53.5428 249.594 56.3528Z" fill="black"/>
</g>
<mask id="mask19_3522_18474" style="mask-type:luminance" maskUnits="userSpaceOnUse" x="0" y="0" width="360" height="202">
<path d="M0 0H360V202H0V0Z" fill="white"/>
</mask>
<g mask="url(#mask19_3522_18474)">
<path d="M269.349 55.678C268.981 56.292 268.188 56.3612 267.53 56.3388C266.358 56.2985 264.984 55.5603 264.946 54.2408C264.91 53.0147 266.164 52.1372 267.242 52.3068C268.321 52.4763 270.711 53.4058 269.349 55.678Z" fill="black"/>
</g>
<mask id="mask20_3522_18474" style="mask-type:luminance" maskUnits="userSpaceOnUse" x="0" y="0" width="360" height="202">
<path d="M0 0H360V202H0V0Z" fill="white"/>
</mask>
<g mask="url(#mask20_3522_18474)">
<path d="M263.377 71.1629C260.973 69.5643 258.152 69.1342 255.332 69.7074C255.163 69.7418 254.969 69.8021 254.909 69.9659C254.829 70.1827 255.042 70.3879 255.233 70.515C257.298 71.8896 259.786 72.6037 262.257 72.5311C262.601 72.521 263.736 72.7402 263.874 72.4211C264.06 71.9917 263.824 71.2868 263.377 71.1629Z" fill="white"/>
</g>
<mask id="mask21_3522_18474" style="mask-type:luminance" maskUnits="userSpaceOnUse" x="0" y="0" width="360" height="202">
<path d="M0 0H360V202H0V0Z" fill="white"/>
</mask>
<g mask="url(#mask21_3522_18474)">
<path d="M275.472 52.8566C275.379 51.0116 273.06 49.541 271.714 48.5409C270.077 47.3235 268.297 46.3387 266.427 45.5247C264.445 44.6621 263.253 47.4258 265.269 48.2648C266.973 48.9744 268.604 49.8905 270.146 50.9011C270.903 51.3975 271.637 51.9326 272.363 52.473C273.087 53.0114 273.74 53.6072 274.686 53.6412C275.095 53.656 275.493 53.2695 275.472 52.8566Z" fill="black"/>
</g>
<mask id="mask22_3522_18474" style="mask-type:luminance" maskUnits="userSpaceOnUse" x="0" y="0" width="360" height="202">
<path d="M0 0H360V202H0V0Z" fill="white"/>
</mask>
<g mask="url(#mask22_3522_18474)">
<path d="M251.124 46.0686C248.381 46.2858 245.758 47.8593 243.399 49.1777C241.711 50.121 243.225 52.7118 244.916 51.7665C247.206 50.4866 249.849 49.5647 251.885 47.902C252.592 47.3242 252.022 45.9975 251.124 46.0686Z" fill="black"/>
</g>
<mask id="mask23_3522_18474" style="mask-type:luminance" maskUnits="userSpaceOnUse" x="0" y="0" width="360" height="202">
<path d="M0 0H360V202H0V0Z" fill="white"/>
</mask>
<g mask="url(#mask23_3522_18474)">
<path d="M252.717 74.4221C253.987 74.7245 255.321 74.885 256.626 74.9028C257.573 74.9157 258.56 74.8506 259.462 74.5418C260.546 74.1705 261.578 73.5411 262.506 72.8775C263.01 72.5171 263.514 72.1331 263.954 71.6953C264.211 71.4402 263.813 71.0433 263.557 71.2986C263.227 71.6268 262.857 71.9223 262.485 72.2008C261.584 72.8747 260.598 73.4792 259.556 73.9092C258.714 74.2568 257.779 74.3385 256.876 74.3428C255.998 74.3471 255.118 74.2695 254.251 74.1387C253.787 74.0688 253.322 73.9897 252.866 73.881C252.514 73.7974 252.364 74.3383 252.717 74.4221Z" fill="white"/>
</g>
<mask id="mask24_3522_18474" style="mask-type:luminance" maskUnits="userSpaceOnUse" x="0" y="0" width="360" height="202">
<path d="M0 0H360V202H0V0Z" fill="white"/>
</mask>
<g mask="url(#mask24_3522_18474)">
<path d="M249.385 152.661C249.385 152.661 260.779 154.74 262.014 155.162C263.248 155.584 285.271 154.825 287.155 168.837C289.255 184.457 266.942 184.904 266.942 184.904L234.111 187.379C234.111 187.379 231.257 186.851 231.103 185.466C230.814 182.887 232.73 182.606 232.73 182.606C232.73 182.606 226.797 183.788 225.895 179.78C225.322 177.237 228.926 177.197 228.926 177.197C228.926 177.197 224.427 177.302 223.771 173.93C223.12 170.579 228.473 170.05 228.473 170.05C228.473 170.05 226.058 169.57 225.803 166.977C225.554 164.44 230.044 163.147 230.044 163.147L253.539 160.574L247.319 157.79C247.319 157.79 244.859 156.237 245.92 154.294C247.262 151.837 249.385 152.661 249.385 152.661Z" fill="#FFCA0A"/>
<path d="M228.473 170.331C229.083 170.276 229.693 170.222 230.303 170.168C231.768 170.037 233.234 169.907 234.699 169.776C236.472 169.618 238.246 169.46 240.019 169.302L244.621 168.893C245.368 168.826 246.117 168.77 246.864 168.693C246.875 168.692 246.885 168.691 246.896 168.69C247.254 168.658 247.257 168.097 246.896 168.129C246.286 168.183 245.676 168.238 245.066 168.292C243.601 168.422 242.135 168.553 240.67 168.683C238.897 168.841 237.123 168.999 235.35 169.157L230.748 169.567C230 169.633 229.251 169.689 228.505 169.767C228.494 169.768 228.483 169.768 228.473 169.77C228.115 169.801 228.111 170.363 228.473 170.331Z" fill="black"/>
<path d="M229.227 177.177C229.837 177.122 230.447 177.068 231.057 177.014C232.523 176.883 233.988 176.753 235.453 176.622C237.227 176.464 239 176.307 240.773 176.149L245.376 175.739C246.123 175.672 246.872 175.616 247.618 175.539C247.629 175.538 247.64 175.537 247.651 175.536C248.008 175.504 248.012 174.943 247.651 174.975C247.041 175.029 246.431 175.084 245.821 175.138C244.355 175.269 242.89 175.399 241.424 175.529C239.651 175.687 237.878 175.845 236.104 176.003C234.57 176.14 233.036 176.276 231.502 176.413C230.755 176.48 230.006 176.536 229.26 176.613C229.249 176.614 229.238 176.615 229.227 176.616C228.869 176.648 228.866 177.209 229.227 177.177Z" fill="black"/>
<path d="M231.92 182.888C232.454 182.839 232.987 182.79 233.521 182.742C234.803 182.625 236.085 182.508 237.367 182.391C238.91 182.25 240.453 182.11 241.996 181.969C243.337 181.847 244.678 181.724 246.019 181.602C246.672 181.543 247.325 181.493 247.977 181.424C247.986 181.423 247.995 181.422 248.005 181.421C248.362 181.388 248.366 180.827 248.005 180.86C247.471 180.909 246.937 180.957 246.403 181.006C245.121 181.123 243.839 181.24 242.557 181.357C241.014 181.497 239.471 181.638 237.929 181.779C236.587 181.901 235.246 182.023 233.905 182.146C233.253 182.205 232.599 182.255 231.947 182.324C231.938 182.325 231.929 182.326 231.92 182.327C231.562 182.359 231.559 182.921 231.92 182.888Z" fill="black"/>
</g>
<mask id="mask25_3522_18474" style="mask-type:luminance" maskUnits="userSpaceOnUse" x="0" y="0" width="360" height="202">
<path d="M0 0H360V202H0V0Z" fill="white"/>
</mask>
<g mask="url(#mask25_3522_18474)">
<path d="M275.528 180.764C275.528 180.764 268.581 179.688 265.035 170.724C260.642 159.618 276.122 157.951 276.122 157.951L333.33 146.946C333.33 146.946 347.078 148.621 346.785 163.127C346.528 175.851 335.267 178.217 335.267 178.217L275.528 180.764Z" fill="#FFCA0A"/>
</g>
<mask id="mask26_3522_18474" style="mask-type:luminance" maskUnits="userSpaceOnUse" x="0" y="0" width="360" height="202">
<path d="M0 0H360V202H0V0Z" fill="white"/>
</mask>
<g mask="url(#mask26_3522_18474)">
<path d="M296.349 117.336C296.349 117.336 290.475 100.758 307.454 95.2624C321.925 90.5784 329.864 107.208 329.864 107.208L345.967 156.715C345.967 156.715 347.74 170.301 333.591 174.88C321.182 178.897 312.946 168.363 312.946 168.363L296.349 117.336Z" fill="#FFCA0A"/>
<path d="M299.681 134.977C299.681 134.977 283.51 103.012 306.801 95.4737C329.23 88.2142 337.773 122.648 337.773 122.648L299.681 134.977Z" fill="white"/>
</g>
</g>
<defs>
<clipPath id="clip0_3522_18474">
<rect width="360" height="202" rx="20" fill="white"/>
</clipPath>
</defs>
</svg>
