<svg width="27" height="30" viewBox="0 0 27 30" fill="none" xmlns="http://www.w3.org/2000/svg">
<path d="M25.4505 7.56963C26.5157 8.28784 26.8027 9.73043 26.0936 10.8017L14.69 28.03C13.9694 29.1186 12.5035 29.4181 11.4137 28.6995L9.93776 27.7263C9.67776 27.5549 9.60336 27.2066 9.77061 26.9439V26.9439C10.2441 26.2123 10.4161 25.3083 10.2441 24.4475C10.0721 23.5868 9.55535 22.8119 8.82372 22.3384C8.09206 21.865 7.18808 21.6929 6.32734 21.865C5.46659 22.037 4.6917 22.5537 4.21825 23.2853V23.2853C4.05043 23.525 3.72232 23.5876 3.47804 23.4266L1.98783 22.444C0.890677 21.7205 0.589204 20.2438 1.315 19.1482L11.3198 4.04594L13.3376 0.986496C13.6975 0.440841 14.4306 0.288455 14.9781 0.645494V0.645494L15.6236 1.07603L15.9251 1.29129L17.506 2.35659C17.7343 2.51042 17.8131 2.80973 17.6901 3.05602V3.05602C17.2167 3.78768 17.0447 4.69166 17.2167 5.55241C17.3887 6.41315 17.9054 7.18804 18.637 7.6615C19.3687 8.13496 20.2295 8.30699 21.1334 8.13496C21.9942 7.96293 22.7691 7.44624 23.2425 6.71461V6.71461C23.4098 6.47562 23.7378 6.4148 23.9797 6.5779L25.4505 7.56963ZM21.1539 14.7151C21.4036 14.884 21.7431 14.8173 21.9103 14.5665V14.5665C22.0758 14.318 22.0099 13.9825 21.7626 13.8153L21.1992 13.4341C20.9495 13.2652 20.61 13.3319 20.4428 13.5828V13.5828C20.2772 13.8312 20.3432 14.1667 20.5905 14.334L21.1539 14.7151ZM18.7866 13.1659C19.0363 13.3348 19.3757 13.2681 19.5429 13.0173V13.0173C19.7085 12.7689 19.6426 12.4334 19.3953 12.2661L18.8318 11.8849C18.5821 11.716 18.2427 11.7828 18.0755 12.0336V12.0336C17.9099 12.282 17.9758 12.6175 18.2231 12.7848L18.7866 13.1659ZM16.4622 11.5732C16.7119 11.7421 17.0514 11.6754 17.2185 11.4245V11.4245C17.3841 11.1761 17.3182 10.8406 17.0709 10.6733L16.5075 10.2922C16.2578 10.1233 15.9183 10.19 15.7511 10.4408V10.4408C15.5855 10.6893 15.6515 11.0248 15.8987 11.192L16.4622 11.5732ZM14.0952 10.0237C14.3449 10.1926 14.6843 10.1259 14.8515 9.87505V9.87505C15.0171 9.62663 14.9512 9.29113 14.7039 9.12385L14.1404 8.74271C13.8907 8.57381 13.5513 8.64053 13.3841 8.89136V8.89136C13.2185 9.13979 13.2844 9.47529 13.5317 9.64257L14.0952 10.0237ZM12.4839 8.32591C12.6496 8.0775 12.5838 7.7419 12.3364 7.57459L11.7729 7.19339C11.5233 7.02455 11.184 7.09118 11.0167 7.34186V7.34186C10.851 7.59027 10.9169 7.92587 11.1642 8.09318L11.7277 8.47437C11.9774 8.64322 12.3167 8.57659 12.4839 8.32591V8.32591Z" fill="url(#paint0_linear_3369_1191)"/>
<defs>
<linearGradient id="paint0_linear_3369_1191" x1="8.40515" y1="26.7431" x2="25.0463" y2="15.402" gradientUnits="userSpaceOnUse">
<stop stop-color="#DB8909"/>
<stop offset="0.475508" stop-color="#CD16CA"/>
<stop offset="1" stop-color="#4CE9DF"/>
</linearGradient>
</defs>
</svg>
