<svg width="512" height="512" viewBox="0 0 512 512" fill="none" xmlns="http://www.w3.org/2000/svg">
<g clip-path="url(#clip0_3868_66)">
<path d="M512 512H0V180.293H512V512Z" fill="#00AA8E"/>
<path d="M512 512H256V180.293H512V512Z" fill="#008475"/>
<path d="M30 210.293H482V482H30V210.293Z" fill="#B0EEAE"/>
<path d="M256 210.293H482V482H256V210.293Z" fill="#00DC7B"/>
<path d="M482 331.146H415.6V210.293H385.6V331.147H264.216L222.8 266.337V210.294H192.8V255.721H126.4V210.294H96.4V255.721H30V285.721H96.4V482H126.4V435.945H241V482H271V435.945H385.6V482H415.6V361.146H482V331.146ZM126.4 405.945V285.72H199.584L241 350.53V405.945H126.4ZM385.6 405.945H271V361.147H385.6V405.945Z" fill="#E7F2FF"/>
<path d="M415.6 331.146V210.293H385.6V331.147H264.216L256 318.289V482H271V435.945H385.6V482H415.6V361.146H482V331.146H415.6ZM385.6 405.945H271V361.147H385.6V405.945Z" fill="#D0E8FF"/>
<path d="M403.462 199.788L320.696 282.507L237.93 199.788C227.057 188.921 218.431 176.018 212.546 161.816C206.661 147.615 203.633 132.393 203.633 117.02C203.633 52.391 256.024 0 320.652 0H320.74C385.368 0 437.76 52.391 437.76 117.019C437.76 132.392 434.731 147.614 428.846 161.816C422.961 176.018 414.335 188.921 403.462 199.788Z" fill="#FF4949"/>
<path d="M320.74 0H320.652L320.696 282.507L403.462 199.788C414.336 188.921 422.961 176.018 428.846 161.816C434.731 147.615 437.76 132.393 437.759 117.02C437.76 52.391 385.368 0 320.74 0Z" fill="#FF001E"/>
<path d="M320.696 166.954C348.274 166.954 370.631 144.597 370.631 117.019C370.631 89.4406 348.274 67.084 320.696 67.084C293.117 67.084 270.761 89.4406 270.761 117.019C270.761 144.597 293.117 166.954 320.696 166.954Z" fill="#F3D6AE"/>
<path d="M320.696 67.084V166.954C348.23 166.954 370.63 144.553 370.63 117.019C370.631 89.485 348.23 67.084 320.696 67.084Z" fill="#FFC373"/>
</g>
<defs>
<clipPath id="clip0_3868_66">
<rect width="512" height="512" fill="white"/>
</clipPath>
</defs>
</svg>
