<svg width="27" height="30" viewBox="0 0 27 30"  xmlns="http://www.w3.org/2000/svg">
<path d="M23.0476 5.07047C17.7777 -0.410208 9.22229 -0.410208 3.95241 5.07047C-1.31747 10.5511 -1.31747 19.4488 3.95241 24.9295C9.22229 30.4101 17.7777 30.4101 23.0476 24.9295C28.3175 19.4488 28.3175 10.5173 23.0476 5.07047ZM19.6319 15.795C19.4367 15.998 19.144 16.1333 18.8512 16.1333H14.6223V20.5314C14.6223 20.8359 14.4922 21.1404 14.297 21.3433C14.1018 21.5463 13.809 21.6817 13.5163 21.6817C12.8982 21.6817 12.4102 21.1742 12.4102 20.5314V16.1333H8.18132C7.56325 16.1333 7.0753 15.6258 7.0753 14.983C7.0753 14.3403 7.56325 13.8328 8.18132 13.8328H12.4102V9.43471C12.4102 8.79191 12.8982 8.28444 13.5163 8.28444C14.1343 8.28444 14.6223 8.79191 14.6223 9.43471V13.8328H18.8512C19.4693 13.8328 19.9572 14.3403 19.9572 14.983C19.9247 15.2875 19.8271 15.592 19.6319 15.795Z"/>
</svg>
