<svg width="515" height="527" viewBox="0 0 515 527" fill="none" xmlns="http://www.w3.org/2000/svg">
<path d="M260.331 509.115C289.398 499.253 304.968 467.695 295.107 438.628C285.245 409.561 253.687 393.991 224.62 403.853C195.553 413.714 179.983 445.272 189.845 474.339C199.706 503.406 231.264 518.976 260.331 509.115Z" fill="#FFE266"/>
<path d="M242.585 400.845C239.047 400.845 235.59 401.19 232.236 401.823C248.513 405.629 260.639 420.223 260.639 437.66C260.639 457.994 244.156 474.475 223.824 474.475C206.387 474.475 191.792 462.349 187.986 446.073C187.339 449.485 187.012 452.949 187.009 456.422C187.009 487.116 211.892 511.999 242.586 511.999C273.281 511.999 298.163 487.116 298.163 456.422C298.162 425.728 273.279 400.845 242.585 400.845Z" fill="#EFAA66"/>
<path d="M392.998 13.8904C377.593 4.99619 357.895 10.2743 349 25.6795L322.314 71.9025C313.42 87.3078 318.698 107.006 334.103 115.9C349.508 124.794 369.206 119.516 378.1 104.111L404.787 57.8878C413.681 42.4825 408.403 22.7846 392.998 13.8904Z" fill="#FFE266"/>
<path d="M377.737 478.796C355.721 443.881 431.191 289.371 432.165 287.398C473.046 204.554 441.431 105.439 361.549 66.0194C281.667 26.5996 183.769 61.8023 142.887 144.647C140.793 148.891 68.0813 303.788 26.2773 305.358L377.737 478.796Z" fill="#FFE266"/>
<path d="M361.549 66.0195C353.015 61.8043 344.114 58.376 334.957 55.7773C377.754 89.7968 392.011 151.612 365.969 204.386C365.585 205.166 349.241 238.622 336.895 273.176C324.579 307.65 285.126 323.839 252.297 307.639L96.5729 230.792C73.5002 268.56 46.3338 304.605 26.2773 305.358L377.737 478.795C355.721 443.88 431.191 289.37 432.165 287.398C473.046 204.554 441.431 105.439 361.549 66.0195Z" fill="#EFAA66"/>
<path d="M201.29 150.542C198.919 150.544 196.62 149.73 194.78 148.236C190.331 144.636 189.642 138.113 193.24 133.664C202.922 121.687 214.42 111.301 227.316 102.882C232.106 99.7518 238.528 101.101 241.656 105.893C244.785 110.684 243.437 117.105 238.645 120.233C227.558 127.47 217.674 136.4 209.351 146.696C208.38 147.899 207.152 148.869 205.757 149.535C204.362 150.2 202.836 150.544 201.29 150.542ZM264.54 106.755C260.182 106.755 256.127 103.984 254.697 99.6182C252.914 94.1805 255.878 88.3274 261.315 86.5453C265.253 85.2542 269.301 84.1228 273.347 83.1799C278.919 81.8806 284.491 85.3454 285.789 90.9188C287.088 96.4911 283.623 102.062 278.05 103.362C274.583 104.17 271.153 105.129 267.769 106.237C266.698 106.587 265.609 106.755 264.54 106.755Z" fill="white"/>
<path d="M349.184 497.081L26.9474 338.064C14.4392 331.892 9.30304 316.748 15.4753 304.239L15.8815 303.417C22.0537 290.908 37.1979 285.772 49.7061 291.945L371.943 450.961C384.451 457.134 389.587 472.278 383.415 484.786L383.009 485.609C376.837 498.118 361.694 503.254 349.184 497.081Z" fill="#FFE266"/>
<path d="M292.046 479.252C290.457 479.252 288.891 478.885 287.468 478.179L198.888 434.467C193.756 431.935 191.649 425.722 194.182 420.59C196.714 415.459 202.925 413.351 208.059 415.883L296.639 459.595C301.771 462.128 303.877 468.34 301.346 473.472C300.49 475.208 299.165 476.669 297.521 477.69C295.877 478.711 293.981 479.252 292.046 479.252Z" fill="#D0844B"/>
<path d="M40.68 102.094L49.1908 126.026C49.5555 127.051 50.2766 127.863 51.1874 128.274L72.4499 137.854C75.4537 139.207 75.4537 143.993 72.4499 145.347L51.1874 154.927C50.2766 155.337 49.5555 156.149 49.1908 157.173L40.68 181.106C39.478 184.487 35.2247 184.487 34.0228 181.106L25.512 157.173C25.1473 156.149 24.4261 155.336 23.5153 154.927L2.25282 145.347C-0.750939 143.994 -0.750939 139.208 2.25282 137.854L23.5153 128.274C24.4261 127.863 25.1473 127.051 25.512 126.026L34.0228 102.094C35.2247 98.7126 39.477 98.7126 40.68 102.094ZM146.352 1.88059L152.665 19.6327C152.936 20.3932 153.471 20.9952 154.146 21.2998L169.918 28.4056C172.147 29.4097 172.147 32.9595 169.918 33.9635L154.146 41.0693C153.471 41.3739 152.936 41.9759 152.665 42.7364L146.352 60.4885C145.46 62.997 142.306 62.997 141.414 60.4885L135.101 42.7364C134.83 41.9759 134.296 41.3739 133.62 41.0693L117.848 33.9635C115.621 32.9595 115.621 29.4097 117.848 28.4056L133.62 21.2998C134.296 20.9952 134.83 20.3932 135.101 19.6327L141.414 1.88059C142.306 -0.626862 145.46 -0.626862 146.352 1.88059Z" fill="#FEF2A8"/>
<path d="M510.126 86.9267C512.353 76.9069 506.035 66.979 496.015 64.7522C485.995 62.5253 476.068 68.8428 473.841 78.8626C471.614 88.8824 477.931 98.8103 487.951 101.037C497.971 103.264 507.899 96.9466 510.126 86.9267Z" fill="#FFE266"/>
<path d="M56.4219 59.1218C60.8493 59.1218 64.4384 55.5326 64.4384 51.1052C64.4384 46.6778 60.8493 43.0886 56.4219 43.0886C51.9944 43.0886 48.4053 46.6778 48.4053 51.1052C48.4053 55.5326 51.9944 59.1218 56.4219 59.1218Z" fill="#FFE266"/>
</svg>
