<svg width="33" height="27" viewBox="0 0 33 27" xmlns="http://www.w3.org/2000/svg">
<path d="M4.22307 6.74645C4.11232 6.74599 4.00256 6.76742 3.90011 6.80948C3.79766 6.85155 3.70452 6.91344 3.62604 6.99159C3.54757 7.06974 3.4853 7.16263 3.44281 7.26491C3.40033 7.36719 3.37845 7.47685 3.37845 7.5876V8.43222H0.844614C0.620608 8.43222 0.405777 8.5212 0.247382 8.6796C0.0889858 8.83799 0 9.05282 0 9.27683V14.3445C0 14.5685 0.0889858 14.7833 0.247382 14.9417C0.405777 15.1001 0.620608 15.1891 0.844614 15.1891H3.37845V16.0303C3.37845 16.2543 3.46744 16.4691 3.62584 16.6275C3.78423 16.7859 3.99906 16.8749 4.22307 16.8749H4.73191L8.1346 25.9233C8.2368 26.1875 8.40445 26.4214 8.62182 26.6031C8.83919 26.7847 9.09914 26.9081 9.37729 26.9618C9.49096 26.987 9.60702 26.9997 9.72344 26.9999C9.94316 27.0017 10.161 26.9591 10.3638 26.8746C10.5667 26.7902 10.7503 26.6656 10.9038 26.5083L12.9323 24.4972C13.1841 24.2466 13.3499 23.9226 13.4059 23.5718C13.4619 23.2209 13.4051 22.8614 13.2438 22.5449L10.3984 16.8749H12.6346C12.9254 16.8749 13.2127 16.9337 13.5 16.9614V6.65991C13.2092 6.68414 12.9219 6.7326 12.6277 6.74645H4.22307Z"/>
<path d="M26.8268 0.318461C26.7378 0.198931 26.6182 0.105647 26.4806 0.0484616H26.4322C26.3563 0.0217355 26.2771 0.00543286 26.1968 0C26.1416 0.00620157 26.0871 0.0177954 26.0341 0.0346154H25.9372C25.7954 0.0811179 25.6687 0.164794 25.5703 0.276923H25.546C22.9156 3.46507 19.2552 5.63557 15.196 6.41422V17.2073C19.2436 17.9857 22.8942 20.1482 25.5218 23.3238C25.5218 23.3238 25.5218 23.3238 25.546 23.3446C25.6085 23.4084 25.6795 23.4632 25.7572 23.5073C25.7794 23.5246 25.8025 23.5407 25.8264 23.5557C25.9355 23.6042 26.0532 23.6301 26.1726 23.6319C26.2695 23.6318 26.3657 23.6142 26.4564 23.58C26.5942 23.5215 26.7138 23.4271 26.8026 23.3065C26.8229 23.2826 26.8415 23.2571 26.8579 23.2303C26.9438 23.1007 26.9918 22.9496 26.9964 22.7942V0.834229C26.9918 0.678781 26.9438 0.527712 26.8579 0.398076C26.8496 0.370775 26.8392 0.344157 26.8268 0.318461Z"/>
<path d="M30.2422 14.6707L29.7905 15.625L31.6521 16.5062L32.1038 15.5519L30.2422 14.6707Z"/>
<path d="M30.8277 11.2443L30.8032 12.2998L32.8623 12.3476L32.8868 11.2921L30.8277 11.2443Z"/>
<path d="M31.8727 7.08362L29.9722 7.87744L30.3791 8.85164L32.2796 8.05782L31.8727 7.08362Z"/>
</svg>
