<svg width="22" height="28" viewBox="0 0 22 28"  xmlns="http://www.w3.org/2000/svg">
<path d="M15.1489 17.1616H6.48169C2.84698 17.4936 0 20.549 0 24.2708C0 27.8253 2.59778 28.0001 5.99947 28.0001C6.37031 28.0001 6.75111 27.9979 7.13969 27.9979H14.4928C14.8792 27.9979 15.2606 28.0001 15.6315 28.0001C19.0332 28.0001 21.6316 27.8256 21.6316 24.2708C21.6312 20.5487 18.7833 17.4933 15.1489 17.1616Z"/>
<path d="M4.64844 9.92176C4.64844 13.3275 7.40986 16.0889 10.8156 16.0889C14.2219 16.0889 16.9834 13.3275 16.9834 9.92176C16.9834 9.86918 16.9806 9.81692 16.9793 9.76465H4.65248C4.65124 9.81692 4.64844 9.86887 4.64844 9.92176Z"/>
<path d="M4.23591 8.69182H17.3956C17.9086 8.69182 18.3243 8.27618 18.3243 7.76347C18.3243 7.25076 17.9086 6.83542 17.3956 6.83542H17.143C17.143 4.36924 15.7308 2.2344 13.6728 1.19031L13.148 4.16329C13.1069 4.3988 12.9016 4.56462 12.6704 4.56462C12.6427 4.56462 12.6144 4.56213 12.5861 4.55716C12.3223 4.51018 12.1462 4.2588 12.1935 3.99467L12.7915 0.598889C12.5671 0.239556 12.1689 0 11.7135 0H9.91773C9.46288 0 9.06466 0.239556 8.84004 0.598889L9.43862 3.99498C9.48528 4.2588 9.30919 4.51018 9.04537 4.55747C9.01706 4.56244 8.98875 4.56493 8.96106 4.56493C8.72959 4.56493 8.52457 4.39942 8.48319 4.1636L7.95897 1.19124C5.90035 2.2344 4.48884 4.36924 4.48884 6.83542H4.23591C3.72319 6.83542 3.30786 7.25076 3.30786 7.76347C3.30786 8.27618 3.72319 8.69182 4.23591 8.69182Z"/>
</svg>
