<svg width="28" height="28" viewBox="0 0 28 28"  xmlns="http://www.w3.org/2000/svg">
<path d="M1.61337 12.2616H26.1366C26.5644 12.2612 26.9745 12.0911 27.277 11.7887C27.5795 11.4862 27.7496 11.076 27.75 10.6483V8.06688C27.7496 7.63911 27.5795 7.22897 27.277 6.92649C26.9745 6.62401 26.5644 6.4539 26.1366 6.45351H19.1783C19.7115 6.22621 20.1818 5.8735 20.5494 5.42538C20.917 4.97726 21.1709 4.44699 21.2896 3.87968C21.3269 3.38154 21.2618 2.88102 21.0981 2.40906C20.9344 1.93709 20.6757 1.5037 20.3379 1.13566C20.0518 0.790294 19.6951 0.510236 19.2916 0.314341C18.8882 0.118445 18.4475 0.0112592 17.9992 0C17.1073 0.0340514 16.244 0.324247 15.5126 0.835893C14.7813 1.34754 14.2127 2.05899 13.875 2.88518C13.537 2.05917 12.9684 1.34789 12.2371 0.83629C11.5058 0.324686 10.6426 0.0343764 9.75081 2.5849e-05C9.30248 0.011285 8.86177 0.118471 8.45835 0.314367C8.05493 0.510262 7.69816 0.79032 7.41207 1.13568C7.07419 1.50391 6.81541 1.93752 6.65173 2.40971C6.48805 2.88191 6.42294 3.38265 6.46043 3.881C6.5789 4.44799 6.83258 4.97799 7.19988 5.42588C7.56719 5.87377 8.03726 6.22631 8.57008 6.45351H1.61337C1.1856 6.4539 0.775463 6.62401 0.472983 6.92649C0.170503 7.22897 0.00039642 7.63911 0 8.06688V10.6483C0.00039642 11.076 0.170503 11.4862 0.472983 11.7887C0.775463 12.0911 1.1856 12.2612 1.61337 12.2616ZM15.3075 4.71409C15.3603 4.00932 15.6586 3.34538 16.1504 2.83781C16.6422 2.33023 17.2964 2.01115 17.9992 1.93607C18.1729 1.95099 18.3416 2.00169 18.4947 2.08499C18.6479 2.16829 18.7821 2.28238 18.889 2.42008C19.2013 2.75151 19.3728 3.19117 19.3674 3.6465C19.2968 4.22756 18.371 4.71157 17.2984 5.27373C16.5852 5.60356 15.8435 5.86807 15.0825 6.06403L15.3075 4.71409ZM8.86093 2.42008C8.96784 2.28238 9.10209 2.16829 9.25524 2.08499C9.40839 2.00169 9.57712 1.95099 9.75081 1.93607C10.4535 2.01125 11.1077 2.33036 11.5994 2.83792C12.0912 3.34547 12.3895 4.00935 12.4425 4.71409L12.6675 6.06529C11.9064 5.86976 11.1649 5.6048 10.4522 5.27373L10.4516 5.27244C9.37897 4.71281 8.45318 4.22753 8.38264 3.64773C8.37697 3.192 8.54845 2.75186 8.86093 2.42008Z"/>
<path d="M10.3256 27.7502V13.5525H1.93604V25.4914C1.9389 26.0896 2.17779 26.6625 2.60076 27.0854C3.02374 27.5084 3.59659 27.7473 4.19475 27.7502H10.3256Z"/>
<path d="M15.4882 13.5525H12.2615V27.7502H15.4882V13.5525Z" />
<path d="M25.8138 25.4914V13.5525H17.4243V27.7502H23.5551C24.1533 27.7473 24.7261 27.5084 25.1491 27.0854C25.5721 26.6625 25.811 26.0896 25.8138 25.4914Z"/>
</svg>
