<svg width="416" height="543" viewBox="0 0 416 543" fill="none" xmlns="http://www.w3.org/2000/svg">
<path fill-rule="evenodd" clip-rule="evenodd" d="M314.52 39.3417C283 19.7303 246.141 8.69215 208.15 7.91016C170.187 8.69215 133.328 19.7303 101.809 39.3417C-13.8197 111.288 -57.4999 298.641 180.055 520.162C201.764 539.171 215.319 541.367 236.273 520.162C473.828 298.641 430.149 111.286 314.52 39.3417Z" fill="black"/>
<path fill-rule="evenodd" clip-rule="evenodd" d="M236.273 520.163C473.828 298.641 430.148 111.287 314.519 39.3418C288.573 23.1894 258.998 12.8728 228.176 9.26416C237.492 13.3248 246.46 18.0168 255.051 23.3709C370.679 95.287 414.36 282.64 176.805 504.192C174.425 506.598 172.103 508.733 169.897 510.538C173.235 513.726 176.601 516.944 180.055 520.163C201.764 539.171 215.319 541.368 236.273 520.163Z" fill="#393838"/>
<path fill-rule="evenodd" clip-rule="evenodd" d="M208.15 52.124C125.259 52.124 58.0706 121.754 58.0706 207.655C58.0706 293.557 125.259 363.187 208.15 363.187C291.04 363.187 358.229 293.557 358.229 207.655C358.229 121.754 291.04 52.124 208.15 52.124Z" fill="#DFF6FD"/>
<path fill-rule="evenodd" clip-rule="evenodd" d="M111.502 326.643C137.623 349.442 171.348 363.188 208.15 363.188C244.98 363.188 278.705 349.442 304.826 326.643C296.554 292.655 273.161 272.924 240.046 274.308C228.437 297.467 187.892 297.467 176.282 274.308C143.167 272.924 119.745 292.655 111.502 326.643Z" fill="#6FD7A3"/>
<path fill-rule="evenodd" clip-rule="evenodd" d="M176.282 274.308C187.891 297.467 228.436 297.467 240.046 274.308V244.14C234.648 248.32 228.756 251.719 222.546 254.035C211.836 258.006 204.493 258.006 193.783 254.035C187.572 251.719 181.681 248.32 176.283 244.14V274.308H176.282Z" fill="#FFB09E"/>
<path fill-rule="evenodd" clip-rule="evenodd" d="M176.282 247.358C181.68 251.509 187.572 254.937 193.782 257.224C204.492 261.224 211.835 261.224 222.545 257.224C228.727 254.938 234.647 251.509 240.045 247.358C256.559 234.605 268.256 214.815 268.256 198.211V187.654C219.649 187.654 202.799 123.83 148.071 177.067V198.211C148.072 214.815 159.739 234.605 176.282 247.358Z" fill="#FFDFCF"/>
<path fill-rule="evenodd" clip-rule="evenodd" d="M148.072 177.066C200.894 150.628 211.517 201.188 268.257 187.654V165.968C268.257 96.1579 148.072 96.1579 148.072 165.968V177.066Z" fill="#025F80"/>
<path d="M176.282 274.308C187.891 297.467 228.436 297.467 240.046 274.308" stroke="black" stroke-width="15" stroke-miterlimit="10" stroke-linecap="round" stroke-linejoin="round"/>
<path fill-rule="evenodd" clip-rule="evenodd" d="M151.932 351.908C169.288 359.187 188.269 363.187 208.15 363.187C244.98 363.187 278.705 349.441 304.826 326.642C301.459 312.837 295.626 301.378 287.644 292.745C260.188 329.349 217.292 352.9 169.084 352.9C163.354 352.905 157.627 352.574 151.932 351.908Z" fill="#3EC3A4"/>
<path fill-rule="evenodd" clip-rule="evenodd" d="M319.164 197.369C319.164 233.312 307.409 266.427 287.644 292.745C287.731 292.864 287.818 292.955 287.905 293.045C295.742 301.647 301.517 312.986 304.826 326.642C312.241 320.151 319.044 312.94 325.142 305.107C345.836 278.428 358.228 244.561 358.228 207.655C358.228 180.225 351.379 154.448 339.363 132.07C316.348 89.2695 274.439 58.9212 225.302 53.1162C280.33 76.1867 319.164 132.07 319.164 197.369Z" fill="#C8EFFE"/>
<path fill-rule="evenodd" clip-rule="evenodd" d="M246.228 200.467C246.228 222.394 225.824 249.914 200.836 259.389C208.12 261.014 214.361 260.291 222.545 257.224C228.727 254.938 234.647 251.509 240.045 247.358C256.559 234.605 268.256 214.815 268.256 198.211V187.654C265.092 180.597 248.753 174.761 246.228 189.939V200.467Z" fill="#FFCEBF"/>
<path fill-rule="evenodd" clip-rule="evenodd" d="M246.228 168.254V189.94C252.787 190.241 260.043 189.609 268.256 187.655V165.969C268.256 123.679 224.169 107.017 189.4 115.95C218.336 117.152 246.228 134.597 246.228 168.254Z" fill="#024C67"/>
<path d="M268.257 187.654V165.968C268.257 96.1579 148.072 96.1579 148.072 165.968V187.203" stroke="black" stroke-width="15" stroke-miterlimit="10" stroke-linecap="round" stroke-linejoin="round"/>
<path d="M347.606 65.0277C436.127 150.057 449.449 321.35 236.273 520.162C214.564 539.171 201.009 541.367 180.055 520.162C-122.279 238.245 30.9054 11.6398 208.15 7.91016C247.447 8.72186 285.526 20.5123 317.771 41.3864" stroke="black" stroke-width="15" stroke-miterlimit="10" stroke-linecap="round" stroke-linejoin="round"/>
<path d="M111.502 326.643C119.774 292.626 143.167 272.924 176.282 274.308V247.358M304.826 326.643C296.554 292.626 273.161 272.924 240.046 274.308V247.358" stroke="black" stroke-width="15" stroke-miterlimit="10" stroke-linecap="round" stroke-linejoin="round"/>
<path d="M268.257 187.654C211.517 201.188 200.894 150.628 148.072 177.066V198.211C148.072 220.228 168.621 247.869 193.783 257.224C204.493 261.224 211.836 261.224 222.546 257.224C247.68 247.869 268.257 220.228 268.257 198.211V187.654Z" stroke="black" stroke-width="15" stroke-miterlimit="10" stroke-linecap="round" stroke-linejoin="round"/>
<path d="M86.7748 116.16C114.056 77.3591 158.259 52.124 208.15 52.124C291.04 52.124 358.229 121.754 358.229 207.655C358.229 293.557 291.04 363.187 208.15 363.187C125.259 363.187 58.0706 293.557 58.0706 207.655C58.0706 186.932 61.989 167.141 69.0997 149.064" stroke="black" stroke-width="15" stroke-miterlimit="10" stroke-linecap="round" stroke-linejoin="round"/>
</svg>
