<svg width="84" height="109" viewBox="0 0 84 109" fill="none" xmlns="http://www.w3.org/2000/svg">
<mask id="mask0_1354_8544" style="mask-type:alpha" maskUnits="userSpaceOnUse" x="0" y="0" width="84" height="109">
<rect y="0.684326" width="84" height="108.316" fill="#D9D9D9"/>
</mask>
<g mask="url(#mask0_1354_8544)">
<mask id="mask1_1354_8544" style="mask-type:luminance" maskUnits="userSpaceOnUse" x="-29" y="0" width="361" height="204">
<path d="M-28.7368 0.684133H331.088V203.085H-28.7368V0.684133Z" fill="white"/>
</mask>
<g mask="url(#mask1_1354_8544)">
<path d="M57.1919 109.919L58.3454 109.726C63.6226 108.842 67.1843 103.848 66.3007 98.5704L60.7605 65.3195C59.8769 60.0422 54.8598 56.515 49.5825 57.3988L48.429 57.592C43.1518 58.4757 39.5903 63.4701 40.4739 68.7474L46.0366 101.964C46.9202 107.241 51.9146 110.803 57.1919 109.919Z" fill="#00345C"/>
<path d="M57.6456 94.9772H57.1748C51.9723 94.9772 47.7549 99.1944 47.7549 104.397V135.422C47.7549 140.624 51.9723 144.842 57.1748 144.842H57.6456C62.8478 144.842 67.0653 140.624 67.0653 135.422V104.397C67.0653 99.1944 62.8478 94.9772 57.6456 94.9772Z" fill="#00345C"/>
<path d="M60.3676 83.2326C60.3242 79.1944 57.299 63.4766 54.9528 60.8401C53.8636 59.6162 53.3318 58.6707 52.0433 57.8386C46.0086 53.9414 38.3404 56.257 32.2134 56.0456C25.1661 55.8026 25.8953 54.5876 15.6889 57.0177L15.6849 57.0659C10.6406 57.5565 6.69775 61.8079 6.69775 66.9809C6.69775 70.8712 8.92867 74.2383 12.1796 75.8789C11.6082 81.057 11.4471 86.5509 10.9493 92.2537C10.1787 101.083 13.5933 104.201 14.9259 108.603C18.7241 108.325 50.3319 105.498 61.3472 106.843C61.9812 91.7933 60.5294 98.2484 60.3676 83.2326Z" fill="#00345C"/>
<path d="M34.1973 42.7856C33.8795 47.6129 33.5616 52.4403 33.2438 57.2676C33.2007 57.9205 33.5071 58.4254 33.9717 58.8863C37.0592 61.9489 40.1732 61.6978 44.4769 60.9519C46.6918 56.6906 48.806 53.0026 49.3101 48.2266C46.5337 48.2163 44.9482 45.6185 42.4783 44.3505C40.4721 43.3203 37.1739 41.7582 34.982 42.289C34.9543 42.4471 34.8259 42.3266 34.982 42.289C35.592 38.8064 34.743 42.3748 34.6072 42.289" fill="#FFCA0A"/>
<path d="M11.0466 88.3659H25.5282C25.5282 88.3659 26.505 80.5897 26.3811 71.8415C26.3133 67.0549 23.6997 55.2054 23.2219 55.56H29.5402C29.5402 55.56 32.5182 57.2405 34.1106 68.4876C35.8583 80.8326 34.4003 88.123 34.4003 88.123L57.0209 87.8799C57.0209 87.8799 56.757 77.6736 55.0599 69.1683C54.0422 64.0691 48.0088 56.0459 48.0088 56.0459L52.6631 57.9901C52.6631 57.9901 57.8421 62.6071 60.0211 71.5984C61.19 76.4217 61.8144 84.2348 61.8144 84.2348L62.3461 109.194L10.8286 109.205L11.0466 88.3659Z" fill="#E94D28"/>
</g>
<mask id="mask2_1354_8544" style="mask-type:luminance" maskUnits="userSpaceOnUse" x="-29" y="0" width="361" height="204">
<path d="M-28.7368 0.684133H331.088V203.085H-28.7368V0.684133Z" fill="white"/>
</mask>
<g mask="url(#mask2_1354_8544)">
<path d="M35.0482 31.1488C34.7088 34.0158 34.3696 36.924 34.8008 39.7786C35.2319 42.6332 36.5355 45.4771 38.8892 47.1488C40.4297 48.2431 41.3292 49.3314 43.1518 49.8302C44.9331 50.3175 47.0647 50.7759 48.846 51.2632C50.0087 51.5814 51.8404 51.3606 53.02 51.1116C55.2173 50.6475 56.5251 48.4292 57.4606 46.3874C60.2105 40.3863 62.1295 33.6336 60.6169 27.2083C59.1044 20.7828 53.2332 15.0393 46.6544 15.5808C42.2119 15.9462 38.3161 19.0679 36.1453 22.9611C33.9744 26.8543 33.3226 31.4248 33.3119 35.8824C33.3068 38.0865 33.4586 40.3369 34.2859 42.38C35.6459 45.7387 38.7171 48.1749 42.0678 49.5548" fill="#FFCA0A"/>
<path d="M34.2326 45.5625C31.9578 45.905 29.9835 40.1147 29.3905 37.8918C28.9001 36.0535 29.0584 34.049 29.8315 32.3106C30.4865 30.8376 31.5693 29.539 31.9147 27.9644C32.1889 26.7153 31.9695 25.4168 32.0032 24.1385C32.1194 19.7565 36.3809 14.4305 40.4347 12.763C44.4887 11.0954 54.9375 12.248 58.4823 14.8269C64.8484 19.4581 68.6041 27.6509 63.8902 30.0615C60.9173 31.5818 61.0836 33.8755 52.8104 27.8409C50.4146 26.0931 48.3611 25.1196 45.4331 26.7999C41.4769 29.0705 40.2553 32.1088 40.2681 32.606C40.3243 34.821 37.7476 32.7758 36.3646 32.8721C34.2738 33.0175 33.5799 36.1019 34.8257 37.7871C36.0716 39.4722 35.5568 39.2121 37.6013 39.6728C36.0143 41.995 36.4521 47.2902 34.2326 45.5625Z" fill="black"/>
<path d="M54.748 36.1399C54.5602 36.8103 54.3726 37.4808 54.1848 38.1512C54.0094 38.7777 53.7712 39.4179 53.7502 40.0738C53.7399 40.3962 53.7729 40.7196 53.7961 41.0409L53.8311 41.5279C53.8375 41.6164 53.8448 41.7048 53.8503 41.7935C53.8538 41.8501 53.8278 41.8892 53.8608 41.8613C53.8208 41.8952 53.6342 41.8952 53.5825 41.9007C53.4983 41.9095 53.4136 41.9155 53.3291 41.9196C53.1881 41.9264 53.0468 41.9264 52.9059 41.9202C52.5568 41.9046 52.2155 41.8437 51.8795 41.7491C51.6132 41.6741 51.4996 42.0881 51.7653 42.1629C52.4305 42.3501 53.1233 42.4007 53.8075 42.3017C54.1003 42.2594 54.2894 42.1616 54.2826 41.8377C54.2751 41.4696 54.2288 41.0986 54.203 40.7314C54.1765 40.3577 54.1565 39.9841 54.2328 39.6147C54.3083 39.2498 54.4232 38.8918 54.5234 38.5333C54.7361 37.7736 54.949 37.0138 55.1617 36.2541C55.2363 35.9878 54.8224 35.874 54.748 36.1399Z" fill="black"/>
<path d="M38.9303 35.1239C38.513 34.7682 38.0252 34.3936 37.4449 34.4237C36.9389 34.4502 36.5034 34.7624 36.2243 35.1715C35.62 36.057 35.881 37.3522 36.691 38.0167C37.1616 38.4028 37.7716 38.5968 38.3786 38.5463C38.6518 38.5237 38.6543 38.0943 38.3786 38.1172C37.245 38.2113 36.2427 37.3201 36.3282 36.1578C36.3651 35.6584 36.6438 35.1631 37.1061 34.9428C37.6724 34.6728 38.2099 35.0718 38.6269 35.4273C38.8361 35.6055 39.141 35.3034 38.9303 35.1239Z" fill="black"/>
<path d="M37.3095 42.8533C39.6261 45.674 42.4945 48.0364 45.705 49.7728C46.6052 50.2597 47.5319 50.6937 48.4791 51.0809C48.7343 51.1855 48.8456 50.7705 48.593 50.6671C45.2657 49.3063 42.211 47.2892 39.6452 44.7722C38.9281 44.0686 38.2505 43.3261 37.6129 42.5499C37.4377 42.3364 37.1356 42.6415 37.3095 42.8533Z" fill="black"/>
</g>
<mask id="mask3_1354_8544" style="mask-type:luminance" maskUnits="userSpaceOnUse" x="-29" y="0" width="361" height="204">
<path d="M-28.7368 0.684133H331.088V203.085H-28.7368V0.684133Z" fill="white"/>
</mask>
<g mask="url(#mask3_1354_8544)">
<path d="M67.055 31.4169C67.055 31.4169 72.7668 33.8076 73.0732 32.9628C73.2775 32.3996 67.2711 27.9565 66.5252 27.2877C66.3151 27.0993 66.0747 26.9352 65.956 26.6481C65.8211 26.322 65.8694 25.902 65.9154 25.5077C66.1133 23.8098 66.2158 22.0818 65.8904 20.5194C65.5038 18.6624 64.0701 15.7321 63.0482 14.373C60.2699 10.6782 54.4068 7.9696 54.4068 7.9696C53.8539 5.62344 44.7755 2.97704 44.541 6.49433C44.541 6.49433 39.5509 7.675 37.9888 9.37686C35.0819 12.5441 32.908 15.7178 32.4149 21.0322C32.3492 21.7413 32.6445 22.8746 32.4314 23.6233C32.0649 24.9102 26.865 25.6752 27.3472 27.5272C27.8971 29.6385 38.9283 22.8064 67.055 31.4169Z" fill="#E94D28"/>
<path d="M32.6101 24.1372C36.8214 22.7643 41.2862 22.5279 45.6845 22.5352C50.1469 22.5427 54.696 22.6932 58.9832 24.0538C61.3849 24.8158 63.6531 25.9268 65.9104 27.0323C66.1514 27.1502 66.3635 26.7896 66.1216 26.6712C64.0953 25.6788 62.062 24.6841 59.9317 23.9314C57.8044 23.1801 55.5921 22.7283 53.3536 22.4698C51.1001 22.2095 48.8296 22.1406 46.5629 22.1216C44.3076 22.1027 42.049 22.1336 39.8012 22.3295C37.3268 22.5452 34.8639 22.9629 32.499 23.7339C32.2441 23.8171 32.3532 24.221 32.6101 24.1372Z" fill="black"/>
<path d="M44.6644 6.8339C47.1183 7.57866 49.3933 8.88621 51.1379 10.7813C52.4983 12.2592 53.5227 14.0761 53.9722 16.0403C54.1741 16.9229 54.2541 17.8367 54.1523 18.7383C54.1432 18.8196 54.2226 18.9244 54.3043 18.9377C56.0373 19.2227 57.7275 19.731 59.4605 20.0158C59.7212 20.0586 59.8333 19.6598 59.5707 19.6167C57.8377 19.3318 56.1473 18.8234 54.4143 18.5385C54.4651 18.605 54.5157 18.6716 54.5663 18.7383C54.7687 16.9482 54.285 15.1089 53.5045 13.5077C52.4988 11.4453 50.9081 9.69825 49.0121 8.4175C47.7134 7.54043 46.2724 6.88919 44.7744 6.43472C44.519 6.35713 44.4097 6.75669 44.6644 6.8339Z" fill="black"/>
<path d="M53.9365 8.09794C55.9328 9.40193 57.949 10.9938 59.0536 13.1617C59.7398 14.5086 59.9104 15.9762 59.8279 17.4684C59.7876 18.1959 59.7018 18.9206 59.6683 19.6487C59.6557 19.9238 60.0834 19.923 60.0959 19.6487C60.1589 18.275 60.3819 16.9101 60.2112 15.5347C59.985 13.7093 59.1053 12.1089 57.8718 10.7642C56.787 9.58165 55.4915 8.60357 54.1523 7.72874C53.9212 7.57788 53.7068 7.94782 53.9365 8.09794Z" fill="black"/>
<path d="M41.7428 7.68771C42.4902 7.41746 43.4256 7.81271 44.0787 8.16354C44.8609 8.58333 45.6934 9.2164 46.0142 10.077C46.0825 10.2603 46.3789 10.181 46.3098 9.99546C45.9591 9.05504 45.0933 8.3605 44.2335 7.89873C43.5095 7.51004 42.4876 7.09343 41.6613 7.39216C41.4773 7.45869 41.5567 7.75499 41.7428 7.68771Z" fill="black"/>
</g>
<mask id="mask4_1354_8544" style="mask-type:luminance" maskUnits="userSpaceOnUse" x="-29" y="0" width="361" height="204">
<path d="M-28.7368 0.684133H331.088V203.085H-28.7368V0.684133Z" fill="white"/>
</mask>
<g mask="url(#mask4_1354_8544)">
<path d="M12.3414 110.012C6.67381 109.748 2.29388 104.939 2.55851 99.2713L4.07445 66.7972C4.33889 61.1296 9.14779 56.7496 14.8154 57.0143C20.4828 57.2787 24.8628 62.0876 24.5983 67.7552L23.0824 100.229C22.8178 105.897 18.0088 110.277 12.3414 110.012Z" fill="#00345C"/>
</g>
<mask id="mask5_1354_8544" style="mask-type:luminance" maskUnits="userSpaceOnUse" x="-29" y="0" width="361" height="204">
<path d="M-28.7368 0.684133H331.088V203.085H-28.7368V0.684133Z" fill="white"/>
</mask>
<g mask="url(#mask5_1354_8544)">
<path d="M3.97291 102.593C2.12768 97.5897 4.6875 92.0381 9.69037 90.1927L38.3566 79.6195C43.3596 77.7741 48.9112 80.3339 50.7565 85.3369C52.6017 90.3398 50.0419 95.8914 45.039 97.7366L16.3728 108.31C11.3697 110.155 5.81813 107.595 3.97291 102.593Z" fill="#00345C"/>
</g>
<mask id="mask6_1354_8544" style="mask-type:luminance" maskUnits="userSpaceOnUse" x="-29" y="0" width="361" height="204">
<path d="M-28.7368 0.684133H331.088V203.085H-28.7368V0.684133Z" fill="white"/>
</mask>
<g mask="url(#mask6_1354_8544)">
<path d="M50.5082 80.6903C47.1311 79.1856 49.1467 75.6871 52.0815 74.0536C55.396 72.2088 59.0149 68.9126 59.9879 69.0701C60.9605 69.2273 61.8408 69.6834 61.2128 70.8592C60.9109 71.4243 57.6912 75.5493 57.4453 76.3065C56.8304 78.1993 53.6256 82.0794 50.5082 80.6903Z" fill="#FFCA0A"/>
</g>
<mask id="mask7_1354_8544" style="mask-type:luminance" maskUnits="userSpaceOnUse" x="-29" y="0" width="361" height="204">
<path d="M-28.7368 0.684133H331.088V203.085H-28.7368V0.684133Z" fill="white"/>
</mask>
<g mask="url(#mask7_1354_8544)">
<path d="M67.0611 93.9785L55.2786 91.2691C54.3576 91.0137 53.8181 90.06 54.0737 89.1391L62.812 57.6516C63.0676 56.7307 64.0214 56.1913 64.9423 56.4469L77.6896 59.5635C78.6106 59.8192 79.1499 60.7729 78.8943 61.6938L69.1914 92.7738C68.9358 93.6948 67.9821 94.2341 67.0611 93.9785Z" fill="#1FFF49"/>
<path d="M68.4644 94.9788L56.6818 92.2696C55.7609 92.0139 55.2215 91.0602 55.477 90.1393L64.2153 58.652C64.4709 57.7311 65.4246 57.1916 66.3456 57.4472L77.8796 59.9377C78.8005 60.1933 79.3399 61.1472 79.0843 62.0681L70.5947 93.7741C70.339 94.695 69.3853 95.2344 68.4644 94.9788Z" fill="black"/>
</g>
<mask id="mask8_1354_8544" style="mask-type:luminance" maskUnits="userSpaceOnUse" x="-29" y="0" width="361" height="204">
<path d="M-28.7368 0.684133H331.088V203.085H-28.7368V0.684133Z" fill="white"/>
</mask>
<g mask="url(#mask8_1354_8544)">
<path d="M52.406 91.2301C56.307 90.2348 73.5364 85.2244 73.8109 84.8408C74.9856 83.2 73.0238 82.7244 72.5476 82.7889C73.8027 82.292 74.5203 82.1965 75.7753 81.6996C76.1132 81.5658 76.7487 81.2021 76.8717 80.8477C77.0229 80.4125 76.9836 79.6559 76.5655 79.3812C76.1473 79.1065 75.6554 79.0493 75.1901 79.0317C75.8979 78.8885 76.6391 78.7283 77.1384 78.2268C77.6374 77.7251 77.7782 76.7629 77.2338 76.1602C76.5715 75.4269 75.5023 75.7029 74.7079 76.0444C75.3201 75.6683 74.8316 74.1233 74.0874 73.866C73.8448 73.782 73.5943 73.7927 73.3516 73.8084C67.0603 74.2177 61.8091 75.9179 55.3491 77.7603C55.1791 77.8088 54.9492 77.7427 54.8347 77.5781C54.7342 77.4335 52.9154 72.8446 46.3389 77.7925C45.8241 78.1797 41.3341 82.6607 42.5394 86.6092C43.7165 90.4657 46.8977 92.292 47.8595 91.9537" fill="#FFCA0A"/>
<path d="M74.6748 75.7877C72.8806 76.0156 71.0925 76.2913 69.3198 76.6518C67.9173 76.9371 66.5276 77.2783 65.1412 77.6327C64.3301 77.8402 63.5195 78.0497 62.7073 78.2525C62.4395 78.3192 62.5529 78.7332 62.8214 78.6663C65.6828 77.9521 68.5245 77.1869 71.4351 76.6927C72.5114 76.51 73.592 76.3544 74.6748 76.2169C74.9451 76.1824 74.9485 75.7528 74.6748 75.7877Z" fill="black"/>
<path d="M75.2702 78.6563C71.9922 79.363 68.7287 80.1353 65.4556 80.8643C65.2093 80.9192 64.9629 80.9741 64.7162 81.0264C64.6469 81.0412 64.5776 81.0549 64.5082 81.0692C64.4878 81.0735 64.4602 81.0733 64.4411 81.0817C64.4439 81.0806 64.5144 81.0697 64.5689 81.1072C64.6017 81.188 64.6347 81.2686 64.6675 81.3495L64.6677 81.349C64.7498 81.0845 64.3358 80.9715 64.2539 81.2348L64.2537 81.2354C64.2239 81.331 64.2751 81.4247 64.3523 81.4777C64.4451 81.5414 64.5896 81.4899 64.6898 81.4696C64.8725 81.4325 65.0547 81.3921 65.2367 81.352C65.8971 81.2065 66.5564 81.0568 67.2159 80.9072C69.0424 80.4932 70.8681 80.0759 72.6954 79.6653C73.591 79.464 74.4868 79.2635 75.3841 79.0701C75.654 79.0118 75.5398 78.598 75.2702 78.6563Z" fill="black"/>
<path d="M72.7886 82.4175C71.5901 82.4664 70.4227 82.7689 69.2788 83.1109C67.9591 83.5054 66.653 83.943 65.3121 84.2642C65.0437 84.3285 65.1575 84.7425 65.4262 84.678C66.7417 84.363 68.0241 83.9363 69.3183 83.547C70.4493 83.2071 71.6027 82.895 72.7886 82.8467C73.0637 82.8352 73.0652 82.4061 72.7886 82.4175Z" fill="black"/>
</g>
<mask id="mask9_1354_8544" style="mask-type:luminance" maskUnits="userSpaceOnUse" x="-29" y="0" width="361" height="204">
<path d="M-28.7368 0.684133H331.088V203.085H-28.7368V0.684133Z" fill="white"/>
</mask>
<g mask="url(#mask9_1354_8544)">
<path d="M57.6074 38.1624C57.4596 38.8998 57.8319 39.0788 58.299 39.2681C58.5782 39.3813 58.9461 39.3442 59.1166 39.0959C59.1972 38.9789 59.2233 38.8322 59.2246 38.6899C59.2287 38.2484 58.9718 37.7887 58.5527 37.6491C58.1338 37.5095 57.599 37.7936 57.5598 38.2334" fill="black"/>
</g>
<mask id="mask10_1354_8544" style="mask-type:luminance" maskUnits="userSpaceOnUse" x="-29" y="0" width="361" height="204">
<path d="M-28.7368 0.684133H331.088V203.085H-28.7368V0.684133Z" fill="white"/>
</mask>
<g mask="url(#mask10_1354_8544)">
<path d="M48.1366 37.1426C48.2547 37.5656 48.8276 37.7135 49.2288 37.5352C49.6302 37.357 49.8889 36.9653 50.1078 36.5845C50.1868 36.447 50.2661 36.2978 50.2564 36.1392C50.2292 35.7061 49.6179 35.598 49.2088 35.7427C48.7528 35.9039 48.3534 36.22 48.0918 36.6265" fill="black"/>
</g>
<mask id="mask11_1354_8544" style="mask-type:luminance" maskUnits="userSpaceOnUse" x="-29" y="0" width="361" height="204">
<path d="M-28.7368 0.684133H331.088V203.085H-28.7368V0.684133Z" fill="white"/>
</mask>
<g mask="url(#mask11_1354_8544)">
<path d="M56.9852 34.749C57.5034 35.1032 58.1841 35.2098 58.7817 35.3869C59.4517 35.5854 60.1065 35.823 60.7442 36.1088C60.8938 35.5563 61.0435 35.004 61.1933 34.4516C60.6065 34.4098 60.0407 34.3106 59.4755 34.1446C58.9202 33.9813 58.4177 33.6909 57.8647 33.5379C56.8141 33.2469 56.3819 34.6105 57.1672 35.1922C58.2309 35.9804 59.9067 36.1791 61.1933 36.2303C62.2769 36.2734 62.2896 34.8369 61.4296 34.4834C60.2109 33.9821 58.4695 33.2162 57.1381 33.5788C56.5781 33.7313 56.5444 34.4476 56.9852 34.749Z" fill="black"/>
</g>
<mask id="mask12_1354_8544" style="mask-type:luminance" maskUnits="userSpaceOnUse" x="-29" y="0" width="361" height="204">
<path d="M-28.7368 0.684133H331.088V203.085H-28.7368V0.684133Z" fill="white"/>
</mask>
<g mask="url(#mask12_1354_8544)">
<path d="M45.088 32.6757C46.1729 33.0798 47.3761 32.8899 48.5152 33.0535C49.1227 33.1407 49.7264 33.2614 50.3257 33.3942C50.4663 33.4254 51.9622 33.6849 51.9933 33.7897C52.1597 33.4964 52.3263 33.2031 52.4929 32.9098C51.9543 32.9936 51.2969 32.7694 50.7635 32.6737C50.1258 32.559 49.4893 32.4345 48.8523 32.315C47.8394 32.1249 46.4852 31.5022 45.4894 31.8298C44.9906 31.9939 44.7807 32.6268 45.1757 33.0177C45.6684 33.5054 46.1666 33.5213 46.8335 33.6538C47.5873 33.8037 48.3439 33.945 49.1044 34.0554C50.3047 34.2299 51.6692 34.5061 52.8733 34.2893C53.2442 34.2226 53.4815 33.7524 53.373 33.4094C53.1893 32.8294 52.8049 32.579 52.238 32.4053C51.3533 32.1337 50.3936 31.9759 49.4786 31.847C48.0573 31.6465 46.1714 31.3371 45.0022 32.3508C44.8822 32.4548 44.9623 32.6289 45.088 32.6757Z" fill="black"/>
</g>
<mask id="mask13_1354_8544" style="mask-type:luminance" maskUnits="userSpaceOnUse" x="-29" y="0" width="361" height="204">
<path d="M-28.7368 0.684133H331.088V203.085H-28.7368V0.684133Z" fill="white"/>
</mask>
<g mask="url(#mask13_1354_8544)">
<path d="M48.2546 44.3072C48.7138 45.2881 49.6405 46 50.6158 46.4227C51.6934 46.8897 52.9203 47.0606 54.072 46.7877C54.7403 46.6295 55.3531 46.3113 55.8724 45.863C56.0817 45.6824 55.7772 45.3799 55.569 45.5596C53.91 46.9912 51.2548 46.6597 49.63 45.3379C49.2098 44.9959 48.8558 44.5832 48.6251 44.0905C48.5082 43.8407 48.138 44.0583 48.2546 44.3072Z" fill="black"/>
</g>
</g>
</svg>
