<svg width="512" height="512" viewBox="0 0 512 512" fill="none" xmlns="http://www.w3.org/2000/svg">
<path d="M300 359H212L143.953 374.38C98.369 384.684 66 425.186 66 471.92V502H446V471.92C446 425.186 413.631 384.684 368.047 374.381L300 359Z" fill="#6E83B7"/>
<path d="M256 423C289.782 423 317.515 396.686 319.826 363.481L300 359H212L192.174 363.481C194.485 396.686 222.219 423 256 423Z" fill="#EDEFF1"/>
<path d="M212 309.188V359C212 383.301 231.699 403 256 403C280.301 403 300 383.301 300 359V309.188H212Z" fill="#FFD3B3"/>
<path d="M212 331.897C225.499 337.748 240.376 341 256 341C271.624 341 286.501 337.749 300 331.897V309.187H212V331.897Z" fill="#FCB98B"/>
<path d="M347 170V230C347 280.258 306.258 321 256 321C205.742 321 165 280.258 165 230V170H347Z" fill="#FFD3B3"/>
<path d="M323 170L347 230V170H323ZM189 170L165 230V170H189Z" fill="#6E83B7"/>
<path d="M151 219H165V170H151C145.477 170 141 174.477 141 180V209C141 214.523 145.477 219 151 219ZM361 219H347V170H361C366.523 170 371 174.477 371 180V209C371 214.523 366.523 219 361 219Z" fill="#FFD3B3"/>
<path d="M366.143 472H376.143V502H366.143V472ZM135.857 472H145.857V502H135.857V472Z" fill="#466089"/>
<path d="M149 170V131C149 72 197 24 256 24C315 24 363 72 363 131V170H149Z" fill="#FFE352"/>
<path d="M256 140.37C311.556 140.37 390 152 390 152V170H122V152C122 152 200.444 140.37 256 140.37Z" fill="#FFE352"/>
<path d="M256 24C234.241 24 213.989 30.545 197.078 41.746L203.4 142.889H308.6L314.922 41.746C298.011 30.545 277.759 24 256 24Z" fill="#FFB236"/>
<path d="M217.481 128.519H294.518L301.374 18.825C287.345 13.153 272.038 10 256 10C239.962 10 224.655 13.153 210.626 18.825L217.481 128.519ZM351 437.661V370.527L323 364.198V437C323 459.091 305.091 477 283 477H229C206.909 477 189 459.091 189 437V364.199L161 370.528V437.662C161 445.701 158.578 453.553 154.049 460.195L146 472V502H366V472L357.951 460.195C353.422 453.553 351 445.7 351 437.661Z" fill="#FFE352"/>
</svg>
