<svg width="211" height="64" viewBox="0 0 211 64" fill="none" xmlns="http://www.w3.org/2000/svg">
<mask id="mask0_1354_8523" style="mask-type:luminance" maskUnits="userSpaceOnUse" x="70" y="0" width="141" height="64">
<path d="M178.897 -4.19617e-05C178.691 -4.19617e-05 178.532 0.0627861 178.418 0.188194C178.303 0.314137 178.246 0.468418 178.246 0.651314C178.246 1.8404 177.596 2.4348 176.296 2.4348C174.972 2.4348 174.31 1.8404 174.31 0.651314C174.31 0.468418 174.253 0.314137 174.139 0.188194C174.025 0.0627861 173.865 -4.19617e-05 173.66 -4.19617e-05H170.785C170.58 -4.19617e-05 170.42 0.0627861 170.306 0.188194C170.192 0.314137 170.135 0.468418 170.135 0.651314C170.135 2.13774 170.637 3.33806 171.641 4.25253C172.645 5.16701 174.196 5.62425 176.296 5.62425C178.372 5.62425 179.912 5.16701 180.916 4.25253C181.92 3.33806 182.422 2.13774 182.422 0.651314C182.422 0.468418 182.365 0.314137 182.251 0.188194C182.136 0.0627861 181.977 -4.19617e-05 181.771 -4.19617e-05H178.897ZM142.874 9.13963C140.969 10.7745 139.971 13.1008 139.88 16.1188C139.857 16.7817 139.845 17.7763 139.845 19.1023C139.845 20.4286 139.857 21.4115 139.88 22.0516C139.994 25.1154 140.986 27.4361 142.857 29.0137C144.728 30.5913 147.283 31.3801 150.524 31.3801C153.764 31.3801 156.313 30.5913 158.173 29.0137C160.033 27.4361 161.019 25.1154 161.133 22.0516C161.179 20.7714 161.202 19.7882 161.202 19.1023C161.202 18.4395 161.179 17.4448 161.133 16.1188C161.042 13.1008 160.044 10.7745 158.139 9.13963C156.234 7.5048 153.695 6.68738 150.524 6.68738C147.329 6.68738 144.78 7.5048 142.874 9.13963ZM147.648 25.1555C146.941 24.4354 146.565 23.3322 146.519 21.846C146.496 21.1829 146.485 20.2342 146.485 18.9997C146.485 17.7876 146.496 16.8616 146.519 16.2215C146.565 14.7356 146.941 13.6323 147.648 12.912C148.356 12.1919 149.314 11.8317 150.524 11.8317C151.71 11.8317 152.657 12.1919 153.364 12.912C154.071 13.6323 154.448 14.7356 154.494 16.2215C154.539 17.502 154.562 18.428 154.562 18.9997C154.562 19.5711 154.539 20.52 154.494 21.846C154.448 23.3322 154.071 24.4354 153.364 25.1555C152.657 25.8756 151.71 26.236 150.524 26.236C149.314 26.236 148.356 25.8756 147.648 25.1555ZM74.5944 9.10514C72.7117 10.717 71.7135 13.0093 71.5996 15.9816C71.5766 16.6217 71.5654 17.6504 71.5654 19.0681C71.5654 20.4628 71.5766 21.4687 71.5996 22.0861C71.7135 25.1272 72.7005 27.4361 74.5599 29.0137C76.4199 30.5913 78.9807 31.3801 82.2439 31.3801C84.2745 31.3801 86.0941 31.0488 87.7027 30.3854C89.3113 29.7225 90.5833 28.7623 91.5189 27.5045C92.4545 26.2473 92.9449 24.7614 92.9906 23.0463C92.9906 22.8407 92.9165 22.6691 92.7679 22.5319C92.6197 22.3947 92.443 22.326 92.2376 22.326H87.3775C87.058 22.326 86.8187 22.3888 86.6588 22.5148C86.4989 22.6407 86.3738 22.8747 86.2823 23.2177C85.9858 24.3154 85.5007 25.0927 84.8277 25.5499C84.1547 26.0072 83.2931 26.236 82.2439 26.236C79.6655 26.236 78.3306 24.7953 78.2395 21.9145C78.2165 21.2516 78.2052 20.2799 78.2052 18.9997C78.2052 17.7191 78.2165 16.7701 78.2395 16.153C78.3306 13.2721 79.6655 11.8317 82.2439 11.8317C83.3161 11.8317 84.1774 12.0547 84.8277 12.5005C85.4783 12.9462 85.9628 13.7294 86.2823 14.8497C86.3965 15.1928 86.5275 15.427 86.6759 15.5527C86.8243 15.6787 87.058 15.7415 87.3775 15.7415H92.2376C92.443 15.7415 92.6197 15.6728 92.7679 15.5356C92.9165 15.3984 92.9906 15.227 92.9906 15.0212C92.9449 13.3064 92.4545 11.8202 91.5189 10.5629C90.5833 9.30514 89.3113 8.34494 87.7027 7.68208C86.0941 7.01896 84.2745 6.68738 82.2439 6.68738C79.0267 6.68738 76.4768 7.49331 74.5944 9.10514ZM182.114 7.03019C181.612 7.03019 181.224 7.24757 180.95 7.68208L171.504 21.3316V7.9222C171.504 7.67059 171.418 7.45907 171.247 7.28767C171.076 7.11627 170.865 7.03019 170.614 7.03019H165.959C165.708 7.03019 165.497 7.11627 165.326 7.28767C165.155 7.45907 165.069 7.67059 165.069 7.9222V30.1456C165.069 30.3972 165.149 30.6087 165.309 30.7801C165.469 30.9515 165.674 31.0373 165.925 31.0373H170.135C170.431 31.0373 170.665 30.9801 170.837 30.8656C171.008 30.7512 171.162 30.5913 171.299 30.3854L180.745 17.2846V30.1798C180.745 30.4311 180.83 30.637 181.001 30.7972C181.173 30.9574 181.384 31.0373 181.635 31.0373H186.323C186.574 31.0373 186.78 30.9515 186.94 30.7801C187.099 30.6087 187.179 30.4084 187.179 30.1798V7.9222C187.179 7.67059 187.099 7.45907 186.94 7.28767C186.78 7.11627 186.574 7.03019 186.323 7.03019H182.114ZM118.215 7.03019C117.964 7.03019 117.758 7.11627 117.599 7.28767C117.439 7.45907 117.359 7.67059 117.359 7.9222V30.1798C117.359 30.4084 117.445 30.6087 117.616 30.7801C117.787 30.9515 117.987 31.0373 118.215 31.0373H123.143C123.394 31.0373 123.6 30.9515 123.759 30.7801C123.919 30.6087 123.999 30.4084 123.999 30.1798V22.772H127.901C130.867 22.772 133.194 22.1263 134.882 20.8342C136.571 19.5425 137.415 17.5934 137.415 14.9869C137.415 12.3804 136.571 10.4028 134.882 9.05406C133.194 7.7048 130.867 7.03019 127.901 7.03019H118.215ZM123.896 11.9689H127.729C128.756 11.9689 129.515 12.2432 130.005 12.7919C130.496 13.3406 130.741 14.061 130.741 14.9524C130.741 15.9129 130.473 16.6389 129.937 17.1303C129.401 17.6218 128.665 17.8678 127.729 17.8678H123.896V11.9689ZM94.873 7.03019C94.6219 7.03019 94.411 7.11627 94.2399 7.28767C94.0687 7.45907 93.9832 7.67059 93.9832 7.9222V11.7633C93.9832 12.0146 94.0687 12.2205 94.2399 12.3804C94.411 12.5406 94.6219 12.6205 94.873 12.6205H100.897V30.1798C100.897 30.4311 100.982 30.637 101.153 30.7972C101.325 30.9574 101.535 31.0373 101.786 31.0373H106.544C106.795 31.0373 107.006 30.9574 107.177 30.7972C107.348 30.637 107.434 30.4311 107.434 30.1798V12.6205H113.457C113.708 12.6205 113.919 12.5406 114.091 12.3804C114.262 12.2205 114.347 12.0146 114.347 11.7633V7.9222C114.347 7.67059 114.262 7.45907 114.091 7.28767C113.919 7.11627 113.708 7.03019 113.457 7.03019H94.873ZM191.8 39.6112C191.549 39.6112 191.343 39.6968 191.184 39.8684C191.024 40.0398 190.944 40.2513 190.944 40.5027V62.7605C190.944 62.9891 191.03 63.1891 191.201 63.3608C191.372 63.5322 191.571 63.618 191.8 63.618H196.728C196.979 63.618 197.184 63.5322 197.344 63.3608C197.504 63.1891 197.584 62.9891 197.584 62.7605V55.353H201.485C204.452 55.353 206.779 54.707 208.467 53.4152C210.156 52.1232 211 50.1739 211 47.5677C211 44.9614 210.156 42.9835 208.467 41.6345C206.779 40.2858 204.452 39.6112 201.485 39.6112H191.8ZM197.481 44.5496H201.314C202.341 44.5496 203.1 44.8242 203.59 45.3729C204.081 45.9216 204.326 46.6417 204.326 47.5334C204.326 48.4936 204.058 49.2196 203.522 49.7111C202.986 50.2028 202.25 50.4483 201.314 50.4483H197.481V44.5496ZM169.827 39.6112C169.576 39.6112 169.37 39.6968 169.211 39.8684C169.051 40.0398 168.971 40.2513 168.971 40.5027V62.7605C168.971 62.9891 169.057 63.1891 169.228 63.3608C169.399 63.5322 169.599 63.618 169.827 63.618H186.255C186.506 63.618 186.717 63.5378 186.888 63.3779C187.059 63.2178 187.145 63.0121 187.145 62.7605V59.3652C187.145 59.1138 187.059 58.9023 186.888 58.7309C186.717 58.5593 186.506 58.4737 186.255 58.4737H175.166V54.0152H185.228C185.479 54.0152 185.69 53.9294 185.861 53.758C186.033 53.5866 186.118 53.3748 186.118 53.1235V50.0028C186.118 49.7512 186.033 49.5397 185.861 49.368C185.69 49.1969 185.479 49.1108 185.228 49.1108H175.166V44.7552H185.981C186.232 44.7552 186.443 44.6753 186.614 44.5154C186.785 44.3552 186.871 44.1496 186.871 43.898V40.5027C186.871 40.2513 186.785 40.0398 186.614 39.8684C186.443 39.6968 186.232 39.6112 185.981 39.6112H169.827ZM146.485 39.6112C146.234 39.6112 146.023 39.6968 145.852 39.8684C145.681 40.0398 145.595 40.2513 145.595 40.5027V44.3437C145.595 44.5953 145.681 44.8012 145.852 44.9614C146.023 45.1213 146.234 45.2012 146.485 45.2012H152.509V62.7605C152.509 63.0121 152.594 63.2178 152.765 63.3779C152.937 63.5378 153.148 63.618 153.399 63.618H158.156C158.407 63.618 158.618 63.5378 158.789 63.3779C158.96 63.2178 159.046 63.0121 159.046 62.7605V45.2012H165.069C165.321 45.2012 165.532 45.1213 165.703 44.9614C165.874 44.8012 165.959 44.5953 165.959 44.3437V40.5027C165.959 40.2513 165.874 40.0398 165.703 39.8684C165.532 39.6968 165.321 39.6112 165.069 39.6112H146.485ZM137.039 39.6112C136.788 39.6112 136.577 39.6968 136.405 39.8684C136.234 40.0398 136.149 40.2513 136.149 40.5027V48.6308H128.072V40.5027C128.072 40.2513 127.986 40.0398 127.815 39.8684C127.644 39.6968 127.433 39.6112 127.182 39.6112H122.493C122.242 39.6112 122.036 39.6968 121.877 39.8684C121.717 40.0398 121.637 40.2513 121.637 40.5027V62.7605C121.637 63.0121 121.717 63.2178 121.877 63.3779C122.036 63.5378 122.242 63.618 122.493 63.618H127.182C127.433 63.618 127.644 63.5378 127.815 63.3779C127.986 63.2178 128.072 63.0121 128.072 62.7605V54.3583H136.149V62.7605C136.149 63.0121 136.234 63.2178 136.405 63.3779C136.577 63.5378 136.788 63.618 137.039 63.618H141.693C141.944 63.618 142.155 63.5378 142.327 63.3779C142.498 63.2178 142.583 63.0121 142.583 62.7605V40.5027C142.583 40.2513 142.498 40.0398 142.327 39.8684C142.155 39.6968 141.944 39.6112 141.693 39.6112H137.039ZM104.319 39.6112C103.635 39.6112 103.178 39.9425 102.95 40.6059L94.9757 62.5891C94.9527 62.6576 94.9412 62.7605 94.9412 62.8977C94.9412 63.0806 95.0153 63.2464 95.1639 63.395C95.3121 63.5437 95.4776 63.618 95.6602 63.618H100.11C100.657 63.618 101.045 63.3667 101.273 62.8635L102.505 59.5369H111.472L112.705 62.8635C112.933 63.3667 113.321 63.618 113.868 63.618H118.318C118.5 63.618 118.665 63.5437 118.814 63.395C118.962 63.2464 119.036 63.0806 119.036 62.8977C119.036 62.7605 119.025 62.6576 119.002 62.5891L111.027 40.6059C110.799 39.9425 110.343 39.6112 109.658 39.6112H104.319ZM106.989 45.6473L110.035 54.3925H103.943L106.989 45.6473ZM87.1722 39.6112C86.693 39.6112 86.2938 39.8625 85.9743 40.3655L81.9698 46.3331L78.1023 40.3655C77.783 39.8625 77.3723 39.6112 76.8702 39.6112H71.6338C71.4512 39.6112 71.286 39.6855 71.1376 39.8339C70.9892 39.9826 70.9151 40.1486 70.9151 40.3315C70.9151 40.4687 70.9493 40.6059 71.0175 40.7431L77.8972 51.3745L70.4359 62.4862C70.3675 62.6233 70.3333 62.7605 70.3333 62.8977C70.3333 63.0806 70.4073 63.2464 70.5555 63.395C70.7041 63.5437 70.8694 63.618 71.052 63.618H76.2883C76.7905 63.618 77.19 63.3894 77.4865 62.9319L81.7647 56.553L86.1454 62.9319C86.4419 63.3894 86.8414 63.618 87.3433 63.618H92.7507C92.9336 63.618 93.0989 63.5437 93.2473 63.395C93.3957 63.2464 93.4698 63.0806 93.4698 62.8977C93.4698 62.7605 93.4355 62.6233 93.3671 62.4862L85.8374 51.3058L92.7852 40.7431C92.8537 40.6059 92.8879 40.4687 92.8879 40.3315C92.8879 40.1486 92.8136 39.9826 92.6655 39.8339C92.5171 39.6855 92.3515 39.6112 92.1692 39.6112H87.1722Z" fill="white"/>
</mask>
<g mask="url(#mask0_1354_8523)">
<path d="M68.5662 -1.76746H212.768V65.385H68.5662V-1.76746Z" fill="white"/>
</g>
<mask id="mask1_1354_8523" style="mask-type:luminance" maskUnits="userSpaceOnUse" x="0" y="6" width="57" height="58">
<path d="M16.3108 6.00826C10.6392 6.00826 8.58245 6.59893 6.50883 7.7078C4.43549 8.8164 2.80815 10.444 1.69928 12.5174C0.59041 14.591 0 16.6475 0 22.3191V47.6605C0 53.3321 0.59041 55.3889 1.69928 57.4622C2.80815 59.5358 4.43549 61.1629 6.50883 62.2718C8.58245 63.3809 10.6392 63.9713 16.3108 63.9713H56.5496L56.5494 49.4806C56.5611 44.7211 55.3827 41.1279 53.015 38.7008C50.6473 36.2739 47.1129 35.037 42.4119 34.9899C47.1244 34.9311 50.6588 33.6939 53.015 31.2788C55.3712 28.8637 56.5494 25.2703 56.5494 20.4992L56.5496 6.00826H16.3108Z" fill="white"/>
</mask>
<g mask="url(#mask1_1354_8523)">
<path d="M-1.76709 4.24108H58.3169V65.7388H-1.76709V4.24108Z" fill="#00C63F"/>
</g>
<mask id="mask2_1354_8523" style="mask-type:luminance" maskUnits="userSpaceOnUse" x="14" y="21" width="29" height="28">
<path d="M24.6061 31.3212C22.5483 33.3791 19.1765 34.6019 14.4907 34.9898C19.1765 35.3776 22.5483 36.6003 24.6061 38.6584C26.6639 40.7163 27.887 44.0881 28.2747 48.7736C28.6624 44.0881 29.8855 40.7163 31.943 38.6584C34.0011 36.6003 37.3729 35.3776 42.0587 34.9898C37.3729 34.6019 34.0011 33.3791 31.943 31.3212C29.8855 29.2634 28.6624 25.8913 28.2747 21.2059C27.887 25.8913 26.6639 29.2634 24.6061 31.3212Z" fill="white"/>
</mask>
<g mask="url(#mask2_1354_8523)">
<path d="M12.7234 19.4387H43.8257V50.541H12.7234V19.4387Z" fill="#FFD100"/>
</g>
</svg>
