<svg width="32" height="32" viewBox="0 0 32 32" xmlns="http://www.w3.org/2000/svg">
<path clip-rule="evenodd" d="M16.4453 20.9444L13.4352 23.9457C12.7248 24.6456 11.7665 25.0263 10.7807 25.0033C9.79336 24.9786 8.85935 24.5502 8.18207 23.8165C7.46263 23.1213 7.03647 22.1668 7.00035 21.1562C6.98078 20.1794 7.36483 19.2388 8.05567 18.5651L11.0658 15.5637C11.3473 15.2837 11.5038 14.9031 11.5038 14.5032C11.5038 14.1032 11.3473 13.7196 11.0658 13.4411C10.4743 12.8551 9.53199 12.8551 8.94049 13.4411L5.93032 16.4425C4.65702 17.6884 3.95828 19.4255 4.00193 21.2283C4.05762 23.0127 4.7969 24.7039 6.05967 25.9391C7.35555 27.2512 9.10351 27.9908 10.9277 28C12.6615 28.0031 14.3248 27.3096 15.5605 26.0683L18.5707 23.067C18.8521 22.787 19.0117 22.4064 19.0117 22.0065C19.0117 21.6066 18.8521 21.2228 18.5707 20.9444C17.9792 20.3552 17.0384 20.3552 16.4453 20.9444ZM10.4397 21.5603C11.0312 22.1463 11.9721 22.1463 12.5621 21.5603L21.5691 12.5564C21.8506 12.278 22.0101 11.8958 22.0101 11.4958C22.0101 11.0944 21.8506 10.7122 21.5691 10.4338C20.9776 9.84776 20.0381 9.84776 19.4466 10.4338L10.4397 19.4392C10.1567 19.7161 9.99581 20.0997 9.99581 20.5012C9.99581 20.9027 10.1567 21.2879 10.4397 21.5663V21.5603ZM25.9403 6.06105C23.3426 3.36456 19.1065 3.30613 16.4395 5.93185L13.4293 8.93467C13.1478 9.21154 12.9913 9.59525 12.9913 9.99519C12.9913 10.3951 13.1478 10.7773 13.4293 11.0557C14.0208 11.6402 14.9602 11.6402 15.5517 11.0557L18.5618 8.0544C19.2722 7.35297 20.229 6.97227 21.2163 6.99688C22.2037 7.02149 23.1392 7.44833 23.815 8.18359C24.5344 8.87732 24.959 9.83481 24.9966 10.8454C25.0162 11.8206 24.6351 12.7599 23.9443 13.4351L20.9341 16.4364C20.6527 16.7149 20.4933 17.0985 20.4933 17.4985C20.4933 17.8984 20.6527 18.2805 20.9341 18.5589C21.5256 19.145 22.4651 19.145 23.0566 18.5589L26.0668 15.5577C27.3386 14.3102 28.0417 12.5745 27.9981 10.7733C27.9424 8.99052 27.2016 7.29915 25.9403 6.06705V6.06105Z"/>
</svg>
