<svg width="100%" height="100%" viewBox="0 0 360 202" preserveAspectRatio="none" fill="none" xmlns="http://www.w3.org/2000/svg"><g clip-path="url(#clip0_3522_18474)">
<rect width="384" height="216" fill="white"/>
<g filter="url(#filter0_d_3796_1496)">
<mask id="mask0_3796_1496" style="mask-type:luminance" maskUnits="userSpaceOnUse" x="-18" y="0" width="421" height="216">
<path d="M379.669 0H5.33127C-7.55423 0 -18 9.52773 -18 21.2808V194.719C-18 206.472 -7.55423 216 5.33127 216H379.669C392.554 216 403 206.472 403 194.719V21.2808C403 9.52773 392.554 0 379.669 0Z" fill="white"/>
</mask>
<g mask="url(#mask0_3796_1496)">
<path d="M-18 215.451H403V0H-18V215.451Z" fill="#BAEAAD"/>
<path d="M-18 215.6H403V169H-18V215.6Z" fill="#75827B"/>
<path d="M378.87 0.000488281V26.3391H351.389V72.3401H311.417V0.000488281H271.802V60.4151H236.469V24.8143H226.119V52.7707H215.054V79.4563H194.533V110.76H175.796V10.0737H153.668V85.5559H141.534V37.2675H119.407V168.917L215.054 169.727L236.469 169.474H293.75V169.451H308.383H311.417H352.28V169.445H378.87V169.454H397.786V169.441H402.999V44.3838H397.786V0.000488281H378.87Z" fill="#5BC975"/>
<path d="M45.3043 169.64H47.5939V4.58569H45.3043V169.64Z" fill="#4B9B78"/>
<path d="M26.2078 169.801H28.4974V4.74658H26.2078V169.801Z" fill="#4B9B78"/>
<path d="M-18 157.6H46.5511V104.786H-18V157.6Z" fill="#74E570"/>
<path d="M-18 113.132H26.2078V83.3462H-18V113.132Z" fill="#74E570"/>
<path d="M-18 64.648H51.1242V59.6365H-18V64.648Z" fill="#4B9B78"/>
<path d="M-18 87.6811H51.1242V82.6694H-18V87.6811Z" fill="#4B9B78"/>
<path d="M-18 15.6758H51.1242V10.6641H-18V15.6758Z" fill="#4B9B78"/>
<path d="M-18 38.7091H51.1242V33.6975H-18V38.7091Z" fill="#4B9B78"/>
<path d="M30.7853 127.866H40.955V115.851H30.7853V127.866Z" fill="#4B9B78"/>
<path d="M30.7853 151.373H40.955V139.357H30.7853V151.373Z" fill="#4B9B78"/>
<path d="M265.892 153.687H268.303V0H265.892V153.687Z" fill="black"/>
<path d="M295.729 153.687H297.905V0H295.729V153.687Z" fill="black"/>
<path d="M297.654 22.2853H265.745V19.5549H297.654V22.2853Z" fill="black"/>
<path d="M271.386 0L294.834 21.3874L296.413 19.9482L274.542 0H271.386Z" fill="black"/>
<path d="M297.684 49.7346H265.774V47.0042H297.684V49.7346Z" fill="black"/>
<path d="M294.863 48.8372L265.654 22.195L267.232 20.7556L296.442 47.3979L294.863 48.8372Z" fill="black"/>
<path d="M297.745 74.8618H265.835V72.1313H297.745V74.8618Z" fill="black"/>
<path d="M294.924 73.9637L265.715 47.3215L267.293 45.8821L296.501 72.5242L294.924 73.9637Z" fill="black"/>
<path d="M296.928 101.11H265.019V98.3796H296.928V101.11Z" fill="black"/>
<path d="M294.108 100.212L264.899 73.5701L266.476 72.1306L295.686 98.7729L294.108 100.212Z" fill="black"/>
<path d="M296.959 128.56H265.048V125.829H296.959V128.56Z" fill="black"/>
<path d="M294.139 127.663L264.929 101.021L266.507 99.5811L295.716 126.223L294.139 127.663Z" fill="black"/>
<path d="M297.018 153.687H265.108V150.957H297.018V153.687Z" fill="black"/>
<path d="M294.198 152.789L264.989 126.148L266.567 124.708L295.775 151.35L294.198 152.789Z" fill="black"/>
<path d="M238.983 153.279H325.657V171.116H238.983V153.279Z" fill="black"/>
<mask id="mask1_3796_1496" style="mask-type:luminance" maskUnits="userSpaceOnUse" x="-18" y="0" width="422" height="216">
<path d="M-18 0H403V216H-18V0Z" fill="white"/>
</mask>
<g mask="url(#mask1_3796_1496)">
<path d="M342.186 114.78C340.855 113.296 339.524 111.812 338.193 110.329C336.091 107.985 333.988 105.64 331.884 103.296C331.406 102.762 330.927 102.229 330.448 101.695C330.15 101.362 329.517 101.172 329.065 101.172C328.585 101.172 328.013 101.367 327.682 101.695C327.34 102.035 327.086 102.481 327.109 102.957C327.134 103.456 327.336 103.833 327.682 104.218C329.012 105.702 330.343 107.185 331.674 108.669C333.778 111.013 335.88 113.357 337.983 115.702C338.462 116.236 338.941 116.77 339.419 117.303C339.718 117.636 340.351 117.825 340.803 117.825C341.282 117.825 341.855 117.632 342.186 117.303C342.528 116.963 342.782 116.517 342.759 116.042C342.735 115.542 342.532 115.165 342.186 114.78Z" fill="black"/>
<path d="M312.062 127.413L314.443 125.779L320.138 121.871C322.434 120.295 324.729 118.72 327.024 117.145C329.015 115.779 331.004 114.414 332.994 113.049C333.955 112.388 334.919 111.73 335.879 111.069C335.893 111.059 335.907 111.05 335.921 111.04C336.344 110.75 336.673 110.458 336.82 109.973C336.95 109.546 336.891 108.978 336.623 108.598C336.353 108.217 335.952 107.882 335.454 107.779C334.976 107.679 334.357 107.676 333.947 107.959C333.152 108.503 332.359 109.048 331.565 109.593L325.871 113.501C323.575 115.076 321.279 116.651 318.984 118.227C316.994 119.592 315.004 120.957 313.015 122.323C312.053 122.983 311.09 123.641 310.129 124.303C310.115 124.313 310.101 124.322 310.087 124.332C309.664 124.622 309.335 124.913 309.189 125.398C309.059 125.825 309.118 126.394 309.386 126.773C309.654 127.154 310.056 127.489 310.555 127.593C311.033 127.692 311.651 127.695 312.062 127.413Z" fill="black"/>
<path d="M348.434 107.624C348.434 107.624 349.296 103.231 354.148 104.142C358.284 104.919 357.914 109.581 357.914 109.581L354.993 122.519C354.993 122.519 353.553 125.737 349.509 124.978C345.962 124.313 345.423 120.958 345.423 120.958L348.434 107.624Z" fill="#FFC90A"/>
<path d="M346.813 111.933C346.813 111.933 347.305 102.858 353.962 104.108C360.372 105.312 357.699 113.978 357.699 113.978L346.813 111.933Z" fill="white"/>
<path d="M342.919 133.958C342.919 133.958 341.477 135.22 338.833 134.537C335.558 133.691 337.851 130.235 337.851 130.235L345.23 116.701C345.23 116.701 347.982 114.13 351.219 116.479C354.059 118.539 352.652 121.236 352.652 121.236L342.919 133.958Z" fill="#FFC90A"/>
<path d="M335.043 128.483C335.043 128.483 337.36 130.516 337.581 130.778C337.801 131.04 343.013 133.958 341.297 137.186C339.383 140.784 334.151 137.759 334.151 137.759L326.174 133.693C326.174 133.693 325.595 133.183 325.773 132.868C326.102 132.283 326.588 132.49 326.588 132.49C326.588 132.49 325.034 131.911 325.441 130.938C325.699 130.319 326.539 130.814 326.539 130.814C326.539 130.814 325.482 130.208 325.848 129.402C326.212 128.602 327.533 129.238 327.533 129.238C327.533 129.238 327.048 128.8 327.387 128.216C327.718 127.644 328.956 127.998 328.956 127.998L334.788 130.739L333.776 129.28C333.776 129.28 333.446 128.607 333.99 128.345C334.678 128.013 335.043 128.483 335.043 128.483Z" fill="#FFC90A"/>
<path d="M327.492 129.301C328.808 129.949 330.123 130.599 331.438 131.248L332.008 131.529C332.095 131.573 332.175 131.449 332.086 131.406C330.771 130.757 329.457 130.108 328.141 129.459L327.572 129.178C327.483 129.134 327.404 129.257 327.492 129.301Z" fill="black"/>
<path d="M326.615 130.854C327.931 131.503 329.245 132.153 330.561 132.802L331.131 133.082C331.219 133.126 331.297 133.004 331.209 132.96C329.894 132.311 328.579 131.662 327.263 131.013L326.694 130.732C326.605 130.687 326.527 130.811 326.615 130.854Z" fill="black"/>
<path d="M326.361 132.439C327.511 133.004 328.66 133.568 329.81 134.133C329.976 134.214 330.143 134.296 330.308 134.378C330.397 134.421 330.475 134.298 330.386 134.254C329.237 133.69 328.087 133.125 326.938 132.56C326.772 132.479 326.606 132.397 326.44 132.317C326.351 132.273 326.272 132.395 326.361 132.439Z" fill="black"/>
<path d="M350.671 104.467C350.671 104.467 353.502 102.689 360.233 102.747C366.964 102.804 371.411 104.589 371.411 104.589C371.411 104.589 374.849 118.723 374.746 119.395C374.644 120.067 347.035 117.242 347.035 117.242L350.806 104.958" fill="white"/>
<path d="M363.196 102.5C360.502 104.957 356.866 112.573 356.866 112.573L356.184 102.604L351.748 103.606C351.748 103.606 346.9 111.222 345.965 120.138C345.101 128.356 344.917 134.999 345.274 142.376C351.571 143.315 373.431 142.301 373.431 142.301C373.431 142.301 375.324 130.482 375.153 122.913C374.982 115.344 378.315 107.92 372.085 103.851" fill="#E94D28"/>
<path d="M345.293 128.515L375.183 128.543L375.419 124.634H345.49L345.293 128.515Z" fill="white"/>
<path d="M345.087 135.757L374.374 135.791L374.779 131.492L345.024 131.528L345.087 135.757Z" fill="white"/>
<path d="M356.626 112.555C356.453 113.497 356.293 114.441 356.138 115.385C355.784 117.536 355.458 119.691 355.175 121.85C354.854 124.298 354.574 126.756 354.441 129.219C354.278 132.218 354.236 135.226 354.181 138.227C354.161 139.309 354.145 140.393 354.132 141.476C354.126 141.994 354.094 142.52 354.117 143.039C354.118 143.062 354.117 143.086 354.117 143.108C354.117 143.201 354.273 143.201 354.273 143.108C354.28 141.804 354.299 140.5 354.32 139.195C354.37 136.157 354.444 133.117 354.558 130.079C354.647 127.673 354.902 125.273 355.199 122.883C355.483 120.605 355.817 118.333 356.184 116.065C356.309 115.292 356.438 114.519 356.572 113.748C356.635 113.383 356.731 113.011 356.768 112.642C356.769 112.625 356.774 112.608 356.776 112.592C356.794 112.503 356.642 112.465 356.626 112.555Z" fill="black"/>
<path d="M368.706 105.253C368.706 105.253 372.532 102.472 375.517 106.079C378.063 109.153 374.41 112.431 374.41 112.431L362.853 120.39C362.853 120.39 359.442 121.941 356.954 118.936C354.772 116.301 356.795 113.457 356.795 113.457L368.706 105.253Z" fill="#FFC90A"/>
<path d="M364.371 107.514C364.371 107.514 371.309 100.993 375.403 105.94C379.347 110.704 371.068 115.604 371.068 115.604L364.371 107.514Z" fill="white"/>
<path d="M342.857 109.668C343.281 110.168 343.861 111.685 342.598 112.184C341.335 112.683 339.58 110.62 339.58 110.62L337.475 108.291C337.475 108.291 336.184 107.296 336.885 106.972C337.587 106.65 338.59 107.208 338.59 107.208C338.59 107.208 341.983 108.638 342.857 109.668Z" fill="#FFC90A"/>
<path d="M341.754 109.631C342.065 109.801 348.09 110.755 347.804 114.333C347.483 118.322 341.396 117.274 341.396 117.274L332.336 116.186C332.336 116.186 331.591 115.906 331.628 115.554C331.697 114.898 332.233 114.928 332.233 114.928C332.233 114.928 330.555 114.913 330.538 113.872C330.528 113.21 331.509 113.387 331.509 113.387C331.509 113.387 330.281 113.18 330.295 112.307C330.309 111.441 331.794 111.588 331.794 111.588C331.794 111.588 331.165 111.343 331.243 110.686C331.321 110.043 332.614 109.955 332.614 109.955L339.143 110.536C339.143 110.536 341.442 109.462 341.754 109.631Z" fill="#FFC90A"/>
<path d="M331.793 111.66C333.281 111.82 334.769 111.98 336.257 112.14C336.469 112.163 336.68 112.186 336.891 112.209C336.99 112.219 336.989 112.077 336.891 112.066C335.403 111.906 333.915 111.746 332.427 111.586C332.216 111.563 332.004 111.54 331.793 111.517C331.693 111.506 331.694 111.649 331.793 111.66Z" fill="black"/>
<path d="M331.607 113.399C333.095 113.56 334.584 113.719 336.071 113.88C336.282 113.902 336.494 113.926 336.706 113.948C336.805 113.959 336.804 113.816 336.706 113.805C335.217 113.645 333.729 113.485 332.242 113.325C332.03 113.302 331.818 113.279 331.607 113.256C331.508 113.246 331.509 113.388 331.607 113.399Z" fill="black"/>
<path d="M332.013 114.957C333.312 115.095 334.612 115.232 335.913 115.37L336.466 115.428C336.566 115.439 336.565 115.296 336.466 115.286C335.166 115.148 333.867 115.011 332.567 114.874C332.381 114.854 332.197 114.834 332.013 114.814C331.914 114.805 331.914 114.947 332.013 114.957Z" fill="black"/>
<path d="M343.934 116.988C343.934 116.988 342.181 116.205 341.983 113.765C341.738 110.744 345.979 111.505 345.979 111.505L362.048 113.146C362.048 113.146 365.552 114.586 364.275 118.079C363.154 121.143 359.974 120.868 359.974 120.868L343.934 116.988Z" fill="#FFC90A"/>
<path d="M361.028 87.0176C361.149 87.0184 361.275 87.0218 361.437 87.0278C361.716 87.0386 362.008 87.0646 362.305 87.1053C362.605 87.1464 362.861 87.1948 363.09 87.2532L363.232 87.2897C363.4 87.3326 363.61 87.3858 363.808 87.443C364.1 87.528 364.38 87.6254 364.639 87.7324C364.929 87.8518 365.192 88.0042 365.438 88.1503C365.883 88.4146 366.266 88.7456 366.544 89.1068C366.674 89.2746 366.785 89.4716 366.874 89.6926C366.94 89.8526 366.984 90.0296 367.018 90.2662C367.033 90.3292 367.044 90.3948 367.053 90.4528C367.073 90.5786 367.081 90.6972 367.087 90.8076C367.088 90.8248 367.089 90.8422 367.09 90.8594L367.091 90.8764C367.095 90.9206 367.098 90.972 367.098 91.0212C367.097 91.111 367.095 91.201 367.094 91.2914C367.089 91.6158 367.065 91.946 367.041 92.2261C367.017 92.5235 366.955 92.8228 366.897 93.1122L366.888 93.1552C366.879 93.2 366.867 93.2448 366.855 93.2895C366.849 93.3114 366.843 93.3338 366.837 93.3558C366.832 93.3786 366.827 93.4006 366.821 93.4224L366.818 93.4344C366.808 93.4776 366.797 93.5206 366.785 93.563C366.772 93.604 366.76 93.6451 366.748 93.6862C366.722 93.7816 366.69 93.8894 366.65 93.9924C366.53 94.302 366.405 94.6062 366.281 94.8966C366.158 95.181 366.018 95.4756 365.853 95.797C365.804 95.8926 365.64 96.1782 365.64 96.1782C365.532 96.3718 365.408 96.557 365.272 96.7292C365.133 96.9062 364.751 98.023 364.497 98.1796L363.9 98.5812C363.9 98.5812 363.899 99.1018 363.895 99.1228C363.887 99.164 363.312 102.705 363.267 102.91C363.259 102.944 360.87 105.329 357.902 105.172C355.806 105.06 355.702 103.053 355.695 102.989C355.691 102.949 355.415 101.091 355.415 101.091C355.415 100.927 355.237 100.834 354.912 100.859C354.74 100.873 354.564 100.872 354.392 100.871H354.347L354.241 100.871C354.09 100.87 353.928 100.865 353.774 100.841C353.693 100.828 353.634 100.809 353.558 100.784C353.486 100.76 353.443 100.734 353.38 100.695C353.326 100.663 353.293 100.631 353.254 100.59L353.238 100.574C353.198 100.533 353.177 100.496 353.152 100.449L353.142 100.429C353.061 100.279 353.037 100.113 353.013 99.9523L353.009 99.9223C352.987 99.7672 352.967 99.6099 352.947 99.4268C352.919 99.164 352.915 98.8968 352.912 98.6384L352.911 98.5118C352.906 98.2476 352.906 97.9868 352.906 97.698V97.647C352.906 97.0366 352.907 96.4265 352.91 95.816C352.91 95.717 352.91 95.6192 352.91 95.5218C352.91 95.0191 352.91 94.4992 352.952 93.9862C352.977 93.686 353.004 93.3922 353.058 93.098C353.065 93.0626 353.07 93.027 353.076 92.9916L353.083 92.9546C353.104 92.8266 353.127 92.6968 353.16 92.5717C353.169 92.5408 353.177 92.51 353.185 92.4792L353.192 92.4502C353.221 92.3408 353.249 92.2295 353.286 92.122L353.3 92.0832C353.38 91.8584 353.46 91.6276 353.569 91.4062C353.719 91.0964 353.917 90.7905 354.159 90.4968C354.276 90.3546 354.382 90.2266 354.493 90.103C354.617 89.9636 354.736 89.8346 354.855 89.7089C354.962 89.5954 355.076 89.4838 355.187 89.3758L355.198 89.3646L355.231 89.332C355.355 89.2124 355.486 89.0976 355.615 88.9866L355.682 88.9282C355.716 88.8988 355.754 88.8712 355.79 88.8446L355.835 88.8104L356.066 88.6368L356.072 88.6322C356.122 88.5942 356.176 88.5582 356.224 88.5262C356.252 88.5075 356.276 88.4912 356.3 88.4746L356.34 88.4464C356.388 88.4129 356.435 88.38 356.484 88.3492L356.511 88.3322L356.519 88.3276C356.69 88.2202 356.868 88.1092 357.052 88.0092L357.335 87.855C357.563 87.7312 357.823 87.6303 358.047 87.5474C358.394 87.42 358.759 87.3263 359.134 87.2336C359.26 87.2024 359.392 87.1784 359.52 87.1552L359.53 87.1533C359.581 87.1442 359.632 87.1348 359.683 87.1252C359.958 87.0728 360.243 87.0506 360.533 87.0308C360.685 87.0206 360.847 87.0162 361.028 87.0176Z" fill="#FFC90A"/>
<path d="M365.852 94.4135C365.178 93.4859 364.483 94.0336 364.265 93.9759C363.433 93.7567 364.069 92.1544 363.229 91.8125C360.801 90.8243 358.008 90.8641 355.392 91.2101C354.486 91.3299 353.301 91.5164 352.676 90.8563C352.027 90.1715 352.654 86.7335 355.625 85.5025C356.901 84.9739 362.066 84.8093 363.869 85.4479C366.721 86.4586 367.606 90.1424 367.426 91.4327C367.305 92.3069 367.096 93.1689 366.804 94.0029C366.731 94.2135 366.651 94.4221 366.569 94.6291C366.48 94.8498 366.513 95.0909 366.489 95.3266C366.445 95.7595 366.354 96.1877 366.222 96.6031C365.691 98.2888 364.514 99.7642 363.034 100.733C360.829 102.175 358.064 102.582 355.436 102.349C354.595 102.275 353.67 102.087 353.169 101.413C353.015 101.206 352.914 100.966 352.828 100.724C352.501 99.8115 352.374 98.8288 352.459 97.8631C352.483 97.5823 352.532 97.2865 352.717 97.0719C352.948 96.8034 353.327 96.7277 353.677 96.6686C355.062 96.4341 357.042 96.4771 358.478 96.9135C358.874 97.0339 359.37 97.5839 359.682 97.8454C360.301 98.3629 360.914 98.7797 361.719 98.8541C362.525 98.9286 363.38 98.5068 363.776 97.8049C364.114 97.2029 364.078 96.8584 364.169 96.1754C364.29 95.263 366.28 97.3975 365.852 94.4135Z" fill="black"/>
<path d="M356.092 92.8278C355.977 93.8317 355.844 94.8498 355.935 95.86C355.939 95.8953 355.961 95.9282 356.001 95.9378C356.331 96.0169 356.665 96.0733 357.004 96.1076C357.117 96.1192 357.116 95.9573 357.004 95.9459C356.681 95.9132 356.362 95.8573 356.047 95.782C356.07 95.8079 356.092 95.8339 356.113 95.86C356.022 94.8498 356.155 93.8317 356.269 92.8278C356.281 92.7244 356.103 92.7251 356.092 92.8278Z" fill="black"/>
<path d="M354.062 94.3535C353.861 94.5779 353.408 94.3369 353.282 94.0704C353.174 93.8412 353.254 93.5331 353.493 93.418C353.733 93.3026 354.693 93.6452 354.062 94.3535Z" fill="black"/>
<path d="M359.546 94.2228C359.442 94.3778 359.222 94.3939 359.04 94.3869C358.714 94.3742 358.335 94.1841 358.327 93.849C358.32 93.5379 358.67 93.3179 358.969 93.3631C359.269 93.4083 359.929 93.6491 359.546 94.2228Z" fill="black"/>
<path d="M364.8 94.5828C364.917 94.5855 365.012 94.6643 365.072 94.7501C365.145 94.8515 365.194 94.9773 365.149 95.0957C365.113 95.1903 365.02 95.269 364.91 95.284C364.805 95.2986 364.685 95.2579 364.62 95.1799C364.59 95.1453 364.544 95.1271 364.498 95.151C364.461 95.171 364.438 95.2267 364.467 95.2617C364.638 95.4668 364.963 95.5123 365.18 95.3365C365.28 95.2545 365.342 95.1317 365.344 95.0087C365.346 94.8734 365.282 94.7333 365.194 94.6267C365.097 94.5112 364.964 94.425 364.8 94.4209C364.686 94.4184 364.686 94.5799 364.8 94.5828Z" fill="black"/>
<path d="M361.445 92.7147C360.736 92.0831 359.199 92.1749 358.287 92.2495C357.754 92.2931 357.755 93.0617 358.287 93.0105C358.827 92.9582 359.366 92.9469 359.907 92.9812C360.384 93.0112 360.879 93.1571 361.349 93.0477C361.508 93.0105 361.562 92.8183 361.445 92.7147Z" fill="black"/>
<path d="M354.854 92.3731C354.684 92.0721 354.262 92.0619 353.928 92.0282C353.443 91.9793 352.948 91.9897 352.462 92.0029C351.926 92.0177 351.924 92.7785 352.462 92.7639C352.922 92.7513 353.381 92.7673 353.842 92.7681C354.168 92.7687 354.601 92.8219 354.826 92.5677C354.879 92.5087 354.893 92.4422 354.854 92.3731Z" fill="black"/>
<path d="M354.884 98.9554C355.386 99.0678 355.937 99.1276 356.45 99.0628C356.838 99.0138 357.193 98.8389 357.516 98.6431C357.692 98.5363 357.868 98.4188 358.02 98.2836C358.102 98.2109 357.977 98.0966 357.895 98.1693C357.753 98.2952 357.591 98.4038 357.426 98.5033C357.111 98.6943 356.767 98.8671 356.387 98.9087C355.909 98.9608 355.398 98.9042 354.932 98.7994C354.821 98.7746 354.774 98.9305 354.884 98.9554Z" fill="white"/>
<path d="M537.166 116.123L498.041 163.703L315.46 162.514L307.636 144.671L442.224 120.88L537.166 116.123Z" fill="black"/>
<path d="M314.156 121.708L336.793 82.4536H379.363V121.708H314.156ZM307.8 145.499C311.547 149.068 317.684 148.291 317.684 148.291L450.131 148.362L537.166 116.95L527.599 68.2L379.363 68.3541V76.1678H334.158L308.939 118.139C308.939 118.139 307.635 119.329 306.331 121.708C305.197 123.777 305.026 137.172 305.026 137.172C305.026 137.172 305.166 142.991 307.8 145.499Z" fill="#FFC90A"/>
<path d="M328.283 156.315C328.283 168.14 338.793 177.727 351.757 177.727C364.722 177.727 375.232 168.14 375.232 156.315C375.232 144.489 364.722 134.903 351.757 134.903C338.793 134.903 328.283 144.489 328.283 156.315Z" fill="#3A3A3A"/>
<path d="M343.067 156.315C343.067 160.692 346.958 164.241 351.757 164.241C356.556 164.241 360.447 160.692 360.447 156.315C360.447 151.937 356.556 148.389 351.757 148.389C346.958 148.389 343.067 151.937 343.067 156.315Z" fill="#B5B4B1"/>
<path d="M403.525 71.52H381.829V148.254H389.799L403.525 71.52Z" fill="#FFB30B"/>
</g>
<mask id="mask2_3796_1496" style="mask-type:luminance" maskUnits="userSpaceOnUse" x="-18" y="0" width="422" height="216">
<path d="M-18 0H403V216H-18V0Z" fill="white"/>
</mask>
<g mask="url(#mask2_3796_1496)">
<path d="M-80.9745 217.495C-80.9745 217.495 -79.6243 204.928 -70.1316 201.501C-62.415 198.716 -54.77 201.634 -55.103 202.001C-55.103 202.001 -56.7886 194.609 -49.7149 191.383C-43.7784 188.676 -37.7966 189.955 -37.7966 189.955C-37.7966 189.955 -35.047 177.674 -20.6172 177.6C-5.08252 177.521 -1.22865 191.85 -1.22865 191.85C-1.22865 191.85 4.28802 191.666 10.3454 194.36C16.84 197.248 19.0634 202.709 19.0634 202.709C19.0634 202.709 20.5673 199.341 31.1605 202.001C41.7537 204.662 45.9376 218.07 45.9376 218.07L-80.9745 217.495Z" fill="#AAAAAA"/>
<path d="M13.8134 204.628V205.629C13.8134 205.744 13.9243 205.853 14.0546 205.848C14.1853 205.842 14.2957 205.751 14.2957 205.629V204.628C14.2957 204.512 14.1848 204.403 14.0546 204.408C13.9238 204.413 13.8134 204.505 13.8134 204.628Z" fill="black"/>
<path d="M18.3826 205.795V205.962C18.3813 205.991 18.3883 206.02 18.4035 206.046C18.4132 206.073 18.4298 206.097 18.4533 206.117C18.475 206.138 18.501 206.153 18.5309 206.163C18.5596 206.176 18.5905 206.182 18.6238 206.181C18.6451 206.179 18.6664 206.176 18.6879 206.173C18.7286 206.163 18.7642 206.144 18.7942 206.117C18.807 206.102 18.8195 206.087 18.832 206.072C18.8537 206.038 18.8649 206.001 18.8649 205.962V205.795C18.8661 205.765 18.8591 205.736 18.844 205.709C18.8343 205.683 18.8177 205.658 18.7942 205.639C18.7725 205.618 18.7467 205.602 18.7166 205.593C18.6879 205.58 18.657 205.573 18.6238 205.574C18.6024 205.578 18.581 205.58 18.5596 205.583C18.5188 205.592 18.4833 205.612 18.4533 205.639C18.4408 205.654 18.4282 205.669 18.4155 205.684C18.3936 205.718 18.3826 205.755 18.3826 205.795Z" fill="black"/>
<path d="M22.2782 207.181C22.5877 207.181 22.5881 206.741 22.2782 206.741C21.9685 206.741 21.9681 207.181 22.2782 207.181Z" fill="black"/>
<path d="M31.1237 207.963C31.3439 206.431 29.8147 204.93 28.1312 204.987C27.8218 204.998 27.8203 205.438 28.1312 205.427C29.5782 205.378 30.8284 206.663 30.6414 207.963C30.6245 208.081 30.7643 208.183 30.8825 208.183C31.027 208.183 31.1066 208.081 31.1237 207.963Z" fill="black"/>
<path d="M27.9442 210.849C28.2539 210.849 28.2541 210.408 27.9442 210.408C27.6347 210.408 27.6343 210.849 27.9442 210.849Z" fill="black"/>
<path d="M8.1111 203.548C8.03737 203.521 8.10935 203.548 8.12661 203.557C8.1461 203.567 8.16523 203.577 8.18366 203.589C8.19066 203.593 8.19789 203.6 8.20536 203.604C8.15426 203.577 8.17701 203.582 8.19288 203.596C8.21084 203.611 8.22904 203.626 8.24595 203.643C8.2617 203.658 8.29705 203.712 8.26042 203.654C8.26917 203.669 8.28165 203.681 8.29157 203.694C8.30381 203.712 8.31537 203.729 8.32621 203.747C8.33146 203.757 8.33671 203.765 8.34173 203.775C8.3457 203.783 8.36564 203.825 8.34919 203.788C8.33275 203.752 8.35713 203.809 8.36098 203.82C8.36809 203.839 8.37439 203.859 8.37964 203.878C8.38466 203.897 8.38513 203.921 8.39283 203.938C8.39189 203.936 8.38629 203.879 8.38956 203.916C8.39061 203.928 8.39213 203.94 8.39283 203.952C8.39411 203.972 8.39434 203.992 8.39364 204.011C8.39283 204.034 8.37544 204.094 8.39528 204.024C8.38489 204.061 8.37731 204.099 8.36389 204.136C8.35199 204.169 8.37183 204.118 8.37369 204.116C8.36786 204.123 8.36436 204.134 8.35969 204.141C8.35095 204.157 8.34126 204.172 8.33053 204.186C8.31327 204.209 8.29833 204.204 8.33753 204.178C8.33181 204.183 8.32505 204.192 8.32073 204.196C8.30428 204.212 8.28515 204.226 8.268 204.242C8.24607 204.261 8.3191 204.211 8.28013 204.233C8.27267 204.236 8.2659 204.241 8.25867 204.244C8.24852 204.25 8.23476 204.254 8.22577 204.26C8.22834 204.258 8.28445 204.241 8.24969 204.25C8.23032 204.255 8.21154 204.26 8.19171 204.263C8.17118 204.268 8.16231 204.258 8.22064 204.26C8.20886 204.26 8.19684 204.262 8.18494 204.262C8.165 204.262 8.14481 204.26 8.1251 204.26C8.20058 204.259 8.1468 204.262 8.1174 204.256C8.10165 204.253 8.08579 204.248 8.07027 204.243C8.05079 204.237 8.02046 204.219 8.0817 204.249C8.07074 204.243 8.05884 204.24 8.04764 204.235C8.01416 204.219 7.98476 204.196 7.95163 204.18C8.00576 204.206 7.97951 204.201 7.96108 204.187C7.95466 204.182 7.94836 204.176 7.94218 204.171C7.9255 204.157 7.90952 204.142 7.89447 204.127C7.88759 204.12 7.88175 204.112 7.87452 204.106C7.91897 204.144 7.89634 204.133 7.88327 204.114C7.8709 204.099 7.85959 204.082 7.84944 204.063C7.84536 204.056 7.84197 204.045 7.83672 204.039C7.86764 204.075 7.85236 204.079 7.84396 204.053C7.83847 204.035 7.83439 204.016 7.82867 203.997C7.82051 203.972 7.83043 204.059 7.83241 204.021C7.83276 204.011 7.83217 204.001 7.83171 203.991C7.83147 203.988 7.83439 203.974 7.83276 203.971C7.82599 204.012 7.82471 204.022 7.82891 203.999C7.82972 203.993 7.83101 203.989 7.83241 203.984C7.83474 203.975 7.83824 203.968 7.84022 203.959C7.84921 203.922 7.81281 204.005 7.83392 203.972C7.84664 203.953 7.85866 203.934 7.87382 203.914C7.95011 203.823 7.89307 203.665 7.78714 203.613C7.66022 203.553 7.53878 203.594 7.45736 203.693C7.3022 203.88 7.32589 204.149 7.46681 204.337C7.61706 204.537 7.84792 204.671 8.11308 204.699C8.37906 204.726 8.63069 204.59 8.76403 204.384C8.89235 204.185 8.9053 203.931 8.83029 203.714C8.73661 203.443 8.5292 203.229 8.23907 203.124C8.12183 203.081 7.96936 203.171 7.94265 203.277C7.91092 203.405 7.98523 203.503 8.1111 203.548Z" fill="black"/>
<path d="M10.7912 207.616C10.8639 207.737 10.9065 207.832 10.9383 207.975C10.9398 207.981 10.9455 208.023 10.942 207.994C10.938 207.961 10.9435 208.022 10.9435 208.022C10.9442 208.046 10.9442 208.071 10.9437 208.094C10.9435 208.106 10.942 208.117 10.9412 208.129C10.9418 208.122 10.9507 208.081 10.942 208.122C10.936 208.148 10.9295 208.175 10.9203 208.201C10.9133 208.222 10.8889 208.266 10.9126 208.224C10.9021 208.243 10.8918 208.262 10.8797 208.28C10.8734 208.29 10.8303 208.346 10.8497 208.323C10.8664 208.304 10.8211 208.352 10.8113 208.362C10.7929 208.38 10.7734 208.397 10.7535 208.413C10.7466 208.42 10.6902 208.46 10.7142 208.444C10.7356 208.429 10.6723 208.47 10.6626 208.476C10.6388 208.49 10.6142 208.504 10.5895 208.516C10.5412 208.542 10.4916 208.563 10.4414 208.585C10.4295 208.59 10.4173 208.595 10.4053 208.599C10.4499 208.582 10.4168 208.595 10.4075 208.598C10.3761 208.61 10.3449 208.621 10.3131 208.631C10.2057 208.665 10.0956 208.695 9.98471 208.72C9.78382 208.764 9.57991 208.795 9.37553 208.823C9.30717 208.831 9.22714 208.846 9.16881 208.847C9.10302 208.848 9.07234 208.841 9.02451 208.81C9.05391 208.829 8.99068 208.778 8.98438 208.772C8.99138 208.779 9.00433 208.799 8.97796 208.762C8.9642 208.742 8.95148 208.722 8.94075 208.701C8.93083 208.681 8.90144 208.589 8.89315 208.538C8.88499 208.49 8.8837 208.39 8.88872 208.322C8.89444 208.244 8.9131 208.166 8.9341 208.088C8.95428 208.012 8.97761 207.937 9.00409 207.863C9.01786 207.825 9.03256 207.786 9.04819 207.748C9.05624 207.729 9.0651 207.709 9.07362 207.69C9.09777 207.633 9.06347 207.706 9.09089 207.652C9.13592 207.564 9.18363 207.478 9.24172 207.396C9.2549 207.378 9.26855 207.36 9.28255 207.342C9.29107 207.33 9.30005 207.319 9.30927 207.308C9.30472 207.313 9.27707 207.344 9.30495 207.314C9.3396 207.277 9.37483 207.241 9.41414 207.206C9.42417 207.198 9.47854 207.156 9.45625 207.172C9.43281 207.189 9.49767 207.147 9.50968 207.139C9.53453 207.126 9.55996 207.114 9.58539 207.102C9.62879 207.081 9.55693 207.108 9.61607 207.092C9.64454 207.084 9.67265 207.078 9.70135 207.071C9.76784 207.056 9.67615 207.067 9.74568 207.067C9.77764 207.067 9.80949 207.066 9.84145 207.068C9.85464 207.069 9.86828 207.07 9.88112 207.071C9.84588 207.067 9.86513 207.069 9.88858 207.075C10.2443 207.158 10.5539 207.398 10.8288 207.661C11.0435 207.866 11.3842 207.556 11.1698 207.35C10.7052 206.905 9.94691 206.366 9.2591 206.764C8.83832 207.008 8.61703 207.47 8.49104 207.893C8.41183 208.158 8.37217 208.434 8.43878 208.706C8.48462 208.892 8.59078 209.065 8.7618 209.177C8.93212 209.289 9.13242 209.297 9.3326 209.271C9.80681 209.205 10.2837 209.141 10.7208 208.949C11.0025 208.827 11.2528 208.634 11.3672 208.363C11.5046 208.039 11.3821 207.685 11.2075 207.395C11.0586 207.146 10.6421 207.368 10.7912 207.616Z" fill="black"/>
<path d="M38.6894 209.618C38.4586 209.306 38.1974 208.969 37.8179 208.798C37.619 208.707 37.4032 208.66 37.1822 208.696C36.996 208.726 36.8181 208.822 36.6864 208.945C36.4132 209.198 36.3119 209.607 36.6117 209.879C36.8217 210.07 37.0618 210.244 37.3057 210.398C37.5782 210.57 37.9562 210.779 38.2899 210.628C38.4065 210.576 38.4389 210.425 38.3763 210.328C38.3068 210.219 38.1637 210.196 38.0465 210.248C38.0059 210.267 38.1042 210.227 38.0615 210.242C38.058 210.243 38.0388 210.245 38.0383 210.246C38.0523 210.222 38.1011 210.247 38.059 210.242C38.0493 210.241 38.036 210.241 38.0264 210.241C37.9837 210.244 38.0507 210.244 38.049 210.245C38.0408 210.248 38.0141 210.239 38.0057 210.236C37.9802 210.231 37.9546 210.224 37.9299 210.215C37.9137 210.211 37.8982 210.205 37.8823 210.199C37.8893 210.201 37.9301 210.219 37.891 210.201C37.8633 210.189 37.8352 210.177 37.8077 210.164C37.7488 210.135 37.6918 210.103 37.6357 210.07C37.5771 210.036 37.5196 210 37.4633 209.962C37.4348 209.944 37.4067 209.925 37.3789 209.904C37.3859 209.909 37.4146 209.93 37.3789 209.904C37.3603 209.891 37.3409 209.877 37.3223 209.863C37.2278 209.794 37.1359 209.721 37.046 209.647C37.0147 209.621 36.9826 209.595 36.9527 209.568C36.9522 209.567 36.9091 209.524 36.9322 209.55C36.9545 209.576 36.9203 209.531 36.9195 209.53C36.8964 209.5 36.9171 209.528 36.921 209.537C36.9149 209.521 36.9125 209.5 36.9046 209.484C36.8927 209.46 36.9024 209.533 36.9066 209.486C36.9072 209.477 36.9072 209.464 36.907 209.454C36.9056 209.403 36.8914 209.498 36.9083 209.448C36.9118 209.437 36.914 209.426 36.9173 209.415C36.9178 209.414 36.9377 209.361 36.9241 209.394C36.9105 209.426 36.935 209.374 36.9357 209.372C36.9417 209.362 36.9482 209.351 36.9548 209.341C36.9583 209.335 36.998 209.281 36.9804 209.303C36.9592 209.33 36.9998 209.282 36.9998 209.282C37.0088 209.274 37.018 209.264 37.0274 209.255C37.0384 209.246 37.1112 209.189 37.0716 209.216C37.0991 209.197 37.128 209.18 37.1581 209.165C37.1701 209.16 37.1824 209.154 37.1945 209.148C37.2204 209.137 37.2197 209.137 37.1945 209.148C37.2039 209.145 37.2125 209.142 37.2221 209.139C37.2515 209.132 37.2805 209.125 37.3104 209.119C37.2526 209.129 37.3491 209.121 37.367 209.121C37.4295 209.121 37.3376 209.115 37.38 209.122C37.4001 209.126 37.4201 209.13 37.44 209.134C37.4598 209.138 37.4791 209.144 37.4984 209.15C37.5067 209.152 37.5784 209.178 37.542 209.164C37.8648 209.295 38.0742 209.571 38.2731 209.84C38.3461 209.939 38.4853 209.981 38.6029 209.918C38.7098 209.862 38.7627 209.716 38.6894 209.618Z" fill="black"/>
<path d="M33.5513 205.735C33.5468 205.759 33.5396 205.783 33.5294 205.805C33.5378 205.788 33.5456 205.77 33.5538 205.753C33.5413 205.78 33.5256 205.804 33.5064 205.826C33.5189 205.813 33.5316 205.798 33.5441 205.783C33.5227 205.807 33.4985 205.829 33.4716 205.849C33.4878 205.837 33.504 205.825 33.5202 205.814C33.486 205.838 33.449 205.857 33.4093 205.872C33.4284 205.865 33.4474 205.857 33.4668 205.85C33.4264 205.865 33.3848 205.875 33.3416 205.882C33.3631 205.879 33.3843 205.877 33.4055 205.873C33.3631 205.879 33.3203 205.88 33.2773 205.874C33.2988 205.878 33.32 205.88 33.3414 205.883C33.3047 205.879 33.2692 205.87 33.235 205.857C33.2542 205.864 33.2734 205.872 33.2926 205.88C33.2634 205.868 33.2365 205.853 33.2113 205.836C33.2275 205.847 33.244 205.858 33.2602 205.87C33.2412 205.856 33.224 205.84 33.2085 205.823C33.1703 205.783 33.0944 205.759 33.0378 205.759C32.9787 205.759 32.908 205.784 32.8673 205.823C32.8249 205.866 32.7938 205.921 32.7967 205.98C32.7997 206.04 32.8241 206.088 32.8673 206.135C33.0264 206.306 33.3043 206.351 33.5334 206.294C33.7602 206.237 33.9756 206.071 34.0165 205.852C34.0277 205.792 34.027 205.737 33.9921 205.683C33.9628 205.637 33.9055 205.593 33.848 205.581C33.7862 205.569 33.7169 205.571 33.6622 205.604C33.6126 205.633 33.5617 205.68 33.5513 205.735Z" fill="black"/>
<path d="M9.20062 199.206C8.78276 197.423 6.7828 196.616 4.99259 196.374C3.37795 196.157 1.6505 196.194 0.141903 196.818C-0.666292 197.152 -1.35608 197.679 -1.82049 198.371C-1.98299 198.613 -1.56618 198.834 -1.40414 198.593C-0.636662 197.449 0.784213 196.917 2.19237 196.755C2.93127 196.67 3.68406 196.675 4.42412 196.748C5.33859 196.837 6.27628 197.009 7.08739 197.421C7.89034 197.83 8.53999 198.488 8.73563 199.323C8.80049 199.599 9.2656 199.482 9.20062 199.206Z" fill="black"/>
<path d="M17.1889 211.904C17.1888 211.925 17.1863 211.945 17.185 211.966C17.1896 211.888 17.1886 211.941 17.1826 211.962C17.1799 211.972 17.1769 211.979 17.1743 211.989C17.1674 212.011 17.1489 212.019 17.1853 211.968C17.1756 211.982 17.1697 211.997 17.16 212.01C17.1569 212.016 17.1504 212.027 17.1452 212.03C17.1403 212.033 17.1918 211.983 17.1669 212.004C17.1547 212.013 17.1425 212.025 17.1308 212.036C17.1078 212.058 17.1616 212.011 17.16 212.016C17.1589 212.02 17.1429 212.026 17.1394 212.028C17.125 212.037 17.1098 212.043 17.0949 212.051C17.0614 212.068 17.1579 212.03 17.121 212.041C17.1128 212.043 17.1048 212.046 17.0966 212.049C17.0826 212.053 17.0686 212.056 17.0542 212.058C17.0455 212.06 17.0368 212.061 17.028 212.063C16.9901 212.071 17.0899 212.058 17.0609 212.059C17.0412 212.061 17.0214 212.062 17.0014 212.063C16.9668 212.065 16.9328 212.061 16.8982 212.059C16.8787 212.058 16.8635 212.047 16.9339 212.063C16.9249 212.061 16.9151 212.06 16.9057 212.059C16.887 212.056 16.8682 212.052 16.8495 212.047C16.8154 212.04 16.7827 212.028 16.7496 212.019C16.711 212.006 16.8089 212.043 16.7723 212.027C16.7651 212.024 16.7581 212.022 16.7509 212.019C16.7329 212.01 16.7152 212.002 16.6978 211.992C16.6848 211.986 16.6721 211.978 16.6594 211.971C16.6522 211.967 16.6452 211.961 16.6377 211.957C16.6066 211.938 16.682 211.992 16.6623 211.974C16.6392 211.954 16.6155 211.935 16.5936 211.912C16.5682 211.888 16.6312 211.962 16.6118 211.935C16.6077 211.928 16.6028 211.922 16.5987 211.917C16.5918 211.906 16.5864 211.895 16.5805 211.886C16.5677 211.864 16.6048 211.949 16.5886 211.9C16.5851 211.889 16.5831 211.878 16.5803 211.869C16.5691 211.83 16.5838 211.925 16.5801 211.864C16.5787 211.844 16.5803 211.823 16.5811 211.803C16.5829 211.757 16.5682 211.856 16.5798 211.812C16.5824 211.802 16.5846 211.792 16.5873 211.781C16.5934 211.759 16.6066 211.738 16.6108 211.717C16.6013 211.766 16.5969 211.744 16.6092 211.723C16.6153 211.711 16.6222 211.701 16.6292 211.69C16.6362 211.678 16.6436 211.668 16.6513 211.658C16.6566 211.651 16.6621 211.643 16.6676 211.637C16.6452 211.663 16.6397 211.67 16.6511 211.657C16.6728 211.638 16.691 211.616 16.7132 211.597C16.7197 211.591 16.7269 211.586 16.7335 211.58C16.7531 211.565 16.7476 211.57 16.7171 211.591C16.7244 211.587 16.7317 211.581 16.7394 211.577C16.7621 211.563 16.7857 211.552 16.8096 211.54C16.8523 211.518 16.7544 211.557 16.8009 211.542C16.8177 211.537 16.8341 211.531 16.8513 211.527C16.86 211.525 16.8686 211.524 16.8772 211.522C16.8348 211.522 16.9418 211.51 16.8772 211.522C16.8904 211.522 16.9044 211.521 16.9174 211.522C16.9423 211.522 16.9668 211.537 16.9061 211.518C16.9361 211.527 16.968 211.53 16.9979 211.541C17.116 211.583 17.2674 211.495 17.2945 211.387C17.326 211.261 17.2526 211.161 17.126 211.116C16.8381 211.016 16.5004 211.138 16.3101 211.345C16.1159 211.558 16.022 211.862 16.1706 212.12C16.2673 212.287 16.4629 212.393 16.6526 212.453C16.8339 212.51 17.0577 212.527 17.2412 212.468C17.3736 212.425 17.4793 212.356 17.5617 212.252C17.6402 212.153 17.67 212.024 17.6714 211.904C17.6724 211.789 17.5595 211.678 17.4301 211.684C17.2986 211.69 17.1903 211.78 17.1889 211.904Z" fill="black"/>
<path d="M18.2577 209.516C18.5672 209.516 18.5676 209.075 18.2577 209.075C17.9482 209.075 17.9477 209.516 18.2577 209.516Z" fill="black"/>
</g>
<path d="M-18 21.3896V33.1637L-16.919 32.3809L3.96411 50.1301L4.93352 74.8494L14.4521 48.1195L-10.8938 21.3896H-18Z" fill="#FFC90A"/>
<path d="M245.534 112.214L239.298 213.718L215.272 213.638L207.013 112.008" fill="#00345C"/>
<mask id="mask3_3796_1496" style="mask-type:luminance" maskUnits="userSpaceOnUse" x="-18" y="0" width="422" height="216">
<path d="M-18 0H403V216H-18V0Z" fill="white"/>
</mask>
<g mask="url(#mask3_3796_1496)">
<path d="M201.676 216.378C201.676 216.378 202.664 211.791 205.693 211.549C208.721 211.308 226.421 211.12 226.421 211.12L226.79 216.378H201.676Z" fill="black"/>
<path d="M214.739 216.378C214.739 216.378 215.727 211.791 218.756 211.55C221.784 211.308 239.484 211.12 239.484 211.12L239.852 216.378H214.739Z" fill="black"/>
<path d="M219.006 126.812C219.097 130.621 219.224 134.43 219.367 138.238C219.633 145.406 219.947 152.578 220.484 159.735C220.996 166.56 221.675 173.377 222.255 180.197C222.844 187.129 223.422 194.063 223.991 200.997C224.291 204.634 224.559 208.275 224.882 211.911C224.887 211.964 224.892 212.018 224.895 212.072C224.927 212.454 225.582 212.457 225.552 212.072C225.307 209.048 225.06 206.022 224.812 202.998C224.262 196.29 223.705 189.58 223.138 182.872C222.553 175.948 221.918 169.029 221.329 162.105C220.721 154.955 220.397 147.782 220.113 140.616C219.934 136.087 219.781 131.558 219.668 127.027L219.663 126.812C219.654 126.428 218.997 126.427 219.006 126.812Z" fill="black"/>
</g>
<mask id="mask4_3796_1496" style="mask-type:luminance" maskUnits="userSpaceOnUse" x="-18" y="0" width="422" height="216">
<path d="M-18 0H403V216H-18V0Z" fill="white"/>
</mask>
<g mask="url(#mask4_3796_1496)">
<path d="M192.411 106.339C191.895 106.553 187.871 109.204 187.086 109.557C184.125 110.893 170.718 116.446 170.342 116.362C168.735 116.002 169.702 114.775 170.033 114.58C168.986 114.909 168.489 115.205 167.441 115.534C167.159 115.623 166.568 115.726 166.303 115.585C165.976 115.411 165.597 114.962 165.71 114.603C165.823 114.243 166.1 113.971 166.38 113.733C165.863 113.997 165.316 114.268 164.736 114.226C164.157 114.185 163.555 113.707 163.573 113.099C163.594 112.36 164.407 111.995 165.083 111.802C164.501 111.886 163.98 110.771 164.305 110.263C164.413 110.097 164.574 109.981 164.733 109.871C168.87 107.036 173.049 105.443 178.056 103.341C178.187 103.286 178.296 103.136 178.278 102.987C178.264 102.856 178.158 102.736 178.037 102.698C175.261 101.827 174.278 101.014 172.626 99.7659C172.517 99.6827 172.405 99.5926 172.339 99.4683C172.133 99.0822 172.504 98.5986 172.917 98.5379C173.33 98.4771 173.734 98.6854 174.12 98.8609C177.398 100.35 181.104 99.7375 184.648 99.6654C185.176 99.6549 185.725 99.6611 186.209 99.8948C186.693 100.129 187.059 100.565 187.407 100.991C189.206 103.198 192.324 106.388 192.095 106.516" fill="#FFCA0A"/>
<path d="M165.171 111.901C166.691 110.987 168.246 110.124 169.853 109.346C171.187 108.7 172.55 108.108 173.9 107.492C174.103 107.398 173.926 107.121 173.723 107.214C172.373 107.831 171.009 108.423 169.675 109.069C168.067 109.847 166.512 110.71 164.993 111.623C164.804 111.736 164.981 112.015 165.171 111.901Z" fill="black"/>
<path d="M166.294 113.844C168.743 112.632 171.219 111.466 173.677 110.269C173.846 110.186 174.017 110.103 174.186 110.018C174.266 109.978 174.368 109.941 174.421 109.869C174.467 109.809 174.444 109.725 174.393 109.675C174.241 109.522 173.992 109.749 174.145 109.901C174.136 109.836 174.126 109.771 174.117 109.707C174.189 109.612 174.182 109.66 174.125 109.681C174.078 109.699 174.033 109.729 173.989 109.751C173.843 109.824 173.697 109.895 173.55 109.967C173.059 110.207 172.567 110.444 172.073 110.681C170.742 111.323 169.409 111.963 168.079 112.607C167.423 112.925 166.768 113.243 166.115 113.566C165.916 113.664 166.093 113.941 166.294 113.844Z" fill="black"/>
<path d="M169.923 114.721C170.693 114.169 171.587 113.784 172.477 113.424C173.486 113.017 174.508 112.634 175.491 112.175C175.693 112.081 175.515 111.804 175.313 111.897C173.452 112.767 171.335 113.303 169.675 114.495C169.496 114.622 169.747 114.848 169.923 114.721Z" fill="black"/>
<path d="M187.856 108.59C187.856 108.59 201.158 104.677 208.274 102.086C209.529 101.629 215.134 99.6413 216.161 98.8917C217.565 97.8687 220.23 91.0884 221.477 89.0664C224.396 84.3357 226.637 80.7501 228.606 75.6785C229.013 74.6294 229.033 73.5847 228.949 72.4767C228.85 71.1968 234.009 64.5422 233.284 63.4001C232.346 61.9202 227.854 56.535 226.049 55.8001C223.861 54.9088 219.516 56.8876 217.716 58.2C215.916 59.5123 213.551 62.4001 211.138 68.4001C209.413 72.6919 206.453 81.9818 205.298 88.5457C205.103 89.6493 203.188 91.9339 198.991 93.1991C195.482 94.2572 188.588 97.3328 185.188 98.7266C183.818 99.2879 183.887 99.2441 183.887 99.2441" fill="white"/>
</g>
<mask id="mask5_3796_1496" style="mask-type:luminance" maskUnits="userSpaceOnUse" x="-18" y="0" width="422" height="216">
<path d="M-18 0H403V216H-18V0Z" fill="white"/>
</mask>
<g mask="url(#mask5_3796_1496)">
<path d="M204.779 119.8C205.53 102.481 208.523 85.9061 214.284 69.7566C215.867 65.3213 217.79 60.7421 221.34 57.9928C226.743 53.8074 234.316 55.3776 240.395 57.6478C257.404 64.0003 256.055 71.0073 257.529 78.772C259.847 90.9837 260.374 104.246 259.675 120.659C241.649 120.922 221.187 120.922 204.756 119.732" fill="#E4FF2E"/>
<path d="M222.267 56.6959C220.305 58.3198 221.834 65.4248 222.166 67.4079C222.565 69.7776 223.164 71.9724 223.461 76.1291C227.743 71.2944 232.886 66.9727 237.3 57.075C234.66 54.231 228.592 56.0356 223.76 55.1792" fill="white"/>
<path d="M260.654 98.5199L205.841 98.524L207.132 91.2443L260.022 91.2163L260.654 98.5199Z" fill="white"/>
<path d="M260.272 109.279L204.998 109.23L205.696 101.95L259.645 101.975L260.272 109.279Z" fill="white"/>
<path d="M223.366 75.5802C222.668 78.2807 222.171 81.0018 221.803 83.7534C221.415 86.6485 221.1 89.552 220.81 92.4566C220.466 95.8896 220.161 99.3259 219.894 102.765C219.64 106.014 219.417 109.266 219.255 112.521C219.134 114.942 219.022 117.37 219.074 119.794C219.078 119.996 219.085 120.198 219.093 120.4C219.1 120.586 219.416 120.587 219.409 120.4C219.317 118.145 219.417 115.878 219.519 113.625C219.661 110.428 219.872 107.235 220.111 104.045C220.37 100.61 220.665 97.177 220.998 93.7474C221.292 90.73 221.61 87.7139 221.994 84.7051C222.302 82.3019 222.687 79.927 223.217 77.5553C223.358 76.9205 223.508 76.2873 223.67 75.6568C223.717 75.4763 223.413 75.3994 223.366 75.5802Z" fill="black"/>
<path d="M226.343 59.9839C225.816 60.1761 224.025 61.7137 224.025 64.0201C224.025 64.6727 226.406 64.7513 227.712 64.6927C227.929 64.0536 228.345 63.6357 228.692 62.7591C228.893 62.2529 228.811 60.9863 228.45 60.5605C228.262 60.3389 226.541 59.7336 226.343 59.9839Z" fill="#00345C"/>
<path d="M224.867 64.0195C224.179 64.8002 222.445 67.2272 222.233 67.7674C221.791 68.897 223.226 74.7438 223.498 76.1282C225.254 74.6232 227.829 71.6709 227.817 71.4194C227.712 69.209 227.185 65.9416 227.291 64.4999" fill="#00345C"/>
<path d="M228.596 60.5444C229.31 62.1961 229.69 63.9482 229.715 65.7235C229.716 65.8269 229.851 65.911 229.952 65.848C231.182 65.0921 232.46 64.4063 233.566 63.4973C233.718 63.3729 233.494 63.1696 233.343 63.2936C232.256 64.186 231 64.857 229.793 65.5989C229.873 65.6404 229.952 65.6819 230.03 65.7235C230.006 63.924 229.624 62.1424 228.902 60.4678C228.827 60.2969 228.522 60.3714 228.596 60.5444Z" fill="black"/>
<path d="M226.037 59.6045C224.111 60.2422 223.18 62.0223 222.33 63.5887C222.401 63.5714 222.473 63.5543 222.546 63.537C222.423 63.4888 222.339 63.2162 222.291 63.0975C222.168 62.7847 222.071 62.4623 221.981 62.1399C221.776 61.4014 221.61 60.6515 221.491 59.8973C221.462 59.7145 221.156 59.7923 221.185 59.9742C221.314 60.7845 221.494 61.5916 221.724 62.3831C221.815 62.7003 221.914 63.0188 222.05 63.3231C222.116 63.4738 222.205 63.7148 222.386 63.786C222.46 63.8151 222.561 63.8106 222.603 63.7342C223.408 62.2508 224.29 60.4887 226.121 59.8825C226.311 59.8198 226.23 59.5412 226.037 59.6045Z" fill="black"/>
</g>
<mask id="mask6_3796_1496" style="mask-type:luminance" maskUnits="userSpaceOnUse" x="-18" y="0" width="422" height="216">
<path d="M-18 0H403V216H-18V0Z" fill="white"/>
</mask>
<g mask="url(#mask6_3796_1496)">
<path d="M221.131 48.3231C221.301 48.4647 221.55 48.6747 221.777 48.6761C228.219 48.7133 234.124 48.4539 238.758 44.2411C242.304 41.0163 244.402 35.3203 245.102 30.8427C245.345 29.2797 245.04 27.6441 244.389 26.1877C243.297 23.7429 240.775 22.0524 238.075 21.2911C235.376 20.5295 232.496 20.5835 229.688 20.8051C227.148 21.0055 224.346 21.4789 222.797 23.3831C221.861 24.5311 221.553 26.0117 221.29 27.4365C220.234 33.1514 217.456 43.7399 221.077 48.3509" fill="#FFCA0A"/>
<path d="M224.622 45.4281C224.105 48.8093 223.585 52.1905 223.066 55.5717C223.004 55.9787 222.943 56.3979 223.067 56.7949C223.189 57.1779 223.473 57.5089 223.763 57.8233C224.614 58.7487 225.583 59.6331 226.813 60.1913C228.044 60.7497 229.582 60.9413 230.858 60.4585C232.573 59.8096 235.392 57.4539 235.988 55.9687C237.678 51.7608 238.225 46.0452 239.715 42.3365C239.916 41.8389 237.985 42.6356 237.456 42.3407C237.013 42.0942 236.42 42.2435 235.922 42.3997C233.229 43.2433 230.537 44.0869 227.845 44.9304C226.541 45.3387 225.056 45.9145 224.767 47.0459" fill="#FFCA0A"/>
<path d="M230.237 29.2057L229.871 29.0666C229.871 29.0666 238.677 30.2403 238.97 30.509C239.263 30.7773 240.81 33.8165 240.916 34.3177C241.022 34.819 239.396 39.4298 239.396 39.4298L240.504 40.7456L241.739 36.924L242.911 37.325L239.396 43.6398L243.079 43.9058C243.079 43.9058 245.176 41.7785 245.762 39.702C246.347 37.6256 246.893 34.5685 246.893 34.5685L245.762 29.0666C245.762 29.0666 246.773 18.8816 239.745 18.2802C232.715 17.6788 227.306 17.3469 226.442 17.6131C225.579 17.8792 220.651 25.1963 220.651 25.1963" fill="black"/>
<path d="M241.776 36.9038C241.367 38.3876 240.432 39.6998 240.035 41.1866C240.766 41.2216 241.506 41.4434 242.213 41.2664C242.963 41.0788 243.536 40.4566 243.809 39.7584C244.014 39.23 244.068 38.632 243.867 38.1018C243.667 37.5716 243.186 37.1264 242.608 37.036C242.513 37.0214 242.38 36.9252 242.466 36.9628" fill="#FFCA0A"/>
<path d="M220.922 49.7002C224.132 50.1059 228.878 50.0201 231.888 48.9653C233.749 48.3128 239.103 42.4771 240.275 40.372L239.577 38.9946L232.723 45.8825L229.965 40.6411C229.965 40.6411 227.68 39.4029 225.061 39.1192C222.442 38.8357 219.896 39.4471 219.247 39.8422C218.898 40.0543 219.13 41.8557 219.593 44.8861C219.808 46.2927 220.922 49.7002 220.922 49.7002Z" fill="black"/>
<path d="M242.284 38.0952C242.344 38.1042 242.404 38.1168 242.46 38.1382C242.399 38.115 242.487 38.1534 242.492 38.1558C242.518 38.1696 242.543 38.185 242.569 38.2007C242.519 38.1691 242.593 38.221 242.597 38.2248C242.62 38.2441 242.641 38.265 242.663 38.2852C242.725 38.3428 242.639 38.246 242.689 38.3136C242.707 38.3371 242.723 38.361 242.739 38.3858C242.754 38.4106 242.77 38.4362 242.782 38.4622C242.759 38.4154 242.791 38.4868 242.794 38.4976C242.803 38.525 242.809 38.5529 242.817 38.5808C242.831 38.6292 242.82 38.5745 242.823 38.6063C242.829 38.6682 242.829 38.7304 242.822 38.792C242.82 38.8136 242.82 38.8126 242.823 38.7891C242.82 38.8044 242.816 38.8198 242.813 38.8348C242.806 38.8652 242.798 38.8952 242.787 38.925C242.726 39.1084 242.581 39.2814 242.39 39.3858C242.264 39.4553 242.197 39.4784 242.045 39.509C242.011 39.516 241.976 39.5226 241.941 39.5266C241.986 39.5216 241.92 39.527 241.905 39.5278C241.829 39.5324 241.753 39.5312 241.677 39.526C241.499 39.5144 241.348 39.6724 241.348 39.826C241.348 39.9982 241.499 40.1144 241.677 40.126C242.453 40.1774 243.22 39.7558 243.431 39.0546C243.53 38.7256 243.491 38.366 243.299 38.0706C243.12 37.7944 242.812 37.5702 242.459 37.5166C242.284 37.49 242.106 37.5584 242.054 37.7262C242.011 37.8698 242.108 38.0684 242.284 38.0952Z" fill="black"/>
<path d="M220.759 24.7955C219.48 24.7955 219.353 24.6884 218.442 25.2061C217.531 25.7239 217.59 25.9499 217.883 26.9005C230.65 29.3879 237.102 30.0709 249.514 35.5207C251.143 35.2638 252.045 34.2779 249.405 32.6847C249.271 24.8558 252.98 16.4873 243.018 13.5692C240.001 12.6856 237.053 11.6647 232.047 12.8675C228.47 13.7272 224.714 16.2233 223.179 18.2316C221.61 20.285 221.397 21.7885 220.588 24.7667" fill="white"/>
<path d="M226.573 22.9189C227.728 19.3712 230.256 16.2086 233.625 14.1397C234.565 13.5615 235.571 13.0658 236.622 12.6766C237.009 12.5334 236.84 11.9526 236.447 12.0982C232.54 13.5442 229.29 16.294 227.316 19.6864C226.747 20.6656 226.285 21.697 225.938 22.7595C225.818 23.1303 226.452 23.289 226.573 22.9189Z" fill="black"/>
<path d="M226.181 23.1347C228.264 23.5481 230.305 24.1209 232.283 24.8459C232.42 24.8959 232.583 24.8114 232.654 24.7079C233.942 22.8422 235.217 20.9689 236.518 19.1115C237.64 17.5099 238.873 16.0206 240.672 15.0116C241.55 14.5195 242.557 14.0728 243.602 14.0202C244.024 13.9989 244.027 13.3988 243.602 13.4202C242.626 13.4695 241.69 13.8095 240.839 14.2308C239.98 14.6555 239.166 15.1866 238.468 15.8117C236.799 17.3087 235.644 19.2499 234.406 21.0427C233.633 22.1634 232.86 23.2842 232.087 24.4051C232.211 24.3592 232.335 24.3132 232.458 24.2673C230.48 23.5422 228.439 22.9695 226.356 22.5561C225.943 22.4743 225.767 23.0525 226.181 23.1347Z" fill="black"/>
<path d="M240.772 18.8526C241.59 17.9732 242.509 17.1687 243.525 16.4805C243.945 16.1965 244.379 15.9255 244.826 15.6795C245.216 15.466 245.687 15.1952 246.159 15.2224C246.582 15.2468 246.581 14.6466 246.159 14.6224C245.646 14.5928 245.135 14.8286 244.701 15.0517C244.204 15.3064 243.73 15.6035 243.271 15.9102C242.178 16.6414 241.184 17.4855 240.307 18.4281C240.034 18.721 240.497 19.1475 240.772 18.8526Z" fill="black"/>
<path d="M220.51 25.0346C224.298 26.1962 228.171 27.102 232.031 28.0356C235.849 28.9594 239.648 29.9275 243.376 31.1232C245.385 31.7676 247.397 32.3896 249.47 32.8412C249.882 32.9308 250.057 32.3524 249.645 32.2626C245.948 31.4574 242.425 30.1169 238.789 29.1242C234.909 28.0654 230.977 27.1836 227.072 26.2054C224.928 25.6684 222.793 25.1025 220.685 24.4561C220.284 24.3328 220.111 24.912 220.51 25.0346Z" fill="black"/>
<path d="M229.852 14.8088C230.053 14.6127 230.253 14.4154 230.463 14.2258C230.547 14.1491 230.634 14.0735 230.723 14.0009C230.761 13.9698 230.799 13.9395 230.839 13.9097C230.858 13.895 230.877 13.8806 230.897 13.8665C230.91 13.8568 230.923 13.8477 230.936 13.8383C230.905 13.8599 230.9 13.864 230.918 13.8509C231.331 13.5703 231.799 13.3709 232.267 13.1769C232.428 13.1096 232.468 12.8963 232.385 12.7665C232.287 12.6149 232.097 12.5915 231.934 12.6588C231.461 12.8554 230.982 13.0575 230.566 13.3465C230.13 13.6494 229.761 14.0205 229.387 14.3847C229.265 14.5029 229.258 14.6917 229.387 14.8088C229.509 14.9209 229.73 14.9275 229.852 14.8088Z" fill="black"/>
<path d="M227.134 31.6403C226.122 33.6151 225.166 35.6125 224.262 37.6302C224.201 37.7675 224.331 37.9785 224.492 37.9992C225.006 38.0653 225.523 38.2641 226.016 38.4059C226.509 38.5476 227.025 38.7465 227.54 38.8125C227.717 38.8352 227.891 38.7731 227.945 38.6028C227.988 38.4628 227.89 38.2566 227.715 38.234C227.2 38.1679 226.684 37.9692 226.19 37.8275C225.698 37.6854 225.181 37.4869 224.667 37.4207C224.744 37.5437 224.819 37.6667 224.896 37.7898C225.778 35.8198 226.715 33.8708 227.702 31.943C227.88 31.5953 227.314 31.2902 227.134 31.6403Z" fill="black"/>
</g>
<mask id="mask7_3796_1496" style="mask-type:luminance" maskUnits="userSpaceOnUse" x="-18" y="0" width="422" height="216">
<path d="M-18 0H403V216H-18V0Z" fill="white"/>
</mask>
<g mask="url(#mask7_3796_1496)">
<path d="M268.565 155.523C262.01 155.25 255.421 156.175 248.839 156.338C239.556 156.571 230.394 155.29 221.429 153.695C220.867 153.595 219.548 152.504 219.495 152.158C219.046 149.252 219.251 136.2 220.499 125.641C225.004 125.54 229.409 126.369 233.892 126.575C236.724 126.705 239.574 126.586 242.419 126.531C249.822 126.389 257.222 126.681 264.527 127.407C265.318 127.485 266.173 127.593 266.699 128.04C267.117 128.396 267.244 128.896 267.35 129.371C268.28 133.551 268.766 137.8 268.805 142.063C268.819 143.79 268.76 145.519 268.702 147.247C268.612 149.923 268.521 152.599 268.431 155.275" fill="#EA4D28"/>
<path d="M248.038 147.732C246.465 148.574 246.158 150.076 244.586 150.919C243.932 151.268 242.689 152.255 242.34 152.868C241.991 153.481 242.178 154.402 242.886 154.648C243.321 154.8 244.608 154.054 245.048 153.917C246.869 153.347 246.686 153.356 249.7 152.209C250.506 155.661 250.457 159.241 251.776 159.445C252.91 159.621 253.569 159.239 253.761 158.204C253.59 158.717 254.415 160.07 255.606 159.962C256.657 159.869 257.115 158.644 257.162 157.994C257.218 158.706 257.592 159.785 259.204 159.425C260.116 159.222 259.842 157.761 260.283 157.392C260.39 158.006 260.899 158.521 261.577 158.459C262.979 158.333 263.184 156.949 263.168 156.811C262.736 153.008 262.175 152.277 261.744 148.473C257.633 147.33 253.219 147.105 248.994 147.823" fill="#FFCA0A"/>
</g>
<mask id="mask8_3796_1496" style="mask-type:luminance" maskUnits="userSpaceOnUse" x="-18" y="0" width="422" height="216">
<path d="M-18 0H403V216H-18V0Z" fill="white"/>
</mask>
<g mask="url(#mask8_3796_1496)">
<path d="M244.902 109.697C244.113 111.857 244.703 114.848 244.763 117.124C245.027 127.12 245.767 137.104 246.982 147.04C247.005 147.223 247.033 147.42 247.167 147.558C247.322 147.717 247.576 147.757 247.808 147.786C252.596 148.377 257.428 148.669 262.26 148.659C262.706 148.659 263.212 148.63 263.496 148.318C263.724 148.065 263.731 147.708 263.725 147.38C263.608 140.29 262.877 133.222 262.147 126.162C261.936 124.118 261.725 122.074 261.512 120.03C261.073 115.772 262.32 104.255 254.115 102.8C246.221 101.4 245.267 107.435 244.759 110.57" fill="white"/>
</g>
<mask id="mask9_3796_1496" style="mask-type:luminance" maskUnits="userSpaceOnUse" x="-18" y="0" width="422" height="216">
<path d="M-18 0H403V216H-18V0Z" fill="white"/>
</mask>
<g mask="url(#mask9_3796_1496)">
<path d="M242.055 103C241.334 90.743 240.685 88.8184 241.759 76.5976C242.121 72.4782 242.626 68.2276 244.481 64.7084C245.347 63.0616 246.751 61.4954 248.389 61.6744C249.03 61.7444 249.63 62.0804 250.187 62.46C256.448 66.715 258.556 76.0506 259.558 84.4824C260.53 92.6579 260.937 99.7446 260.912 108C260.908 109.221 260.692 114.8 251.922 114.6C245.86 114.462 244.467 114.6 242.055 103Z" fill="white"/>
</g>
<mask id="mask10_3796_1496" style="mask-type:luminance" maskUnits="userSpaceOnUse" x="-18" y="0" width="422" height="216">
<path d="M-18 0H403V216H-18V0Z" fill="white"/>
</mask>
<g mask="url(#mask10_3796_1496)">
<path d="M221.594 41.1416C222.962 41.381 223.704 42.1498 226.994 41.8644C227.438 41.8258 227.717 42.4702 227.722 43.0081C227.729 43.6575 226.804 44.189 226.216 44.3082C224.292 44.6986 222.965 44.1788 222.286 43.6384C221.272 42.8301 221.2 41.519 221.494 41.151" fill="white"/>
</g>
<mask id="mask11_3796_1496" style="mask-type:luminance" maskUnits="userSpaceOnUse" x="-18" y="0" width="422" height="216">
<path d="M-18 0H403V216H-18V0Z" fill="white"/>
</mask>
<g mask="url(#mask11_3796_1496)">
<path d="M221.919 31.842C221.919 32.3393 222.309 32.7426 222.79 32.7426C223.271 32.7426 223.661 32.3393 223.661 31.842C223.661 31.3445 223.271 30.9412 222.79 30.9412C222.309 30.9412 221.919 31.3445 221.919 31.842Z" fill="black"/>
</g>
<mask id="mask12_3796_1496" style="mask-type:luminance" maskUnits="userSpaceOnUse" x="-18" y="0" width="422" height="216">
<path d="M-18 0H403V216H-18V0Z" fill="white"/>
</mask>
<g mask="url(#mask12_3796_1496)">
<path d="M230.693 30.1551C230.857 29.6808 232.628 29.7665 234.647 30.3467C236.666 30.927 238.171 31.7819 238.007 32.2566C237.842 32.7309 236.072 32.6452 234.053 32.0649C232.034 31.4845 230.53 30.6298 230.693 30.1551Z" fill="black"/>
</g>
<mask id="mask13_3796_1496" style="mask-type:luminance" maskUnits="userSpaceOnUse" x="-18" y="0" width="422" height="216">
<path d="M-18 0H403V216H-18V0Z" fill="white"/>
</mask>
<g mask="url(#mask13_3796_1496)">
<path d="M231.678 34.385C231.678 34.9409 232.12 35.3916 232.665 35.3916C233.211 35.3916 233.653 34.9409 233.653 34.385C233.653 33.829 233.211 33.3782 232.665 33.3782C232.12 33.3782 231.678 33.829 231.678 34.385Z" fill="black"/>
</g>
<mask id="mask14_3796_1496" style="mask-type:luminance" maskUnits="userSpaceOnUse" x="-18" y="0" width="422" height="216">
<path d="M-18 0H403V216H-18V0Z" fill="white"/>
</mask>
<g mask="url(#mask14_3796_1496)">
<path d="M219.333 27.91C219.448 27.4237 221.219 27.362 223.289 27.772C225.358 28.182 226.941 28.9084 226.826 29.3943C226.71 29.8806 224.938 29.9424 222.87 29.5323C220.8 29.1224 219.216 28.3959 219.333 27.91Z" fill="black"/>
</g>
<path d="M37.5763 113.167L44.1366 213.898L69.4087 213.819L78.096 112.963" fill="#00345C"/>
<mask id="mask15_3796_1496" style="mask-type:luminance" maskUnits="userSpaceOnUse" x="-18" y="0" width="422" height="216">
<path d="M-18 0H403V216H-18V0Z" fill="white"/>
</mask>
<g mask="url(#mask15_3796_1496)">
<path d="M83.709 216.54C83.709 216.54 82.6694 211.987 79.4838 211.747C76.2983 211.508 57.6806 211.321 57.6806 211.321L57.2932 216.54H83.709Z" fill="black"/>
<path d="M69.9689 216.54C69.9689 216.54 68.9293 211.987 65.7437 211.747C62.5584 211.508 43.9405 211.321 43.9405 211.321L43.5533 216.54H69.9689Z" fill="black"/>
<path d="M64.7991 127.655C64.7033 131.435 64.5695 135.214 64.4209 138.992C64.1404 146.126 63.8089 153.261 63.2408 160.381C62.6996 167.165 61.9857 173.939 61.3747 180.718C60.7588 187.55 60.1562 194.383 59.5605 201.216C59.3471 203.664 59.1349 206.111 58.9238 208.558C58.8217 209.739 58.686 210.923 58.6185 212.106C58.6154 212.159 58.6093 212.212 58.6047 212.264C58.5714 212.657 59.2417 212.655 59.275 212.264C59.5308 209.273 59.7901 206.281 60.0501 203.29C60.6292 196.629 61.2149 189.968 61.812 183.309C62.4284 176.431 63.096 169.557 63.7164 162.679C64.3526 155.621 64.6929 148.539 64.9905 141.464C65.1811 136.934 65.3435 132.401 65.4636 127.868C65.4656 127.798 65.4674 127.726 65.4691 127.655C65.4793 127.261 64.809 127.261 64.7991 127.655Z" fill="black"/>
</g>
<mask id="mask16_3796_1496" style="mask-type:luminance" maskUnits="userSpaceOnUse" x="-18" y="0" width="422" height="216">
<path d="M-18 0H403V216H-18V0Z" fill="white"/>
</mask>
<g mask="url(#mask16_3796_1496)">
<path d="M36.1778 64.5266C41.4372 59.8633 46.2754 58.047 53.23 57.1219C60.1845 56.1968 67.4053 57.3977 73.6918 60.525C75.026 61.1888 75.5771 61.9428 76.7048 62.9191C79.1341 65.022 80.8744 68.0542 81.642 71.1819C82.41 74.3096 83.2616 77.5592 83.3069 80.7803C83.4744 92.7572 82.6657 104.745 81.3853 116.654C69.9793 115.581 58.5054 117.438 47.0502 117.296C41.7795 117.23 36.4599 116.744 31.2702 117.671C30.2021 117.862 29.1 118.111 28.0468 117.85C26.6075 117.492 25.5324 116.214 25.0323 114.812C24.5321 113.411 24.5166 111.886 24.5486 110.397C24.7076 103.007 25.8921 95.6831 27.0739 88.3876C28.4597 79.8326 30.136 70.6838 36.2179 64.5354" fill="#EA4D28"/>
<path d="M82.2098 110.432H25.2949V104.386L82.585 104.5L82.2098 110.432Z" fill="white"/>
<path d="M82.7196 100.962H26.5464V94.9153H83.086L82.7196 100.962Z" fill="white"/>
<path d="M62.1336 59.5217C62.1107 63.2706 62.2346 67.0185 62.4471 70.7621C62.6638 74.5822 62.9711 78.3976 63.3082 82.2101C63.6487 86.0634 64.0194 89.9143 64.3633 93.7675C64.7001 97.5418 65.0492 101.321 65.2341 105.105C65.4016 108.537 65.4173 112.052 64.6012 115.424C64.5049 115.821 64.3953 116.216 64.2729 116.607C64.157 116.979 64.7916 117.137 64.9073 116.766C65.9391 113.462 66.0492 109.952 65.9483 106.539C65.8386 102.819 65.4871 99.1009 65.1643 95.3925C64.8251 91.4941 64.4506 87.5983 64.0991 83.701C63.7546 79.881 63.4323 76.0589 63.1928 72.2321C62.9569 68.4649 62.8012 64.6925 62.7892 60.9187C62.7876 60.4531 62.7885 59.9876 62.7914 59.5217C62.7937 59.1355 62.1359 59.1352 62.1336 59.5217Z" fill="black"/>
</g>
<mask id="mask17_3796_1496" style="mask-type:luminance" maskUnits="userSpaceOnUse" x="-18" y="0" width="422" height="216">
<path d="M-18 0H403V216H-18V0Z" fill="white"/>
</mask>
<g mask="url(#mask17_3796_1496)">
<path d="M52.4127 37.1922C52.6143 39.4877 52.8235 41.8153 53.6837 43.9803C54.5438 46.1453 56.1503 48.165 58.4556 49.1036C59.9647 49.7179 60.923 50.428 62.5715 50.5325C64.1825 50.6345 66.0892 50.6587 67.7001 50.7607C68.7517 50.8273 70.2844 50.3675 71.253 49.9878C73.0573 49.2805 73.7973 47.3405 74.2488 45.5969C75.5752 40.4727 76.0605 34.8907 73.6592 30.1026C71.258 25.3145 65.2367 21.7429 59.689 23.1975C55.9426 24.1797 53.1385 27.2317 51.9463 30.6169C50.754 34.0019 50.9804 37.6787 51.7374 41.1664C52.1117 42.8911 52.6288 44.6273 53.6892 46.0955C55.4326 48.509 58.4846 49.933 61.5947 50.4871" fill="#FFCA0A"/>
<path d="M53.9471 45.3496C54.5043 49.1748 55.0612 53.0001 55.6184 56.8253C55.6936 57.3426 56.0431 57.6895 56.5205 57.9771C59.6944 59.8884 62.3211 59.2038 65.8831 57.9458C67.0501 54.266 68.2291 51.0502 67.8406 47.236C65.4582 47.6633 62.9655 47.5696 60.6298 46.965C58.7325 46.4739 56.6436 46.6255 54.8555 47.3841C54.7282 47.438 54.5773 47.5328 54.61 47.6576C54.6429 47.7822 54.9104 47.6412 54.779 47.5955" fill="#FFCA0A"/>
<path d="M54.191 48.5929C52.2993 49.2175 49.6113 44.9984 48.7208 43.353C47.9846 41.9922 47.7757 40.3995 48.1399 38.9188C48.4485 37.6642 49.1537 36.4788 49.1794 35.193C49.1995 34.1732 48.7883 33.1921 48.5978 32.1872C47.9442 28.7418 50.0573 25.1635 53.2468 23.2238C56.4363 21.2844 60.4998 20.818 64.295 21.311C66.0963 21.5447 67.8789 21.9862 69.4904 22.7568C73.1092 24.488 75.6391 27.8435 76.536 31.4802C76.6536 31.9564 76.7414 32.472 76.5272 32.9192C76.158 33.69 75.0881 33.9181 74.1671 33.9593C71.5767 34.0748 69.017 33.5036 66.4427 33.2156C63.8687 32.9274 61.1107 32.9559 58.872 34.1502C57.9813 34.6254 57.1415 35.3917 57.1378 36.333C57.1365 36.7298 57.2841 37.1397 57.1393 37.5137C56.736 38.5568 55.0075 38.0417 53.8381 38.3338C52.0704 38.7754 52.0055 41.2964 53.3632 42.419C54.721 43.5417 54.235 43.419 56.0673 43.4587C55.1055 45.5237 56.3909 49.5963 54.191 48.5929Z" fill="black"/>
<path d="M70.0202 38.0203C69.9755 38.5619 69.9307 39.1034 69.886 39.6448C69.843 40.1655 69.7518 40.7025 69.8387 41.2225C69.881 41.476 69.9594 41.7218 70.0341 41.9681C70.0708 42.0895 70.1077 42.2109 70.1446 42.3321C70.1658 42.4026 70.1755 42.4947 70.2134 42.5595C70.2226 42.5899 70.2318 42.6204 70.241 42.6506C70.2575 42.6061 70.2739 42.5615 70.2904 42.5169C70.2726 42.5019 69.9594 42.6126 69.9182 42.6224C69.7926 42.652 69.665 42.6768 69.5368 42.6945C69.2444 42.7347 68.9473 42.7352 68.6531 42.7154C68.2307 42.687 68.2327 43.2872 68.6531 43.3154C69.2786 43.3575 69.9235 43.2856 70.5107 43.0797C70.7381 43.0001 70.9155 42.8703 70.9006 42.6258C70.8835 42.3412 70.7376 42.0372 70.6548 41.7632C70.5656 41.4692 70.4676 41.175 70.4601 40.8676C70.4531 40.575 70.4913 40.2808 70.5153 39.9893C70.5695 39.3329 70.6239 38.6767 70.678 38.0203C70.71 37.6351 70.0521 37.6371 70.0202 38.0203Z" fill="black"/>
<path d="M56.4861 39.576C56.018 39.3382 55.4698 39.1117 54.9264 39.2705C54.4637 39.4057 54.1342 39.7515 53.9606 40.1556C53.6002 40.9941 54.0871 42.0157 54.9438 42.4247C55.4488 42.6655 56.0421 42.7215 56.5898 42.5771C56.9956 42.4702 56.8231 41.8909 56.4148 41.9986C55.558 42.2245 54.6315 41.741 54.5116 40.9116C54.4607 40.561 54.5841 40.1661 54.9029 39.9455C55.2933 39.6754 55.7766 39.9021 56.1541 40.094C56.5242 40.2822 56.8562 39.7641 56.4861 39.576Z" fill="black"/>
<path d="M56.3316 46.5012C58.8062 48.345 61.6512 49.751 64.7025 50.6211C65.5805 50.8714 66.4737 51.0749 67.3771 51.2341C67.7906 51.307 67.9678 50.7288 67.5518 50.6554C63.6217 49.9624 59.8988 48.3881 56.7968 46.077C56.4714 45.8346 56.0033 46.2568 56.3316 46.5012Z" fill="black"/>
<path d="M47.436 37.7542C47.2082 37.5389 43.6834 42.318 45.6849 41.5192C47.0414 40.9779 46.6431 41.3176 47.8362 40.6034C52.8822 37.5819 58.6497 35.9476 64.4646 35.1882C70.2795 34.429 76.3313 35.016 77.4696 35.1606C80.7092 35.2441 80.6124 34.582 81.0846 34.3314C80.7109 34.1284 77.9557 32.823 77.582 32.62C77.4524 30.7413 76.701 28.9931 76.0811 27.2576C73.4751 19.9627 64.573 19.4991 60.4452 19.6132C60.2269 19.6191 57.6933 19.6132 51.564 22.5796C50.5926 23.0498 47.977 25.4352 47.1858 28.1704C46.1326 31.8111 45.6293 33.612 47.436 37.7542Z" fill="#EA4D28" stroke="#EA4D28" stroke-width="0.114" stroke-miterlimit="10"/>
<path d="M47.792 37.9187C49.1403 36.8503 50.6939 36.0289 52.2945 35.3181C53.9642 34.5763 55.6838 33.9165 57.4103 33.2935C60.9838 32.0037 64.714 30.9553 68.5675 30.7145C70.7222 30.5797 72.8927 30.6961 74.9976 31.1509C75.4091 31.2397 75.5848 30.6613 75.1726 30.5724C71.3193 29.7397 67.2931 30.0033 63.4727 30.8543C59.7147 31.6913 56.0721 33.0451 52.5725 34.535C50.7024 35.331 48.8909 36.2549 47.3269 37.4943C47.0068 37.7481 47.4737 38.1711 47.792 37.9187Z" fill="black"/>
<path d="M52.2747 22.8216C53.2224 23.0109 54.1104 23.3698 54.902 23.8813C55.2842 24.1283 55.6367 24.4132 55.9575 24.7242C56.1207 24.8824 56.2768 25.0473 56.4204 25.2205C56.4937 25.3085 56.5636 25.3986 56.6313 25.4902C56.6568 25.5245 56.8397 25.7387 56.8193 25.7785C56.6408 26.1261 57.2076 26.431 57.3872 26.0813C57.6554 25.5591 57.1007 25.0311 56.7579 24.6485C56.3972 24.2458 55.9847 23.8859 55.5345 23.5675C54.6268 22.9257 53.5725 22.4673 52.4497 22.2431C52.037 22.1608 51.8607 22.739 52.2747 22.8216Z" fill="black"/>
<path d="M55.7314 21.3379C57.5373 21.8211 59.3516 22.4922 60.7421 23.6843C61.3774 24.2291 61.9117 24.8671 62.2845 25.5879C62.4653 25.9377 62.5989 26.3089 62.6854 26.6876C62.7579 27.0053 62.8041 27.3757 63.1418 27.56C63.5262 27.7695 64.1257 27.5827 64.536 27.53C65.0672 27.4615 65.5985 27.3931 66.1296 27.3249C66.6609 27.2565 67.1923 27.1881 67.7233 27.1199C68.1743 27.0619 68.758 27.0725 69.0955 26.7489C69.648 26.2191 69.2234 25.4109 68.9635 24.8517C68.6771 24.2357 68.3577 23.6323 67.9835 23.0565C67.0769 21.6613 65.8298 20.4113 64.1761 19.7531C63.792 19.6001 63.4565 20.1169 63.8442 20.2711C65.2078 20.8139 66.279 21.7671 67.0926 22.8889C67.4755 23.4163 67.806 23.9744 68.0995 24.5467C68.2375 24.8159 68.3673 25.0881 68.4894 25.3634C68.6 25.6123 68.7899 25.9697 68.6785 26.2424C68.6151 26.3979 68.439 26.4215 68.2757 26.4473C68.0174 26.4882 67.7551 26.5148 67.4955 26.5481C66.9994 26.6119 66.5038 26.6757 66.008 26.7395L64.5204 26.9307C64.2902 26.9603 64.0599 26.9901 63.8299 27.0197C63.6113 27.0475 63.4776 27.1093 63.4028 26.8977C63.287 26.5699 63.2517 26.2225 63.1264 25.8937C62.9965 25.5525 62.832 25.2207 62.6375 24.9063C62.2454 24.2731 61.7302 23.6985 61.1443 23.2067C59.6771 21.9751 57.7963 21.2651 55.9061 20.7593C55.4992 20.6503 55.3253 21.2293 55.7314 21.3379Z" fill="black"/>
</g>
<mask id="mask18_3796_1496" style="mask-type:luminance" maskUnits="userSpaceOnUse" x="-18" y="0" width="422" height="216">
<path d="M-18 0H403V216H-18V0Z" fill="white"/>
</mask>
<g mask="url(#mask18_3796_1496)">
<path d="M31.0034 126.644C26.9853 126.827 23.5644 124.006 23.3628 120.341L22.1401 98.0933C21.9385 94.4282 25.0327 91.3082 29.0508 91.1245C33.0691 90.9407 36.4897 93.7628 36.6913 97.4278L37.9141 119.675C38.1157 123.341 35.0215 126.46 31.0034 126.644Z" fill="#00345C"/>
</g>
<mask id="mask19_3796_1496" style="mask-type:luminance" maskUnits="userSpaceOnUse" x="-18" y="0" width="422" height="216">
<path d="M-18 0H403V216H-18V0Z" fill="white"/>
</mask>
<g mask="url(#mask19_3796_1496)">
<path d="M29.0902 102.088L27.6466 101.694C23.894 100.669 21.7626 97.0632 22.8864 93.6404L31.283 68.0638C32.4067 64.6408 36.36 62.697 40.1126 63.7218L41.5562 64.1162C45.3088 65.1412 47.4401 68.7468 46.3164 72.1698L37.9198 97.7464C36.796 101.169 32.8428 103.113 29.0902 102.088Z" fill="#00345C"/>
</g>
<mask id="mask20_3796_1496" style="mask-type:luminance" maskUnits="userSpaceOnUse" x="-18" y="0" width="422" height="216">
<path d="M-18 0H403V216H-18V0Z" fill="white"/>
</mask>
<g mask="url(#mask20_3796_1496)">
<path d="M27.2324 122.927C26.1363 125.107 26.9963 127.318 27.0502 128.101C27.2541 131.06 28.6292 144.216 28.8855 144.471C29.9823 145.56 30.6335 144.216 30.6526 143.863C30.8546 144.841 30.8245 145.372 31.0265 146.35C31.0809 146.614 31.2696 147.126 31.5256 147.266C31.8397 147.44 32.4295 147.523 32.7022 147.262C32.9749 147.001 33.0901 146.655 33.1711 146.322C33.1793 146.854 33.1955 147.412 33.5106 147.846C33.8257 148.279 34.5481 148.523 35.0922 148.22C35.7544 147.851 35.696 147.04 35.5474 146.417C35.7491 146.914 37.0127 146.79 37.3191 146.292C37.4191 146.13 37.4469 145.948 37.4699 145.77C38.0646 141.176 37.5118 137.141 37.0244 132.213C37.0115 132.083 37.0959 131.927 37.2395 131.87C37.3656 131.819 37.5855 131.776 37.678 131.853C39.7991 133.612 42.0633 135.331 43.9887 136.03C44.1171 136.077 44.2571 136.08 44.397 136.114C45.2959 136.332 45.3503 135.295 45.208 134.941C45.0655 134.589 43.2169 133.477 42.9806 133.16C40.775 130.201 38.4004 126.015 36.7683 123.203C36.5249 122.784 35.3465 119.134 30.8256 120.18C27.7859 120.884 27.2511 122.664 27.2443 122.905" fill="#FFCA0A"/>
<path d="M35.7551 146.4C35.8576 144.771 35.897 143.141 35.8346 141.511C35.7826 140.158 35.6679 138.806 35.5819 137.454C35.5692 137.255 35.2276 137.253 35.2403 137.454C35.3263 138.806 35.4412 140.158 35.4931 141.511C35.5557 143.141 35.516 144.771 35.4136 146.4C35.4011 146.6 35.7427 146.599 35.7551 146.4Z" fill="black"/>
<path d="M33.4525 146.447C33.381 143.981 33.2573 141.516 33.1683 139.051C33.1618 138.869 33.1551 138.688 33.1504 138.506C33.1491 138.452 33.1528 138.397 33.1471 138.344C33.1403 138.279 33.1802 138.228 33.1262 138.336C33.0621 138.359 32.9975 138.384 32.9333 138.407C33.1472 138.451 33.2394 138.151 33.0247 138.107C32.9572 138.093 32.8629 138.115 32.8313 138.179C32.7463 138.35 32.8123 138.628 32.8181 138.807C32.8346 139.297 32.8545 139.786 32.8741 140.277C32.9295 141.655 32.9876 143.033 33.0402 144.412C33.0661 145.09 33.0913 145.768 33.1109 146.447C33.1168 146.647 33.4582 146.648 33.4525 146.447Z" fill="black"/>
<path d="M30.9036 144.101C31.1915 142.224 30.665 140.315 30.5635 138.442C30.5528 138.242 30.2111 138.241 30.2221 138.442C30.2756 139.431 30.4172 140.413 30.5301 141.4C30.6297 142.267 30.7073 143.15 30.5742 144.018C30.5441 144.214 30.8731 144.299 30.9036 144.101Z" fill="black"/>
</g>
<mask id="mask21_3796_1496" style="mask-type:luminance" maskUnits="userSpaceOnUse" x="-18" y="0" width="422" height="216">
<path d="M-18 0H403V216H-18V0Z" fill="white"/>
</mask>
<g mask="url(#mask21_3796_1496)">
<path d="M61.2507 36.8081C62.1915 36.9609 63.1195 36.6492 64.0613 36.5864C64.5713 36.5525 65.0835 36.548 65.5946 36.5514C65.8516 36.553 67.2933 36.4632 67.4145 36.6332C67.5392 36.3538 67.6638 36.0746 67.7884 35.795C66.8016 36.0703 65.5749 35.9272 64.5519 35.9364C63.5971 35.945 62.4991 35.7526 61.5971 36.0487C61.1562 36.193 60.9112 36.8736 61.4484 37.0846C62.4544 37.48 63.6834 37.324 64.7664 37.2762C65.8489 37.2287 67.0933 37.2246 68.121 36.8954C68.4762 36.7819 68.7367 36.3824 68.4949 36.0575C67.7952 35.1162 65.8954 35.4154 64.8256 35.4789C63.5804 35.5528 61.9634 35.6106 61.1491 36.5803C61.0852 36.656 61.1508 36.7919 61.2507 36.8081Z" fill="black"/>
</g>
<mask id="mask22_3796_1496" style="mask-type:luminance" maskUnits="userSpaceOnUse" x="-18" y="0" width="422" height="216">
<path d="M-18 0H403V216H-18V0Z" fill="white"/>
</mask>
<g mask="url(#mask22_3796_1496)">
<path d="M71.8747 36.5795C72.384 36.7625 72.9838 36.7461 73.5252 36.7885C74.1404 36.8367 74.7421 36.9349 75.3437 37.0599C75.4129 36.5937 75.4821 36.1277 75.5513 35.6615C75.0116 35.7231 74.4746 35.7473 73.9313 35.7095C73.3868 35.6717 72.8724 35.522 72.331 35.4781C71.5631 35.4157 71.2149 36.5413 71.9286 36.8335C73.0942 37.3107 74.523 37.2393 75.7587 37.0599C76.5158 36.9501 76.4916 35.8157 75.7587 35.6869C74.5303 35.4709 72.9187 35.1467 71.7409 35.6461C71.2557 35.8519 71.4767 36.4365 71.8747 36.5795Z" fill="black"/>
</g>
<mask id="mask23_3796_1496" style="mask-type:luminance" maskUnits="userSpaceOnUse" x="-18" y="0" width="422" height="216">
<path d="M-18 0H403V216H-18V0Z" fill="white"/>
</mask>
<g mask="url(#mask23_3796_1496)">
<path d="M67.1015 45.5886C67.8104 45.3208 68.5585 45.2564 69.3191 45.3036C69.6977 45.3272 70.0724 45.3769 70.4453 45.4392C70.6396 45.4718 70.8334 45.5076 71.0269 45.545C71.1714 45.573 71.407 45.5784 71.5252 45.6502C71.4751 45.5904 71.4245 45.5306 71.3741 45.4708L71.39 45.5062C71.4009 45.4292 71.4121 45.3522 71.423 45.2752C71.4182 45.2818 71.4132 45.2884 71.4082 45.2952C71.5029 45.2456 71.5974 45.196 71.6924 45.1466C71.7303 45.1566 71.7682 45.1666 71.8064 45.1766C71.8568 45.2896 71.9073 45.4026 71.9574 45.5154C71.9596 45.5096 71.962 45.5038 71.9642 45.498C72.1032 45.1324 71.4681 44.9754 71.3298 45.3384C71.3277 45.3442 71.3255 45.3503 71.3231 45.356C71.2764 45.4792 71.3542 45.632 71.4744 45.6948C71.6695 45.7966 71.9201 45.7406 72.0076 45.5422C72.1058 45.32 71.9184 45.1262 71.6941 45.065C71.1759 44.9236 70.6109 44.8486 70.0763 44.7796C69.0199 44.6432 67.9284 44.6314 66.9265 45.01C66.7612 45.0724 66.6476 45.2084 66.6969 45.3792C66.7379 45.521 66.9375 45.6506 67.1015 45.5886Z" fill="black"/>
</g>
<mask id="mask24_3796_1496" style="mask-type:luminance" maskUnits="userSpaceOnUse" x="-18" y="0" width="422" height="216">
<path d="M-18 0H403V216H-18V0Z" fill="white"/>
</mask>
<g mask="url(#mask24_3796_1496)">
<path d="M66.7815 45.5126C67.5211 46.1117 68.4207 46.6485 69.4445 46.6574C69.8703 46.6613 70.2847 46.5637 70.6672 46.3964C70.8748 46.3057 71.0661 46.1906 71.2484 46.0626C71.347 45.9933 71.4429 45.9214 71.535 45.845C71.5823 45.8059 71.6287 45.7657 71.674 45.7247C71.71 45.6922 71.8672 45.5981 71.7231 45.637L71.4697 45.6069L71.3901 45.5074C71.4011 45.4305 71.412 45.3535 71.4232 45.2762C71.4181 45.283 71.4133 45.2896 71.4083 45.2962C71.5028 45.2466 71.5975 45.1972 71.6922 45.1477C71.7301 45.1579 71.7683 45.1679 71.8064 45.1779C71.8567 45.2909 71.9071 45.4039 71.9575 45.5167C71.9597 45.5108 71.9619 45.5051 71.9642 45.4992C72.1033 45.1334 71.4681 44.9765 71.3298 45.3396C71.3276 45.3455 71.3253 45.3512 71.3231 45.3573C71.2762 45.4805 71.354 45.6333 71.4742 45.6961C71.7299 45.8293 72.0634 45.6695 72.0301 45.3878C72.0006 45.1379 71.689 44.9639 71.4407 45.0965C71.3111 45.1656 71.2076 45.3048 71.098 45.3976C71.0024 45.4785 70.9033 45.556 70.7978 45.6256C70.5982 45.7577 70.381 45.8744 70.1477 45.9487C69.0696 46.2923 68.0341 45.7263 67.2465 45.0885C66.931 44.8328 66.4642 45.2557 66.7815 45.5126Z" fill="black"/>
</g>
<mask id="mask25_3796_1496" style="mask-type:luminance" maskUnits="userSpaceOnUse" x="-18" y="0" width="422" height="216">
<path d="M-18 0H403V216H-18V0Z" fill="white"/>
</mask>
<g mask="url(#mask25_3796_1496)">
<path d="M64.6658 39.8288C64.8398 40.1412 65.3563 40.167 65.6699 39.9648C65.9835 39.7624 66.1378 39.4155 66.2602 39.0833C66.3043 38.9632 66.3469 38.8341 66.3108 38.7118C66.2133 38.3774 65.6706 38.3886 65.3446 38.566C64.9812 38.7634 64.6933 39.0732 64.5387 39.4321" fill="black"/>
</g>
<mask id="mask26_3796_1496" style="mask-type:luminance" maskUnits="userSpaceOnUse" x="-18" y="0" width="422" height="216">
<path d="M-18 0H403V216H-18V0Z" fill="white"/>
</mask>
<g mask="url(#mask26_3796_1496)">
<path d="M72.9614 39.1418C72.9614 39.7416 73.3113 39.8232 73.7444 39.898C74.0031 39.9428 74.312 39.8562 74.4157 39.6352C74.4647 39.5311 74.4618 39.4124 74.4386 39.3008C74.3663 38.9547 74.0669 38.6355 73.6836 38.592C73.3004 38.5486 72.8906 38.8546 72.9327 39.2048" fill="black"/>
</g>
<mask id="mask27_3796_1496" style="mask-type:luminance" maskUnits="userSpaceOnUse" x="-18" y="0" width="422" height="216">
<path d="M-18 0H403V216H-18V0Z" fill="white"/>
</mask>
<g mask="url(#mask27_3796_1496)">
<path d="M156.081 128.077C156.081 128.077 152.911 123.407 152.473 122.935C152.034 122.463 148.228 112.609 141.071 114.206C133.094 115.987 137.107 125.915 137.107 125.915L142.13 140.839C142.13 140.839 142.927 142.007 143.629 141.835C144.934 141.516 144.707 140.621 144.707 140.621C144.707 140.621 145.259 143.445 147.375 143.149C148.718 142.961 148.054 141.363 148.054 141.363C148.054 141.363 148.855 143.367 150.616 143.073C152.365 142.779 151.607 140.324 151.607 140.324C151.607 140.324 152.298 141.307 153.604 140.97C154.883 140.64 154.659 138.434 154.659 138.434L151.453 127.614L153.983 129.879C153.983 129.879 155.204 130.695 155.944 129.89C156.882 128.872 156.081 128.077 156.081 128.077Z" fill="#FFCA0A"/>
<path d="M151.972 140.232C151.669 139.285 151.364 138.336 151.061 137.388C150.577 135.877 150.093 134.366 149.609 132.855C149.498 132.508 149.386 132.162 149.275 131.815C149.139 131.389 148.408 131.57 148.546 131.998C148.849 132.946 149.153 133.894 149.457 134.843C149.941 136.354 150.425 137.865 150.909 139.376C151.02 139.723 151.131 140.069 151.242 140.416C151.378 140.842 152.109 140.661 151.972 140.232Z" fill="black"/>
<path d="M148.506 141.086C148.203 140.138 147.9 139.19 147.595 138.242C147.111 136.73 146.628 135.219 146.144 133.708C146.032 133.361 145.921 133.014 145.811 132.667C145.674 132.242 144.944 132.423 145.08 132.851C145.385 133.798 145.688 134.748 145.991 135.696C146.475 137.207 146.96 138.718 147.444 140.23C147.555 140.575 147.667 140.922 147.777 141.269C147.914 141.695 148.644 141.514 148.506 141.086Z" fill="black"/>
<path d="M145.225 140.887C144.544 138.743 143.863 136.6 143.181 134.456L142.887 133.531C142.752 133.106 142.022 133.287 142.158 133.715C142.84 135.858 143.521 138.002 144.202 140.147L144.496 141.07C144.631 141.497 145.362 141.316 145.225 140.887Z" fill="black"/>
</g>
<mask id="mask28_3796_1496" style="mask-type:luminance" maskUnits="userSpaceOnUse" x="-18" y="0" width="422" height="216">
<path d="M-18 0H403V216H-18V0Z" fill="white"/>
</mask>
<g mask="url(#mask28_3796_1496)">
<path d="M136.715 123.102C136.715 123.102 138.949 125.844 144.065 125.332C150.403 124.7 147.347 117.666 147.347 117.666L138.34 90.5722C138.34 90.5722 134.134 85.0419 127.353 88.4619C121.405 91.4612 123.083 96.8401 123.083 96.8401L136.715 123.102Z" fill="#FFCA0A"/>
</g>
<mask id="mask29_3796_1496" style="mask-type:luminance" maskUnits="userSpaceOnUse" x="-18" y="0" width="422" height="216">
<path d="M-18 0H403V216H-18V0Z" fill="white"/>
</mask>
<g mask="url(#mask29_3796_1496)">
<path d="M138.404 65.2218C138.404 65.2218 138.054 56.8699 128.794 57.4131C120.901 57.8759 120.263 66.6119 120.263 66.6119L122.003 91.3003C122.003 91.3003 123.76 97.6125 131.477 97.1599C138.244 96.7629 140.198 90.6682 140.198 90.6682L138.404 65.2218Z" fill="#FFCA0A"/>
<path d="M140.186 73.5982C140.186 73.5982 141.852 56.6472 129.149 57.3923C116.917 58.1099 119.411 74.8169 119.411 74.8169L140.186 73.5982Z" fill="white"/>
</g>
<path d="M87.1124 117.546L95.9434 214.269L129.964 214.191L141.659 117.35" fill="black"/>
<mask id="mask30_3796_1496" style="mask-type:luminance" maskUnits="userSpaceOnUse" x="-18" y="0" width="422" height="216">
<path d="M-18 0H403V216H-18V0Z" fill="white"/>
</mask>
<g mask="url(#mask30_3796_1496)">
<path d="M131.239 58.3014C131.239 58.3014 125.901 54.9496 113.206 55.0582C100.513 55.1669 92.1262 58.5331 92.1262 58.5331C92.1262 58.5331 85.6433 85.1857 85.837 86.4537C86.0309 87.7216 138.096 82.3934 138.096 82.3934L130.985 59.228" fill="white"/>
<path d="M107.618 54.595C112.697 59.2282 119.556 73.5908 119.556 73.5908L120.842 54.7902L129.207 56.6799C129.207 56.6799 138.349 71.0424 140.114 87.8576C141.74 103.353 142.088 115.88 141.416 129.792C129.54 131.565 88.3162 129.651 88.3162 129.651C88.3162 129.651 84.7471 107.364 85.0694 93.0894C85.392 78.8154 79.1079 64.816 90.856 57.1432" fill="#EA4D28"/>
<path d="M141.381 103.653L85.0146 103.706L84.5669 96.3337H141.009L141.381 103.653Z" fill="white"/>
<path d="M141.771 117.309L86.5381 117.373L85.7764 109.265L141.889 109.334L141.771 117.309Z" fill="white"/>
<path d="M118.948 73.7836C119.27 75.5332 119.565 77.2873 119.854 79.0417C120.523 83.092 121.134 87.1508 121.667 91.2184C122.264 95.7808 122.781 100.36 123.026 104.95C123.327 110.571 123.407 116.208 123.511 121.835C123.565 124.809 123.61 127.783 123.628 130.757C123.628 130.8 123.629 130.842 123.629 130.884C123.631 131.328 124.387 131.329 124.385 130.884C124.373 128.415 124.337 125.946 124.296 123.477C124.202 117.786 124.064 112.096 123.85 106.407C123.679 101.876 123.195 97.3532 122.632 92.8495C122.099 88.5868 121.472 84.3341 120.785 80.0898C120.553 78.6556 120.314 77.2223 120.065 75.7903C119.944 75.0923 119.848 74.3838 119.693 73.6914C119.687 73.6612 119.683 73.6305 119.677 73.6003C119.596 73.1631 118.867 73.3484 118.948 73.7836Z" fill="black"/>
<path d="M149.217 216.804C149.217 216.804 147.817 212.433 143.529 212.202C139.24 211.973 114.178 211.793 114.178 211.793L113.656 216.804H149.217Z" fill="#303030"/>
<path d="M130.719 216.804C130.719 216.804 129.319 212.433 125.031 212.202C120.743 211.973 95.6804 211.793 95.6804 211.793L95.1589 216.804H130.719Z" fill="#303030"/>
<path d="M123.83 131.457C123.702 135.087 123.521 138.716 123.322 142.344C122.944 149.196 122.497 156.053 121.733 162.88C121.386 165.98 120.938 169.07 120.535 172.165C120.09 175.567 119.655 178.971 119.225 182.376C118.393 188.957 117.579 195.54 116.775 202.125C116.488 204.468 116.203 206.81 115.92 209.153C115.783 210.282 115.608 211.414 115.51 212.547C115.506 212.598 115.499 212.649 115.492 212.699C115.439 213.144 116.201 213.14 116.255 212.699C116.598 209.836 116.945 206.974 117.294 204.11C118.072 197.73 118.858 191.35 119.66 184.972C120.489 178.373 121.382 171.781 122.22 165.184C123.085 158.387 123.546 151.546 123.948 144.717C124.205 140.367 124.424 136.015 124.585 131.662C124.587 131.594 124.59 131.526 124.592 131.457C124.608 131.01 123.847 131.01 123.83 131.457Z" fill="#303030"/>
</g>
<mask id="mask31_3796_1496" style="mask-type:luminance" maskUnits="userSpaceOnUse" x="-18" y="0" width="422" height="216">
<path d="M-18 0H403V216H-18V0Z" fill="white"/>
</mask>
<g mask="url(#mask31_3796_1496)">
<path d="M111.755 28.0801C111.551 28.0801 111.336 28.0838 111.059 28.0924C110.586 28.107 110.089 28.1476 109.583 28.2131C109.073 28.2788 108.637 28.3579 108.247 28.4543L108.006 28.5144C107.719 28.5851 107.362 28.6731 107.026 28.7677C106.528 28.9084 106.05 29.0705 105.608 29.2486C105.115 29.448 104.663 29.7038 104.245 29.9484C103.484 30.3925 102.828 30.9497 102.35 31.5602C102.129 31.8435 101.936 32.1768 101.781 32.5511C101.667 32.8223 101.588 33.1222 101.527 33.5238C101.5 33.6306 101.481 33.7423 101.465 33.8407C101.43 34.054 101.415 34.2557 101.402 34.443C101.401 34.4723 101.398 34.5019 101.396 34.5312L101.394 34.5599C101.387 34.6351 101.381 34.7222 101.381 34.8057C101.381 34.9587 101.382 35.1117 101.383 35.2649C101.387 35.8165 101.423 36.3777 101.458 36.8538C101.496 37.3593 101.594 37.8688 101.69 38.3615L101.704 38.4349C101.719 38.5109 101.739 38.587 101.759 38.6632C101.768 38.7007 101.779 38.7385 101.787 38.7758C101.796 38.8146 101.805 38.8521 101.814 38.8894L101.818 38.9099C101.836 38.9834 101.852 39.0566 101.874 39.1286C101.894 39.1984 101.914 39.2687 101.934 39.3387C101.978 39.5008 102.029 39.6846 102.096 39.8598C102.295 40.3878 102.502 40.9062 102.709 41.4012C102.914 41.8862 103.147 42.3884 103.422 42.9366C103.505 43.0999 103.778 43.5871 103.778 43.5871C103.96 43.9172 104.168 44.2337 104.395 44.5277C104.63 44.8304 105.26 46.7329 105.69 47.002L106.699 47.6922C106.699 47.6922 106.693 48.5765 106.699 48.6126C106.712 48.6824 107.636 54.7061 107.708 55.0551C107.721 55.1133 111.744 59.1964 116.79 58.9665C120.353 58.8039 120.559 55.3943 120.573 55.285C120.582 55.2177 121.078 52.0639 121.078 52.0639C121.079 51.7849 121.384 51.6291 121.934 51.6764C122.227 51.7017 122.528 51.7028 122.82 51.7041L122.896 51.7044L123.076 51.7051C123.333 51.7051 123.607 51.6996 123.871 51.6596C124.007 51.6394 124.109 51.6071 124.237 51.5661C124.362 51.5259 124.433 51.4829 124.543 51.4177C124.634 51.3635 124.689 51.3088 124.759 51.2394L124.784 51.2139C124.854 51.1444 124.889 51.0816 124.932 51.002L124.951 50.9684C125.09 50.7151 125.134 50.4327 125.176 50.1594L125.184 50.1089C125.224 49.8456 125.259 49.5783 125.296 49.2677C125.349 48.8214 125.358 48.3675 125.368 47.9282L125.373 47.7134C125.384 47.2645 125.387 46.8214 125.392 46.3305L125.393 46.2441C125.403 45.2069 125.41 44.1703 125.415 43.1326C125.417 42.9645 125.418 42.7984 125.42 42.6331C125.428 41.7786 125.435 40.8953 125.371 40.0231C125.333 39.5127 125.292 39.0133 125.204 38.5125C125.194 38.4524 125.184 38.3919 125.174 38.3313L125.165 38.2687C125.13 38.0509 125.093 37.8301 125.039 37.6166C125.025 37.5645 125.012 37.512 124.999 37.4595L124.987 37.4099C124.941 37.2237 124.893 37.0343 124.831 36.8513L124.808 36.7851C124.677 36.4023 124.543 36.0091 124.363 35.6315C124.112 35.1031 123.779 34.5806 123.374 34.0788C123.177 33.8355 122.998 33.617 122.812 33.4055C122.602 33.167 122.402 32.9463 122.203 32.7309C122.023 32.537 121.831 32.3458 121.644 32.1609L121.625 32.1418L121.569 32.0861C121.362 31.8813 121.139 31.6844 120.922 31.4945L120.809 31.394C120.753 31.3438 120.689 31.2965 120.628 31.2506L120.55 31.1923L120.161 30.894L120.152 30.8863C120.067 30.8213 119.976 30.7592 119.895 30.7044C119.849 30.6719 119.808 30.6441 119.767 30.6157L119.699 30.5671C119.618 30.5095 119.538 30.4529 119.455 30.4004L119.41 30.3711L119.397 30.3631C119.107 30.1785 118.808 29.9877 118.497 29.8152L118.017 29.5494C117.632 29.3365 117.191 29.1612 116.812 29.0182C116.224 28.7972 115.605 28.6333 114.969 28.471C114.755 28.4162 114.531 28.3741 114.316 28.333L114.298 28.33C114.212 28.3134 114.125 28.2968 114.039 28.2798C113.572 28.1874 113.09 28.1463 112.595 28.1087C112.338 28.0894 112.063 28.0801 111.755 28.0801Z" fill="#FFCA0A"/>
<path d="M103.446 40.5855C104.604 39.0177 105.776 39.9572 106.15 39.862C107.566 39.5002 107.111 36.9853 107.943 36.7488C112.253 35.5206 116.826 35.2034 121.268 35.8243C122.805 36.0394 124.614 36.2795 125.687 35.1661C126.8 34.0107 126.127 32.1578 126.11 30.5594C126.09 28.7173 123.198 26.3128 120.959 25.5739C118.719 24.8352 108.827 25.1146 106.952 25.8347C102.159 27.6753 102.911 27.3853 101.814 29.0747C100.605 30.9348 100.53 33.3058 100.816 35.501C101.01 36.9876 101.352 38.4552 101.833 39.8759C101.955 40.2348 102.087 40.59 102.224 40.9427C102.372 41.3187 102.313 41.7282 102.35 42.1288C102.418 42.8651 102.566 43.5938 102.783 44.3013C103.66 47.1721 105.636 49.6941 108.137 51.3586C111.862 53.8369 116.553 54.5643 121.022 54.2014C122.454 54.0854 124.027 53.7792 124.889 52.6389C125.153 52.2895 125.329 51.8836 125.481 51.4735C126.049 49.9267 126.28 48.2582 126.15 46.6166C126.113 46.1391 126.034 45.6358 125.723 45.2688C125.336 44.8097 124.692 44.6763 124.098 44.5712C121.749 44.1556 118.383 44.2033 115.936 44.927C115.263 45.1264 114.41 46.0546 113.876 46.4948C112.818 47.3661 111.769 48.067 110.399 48.183C109.029 48.2991 107.582 47.572 106.922 46.3742C106.356 45.3472 106.423 44.7622 106.278 43.6004C106.086 42.0486 102.672 45.6505 103.446 40.5855Z" fill="black"/>
<path d="M105.231 40.4036C104.937 40.4086 104.664 40.5346 104.468 40.7324C104.279 40.923 104.131 41.1704 104.09 41.4262C104.041 41.7294 104.128 42.0068 104.344 42.242C104.528 42.4432 104.814 42.5584 105.099 42.5632C105.404 42.5686 105.735 42.44 105.924 42.2176C105.988 42.1418 106.035 42.0741 106.035 41.9736C106.035 41.889 105.993 41.7878 105.924 41.7296C105.789 41.6164 105.518 41.577 105.389 41.7296C105.37 41.751 105.351 41.7717 105.33 41.791C105.322 41.7988 105.251 41.8576 105.302 41.817C105.353 41.7776 105.279 41.8284 105.267 41.835C105.257 41.8406 105.169 41.8794 105.232 41.8531C105.295 41.827 105.208 41.8588 105.195 41.8622C105.181 41.866 105.166 41.869 105.152 41.8718C105.111 41.8786 105.123 41.8778 105.187 41.8692C105.166 41.8668 105.141 41.8728 105.122 41.8731C105.106 41.8734 105.091 41.8731 105.077 41.8724C105.036 41.8694 105.048 41.8714 105.112 41.8786C105.092 41.8716 105.068 41.8713 105.047 41.8663C105.033 41.8628 105.019 41.859 105.005 41.8547C104.968 41.8416 104.977 41.8454 105.032 41.8658C105.015 41.8544 104.991 41.8462 104.972 41.8362C104.959 41.829 104.947 41.8215 104.935 41.8132C104.98 41.8468 104.989 41.852 104.958 41.8286C104.942 41.814 104.924 41.8004 104.908 41.7852C104.899 41.775 104.888 41.7646 104.879 41.7538C104.914 41.7966 104.92 41.8033 104.896 41.7736C104.885 41.7556 104.872 41.7385 104.86 41.7201C104.853 41.7078 104.846 41.6954 104.84 41.6828C104.863 41.7335 104.867 41.7414 104.852 41.7072C104.845 41.6836 104.836 41.6608 104.83 41.6371C104.809 41.5526 104.829 41.7038 104.829 41.6356C104.829 41.6092 104.83 41.582 104.829 41.5557C104.831 41.5291 104.83 41.5388 104.824 41.5846C104.826 41.568 104.83 41.5514 104.835 41.535C104.843 41.502 104.853 41.4696 104.865 41.4377C104.868 41.4296 104.871 41.4216 104.874 41.4138C104.889 41.3782 104.888 41.3822 104.868 41.4258C104.872 41.3836 104.923 41.3256 104.948 41.2894C104.955 41.2796 105.005 41.226 105.003 41.2176C104.969 41.2558 104.962 41.2649 104.98 41.245C104.987 41.2368 104.996 41.2286 105.003 41.2204C105.024 41.1992 105.046 41.1788 105.069 41.1596C105.081 41.15 105.092 41.1408 105.105 41.1319C105.091 41.1412 105.078 41.1504 105.064 41.16C105.077 41.1614 105.129 41.1219 105.141 41.1153C105.155 41.1084 105.168 41.1024 105.182 41.0964C105.166 41.1028 105.15 41.109 105.133 41.1154C105.148 41.1187 105.202 41.0966 105.218 41.0922C105.259 41.0856 105.249 41.0866 105.186 41.0955C105.201 41.0944 105.216 41.0938 105.231 41.0938C105.428 41.0906 105.619 40.9376 105.609 40.7488C105.6 40.5646 105.444 40.4 105.231 40.4036Z" fill="black"/>
<path d="M128.152 33.9271C128.152 33.9271 133.047 35.0651 133.198 34.3887C133.298 33.9376 127.927 31.2785 127.247 30.8597C127.055 30.7415 126.841 30.6455 126.713 30.4419C126.566 30.2104 126.556 29.8864 126.547 29.5821C126.511 28.2716 126.394 26.9499 125.951 25.8039C125.423 24.4416 123.925 22.3894 122.941 21.4801C120.267 19.007 115.213 17.646 115.213 17.646C114.495 15.9328 106.849 14.9983 107.065 17.6922C107.065 17.6922 103.167 19.1762 102.102 20.6507C100.117 23.3946 98.7269 26.057 98.9427 30.1438C98.9719 30.6892 99.3417 31.5134 99.2553 32.1061C99.1084 33.1248 94.9927 34.3187 95.5958 35.6654C96.2853 37.2011 104.414 30.7199 128.152 33.9271Z" fill="#EA4D28"/>
<path d="M99.5572 32.5871C102.661 31.1187 106.107 30.4107 109.537 29.9019C113.204 29.358 117 28.8915 120.702 29.4271C122.748 29.7231 124.728 30.3021 126.696 30.8782C127.101 30.9964 127.274 30.4173 126.871 30.2995C125.086 29.7771 123.293 29.2527 121.447 28.9383C119.575 28.6197 117.669 28.5463 115.77 28.6325C113.852 28.7195 111.946 28.9558 110.05 29.2237C108.294 29.4721 106.541 29.7613 104.82 30.167C102.888 30.6219 100.998 31.2306 99.2247 32.0691C98.8491 32.2467 99.1815 32.7647 99.5572 32.5871Z" fill="black"/>
<path d="M107.138 18.0665C109.178 18.3391 111.155 19.0347 112.755 20.2399C114.011 21.1869 115.047 22.4161 115.626 23.8128C115.892 24.4539 116.069 25.1281 116.091 25.8145C116.097 25.9778 116.238 26.1129 116.42 26.1145C117.854 26.127 119.28 26.3105 120.714 26.3231C121.138 26.3268 121.138 25.7268 120.714 25.7231C119.28 25.7104 117.854 25.5271 116.42 25.5145L116.749 25.8145C116.645 22.6533 114.009 19.8457 111.006 18.5115C109.841 17.9938 108.594 17.6591 107.313 17.4879C106.898 17.4324 106.72 18.0106 107.138 18.0665Z" fill="black"/>
<path d="M114.747 17.9054C116.496 18.6523 118.315 19.608 119.432 21.0922C120.129 22.0185 120.438 23.0792 120.54 24.1876C120.59 24.7422 120.606 25.299 120.663 25.8531C120.701 26.2344 121.359 26.238 121.321 25.8531C121.211 24.7903 121.232 23.7161 120.936 22.6751C120.55 21.318 119.646 20.1721 118.473 19.2817C117.449 18.5036 116.284 17.9016 115.08 17.3873C114.698 17.2245 114.365 17.7417 114.747 17.9054Z" fill="black"/>
<path d="M105.056 19.0788C105.147 19.0328 105.231 19.0069 105.38 18.985C105.444 18.9753 105.376 18.9835 105.438 18.9787C105.476 18.9758 105.515 18.9737 105.552 18.9724C105.634 18.9698 105.714 18.9712 105.795 18.9753C106.153 18.9944 106.508 19.0799 106.845 19.1918C107.486 19.4048 108.171 19.7708 108.501 20.3372C108.701 20.678 109.269 20.3752 109.069 20.0342C108.656 19.3275 107.819 18.8786 107.02 18.6131C106.327 18.3834 105.406 18.2126 104.725 18.5608C104.355 18.7493 104.687 19.2677 105.056 19.0788Z" fill="black"/>
<path d="M119.022 38.0129C119.201 39.7203 119.411 41.4519 119.241 43.1671C119.333 43.0561 119.426 42.9452 119.518 42.8341C119.003 42.9541 118.481 43.0437 117.952 43.0931C117.472 43.1379 117.468 43.8287 117.952 43.7835C118.549 43.7278 119.138 43.6349 119.719 43.5C119.892 43.4595 119.983 43.3179 119.998 43.1671C120.168 41.4519 119.957 39.7203 119.779 38.0129C119.732 37.5748 118.975 37.5703 119.022 38.0129Z" fill="black"/>
</g>
<mask id="mask32_3796_1496" style="mask-type:luminance" maskUnits="userSpaceOnUse" x="-18" y="0" width="422" height="216">
<path d="M-18 0H403V216H-18V0Z" fill="white"/>
</mask>
<g mask="url(#mask32_3796_1496)">
<path d="M101.056 133.225C101.056 133.225 98.9985 128.063 98.6742 127.521C98.351 126.977 96.8287 116.621 89.4652 116.853C81.2573 117.111 82.9651 127.578 82.9651 127.578L84.5444 143.123C84.5444 143.123 85.0634 144.415 85.7889 144.377C87.1385 144.307 87.1164 143.39 87.1164 143.39C87.1164 143.39 87.025 146.256 89.1624 146.361C90.5188 146.426 90.2263 144.738 90.2263 144.738C90.2263 144.738 90.5629 146.849 92.3523 146.888C94.1304 146.927 93.9379 144.383 93.9379 144.383C93.9379 144.383 94.3941 145.473 95.7484 145.386C97.0736 145.301 97.3478 143.099 97.3478 143.099L96.6304 131.912L98.6007 134.599C98.6007 134.599 99.6121 135.626 100.519 134.975C101.664 134.153 101.056 133.225 101.056 133.225Z" fill="#FFCA0A"/>
<path d="M94.3158 144.383C94.2307 143.397 94.1455 142.413 94.0603 141.428L93.6532 136.719L93.5587 135.639C93.5214 135.199 92.7639 135.195 92.8023 135.639C92.8876 136.624 92.9729 137.608 93.058 138.593C93.1939 140.163 93.3296 141.732 93.4654 143.302C93.4969 143.661 93.5284 144.022 93.5587 144.383C93.5972 144.822 94.3543 144.825 94.3158 144.383Z" fill="black"/>
<path d="M90.733 144.573L90.4773 141.619C90.3414 140.049 90.2058 138.48 90.0697 136.911C90.0386 136.55 90.0072 136.19 89.9762 135.829C89.9381 135.39 89.181 135.386 89.2194 135.829C89.3047 136.815 89.39 137.799 89.4751 138.784C89.611 140.353 89.7467 141.923 89.8827 143.493C89.9141 143.852 89.9453 144.213 89.9763 144.573C90.0146 145.013 90.7714 145.016 90.733 144.573Z" fill="black"/>
<path d="M87.5647 143.767C87.3774 141.542 87.19 139.316 87.0025 137.091C86.9752 136.771 86.9483 136.451 86.9215 136.132C86.8844 135.691 86.1273 135.688 86.1648 136.132C86.3521 138.357 86.5396 140.583 86.7271 142.807C86.754 143.128 86.781 143.447 86.8079 143.767C86.845 144.208 87.6021 144.211 87.5647 143.767Z" fill="black"/>
</g>
<mask id="mask33_3796_1496" style="mask-type:luminance" maskUnits="userSpaceOnUse" x="-18" y="0" width="422" height="216">
<path d="M-18 0H403V216H-18V0Z" fill="white"/>
</mask>
<g mask="url(#mask33_3796_1496)">
<path d="M82.9245 121.512C82.9245 121.512 84.1487 124.79 89.3322 125.861C95.7532 127.189 95.2282 119.594 95.2282 119.594L95.906 91.178C95.906 91.178 93.7304 84.658 85.8989 85.8372C79.0304 86.871 78.7883 92.4788 78.7883 92.4788L82.9245 121.512Z" fill="#FFCA0A"/>
</g>
<mask id="mask34_3796_1496" style="mask-type:luminance" maskUnits="userSpaceOnUse" x="-18" y="0" width="422" height="216">
<path d="M-18 0H403V216H-18V0Z" fill="white"/>
</mask>
<g mask="url(#mask34_3796_1496)">
<path d="M98.7743 66.4706C98.7743 66.4706 99.6586 58.1518 90.4035 57.5532C82.5144 57.0427 80.5931 65.6208 80.5931 65.6208L79.113 90.4984C79.113 90.4984 79.4832 96.7688 87.1964 97.2676C93.9611 97.7052 95.9197 91.9058 95.9197 91.9058L98.7743 66.4706Z" fill="#FFCA0A"/>
<path d="M99.3042 74.9895C99.3042 74.9895 103.457 58.3973 90.7596 57.5761C78.5322 56.7851 78.5383 73.6462 78.5383 73.6462L99.3042 74.9895Z" fill="white"/>
</g>
<mask id="mask35_3796_1496" style="mask-type:luminance" maskUnits="userSpaceOnUse" x="-18" y="0" width="422" height="216">
<path d="M-18 0H403V216H-18V0Z" fill="white"/>
</mask>
<g mask="url(#mask35_3796_1496)">
<path d="M116.98 47.0192C118.114 46.3298 119.444 46.1441 120.774 46.3915C120.853 46.4063 120.945 46.4324 120.973 46.5029C121.011 46.5965 120.91 46.685 120.82 46.7398C119.846 47.3325 118.673 47.6404 117.507 47.6092C117.345 47.6047 116.811 47.6993 116.746 47.5617C116.658 47.3766 116.769 47.0725 116.98 47.0192Z" fill="white"/>
</g>
<mask id="mask36_3796_1496" style="mask-type:luminance" maskUnits="userSpaceOnUse" x="-18" y="0" width="422" height="216">
<path d="M-18 0H403V216H-18V0Z" fill="white"/>
</mask>
<g mask="url(#mask36_3796_1496)">
<path d="M116.019 47.8517C116.602 48.5888 117.704 48.9744 118.646 49.1231C120.404 49.4009 122.402 49.1393 123.648 47.8785C123.91 47.6127 124.146 47.313 124.294 46.9801C124.454 46.6225 123.817 46.4668 123.661 46.8205C123.725 46.676 123.616 46.8935 123.59 46.9383C123.502 47.0797 123.395 47.223 123.295 47.3355C122.908 47.7657 122.407 48.1038 121.842 48.3146C120.979 48.6377 119.987 48.6793 119.069 48.5781C118.401 48.5047 117.737 48.3216 117.168 47.9913C116.983 47.8849 116.868 47.8062 116.709 47.6643C116.665 47.6247 116.625 47.5815 116.582 47.5409C116.52 47.4824 116.58 47.5395 116.587 47.5488C116.342 47.2387 115.77 47.5379 116.019 47.8517Z" fill="white"/>
</g>
<mask id="mask37_3796_1496" style="mask-type:luminance" maskUnits="userSpaceOnUse" x="-18" y="0" width="422" height="216">
<path d="M-18 0H403V216H-18V0Z" fill="white"/>
</mask>
<g mask="url(#mask37_3796_1496)">
<path d="M112.946 40.4428C113.12 40.7075 113.495 40.7373 113.805 40.7277C114.357 40.7104 115.005 40.3919 115.023 39.823C115.04 39.2944 114.449 38.916 113.94 38.989C113.432 39.0622 112.305 39.4629 112.946 40.4428Z" fill="black"/>
</g>
<mask id="mask38_3796_1496" style="mask-type:luminance" maskUnits="userSpaceOnUse" x="-18" y="0" width="422" height="216">
<path d="M-18 0H403V216H-18V0Z" fill="white"/>
</mask>
<g mask="url(#mask38_3796_1496)">
<path d="M120.396 37.3631C120.715 37.8203 121.276 37.8101 121.827 37.8685C122.638 37.9547 123.454 37.9968 124.264 38.0984C125.156 38.2105 125.542 36.9648 124.641 36.8518C123.809 36.7474 122.961 36.634 122.12 36.6267C121.516 36.6214 120.76 36.5841 120.396 37.0878C120.34 37.1658 120.342 37.2849 120.396 37.3631Z" fill="black"/>
</g>
<mask id="mask39_3796_1496" style="mask-type:luminance" maskUnits="userSpaceOnUse" x="-18" y="0" width="422" height="216">
<path d="M-18 0H403V216H-18V0Z" fill="white"/>
</mask>
<g mask="url(#mask39_3796_1496)">
<path d="M110.597 38.6451C111.355 38.7563 112.065 38.5071 112.813 38.3809C113.781 38.2172 114.759 38.159 115.742 38.1747C116.655 38.1894 116.657 36.883 115.742 36.8819C114.179 36.8798 111.537 36.9108 110.432 38.0796C110.27 38.2513 110.298 38.6014 110.597 38.6451Z" fill="black"/>
</g>
<mask id="mask40_3796_1496" style="mask-type:luminance" maskUnits="userSpaceOnUse" x="-17" y="0" width="420" height="216">
<path d="M-16.9683 0H402.977V216H-16.9683V0Z" fill="white"/>
</mask>
<g mask="url(#mask40_3796_1496)">
<path d="M122.594 40.4305C122.93 40.8143 123.707 40.4105 123.923 39.9591C124.11 39.5712 123.98 39.0469 123.574 38.8477C123.17 38.6488 121.533 39.2188 122.594 40.4305Z" fill="black"/>
</g>
</g>
</g>
</g>
<defs>
<filter id="filter0_d_3796_1496" x="-22" y="0" width="429" height="224" filterUnits="userSpaceOnUse" color-interpolation-filters="sRGB">
<feFlood flood-opacity="0" result="BackgroundImageFix"/>
<feColorMatrix in="SourceAlpha" type="matrix" values="0 0 0 0 0 0 0 0 0 0 0 0 0 0 0 0 0 0 127 0" result="hardAlpha"/>
<feOffset dy="4"/>
<feGaussianBlur stdDeviation="2"/>
<feComposite in2="hardAlpha" operator="out"/>
<feColorMatrix type="matrix" values="0 0 0 0 0 0 0 0 0 0 0 0 0 0 0 0 0 0 0.25 0"/>
<feBlend mode="normal" in2="BackgroundImageFix" result="effect1_dropShadow_3796_1496"/>
<feBlend mode="normal" in="SourceGraphic" in2="effect1_dropShadow_3796_1496" result="shape"/>
</filter>
<clipPath id="clip0_3796_1496">
<rect width="384" height="216" fill="white"/>
</clipPath>
</defs>
</svg>
