<svg width="173" height="97" viewBox="0 0 173 97" fill="none" xmlns="http://www.w3.org/2000/svg">
<mask id="mask0_3522_19657" style="mask-type:luminance" maskUnits="userSpaceOnUse" x="0" y="0" width="173" height="97">
<path d="M0 3.09944e-06H172.444V97H0V3.09944e-06Z" fill="white"/>
</mask>
<g mask="url(#mask0_3522_19657)">
<path d="M65.9351 85.8384C65.9351 85.8384 61.7027 76.5221 71.3151 64.4539C80.283 53.1949 99.0479 37.285 103.377 35.2073C107.78 33.0939 107.988 33.2428 109.754 33.2313C110.408 33.2271 112.089 35.4767 110.921 37.1832C110.123 38.3498 103.606 41.7343 103.606 41.7343C103.606 41.7343 103.261 50.6724 103.261 56.5333C103.261 62.3944 101.443 84.6156 99.2453 90.623C97.0474 96.6305 94.5749 100.233 94.5749 100.233C94.5749 100.233 73.4541 100.38 71.4027 100.233C69.3514 100.087 65.9351 85.8384 65.9351 85.8384Z" fill="#FFD000"/>
<path d="M85.8632 91.6557C85.813 91.1306 85.7949 90.6014 85.7828 90.0744C85.7533 88.7957 85.7944 87.5144 85.9139 86.2409C86.0632 84.6514 86.3368 83.065 86.8156 81.5399C87.0838 80.686 87.4323 79.8634 87.8123 79.0539C88.1602 78.3134 88.5381 77.5866 88.949 76.8792C89.2304 76.3948 89.5271 75.9189 89.8442 75.4571C89.9412 75.3158 90.0402 75.1759 90.142 75.0381C90.1748 74.9935 90.208 74.9493 90.2415 74.9053C90.2473 74.8976 90.2532 74.89 90.2591 74.8823C90.2384 74.9087 90.2773 74.8585 90.2591 74.8823C90.2678 74.8711 90.2766 74.86 90.2853 74.8489C90.292 74.8405 90.2986 74.8321 90.3053 74.8239C90.4137 74.6904 90.2242 74.4987 90.1147 74.6334C89.6888 75.1574 89.3224 75.7368 88.9722 76.3126C88.5757 76.9648 88.2095 77.6353 87.8696 78.3186C87.4628 79.1361 87.0787 79.9723 86.7696 80.8323C86.2154 82.3743 85.8973 83.9949 85.7095 85.6198C85.5544 86.9619 85.4919 88.3151 85.5064 89.6659C85.5134 90.3189 85.5282 90.9771 85.5912 91.6277C85.5921 91.637 85.5928 91.6464 85.5937 91.6557C85.6101 91.8268 85.8797 91.8285 85.8632 91.6557Z" fill="#020202"/>
</g>
<mask id="mask1_3522_19657" style="mask-type:luminance" maskUnits="userSpaceOnUse" x="0" y="0" width="173" height="97">
<path d="M0 3.09944e-06H172.444V97H0V3.09944e-06Z" fill="white"/>
</mask>
<g mask="url(#mask1_3522_19657)">
<path d="M102.344 74.6362H70.1004C69.3564 74.6362 68.7532 74.033 68.7532 73.289V8.17327C68.7532 7.42924 69.3564 6.82605 70.1004 6.82605H102.344C103.088 6.82605 103.691 7.42924 103.691 8.17327V73.289C103.691 74.033 103.088 74.6362 102.344 74.6362Z" fill="black"/>
<path d="M102.479 70.1455H69.9656V10.9575H102.479V70.1455Z" fill="white"/>
</g>
<mask id="mask2_3522_19657" style="mask-type:luminance" maskUnits="userSpaceOnUse" x="82" y="18" width="17" height="9">
<path d="M94.861 18.5467C94.8368 18.5467 94.818 18.5541 94.8045 18.569C94.791 18.5838 94.7843 18.6021 94.7843 18.6236C94.7843 18.7639 94.7076 18.834 94.5542 18.834C94.398 18.834 94.32 18.7639 94.32 18.6236C94.32 18.6021 94.3132 18.5838 94.2998 18.569C94.2863 18.5541 94.2674 18.5467 94.2432 18.5467H93.904C93.8798 18.5467 93.8609 18.5541 93.8475 18.569C93.8341 18.5838 93.8273 18.6021 93.8273 18.6236C93.8273 18.799 93.8865 18.9406 94.005 19.0485C94.1234 19.1564 94.3065 19.2104 94.5542 19.2104C94.7991 19.2104 94.9808 19.1564 95.0993 19.0485C95.2178 18.9406 95.277 18.799 95.277 18.6236C95.277 18.6021 95.2703 18.5838 95.2568 18.569C95.2433 18.5541 95.2245 18.5467 95.2002 18.5467H94.861ZM90.611 19.6251C90.3862 19.818 90.2684 20.0924 90.2576 20.4486C90.2549 20.5267 90.2536 20.6441 90.2536 20.8005C90.2536 20.957 90.2549 21.0729 90.2576 21.1486C90.2711 21.51 90.3882 21.7838 90.6089 21.9699C90.8297 22.156 91.1312 22.2491 91.5134 22.2491C91.8958 22.2491 92.1966 22.156 92.416 21.9699C92.6354 21.7838 92.7518 21.51 92.7653 21.1486C92.7707 20.9975 92.7733 20.8815 92.7733 20.8005C92.7733 20.7223 92.7707 20.6049 92.7653 20.4486C92.7545 20.0924 92.6367 19.818 92.4119 19.6251C92.1871 19.4322 91.8877 19.3357 91.5134 19.3357C91.1367 19.3357 90.8358 19.4322 90.611 19.6251ZM91.1743 21.5148C91.0909 21.4298 91.0464 21.2996 91.041 21.1242C91.0383 21.046 91.037 20.9341 91.037 20.7883C91.037 20.6454 91.0383 20.5361 91.041 20.4607C91.0464 20.2854 91.0909 20.1551 91.1743 20.0702C91.2577 19.9852 91.3708 19.9427 91.5134 19.9427C91.6535 19.9427 91.7652 19.9852 91.8487 20.0702C91.9321 20.1551 91.9765 20.2854 91.9819 20.4607C91.9873 20.6118 91.99 20.721 91.99 20.7883C91.99 20.8559 91.9873 20.9678 91.9819 21.1242C91.9765 21.2996 91.9321 21.4298 91.8487 21.5148C91.7652 21.5997 91.6535 21.6422 91.5134 21.6422C91.3708 21.6422 91.2577 21.5997 91.1743 21.5148ZM82.555 19.621C82.3329 19.8112 82.2152 20.0817 82.2017 20.4323C82.199 20.5078 82.1977 20.6293 82.1977 20.7965C82.1977 20.961 82.199 21.0798 82.2017 21.1526C82.2152 21.5113 82.3317 21.7838 82.551 21.9699C82.7704 22.156 83.0725 22.2491 83.4576 22.2491C83.6971 22.2491 83.9119 22.21 84.1016 22.1318C84.2914 22.0535 84.4414 21.9402 84.5519 21.7919C84.6622 21.6435 84.7201 21.4681 84.7255 21.2659C84.7255 21.2416 84.7168 21.2214 84.6992 21.2052C84.6818 21.189 84.6609 21.1809 84.6367 21.1809H84.0632C84.0256 21.1809 83.9973 21.1884 83.9784 21.2031C83.9596 21.218 83.9448 21.2457 83.934 21.2862C83.899 21.4156 83.8418 21.5073 83.7624 21.5612C83.683 21.6152 83.5813 21.6422 83.4576 21.6422C83.1533 21.6422 82.9958 21.4722 82.9851 21.1323C82.9824 21.0542 82.981 20.9395 82.981 20.7883C82.981 20.6373 82.9824 20.5254 82.9851 20.4526C82.9958 20.1126 83.1533 19.9427 83.4576 19.9427C83.584 19.9427 83.6856 19.969 83.7624 20.0217C83.8391 20.0742 83.8963 20.1666 83.934 20.2987C83.9474 20.3393 83.963 20.3669 83.9805 20.3817C83.998 20.3966 84.0256 20.404 84.0632 20.404H84.6367C84.6609 20.404 84.6818 20.3959 84.6992 20.3798C84.7168 20.3635 84.7255 20.3433 84.7255 20.319C84.7201 20.1167 84.6622 19.9414 84.5519 19.793C84.4414 19.6446 84.2914 19.5314 84.1016 19.4531C83.9119 19.3749 83.6971 19.3357 83.4576 19.3357C83.0779 19.3357 82.7771 19.4309 82.555 19.621ZM95.2407 19.3762C95.1815 19.3762 95.1356 19.4019 95.1033 19.4531L93.9888 21.0635V19.4814C93.9888 19.4518 93.9788 19.4268 93.9585 19.4066C93.9384 19.3863 93.9135 19.3762 93.8838 19.3762H93.3346C93.3051 19.3762 93.2802 19.3863 93.26 19.4066C93.2398 19.4268 93.2296 19.4518 93.2296 19.4814V22.1035C93.2296 22.1331 93.2391 22.1581 93.2579 22.1783C93.2768 22.1986 93.301 22.2087 93.3306 22.2087H93.8273C93.8624 22.2087 93.8899 22.2019 93.9101 22.1884C93.9304 22.175 93.9484 22.156 93.9646 22.1318L95.0791 20.5862V22.1075C95.0791 22.1372 95.0892 22.1615 95.1094 22.1803C95.1296 22.1992 95.1544 22.2087 95.1841 22.2087H95.7373C95.767 22.2087 95.7911 22.1986 95.81 22.1783C95.8289 22.1581 95.8383 22.1345 95.8383 22.1075V19.4814C95.8383 19.4518 95.8289 19.4268 95.81 19.4066C95.7911 19.3863 95.767 19.3762 95.7373 19.3762H95.2407ZM87.7015 19.3762C87.672 19.3762 87.6477 19.3863 87.6289 19.4066C87.61 19.4268 87.6006 19.4518 87.6006 19.4814V22.1075C87.6006 22.1345 87.6107 22.1581 87.6309 22.1783C87.6511 22.1986 87.6747 22.2087 87.7015 22.2087H88.2831C88.3126 22.2087 88.3369 22.1986 88.3557 22.1783C88.3746 22.1581 88.384 22.1345 88.384 22.1075V21.2335H88.8444C89.1943 21.2335 89.4689 21.1573 89.668 21.005C89.8673 20.8525 89.9669 20.6225 89.9669 20.315C89.9669 20.0074 89.8673 19.7741 89.668 19.615C89.4689 19.4558 89.1943 19.3762 88.8444 19.3762H87.7015ZM88.3719 19.959H88.8241C88.9453 19.959 89.0348 19.9912 89.0927 20.056C89.1506 20.1207 89.1795 20.2057 89.1795 20.311C89.1795 20.4242 89.1479 20.5099 89.0846 20.5678C89.0213 20.6259 88.9345 20.655 88.8241 20.655H88.3719V19.959ZM84.9475 19.3762C84.918 19.3762 84.8931 19.3863 84.8729 19.4066C84.8527 19.4268 84.8426 19.4518 84.8426 19.4814V19.9346C84.8426 19.9643 84.8527 19.9886 84.8729 20.0074C84.8931 20.0263 84.918 20.0358 84.9475 20.0358H85.6583V22.1075C85.6583 22.1372 85.6684 22.1615 85.6886 22.1803C85.7088 22.1992 85.7337 22.2087 85.7632 22.2087H86.3246C86.3542 22.2087 86.3791 22.1992 86.3992 22.1803C86.4194 22.1615 86.4296 22.1372 86.4296 22.1075V20.0358H87.1403C87.1699 20.0358 87.1948 20.0263 87.215 20.0074C87.2351 19.9886 87.2453 19.9643 87.2453 19.9346V19.4814C87.2453 19.4518 87.2351 19.4268 87.215 19.4066C87.1948 19.3863 87.1699 19.3762 87.1403 19.3762H84.9475ZM96.3835 23.2202C96.3537 23.2202 96.3296 23.2303 96.3107 23.2506C96.2918 23.2708 96.2825 23.2958 96.2825 23.3255V25.9515C96.2825 25.9785 96.2926 26.0021 96.3127 26.0223C96.3329 26.0425 96.3565 26.0527 96.3835 26.0527H96.9649C96.9946 26.0527 97.0187 26.0425 97.0376 26.0223C97.0564 26.0021 97.0659 25.9785 97.0659 25.9515V25.0775H97.5262C97.8762 25.0775 98.1507 25.0014 98.35 24.8489C98.5492 24.6965 98.6488 24.4665 98.6488 24.159C98.6488 23.8515 98.5492 23.6182 98.35 23.459C98.1507 23.2998 97.8762 23.2202 97.5262 23.2202H96.3835ZM97.0537 23.8029H97.506C97.6271 23.8029 97.7167 23.8353 97.7745 23.9001C97.8324 23.9648 97.8613 24.0498 97.8613 24.155C97.8613 24.2682 97.8297 24.3539 97.7664 24.4119C97.7032 24.4699 97.6164 24.4988 97.506 24.4988H97.0537V23.8029ZM93.791 23.2202C93.7614 23.2202 93.7372 23.2303 93.7183 23.2506C93.6994 23.2708 93.69 23.2958 93.69 23.3255V25.9515C93.69 25.9785 93.7001 26.0021 93.7203 26.0223C93.7405 26.0425 93.764 26.0527 93.791 26.0527H95.7292C95.7588 26.0527 95.7838 26.0432 95.804 26.0243C95.8242 26.0055 95.8342 25.9812 95.8342 25.9515V25.5509C95.8342 25.5212 95.8242 25.4963 95.804 25.476C95.7838 25.4558 95.7588 25.4458 95.7292 25.4458H94.4209V24.9196H95.6081C95.6377 24.9196 95.6626 24.9096 95.6828 24.8894C95.703 24.8692 95.7131 24.8442 95.7131 24.8145V24.4463C95.7131 24.4167 95.703 24.3917 95.6828 24.3715C95.6626 24.3512 95.6377 24.341 95.6081 24.341H94.4209V23.8272H95.6969C95.7266 23.8272 95.7515 23.8178 95.7716 23.7988C95.7918 23.78 95.8019 23.7557 95.8019 23.726V23.3255C95.8019 23.2958 95.7918 23.2708 95.7716 23.2506C95.7515 23.2303 95.7266 23.2202 95.6969 23.2202H93.791ZM91.037 23.2202C91.0074 23.2202 90.9824 23.2303 90.9622 23.2506C90.9421 23.2708 90.9321 23.2958 90.9321 23.3255V23.7786C90.9321 23.8083 90.9421 23.8326 90.9622 23.8515C90.9824 23.8704 91.0074 23.8798 91.037 23.8798H91.7478V25.9515C91.7478 25.9812 91.7578 26.0055 91.7779 26.0243C91.7981 26.0432 91.823 26.0527 91.8528 26.0527H92.4139C92.4436 26.0527 92.4685 26.0432 92.4887 26.0243C92.5088 26.0055 92.519 25.9812 92.519 25.9515V23.8798H93.2296C93.2593 23.8798 93.2842 23.8704 93.3044 23.8515C93.3245 23.8326 93.3346 23.8083 93.3346 23.7786V23.3255C93.3346 23.2958 93.3245 23.2708 93.3044 23.2506C93.2842 23.2303 93.2593 23.2202 93.2296 23.2202H91.037ZM89.9225 23.2202C89.8928 23.2202 89.8679 23.2303 89.8478 23.2506C89.8276 23.2708 89.8175 23.2958 89.8175 23.3255V24.2844H88.8645V23.3255C88.8645 23.2958 88.8544 23.2708 88.8343 23.2506C88.814 23.2303 88.7892 23.2202 88.7595 23.2202H88.2064C88.1766 23.2202 88.1524 23.2303 88.1336 23.2506C88.1147 23.2708 88.1054 23.2958 88.1054 23.3255V25.9515C88.1054 25.9812 88.1147 26.0055 88.1336 26.0243C88.1524 26.0432 88.1766 26.0527 88.2064 26.0527H88.7595C88.7892 26.0527 88.814 26.0432 88.8343 26.0243C88.8544 26.0055 88.8645 25.9812 88.8645 25.9515V24.9601H89.8175V25.9515C89.8175 25.9812 89.8276 26.0055 89.8478 26.0243C89.8679 26.0432 89.8928 26.0527 89.9225 26.0527H90.4717C90.5013 26.0527 90.5262 26.0432 90.5464 26.0243C90.5666 26.0055 90.5767 25.9812 90.5767 25.9515V23.3255C90.5767 23.2958 90.5666 23.2708 90.5464 23.2506C90.5262 23.2303 90.5013 23.2202 90.4717 23.2202H89.9225ZM86.062 23.2202C85.9813 23.2202 85.9275 23.2594 85.9005 23.3376L84.9596 25.9313C84.957 25.9394 84.9556 25.9515 84.9556 25.9677C84.9556 25.9892 84.9644 26.0088 84.9819 26.0263C84.9994 26.0439 85.0189 26.0527 85.0404 26.0527H85.5654C85.63 26.0527 85.6757 26.023 85.7027 25.9636L85.8481 25.5712H86.906L87.0514 25.9636C87.0783 26.023 87.1241 26.0527 87.1888 26.0527H87.7136C87.7352 26.0527 87.7547 26.0439 87.7722 26.0263C87.7897 26.0088 87.7984 25.9892 87.7984 25.9677C87.7984 25.9515 87.7971 25.9394 87.7944 25.9313L86.8535 23.3376C86.8266 23.2594 86.7727 23.2202 86.692 23.2202H86.062ZM86.3771 23.9324L86.7364 24.9642H86.0177L86.3771 23.9324ZM84.0389 23.2202C83.9825 23.2202 83.9353 23.2499 83.8977 23.3092L83.4252 24.0134L82.9689 23.3092C82.9313 23.2499 82.8828 23.2202 82.8236 23.2202H82.2057C82.1842 23.2202 82.1647 23.229 82.1472 23.2466C82.1297 23.2642 82.121 23.2837 82.121 23.3052C82.121 23.3215 82.125 23.3376 82.133 23.3538L82.9446 24.6081L82.0644 25.9192C82.0563 25.9353 82.0522 25.9515 82.0522 25.9677C82.0522 25.9892 82.0611 26.0088 82.0786 26.0263C82.096 26.0439 82.1156 26.0527 82.137 26.0527H82.755C82.8141 26.0527 82.8612 26.0257 82.8962 25.9717L83.4011 25.2192L83.9179 25.9717C83.9529 26.0257 84.0001 26.0527 84.0592 26.0527H84.6972C84.7188 26.0527 84.7382 26.0439 84.7558 26.0263C84.7733 26.0088 84.782 25.9892 84.782 25.9677C84.782 25.9515 84.7779 25.9353 84.7699 25.9192L83.8815 24.6001L84.7012 23.3538C84.7093 23.3376 84.7134 23.3215 84.7134 23.3052C84.7134 23.2837 84.7047 23.2642 84.6871 23.2466C84.6696 23.229 84.65 23.2202 84.6286 23.2202H84.0389Z" fill="white"/>
</mask>
<g mask="url(#mask2_3522_19657)">
<path d="M81.8438 18.3383H98.8573V26.2612H81.8438V18.3383Z" fill="black"/>
</g>
<mask id="mask3_3522_19657" style="mask-type:luminance" maskUnits="userSpaceOnUse" x="73" y="19" width="8" height="8">
<path d="M75.6783 19.2556C75.0092 19.2556 74.7665 19.3252 74.5218 19.456C74.2772 19.5869 74.0852 19.7789 73.9544 20.0235C73.8236 20.2681 73.7539 20.5108 73.7539 21.18V24.1699C73.7539 24.839 73.8236 25.0817 73.9544 25.3263C74.0852 25.571 74.2772 25.7629 74.5218 25.8938C74.7665 26.0246 75.0092 26.0942 75.6783 26.0942H80.4258V24.3846C80.4271 23.8231 80.2881 23.3992 80.0089 23.1128C79.7295 22.8264 79.3125 22.6805 78.7578 22.6749C79.3139 22.668 79.7308 22.522 80.0089 22.2371C80.2869 21.9522 80.4258 21.5281 80.4258 20.9653V19.2556H75.6783Z" fill="white"/>
</mask>
<g mask="url(#mask3_3522_19657)">
<path d="M73.5454 19.047H80.6344V26.3027H73.5454V19.047Z" fill="#00C63F"/>
</g>
<mask id="mask4_3522_19657" style="mask-type:luminance" maskUnits="userSpaceOnUse" x="75" y="21" width="4" height="4">
<path d="M76.6571 22.2421C76.4143 22.4849 76.0164 22.6292 75.4636 22.6749C76.0164 22.7207 76.4143 22.8649 76.6571 23.1078C76.8999 23.3506 77.0442 23.7484 77.0899 24.3013C77.1356 23.7484 77.2799 23.3506 77.5228 23.1078C77.7656 22.8649 78.1634 22.7207 78.7162 22.6749C78.1634 22.6292 77.7656 22.4849 77.5228 22.2421C77.2799 21.9992 77.1356 21.6014 77.0899 21.0486C77.0442 21.6014 76.8999 21.9992 76.6571 22.2421Z" fill="white"/>
</mask>
<g mask="url(#mask4_3522_19657)">
<path d="M75.2556 20.8402H78.9252V24.5098H75.2556V20.8402Z" fill="#FFD100"/>
</g>
<mask id="mask5_3522_19657" style="mask-type:luminance" maskUnits="userSpaceOnUse" x="0" y="0" width="173" height="97">
<path d="M0 3.09944e-06H172.444V97H0V3.09944e-06Z" fill="white"/>
</mask>
<g mask="url(#mask5_3522_19657)">
<path d="M69.9766 48.2117H102.468V70.2354H69.9766V48.2117Z" fill="#CBCDD2"/>
<path d="M69.9766 48.2117H102.468V70.2354H69.9766V48.2117Z" fill="#D0D4DA"/>
<path d="M80.6768 69.018H91.854C91.9736 69.018 92.0706 69.1149 92.0706 69.2345C92.0706 69.3542 91.9736 69.4512 91.854 69.4512H80.6768C80.5572 69.4512 80.4602 69.3542 80.4602 69.2345C80.4602 69.1149 80.5572 69.018 80.6768 69.018Z" fill="black"/>
<path fill-rule="evenodd" clip-rule="evenodd" d="M97.0799 64.8928C97.0753 64.8975 97.0696 64.9012 97.0632 64.9039C97.0439 64.9119 97.0216 64.9075 97.0068 64.8927C96.9971 64.883 96.9915 64.8697 96.9915 64.856C96.9915 64.8423 96.9971 64.8289 97.0068 64.8193V64.8194C97.0096 64.8165 97.0127 64.8142 97.0159 64.8122L97.2407 64.587L97.0068 64.3533L97.0075 64.3526C97.003 64.3479 96.9991 64.3423 96.9965 64.336C96.9884 64.3166 96.9928 64.2943 97.0077 64.2796C97.0175 64.2698 97.0306 64.2642 97.0444 64.2642C97.0583 64.2642 97.0714 64.2698 97.0813 64.2796H97.081C97.0835 64.282 97.0857 64.2847 97.0877 64.2876L97.3138 64.5137L97.5408 64.2866C97.5425 64.2841 97.5446 64.2816 97.5469 64.2794C97.5616 64.2646 97.5839 64.2601 97.6033 64.2681C97.6227 64.2762 97.6353 64.295 97.6353 64.316C97.6353 64.3299 97.6297 64.343 97.6203 64.3524L97.6208 64.353L97.3872 64.587L97.6132 64.813C97.6161 64.8148 97.6187 64.8169 97.6211 64.8195L97.621 64.8195C97.6358 64.8344 97.6402 64.8566 97.6322 64.876C97.6243 64.8953 97.6053 64.9079 97.5843 64.9079C97.5704 64.9079 97.5574 64.9023 97.5479 64.8929L97.5475 64.8934L97.314 64.6602L97.0808 64.8937L97.0799 64.8928ZM96.6657 65.1084L96.4662 64.9087C96.4662 64.9087 96.4623 64.9051 96.4618 64.9048C96.4588 64.9018 96.4561 64.8992 96.4494 64.8927C96.4448 64.888 96.4411 64.8844 96.4325 64.876L96.2535 64.6965C96.2514 64.6943 96.2485 64.6914 96.2452 64.6881C96.2427 64.6855 96.2407 64.6836 96.2363 64.6792C96.2309 64.6737 96.227 64.6697 96.2233 64.6658C96.2093 64.6518 96.1974 64.6388 96.1863 64.625L96.1825 64.6208C96.1795 64.6177 96.1771 64.6143 96.1752 64.6105C96.1708 64.5953 96.1708 64.5792 96.1752 64.5638C96.1771 64.5601 96.1795 64.5566 96.1826 64.5535L96.186 64.5497C96.1972 64.5358 96.2091 64.5226 96.2217 64.5101C96.2285 64.5031 96.2323 64.4991 96.2353 64.4961C96.2392 64.4924 96.2392 64.4924 96.242 64.4894C96.2468 64.4847 96.2505 64.4809 96.2542 64.4771L96.4325 64.2985C96.4344 64.2966 96.436 64.2949 96.4409 64.2904C96.4448 64.2864 96.4472 64.2841 96.4497 64.2814C96.4538 64.2774 96.4578 64.2735 96.4616 64.2698C96.4625 64.2692 96.4635 64.2682 96.4663 64.2656L96.6656 64.066C96.6774 64.0541 96.686 64.0455 96.6945 64.0374C96.7027 64.0292 96.7105 64.0215 96.7188 64.0136C96.7207 64.0118 96.7217 64.0108 96.7269 64.0054L96.7309 64.0012C96.7493 63.9825 96.7702 63.9672 96.7931 63.9556C96.8162 63.944 96.8412 63.9358 96.867 63.9313C96.8948 63.9267 96.9236 63.9242 96.9526 63.9238C96.9689 63.9234 96.9824 63.9232 96.9953 63.9232C97.0101 63.923 97.0215 63.923 97.047 63.923H97.6271C97.6528 63.923 97.6642 63.923 97.6782 63.9232C97.6917 63.9232 97.7053 63.9234 97.7208 63.9238C97.7503 63.9242 97.7792 63.9267 97.8078 63.9314C97.8328 63.9358 97.8576 63.944 97.881 63.9557C97.9039 63.9672 97.9247 63.9825 97.9427 64.0007C97.9612 64.019 97.9763 64.04 97.988 64.063C97.9995 64.086 98.0078 64.1109 98.0122 64.1367C98.0169 64.1648 98.0193 64.1935 98.0197 64.2224C98.0198 64.2278 98.0199 64.2322 98.02 64.2372C98.0201 64.2428 98.0202 64.2471 98.0203 64.2572L98.0204 64.2659V64.317V64.9052L98.0202 64.9158C98.02 64.9321 98.0199 64.9392 98.0197 64.9478C98.0193 64.9781 98.0168 65.0072 98.012 65.0359C98.0076 65.0615 97.9993 65.0867 97.9875 65.1104C97.9758 65.1333 97.9605 65.1545 97.942 65.1729C97.9237 65.1913 97.9025 65.2066 97.8792 65.2184C97.8557 65.2303 97.8306 65.2386 97.8046 65.2429C97.7764 65.2477 97.7473 65.2502 97.7181 65.2506C97.6998 65.2509 97.6873 65.2511 97.6749 65.2511H96.9954C96.9818 65.2511 96.9677 65.2509 96.9532 65.2506C96.9238 65.2502 96.895 65.2477 96.8665 65.2429C96.8413 65.2387 96.8163 65.2305 96.7931 65.2187C96.7703 65.2071 96.7494 65.1919 96.7313 65.1737C96.7301 65.1725 96.7287 65.1711 96.7268 65.169L96.7265 65.1687C96.722 65.1641 96.7209 65.1629 96.7199 65.1619L96.7187 65.1607C96.712 65.1545 96.7056 65.1482 96.6951 65.1377C96.6866 65.1294 96.6803 65.123 96.6657 65.1084ZM96.3888 64.1802L96.389 64.18C96.3887 64.1802 96.3885 64.1803 96.3883 64.1805L96.3888 64.1802ZM96.6132 63.9553C96.6049 63.9634 96.5958 63.9724 96.5839 63.9845L96.3848 64.1836C96.3787 64.1893 96.3735 64.1943 96.3682 64.1996C96.3658 64.2021 96.3636 64.2042 96.3591 64.2087C96.3551 64.2127 96.3531 64.2145 96.3509 64.2168L96.1715 64.3963C96.1678 64.4004 96.1644 64.4036 96.1602 64.408L96.1554 64.4128C96.1499 64.4183 96.1456 64.4227 96.1394 64.4291C96.1254 64.443 96.1112 64.4586 96.0977 64.4751C96.0852 64.4883 96.0752 64.5037 96.068 64.5205L96.0661 64.5255C96.0532 64.5656 96.0532 64.6088 96.0661 64.6491L96.0681 64.6543C96.0753 64.671 96.0855 64.6863 96.098 64.6996C96.1114 64.7158 96.1256 64.7315 96.1406 64.7464C96.1437 64.7499 96.1485 64.7546 96.1547 64.7608L96.1632 64.7693C96.1661 64.7723 96.1687 64.775 96.171 64.7775L96.3508 64.9576C96.3597 64.9664 96.3637 64.9704 96.3708 64.9774C96.3768 64.9832 96.3802 64.9865 96.3866 64.9925L96.5841 65.1902C96.5988 65.2049 96.6054 65.2116 96.6138 65.2198C96.6247 65.2306 96.6318 65.2376 96.643 65.2486C96.6473 65.2531 96.6487 65.2546 96.651 65.2568C96.6763 65.2821 96.707 65.3045 96.7409 65.3216C96.7746 65.3388 96.8104 65.3505 96.8474 65.3569C96.882 65.3627 96.9166 65.3657 96.9511 65.3662C96.9658 65.3664 96.9807 65.3666 96.9952 65.3667H97.0298H97.6749C97.6883 65.3667 97.7016 65.3664 97.72 65.3662C97.7544 65.3657 97.7894 65.3627 97.8239 65.3569C97.8615 65.3504 97.8976 65.3385 97.9314 65.3214C97.9655 65.3042 97.9968 65.2816 98.0238 65.2545C98.0507 65.2276 98.0733 65.1965 98.0905 65.1626C98.1077 65.1284 98.1195 65.0923 98.1259 65.055C98.1317 65.0201 98.1347 64.9852 98.1352 64.9503C98.1354 64.9417 98.1355 64.9341 98.1357 64.9172L98.1359 64.9065V64.8534V64.2653L98.1358 64.256C98.1357 64.2455 98.1356 64.2411 98.1355 64.2353C98.1354 64.2297 98.1353 64.2248 98.1352 64.2199C98.1347 64.1864 98.1318 64.1518 98.1261 64.1176C98.1197 64.0801 98.1079 64.0444 98.0912 64.0109C98.0736 63.9768 98.0513 63.9459 98.0247 63.9192C97.9979 63.8923 97.967 63.8698 97.9331 63.8526C97.8996 63.8357 97.8638 63.8239 97.8268 63.8174C97.7921 63.8118 97.7576 63.8089 97.7229 63.8084C97.7072 63.808 97.6927 63.8078 97.6788 63.8078C97.6648 63.8076 97.6532 63.8076 97.6271 63.8076H97.047C97.0211 63.8076 97.0094 63.8076 96.9947 63.8078C96.9814 63.8078 96.9669 63.808 96.9504 63.8084C96.9165 63.8089 96.882 63.8118 96.8478 63.8173C96.8102 63.8239 96.7745 63.8357 96.741 63.8526C96.7069 63.8699 96.6761 63.8924 96.6494 63.9192C96.6481 63.9205 96.6473 63.9215 96.6397 63.9295C96.6302 63.9384 96.6216 63.9468 96.6132 63.9553Z" fill="black"/>
<path fill-rule="evenodd" clip-rule="evenodd" d="M81.1536 63.1145C81.1536 62.8753 81.3476 62.6814 81.5868 62.6814H90.8577C91.097 62.6814 91.291 62.8753 91.291 63.1145V66.2337C91.291 66.473 91.097 66.667 90.8577 66.667H81.5868C81.3476 66.667 81.1536 66.473 81.1536 66.2337V63.1145Z" fill="#FBFBFD"/>
<path d="M86.2233 65.2265C85.9842 65.2265 85.8521 64.9833 85.8521 64.6025C85.8521 64.2301 85.9875 63.9827 86.2233 63.9827C86.4592 63.9827 86.5924 64.2281 86.5924 64.6036C86.5924 64.9844 86.4613 65.2265 86.2233 65.2265ZM86.2233 65.3926C86.5787 65.3926 86.7839 65.0849 86.7839 64.6025C86.7839 64.1234 86.5777 63.8156 86.2233 63.8156C85.869 63.8156 85.6606 64.1255 85.6606 64.6036C85.6606 65.086 85.8669 65.3926 86.2233 65.3926Z" fill="black"/>
<path fill-rule="evenodd" clip-rule="evenodd" d="M91.811 58.4356C91.811 58.1963 92.0049 58.0023 92.2442 58.0023H101.515C101.754 58.0023 101.948 58.1963 101.948 58.4356V61.6414C101.948 61.8806 101.754 62.0747 101.515 62.0747H92.2442C92.0049 62.0747 91.811 61.8806 91.811 61.6414V58.4356Z" fill="#FBFBFD"/>
<path d="M97.9644 61.436H98.4358V61.3308H98.121V61.3231L98.4272 60.9086V60.8257H97.9716V60.9309H98.2716V60.9386L97.9644 61.3528V61.436ZM97.4908 61.436V61.2081L97.7032 60.8257H97.5648L97.4307 61.0823H97.4231L97.2886 60.8257H97.1502L97.363 61.2081V61.436H97.4908ZM96.3516 61.436H96.4896L96.6224 61.2262H96.63L96.7613 61.436H96.9067L96.7087 61.1307L96.9097 60.8257H96.7666L96.638 61.0417H96.6304L96.503 60.8257H96.353L96.5467 61.1285L96.3516 61.436ZM95.6998 61.0249H95.7066L95.8221 61.436H95.9419L96.1039 60.8257H95.9718L95.8777 61.2619H95.8707L95.7574 60.8257H95.6496L95.5382 61.2619H95.5314L95.4363 60.8257H95.3035L95.465 61.436H95.5857L95.6998 61.0249Z" fill="black"/>
<path d="M96.8511 59.4766C96.6512 59.4766 96.5043 59.3317 96.5043 59.1328C96.5043 58.9414 96.6586 58.789 96.8543 58.789C97.0511 58.789 97.2034 58.9424 97.2034 59.1381C97.2034 59.3327 97.0532 59.4766 96.8511 59.4766ZM96.8406 60.1958C97.2139 60.1958 97.4318 59.8954 97.4318 59.3813C97.4318 58.8028 97.1251 58.6177 96.8523 58.6177C96.5391 58.6177 96.3118 58.8377 96.3118 59.1391C96.3118 59.429 96.5274 59.6436 96.8184 59.6436C97.013 59.6436 97.1801 59.5453 97.2446 59.394H97.2478C97.2424 59.7992 97.1018 60.0296 96.8427 60.0296C96.6841 60.0296 96.5645 59.9567 96.5222 59.816H96.3287C96.3731 60.0455 96.5773 60.1958 96.8406 60.1958Z" fill="black"/>
<path fill-rule="evenodd" clip-rule="evenodd" d="M81.1536 58.4356C81.1536 58.1963 81.3476 58.0023 81.5868 58.0023H90.8577C91.097 58.0023 91.291 58.1963 91.291 58.4356V61.6414C91.291 61.8806 91.097 62.0747 90.8577 62.0747H81.5868C81.3476 62.0747 81.1536 61.8806 81.1536 61.6414V58.4356Z" fill="#FBFBFD"/>
<path d="M87.0898 61.4364L87.2933 60.826H87.1557L87.0196 61.2969H87.0119L86.8732 60.826H86.7289L86.9353 61.4364H87.0898ZM86.0674 60.826H85.9396V61.2258C85.9396 61.3607 86.0395 61.4521 86.1955 61.4521C86.3517 61.4521 86.4512 61.3607 86.4512 61.2258V60.826H86.3234V61.2135C86.3234 61.2918 86.2773 61.3426 86.1955 61.3426C86.114 61.3426 86.0674 61.2918 86.0674 61.2135V60.826ZM85.4706 61.4364V60.9313H85.6537V60.826H85.1597V60.9313H85.3429V61.4364H85.4706Z" fill="black"/>
<path d="M86.2211 60.0296C86.0117 60.0296 85.8615 59.9102 85.8615 59.744C85.8615 59.5771 86.0117 59.4574 86.2211 59.4574C86.4317 59.4574 86.5808 59.5759 86.5808 59.744C86.5808 59.9102 86.4317 60.0296 86.2211 60.0296ZM86.2211 59.2904C86.0392 59.2904 85.9123 59.1857 85.9123 59.0375C85.9123 58.8885 86.0392 58.7827 86.2211 58.7827C86.403 58.7827 86.5299 58.8874 86.5299 59.0375C86.5299 59.1857 86.402 59.2904 86.2211 59.2904ZM86.2211 60.1958C86.5448 60.1958 86.7753 60.0137 86.7753 59.7579C86.7753 59.5685 86.6443 59.412 86.4465 59.3654V59.3612C86.6157 59.3073 86.7182 59.1793 86.7182 59.0208C86.7182 58.788 86.5099 58.6187 86.2211 58.6187C85.9345 58.6187 85.7229 58.789 85.7229 59.0196C85.7229 59.1804 85.8277 59.3093 85.9959 59.3612V59.3654C85.7991 59.4109 85.668 59.5675 85.668 59.7579C85.668 60.0128 85.8986 60.1958 86.2211 60.1958Z" fill="black"/>
<path fill-rule="evenodd" clip-rule="evenodd" d="M70.4961 58.4356C70.4961 58.1963 70.6901 58.0023 70.9293 58.0023H80.2002C80.4395 58.0023 80.6335 58.1963 80.6335 58.4356V61.6414C80.6335 61.8806 80.4395 62.0747 80.2002 62.0747H70.9293C70.6901 62.0747 70.4961 61.8806 70.4961 61.6414V58.4356Z" fill="#FBFBFD"/>
<path d="M76.5118 61.2677C76.5165 61.3807 76.6108 61.4522 76.7564 61.4522C76.9095 61.4522 77.0038 61.3768 77.0038 61.255C77.0038 61.1607 76.9509 61.1078 76.8282 61.0816L76.7547 61.0659C76.6832 61.0502 76.654 61.0278 76.654 60.9893C76.654 60.9415 76.6963 60.9106 76.7602 60.9106C76.8219 60.9106 76.8668 60.9432 76.8727 60.993H76.9928C76.989 60.8852 76.8938 60.8103 76.7593 60.8103C76.6184 60.8103 76.5257 60.8856 76.5257 60.9995C76.5257 61.0921 76.5803 61.1492 76.6916 61.1729L76.7711 61.1904C76.846 61.2067 76.8765 61.2301 76.8765 61.2702C76.8765 61.3176 76.8296 61.351 76.7631 61.351C76.6912 61.351 76.6412 61.3184 76.6353 61.2677H76.5118ZM75.8922 60.9258H76.003C76.0665 60.9258 76.1062 60.963 76.1062 61.0223C76.1062 61.0828 76.0686 61.118 76.0043 61.118H75.8922V60.9258ZM75.8922 61.2131H75.9966L76.1105 61.4364H76.2552L76.1265 61.1941C76.1967 61.1666 76.2374 61.0988 76.2374 61.0206C76.2374 60.9 76.1549 60.8261 76.0208 60.8261H75.7644V61.4364H75.8922V61.2131ZM75.1773 61.3481C75.0759 61.3481 75.0102 61.2647 75.0102 61.1311C75.0102 60.9982 75.0759 60.914 75.1769 60.914C75.2776 60.914 75.3428 60.9982 75.3428 61.1311C75.3428 61.2 75.3255 61.2554 75.2941 61.2892L75.2531 61.2355H75.1338L75.2151 61.3434C75.2028 61.3468 75.1905 61.3481 75.1773 61.3481ZM75.1769 61.4522C75.2159 61.4522 75.2523 61.4462 75.2844 61.4352L75.3309 61.4971H75.4498L75.3686 61.3883C75.4333 61.3354 75.4701 61.2452 75.4701 61.1311C75.4701 60.933 75.3564 60.8103 75.1769 60.8103C74.9975 60.8103 74.8829 60.933 74.8829 61.1311C74.8829 61.3303 74.9963 61.4522 75.1769 61.4522ZM74.2806 60.9275H74.3737C74.4473 60.9275 74.4892 60.9652 74.4892 61.0362C74.4892 61.1056 74.4464 61.1437 74.3732 61.1437H74.2806V60.9275ZM74.1528 60.8261V61.4364H74.2806V61.244H74.4012C74.5298 61.244 74.6191 61.1603 74.6191 61.0358C74.6191 60.9098 74.5332 60.8261 74.4075 60.8261H74.1528Z" fill="black"/>
<path d="M75.1841 60.1704H75.384L76.063 58.8209V58.6441H75.053V58.8134H75.8747V58.8175L75.1841 60.1704Z" fill="black"/>
<path fill-rule="evenodd" clip-rule="evenodd" d="M91.811 53.757C91.811 53.5177 92.0049 53.3237 92.2442 53.3237H101.515C101.754 53.3237 101.948 53.5177 101.948 53.757V56.9627C101.948 57.202 101.754 57.396 101.515 57.396H92.2442C92.0049 57.396 91.811 57.202 91.811 56.9627V53.757Z" fill="#FBFBFD"/>
<path d="M97.783 56.2394C97.8821 56.2394 97.9459 56.322 97.9459 56.4519C97.9459 56.5814 97.8824 56.6646 97.783 56.6646C97.6824 56.6646 97.6197 56.5814 97.6197 56.4519C97.6197 56.322 97.6836 56.2394 97.783 56.2394ZM97.783 56.1312C97.6033 56.1312 97.489 56.2538 97.489 56.4519C97.489 56.6494 97.6015 56.7729 97.783 56.7729C97.9632 56.7729 98.0766 56.6494 98.0766 56.4519C98.0766 56.2543 97.9628 56.1312 97.783 56.1312ZM96.7991 56.7573V56.3668H96.8067L97.0885 56.7573H97.1943V56.1469H97.072V56.5357H97.0644L96.7835 56.1469H96.6769V56.7573H96.7991ZM96.3555 56.7573V56.1469H96.2054L96.0361 56.5678H96.0285L95.8596 56.1469H95.709V56.7573H95.8275V56.344H95.8344L95.9899 56.7273H96.075L96.2303 56.344H96.237V56.7573H96.3555Z" fill="black"/>
<path d="M96.905 55.3488C96.7093 55.3488 96.557 55.1933 96.557 54.9977C96.557 54.8031 96.7061 54.6592 96.9081 54.6592C97.1101 54.6592 97.254 54.8031 97.254 55.0029C97.254 55.1955 97.0995 55.3488 96.905 55.3488ZM96.907 55.5181C97.2202 55.5181 97.4475 55.298 97.4475 54.9966C97.4475 54.7068 97.2318 54.4921 96.9409 54.4921C96.7336 54.4921 96.5772 54.6021 96.5147 54.7396H96.5115C96.5178 54.3334 96.6628 54.1071 96.9177 54.1071C97.0742 54.1071 97.1884 54.1865 97.2328 54.3239H97.4264C97.3788 54.0901 97.1789 53.9389 96.9197 53.9389C96.5465 53.9389 96.3274 54.2404 96.3274 54.7544C96.3274 55.3224 96.6258 55.5181 96.907 55.5181Z" fill="black"/>
<path fill-rule="evenodd" clip-rule="evenodd" d="M81.1536 53.757C81.1536 53.5177 81.3476 53.3237 81.5868 53.3237H90.8577C91.097 53.3237 91.291 53.5177 91.291 53.757V56.9627C91.291 57.202 91.097 57.396 90.8577 57.396H81.5868C81.3476 57.396 81.1536 57.202 81.1536 56.9627V53.757Z" fill="#FBFBFD"/>
<path d="M87.1796 56.6498H86.908V56.1468H86.7802V56.7572H87.1796V56.6498ZM86.1195 56.7572V56.5707L86.18 56.498L86.3573 56.7572H86.5104L86.2722 56.4142L86.4948 56.1468H86.3526L86.1271 56.421H86.1195V56.1468H85.9918V56.7572H86.1195ZM85.2554 56.5808C85.2554 56.6985 85.3374 56.7729 85.4626 56.7729C85.5922 56.7729 85.67 56.6994 85.67 56.5694V56.1468H85.5421V56.5686C85.5421 56.63 85.5134 56.6626 85.461 56.6626C85.4118 56.6626 85.3797 56.6303 85.3789 56.5808H85.2554Z" fill="black"/>
<path d="M86.237 55.5171C86.5553 55.5171 86.7806 55.3023 86.7806 54.9956C86.7806 54.7026 86.569 54.49 86.2762 54.49C86.1281 54.49 86.0011 54.545 85.9292 54.6476H85.925L85.9768 54.1347H86.6939V53.9654H85.8203L85.742 54.8359H85.9102C85.981 54.7132 86.0974 54.6541 86.2423 54.6541C86.4454 54.6541 86.5902 54.7989 86.5902 55.0009C86.5902 55.2061 86.4464 55.3499 86.2391 55.3499C86.0561 55.3499 85.9175 55.2379 85.9006 55.0749H85.7134C85.7294 55.3351 85.9451 55.5171 86.237 55.5171Z" fill="black"/>
<path fill-rule="evenodd" clip-rule="evenodd" d="M70.4961 53.757C70.4961 53.5177 70.6901 53.3237 70.9293 53.3237H80.2002C80.4395 53.3237 80.6335 53.5177 80.6335 53.757V56.9627C80.6335 57.202 80.4395 57.396 80.2002 57.396H70.9293C70.6901 57.396 70.4961 57.202 70.4961 56.9627V53.757Z" fill="#FBFBFD"/>
<path d="M76.4711 56.1469H76.3433V56.7573H76.4711V56.1469ZM76.0219 56.7573V56.1469H75.8941V56.3947H75.6192V56.1469H75.4914V56.7573H75.6192V56.5001H75.8941V56.7573H76.0219ZM75.1954 56.5094V56.4319H74.939V56.5251H75.0715L75.071 56.5366C75.0684 56.6126 75.0105 56.6638 74.9267 56.6638C74.826 56.6638 74.7626 56.583 74.7626 56.4502C74.7626 56.3198 74.8231 56.2399 74.9217 56.2399C74.9927 56.2399 75.0439 56.2763 75.0629 56.3401H75.1899C75.1722 56.2137 75.0659 56.1312 74.9217 56.1312C74.744 56.1312 74.6318 56.2552 74.6318 56.4514C74.6318 56.6507 74.7431 56.7729 74.9246 56.7729C75.0913 56.7729 75.1954 56.6714 75.1954 56.5094Z" fill="black"/>
<path d="M75.1812 55.0031C75.3017 54.7916 75.4678 54.5367 75.7565 54.1242H75.7597V55.0073H75.1812V55.0031ZM75.7597 55.4917H75.9438V55.1744H76.1595V55.0073H75.9438V53.9655H75.6624C75.3017 54.4827 75.1231 54.761 74.9929 55.002V55.1744H75.7597V55.4917Z" fill="black"/>
<path fill-rule="evenodd" clip-rule="evenodd" d="M91.811 49.1648C91.811 48.9256 92.0049 48.7317 92.2442 48.7317H101.515C101.754 48.7317 101.948 48.9256 101.948 49.1648V52.284C101.948 52.5234 101.754 52.7173 101.515 52.7173H92.2442C92.0049 52.7173 91.811 52.5234 91.811 52.284V49.1648Z" fill="#FBFBFD"/>
<path d="M97.5891 52.1108V51.8706H97.8376V51.7695H97.5891V51.6057H97.8611V51.5004H97.4614V52.1108H97.5891ZM97.1535 52.0055H96.8768V51.8511H97.1379V51.753H96.8768V51.6057H97.1535V51.5004H96.749V52.1108H97.1535V52.0055ZM96.0555 51.6057H96.1477C96.2585 51.6057 96.3241 51.6777 96.3241 51.8037C96.3241 51.9344 96.2606 52.0055 96.1477 52.0055H96.0555V51.6057ZM95.9277 51.5004V52.1108H96.168C96.3507 52.1108 96.4544 51.9992 96.4544 51.8016C96.4544 51.6099 96.3494 51.5004 96.168 51.5004H95.9277Z" fill="black"/>
<path d="M96.6734 50.1899H96.8648C97.0794 50.1899 97.2138 50.2957 97.2127 50.4838C97.2117 50.6436 97.0774 50.7579 96.8764 50.7579C96.6734 50.7579 96.5306 50.6553 96.5189 50.4934H96.3359C96.3497 50.7462 96.5601 50.9229 96.8764 50.9229C97.1758 50.9229 97.4063 50.7399 97.4063 50.4775C97.4063 50.2607 97.255 50.1222 97.033 50.1031V50.0989C97.2244 50.0587 97.3565 49.9287 97.3565 49.7393C97.3565 49.5215 97.18 49.3459 96.8743 49.3459C96.5888 49.3459 96.3878 49.5119 96.3667 49.7711H96.5495C96.5613 49.6061 96.6945 49.5108 96.8743 49.5108C97.0699 49.5108 97.1652 49.6134 97.1652 49.7647C97.1652 49.917 97.0382 50.0291 96.8562 50.0291H96.6734V50.1899Z" fill="black"/>
<path fill-rule="evenodd" clip-rule="evenodd" d="M81.1536 49.1648C81.1536 48.9256 81.3476 48.7317 81.5868 48.7317H90.8577C91.097 48.7317 91.291 48.9256 91.291 49.1648V52.284C91.291 52.5234 91.097 52.7173 90.8577 52.7173H81.5868C81.3476 52.7173 81.1536 52.5234 81.1536 52.284V49.1648Z" fill="#FBFBFD"/>
<path d="M87.0255 52.1265C87.1728 52.1265 87.2802 52.0372 87.2907 51.9069H87.1663C87.1541 51.9741 87.099 52.0173 87.0258 52.0173C86.9295 52.0173 86.8698 51.9361 86.8698 51.8054C86.8698 51.6746 86.9295 51.5933 87.0255 51.5933C87.0982 51.5933 87.1536 51.6399 87.1659 51.7105H87.2903C87.2811 51.5794 87.1701 51.4846 87.0255 51.4846C86.8482 51.4846 86.7391 51.607 86.7391 51.8054C86.7391 52.0038 86.8485 52.1265 87.0255 52.1265ZM86.1199 52.0156V51.8383H86.2307C86.3061 51.8383 86.347 51.8688 86.347 51.9259C86.347 51.9843 86.3072 52.0156 86.2337 52.0156H86.1199ZM86.1199 51.595H86.2265C86.2874 51.595 86.3225 51.6247 86.3225 51.6746C86.3225 51.7254 86.2849 51.7541 86.2159 51.7541H86.1199V51.595ZM86.2663 52.1107C86.3966 52.1107 86.4772 52.0435 86.4772 51.9361C86.4772 51.8574 86.4185 51.7968 86.3378 51.7906V51.7829C86.4004 51.7736 86.4481 51.7173 86.4481 51.6526C86.4481 51.5583 86.3775 51.5003 86.2591 51.5003H85.9922V52.1107H86.2663ZM85.4199 51.6242H85.4275L85.5032 51.8671H85.3432L85.4199 51.6242ZM85.5764 52.1107H85.7147L85.5028 51.5003H85.3526L85.1406 52.1107H85.2688L85.3158 51.9627H85.5303L85.5764 52.1107Z" fill="black"/>
<path d="M85.7229 49.8123H85.9069C85.9069 49.641 86.0487 49.5119 86.237 49.5119C86.4114 49.5119 86.5236 49.6314 86.5236 49.7816C86.5236 49.9085 86.476 49.991 86.2697 50.2058L85.7324 50.7663V50.8975H86.7392V50.7282H85.9937V50.724L86.3565 50.3517C86.6368 50.0641 86.7139 49.9381 86.7139 49.77C86.7139 49.5384 86.5193 49.3459 86.237 49.3459C85.9429 49.3459 85.7229 49.5448 85.7229 49.8123Z" fill="black"/>
<path fill-rule="evenodd" clip-rule="evenodd" d="M70.4961 49.1648C70.4961 48.9256 70.6901 48.7317 70.9293 48.7317H80.2002C80.4395 48.7317 80.6335 48.9256 80.6335 49.1648V52.284C80.6335 52.5234 80.4395 52.7173 80.2002 52.7173H70.9293C70.6901 52.7173 70.4961 52.5234 70.4961 52.284V49.1648Z" fill="#FBFBFD"/>
<path d="M75.5977 50.8975H75.7817V49.3713H75.5956L75.1895 49.6632V49.8546L75.5934 49.5733H75.5977V50.8975Z" fill="black"/>
<path d="M69.9658 11.0302H102.479V14.8525H69.9658V11.0302Z" fill="white"/>
<mask id="mask6_3522_19657" style="mask-type:luminance" maskUnits="userSpaceOnUse" x="99" y="12" width="3" height="2">
<path d="M99.126 12.536H101.034V13.5205H99.126V12.536Z" fill="white"/>
</mask>
<g mask="url(#mask6_3522_19657)">
<g opacity="0.350006">
<path d="M99.3576 12.5794H100.803C100.906 12.5794 100.99 12.6636 100.99 12.7676V13.2888C100.99 13.3927 100.906 13.4771 100.803 13.4771H99.3576C99.2538 13.4771 99.1697 13.3927 99.1697 13.2888V12.7676C99.1697 12.6636 99.2538 12.5794 99.3576 12.5794Z" stroke="black" stroke-width="0.0867611"/>
</g>
</g>
<mask id="mask7_3522_19657" style="mask-type:luminance" maskUnits="userSpaceOnUse" x="101" y="12" width="1" height="2">
<path d="M101.121 12.8547H101.236V13.2021H101.121V12.8547Z" fill="white"/>
</mask>
<g mask="url(#mask7_3522_19657)">
<g opacity="0.399994">
<path d="M101.121 12.8547V13.2021C101.19 13.1727 101.236 13.1043 101.236 13.0284C101.236 12.9526 101.19 12.8841 101.121 12.8547Z" fill="black"/>
</g>
</g>
<path d="M99.4154 12.7096H100.745C100.809 12.7096 100.86 12.7615 100.86 12.8255V13.2308C100.86 13.2949 100.809 13.3467 100.745 13.3467H99.4154C99.3515 13.3467 99.2998 13.2949 99.2998 13.2308V12.8255C99.2998 12.7615 99.3515 12.7096 99.4154 12.7096Z" fill="black"/>
<path fill-rule="evenodd" clip-rule="evenodd" d="M98.2295 13.2878C98.2296 13.2954 98.2267 13.3026 98.2213 13.3079L98.0475 13.4836C98.0423 13.4887 98.0354 13.4917 98.0281 13.4917C98.0208 13.4917 98.0139 13.4887 98.0089 13.4836L97.8349 13.3079C97.8296 13.3026 97.8266 13.2954 97.8268 13.2878C97.827 13.2803 97.8302 13.2731 97.8358 13.2681C97.9468 13.174 98.1094 13.174 98.2205 13.2681C98.226 13.2732 98.2294 13.2803 98.2295 13.2878ZM98.0281 13.0653C98.1341 13.0653 98.2363 13.1047 98.3148 13.1759C98.3255 13.1861 98.3423 13.1858 98.3525 13.1755L98.4531 13.0738C98.4584 13.0684 98.4613 13.0612 98.4613 13.0537C98.4612 13.0461 98.458 13.0389 98.4526 13.0337C98.2135 12.811 97.843 12.811 97.6038 13.0337C97.5983 13.0389 97.5953 13.0462 97.5952 13.0537C97.5952 13.0612 97.5981 13.0685 97.6034 13.0738L97.7038 13.1755C97.7143 13.1858 97.731 13.1861 97.7415 13.1759C97.8201 13.1048 97.9222 13.0653 98.0281 13.0653ZM98.0281 12.7345C98.221 12.7345 98.4065 12.8087 98.5463 12.9418C98.5568 12.952 98.5736 12.9519 98.584 12.9415L98.6845 12.8398C98.6898 12.8345 98.6928 12.8273 98.6927 12.8199C98.6927 12.8124 98.6898 12.8052 98.6844 12.8C98.3175 12.4481 97.7387 12.4481 97.3717 12.8C97.3664 12.8052 97.3634 12.8124 97.3633 12.8199C97.3632 12.8273 97.3662 12.8345 97.3715 12.8398L97.4721 12.9415C97.4826 12.9519 97.4993 12.9521 97.5099 12.9418C97.6496 12.8087 97.8352 12.7345 98.0281 12.7345Z" fill="black"/>
<path fill-rule="evenodd" clip-rule="evenodd" d="M95.6292 13.1442H95.5426C95.4947 13.1442 95.4558 13.1831 95.4558 13.2311V13.4048C95.4558 13.4528 95.4947 13.4917 95.5426 13.4917H95.6292C95.6771 13.4917 95.716 13.4528 95.716 13.4048V13.2311C95.716 13.1831 95.6771 13.1442 95.6292 13.1442ZM96.0339 12.9704H95.9472C95.8993 12.9704 95.8605 13.0094 95.8605 13.0574V13.4048C95.8605 13.4528 95.8993 13.4917 95.9472 13.4917H96.0339C96.0817 13.4917 96.1206 13.4528 96.1206 13.4048V13.0574C96.1206 13.0094 96.0817 12.9704 96.0339 12.9704ZM96.3518 12.7678H96.4385C96.4864 12.7678 96.5252 12.8067 96.5252 12.8546V13.4048C96.5252 13.4528 96.4864 13.4917 96.4385 13.4917H96.3518C96.3039 13.4917 96.265 13.4528 96.265 13.4048V12.8546C96.265 12.8067 96.3039 12.7678 96.3518 12.7678ZM96.8431 12.5651H96.7564C96.7085 12.5651 96.6697 12.604 96.6697 12.6519V13.4048C96.6697 13.4528 96.7085 13.4917 96.7564 13.4917H96.8431C96.891 13.4917 96.9298 13.4528 96.9298 13.4048V12.6519C96.9298 12.604 96.891 12.5651 96.8431 12.5651Z" fill="black"/>
<path d="M75.1619 13.4626H75.3257V12.5444H75.1625L74.9231 12.7131V12.8677L75.1511 12.7061H75.1619V13.4626ZM74.2308 13.1451C74.3203 12.9892 74.4264 12.8193 74.5203 12.6755H74.5292V13.1546H74.2308V13.1451ZM74.5267 13.4626H74.6835V13.2864H74.8074V13.1508H74.6835V12.5444H74.4524C74.3279 12.7341 74.1978 12.9453 74.079 13.1521V13.2864H74.5267V13.4626ZM73.8255 13.4753C73.8858 13.4753 73.9271 13.4327 73.9271 13.3761C73.9271 13.3201 73.8858 13.2774 73.8255 13.2774C73.7658 13.2774 73.7238 13.3201 73.7238 13.3761C73.7238 13.4327 73.7658 13.4753 73.8255 13.4753ZM73.8255 13.0083C73.8858 13.0083 73.9271 12.9656 73.9271 12.9097C73.9271 12.853 73.8858 12.8111 73.8255 12.8111C73.7658 12.8111 73.7238 12.853 73.7238 12.9097C73.7238 12.9656 73.7658 13.0083 73.8255 13.0083ZM73.1865 13.0216C73.0798 13.0216 73.0062 12.9465 73.0062 12.8384C73.0062 12.7347 73.0836 12.6552 73.1871 12.6552C73.2907 12.6552 73.3681 12.736 73.3681 12.8416C73.3681 12.946 73.2926 13.0216 73.1865 13.0216ZM73.1808 13.4849C73.4139 13.4849 73.5523 13.3023 73.5523 12.9924C73.5523 12.6882 73.4049 12.5215 73.1859 12.5215C72.9865 12.5215 72.8455 12.6558 72.8455 12.8435C72.8455 13.0197 72.9725 13.1482 73.1471 13.1482C73.2545 13.1482 73.3414 13.0987 73.3846 13.0114H73.3955C73.3935 13.2272 73.3167 13.3506 73.1827 13.3506C73.1039 13.3506 73.0411 13.3073 73.0214 13.2373H72.8582C72.8849 13.3869 73.0131 13.4849 73.1808 13.4849Z" fill="black"/>
<path d="M73.8395 32.7896V33.2032H74.0897C74.1602 33.2032 74.2159 33.185 74.2567 33.1484C74.2975 33.1118 74.3179 33.0614 74.3179 32.9973C74.3179 32.8589 74.2426 32.7896 74.0922 32.7896H73.8395ZM73.8395 32.668H74.0684C74.1347 32.668 74.1877 32.6514 74.2275 32.6182C74.2672 32.585 74.2871 32.5399 74.2871 32.4829C74.2871 32.4197 74.2686 32.3737 74.2318 32.3448C74.195 32.3162 74.1389 32.3017 74.0637 32.3017H73.8395V32.668ZM73.688 33.3271V32.1778H74.0637C74.1884 32.1778 74.2822 32.2037 74.3451 32.2552C74.408 32.3068 74.4395 32.3831 74.4395 32.4841C74.4395 32.5378 74.4242 32.5853 74.3937 32.6266C74.3631 32.6679 74.3215 32.6999 74.2689 32.7225C74.3311 32.7398 74.3801 32.7729 74.4161 32.8216C74.4522 32.8703 74.4702 32.9283 74.4702 32.9956C74.4702 33.0987 74.4368 33.1799 74.37 33.2388C74.3031 33.2977 74.2086 33.3271 74.0866 33.3271H73.688Z" fill="black"/>
<path d="M74.9564 33.2157C75.0022 33.2157 75.0456 33.2038 75.0866 33.1801C75.1277 33.1565 75.1574 33.1257 75.1758 33.0878V32.9126H75.0614C74.8825 32.9126 74.793 32.9649 74.793 33.0696C74.793 33.1155 74.8083 33.1512 74.8387 33.177C74.8693 33.2028 74.9085 33.2157 74.9564 33.2157ZM75.1987 33.327C75.1903 33.3102 75.1834 33.2802 75.1782 33.237C75.1103 33.3075 75.0293 33.3428 74.9351 33.3428C74.8509 33.3428 74.7818 33.319 74.7279 33.2714C74.6739 33.2237 74.647 33.1633 74.647 33.0902C74.647 33.0012 74.6807 32.9321 74.7484 32.8829C74.816 32.8338 74.9111 32.8092 75.0337 32.8092H75.1758V32.7421C75.1758 32.691 75.1605 32.6504 75.1301 32.6201C75.0995 32.5899 75.0546 32.5747 74.9951 32.5747C74.943 32.5747 74.8993 32.5879 74.8641 32.6142C74.8288 32.6405 74.8112 32.6723 74.8112 32.7097H74.6643C74.6643 32.6671 74.6795 32.6259 74.7097 32.5862C74.7399 32.5464 74.781 32.515 74.8329 32.4918C74.8847 32.4687 74.9417 32.4571 75.0037 32.4571C75.1022 32.4571 75.1792 32.4817 75.2351 32.5308C75.2909 32.5801 75.3198 32.6479 75.3218 32.7342V33.1273C75.3218 33.2057 75.3319 33.268 75.3518 33.3144V33.327H75.1987Z" fill="black"/>
<path d="M75.7106 32.473V33.208H76.0231V32.473H76.1692V33.208H76.481V32.473H76.6278V33.3271H75.5637V32.473H75.7106Z" fill="black"/>
<path d="M77.9562 33.3271H77.8102V32.9624H77.4178V33.3271H77.271V32.473H77.4178V32.8432H77.8102V32.473H77.9562V33.3271Z" fill="black"/>
<path d="M78.2987 32.9094C78.2987 33.0042 78.3207 33.0802 78.3646 33.1375C78.4085 33.1949 78.4674 33.2236 78.541 33.2236C78.6152 33.2236 78.6742 33.1945 78.7179 33.1364C78.7615 33.0782 78.7833 32.9968 78.7833 32.8921C78.7833 32.7984 78.7612 32.7224 78.7167 32.6643C78.6722 32.6062 78.6131 32.5771 78.5395 32.5771C78.4674 32.5771 78.4092 32.6058 78.365 32.6631C78.3208 32.7204 78.2987 32.8026 78.2987 32.9094ZM78.1519 32.8921C78.1519 32.8084 78.1683 32.7331 78.2013 32.6663C78.2341 32.5995 78.2799 32.5479 78.3386 32.5115C78.3972 32.4753 78.4642 32.4571 78.5395 32.4571C78.6558 32.4571 78.7498 32.4973 78.8217 32.5779C78.8935 32.6584 78.9294 32.7654 78.9294 32.8992V32.9094C78.9294 32.9926 78.9135 33.0671 78.8817 33.1332C78.8498 33.1992 78.8043 33.2507 78.7451 33.2875C78.6859 33.3244 78.6179 33.3428 78.541 33.3428C78.4253 33.3428 78.3315 33.3025 78.2596 33.222C78.1878 33.1415 78.1519 33.0349 78.1519 32.9023V32.8921Z" fill="black"/>
<path d="M79.6043 33.1338L79.8948 32.4731H80.0772V33.3271H79.9312V32.7059L79.6548 33.3271H79.5539L79.272 32.6925V33.3271H79.126V32.4731H79.3154L79.6043 33.1338Z" fill="black"/>
<path d="M80.648 32.5771C80.5891 32.5771 80.5396 32.5986 80.4996 32.6414C80.4596 32.6843 80.4349 32.7444 80.4254 32.8218H80.8532V32.8108C80.849 32.7365 80.8291 32.679 80.7932 32.6383C80.7575 32.5975 80.7091 32.5771 80.648 32.5771ZM80.6662 33.3428C80.5504 33.3428 80.4562 33.3048 80.3836 33.2287C80.3109 33.1527 80.2747 33.051 80.2747 32.9236V32.8968C80.2747 32.8121 80.2908 32.7364 80.3232 32.6699C80.3556 32.6033 80.4008 32.5511 80.459 32.5135C80.5171 32.476 80.5801 32.4571 80.648 32.4571C80.759 32.4571 80.8453 32.4937 80.907 32.5669C80.9685 32.64 80.9993 32.7447 80.9993 32.881V32.9418H80.4207C80.4228 33.026 80.4474 33.094 80.4945 33.1459C80.5416 33.1977 80.6014 33.2236 80.6741 33.2236C80.7256 33.2236 80.7694 33.2131 80.8051 33.1921C80.8409 33.171 80.8722 33.1431 80.8991 33.1084L80.9882 33.1778C80.9167 33.2878 80.8093 33.3428 80.6662 33.3428Z" fill="black"/>
<path d="M81.7437 32.8927C81.7437 32.7965 81.7231 32.7204 81.682 32.6646C81.641 32.6088 81.5847 32.5809 81.5132 32.5809C81.4247 32.5809 81.3584 32.6202 81.3143 32.6986V33.1067C81.3579 33.1846 81.4247 33.2235 81.5147 33.2235C81.5847 33.2235 81.6404 33.1958 81.6817 33.1402C81.723 33.0847 81.7437 33.0022 81.7437 32.8927ZM81.8897 32.9094C81.8897 33.0393 81.86 33.144 81.8005 33.2235C81.7411 33.3029 81.6605 33.3427 81.5589 33.3427C81.4553 33.3427 81.3737 33.3098 81.3143 33.244V33.6553H81.1682V32.4728H81.3016L81.3087 32.5675C81.3681 32.4939 81.4508 32.457 81.5566 32.457C81.6592 32.457 81.7403 32.4957 81.8001 32.573C81.8598 32.6504 81.8897 32.758 81.8897 32.8959V32.9094Z" fill="black"/>
<path d="M83.1101 32.5915H82.8236V33.3271H82.6775V32.5915H82.3965V32.4731H83.1101V32.5915Z" fill="black"/>
<path d="M83.5252 32.5771C83.4663 32.5771 83.4168 32.5986 83.3768 32.6414C83.3368 32.6843 83.3121 32.7444 83.3026 32.8218H83.7304V32.8108C83.7262 32.7365 83.7063 32.679 83.6704 32.6383C83.6347 32.5975 83.5863 32.5771 83.5252 32.5771ZM83.5434 33.3428C83.4276 33.3428 83.3334 33.3048 83.2608 33.2287C83.1881 33.1527 83.1519 33.051 83.1519 32.9236V32.8968C83.1519 32.8121 83.168 32.7364 83.2004 32.6699C83.2328 32.6033 83.278 32.5511 83.3362 32.5135C83.3943 32.476 83.4573 32.4571 83.5252 32.4571C83.6362 32.4571 83.7225 32.4937 83.7842 32.5669C83.8457 32.64 83.8765 32.7447 83.8765 32.881V32.9418H83.2979C83.3 33.026 83.3246 33.094 83.3717 33.1459C83.4187 33.1977 83.4786 33.2236 83.5513 33.2236C83.6028 33.2236 83.6466 33.2131 83.6823 33.1921C83.718 33.171 83.7494 33.1431 83.7762 33.1084L83.8654 33.1778C83.7939 33.2878 83.6865 33.3428 83.5434 33.3428Z" fill="black"/>
<path d="M84.7457 32.473V33.3271H84.5989V32.5938H84.3084L84.2911 32.9135C84.2816 33.0603 84.257 33.1653 84.2173 33.2284C84.1775 33.2916 84.1145 33.3245 84.0282 33.3271H83.9697V33.1984L84.0116 33.1953C84.059 33.19 84.0929 33.1627 84.1134 33.1132C84.1339 33.0637 84.1471 32.9722 84.1529 32.8385L84.1687 32.473H84.7457Z" fill="black"/>
<path d="M85.3165 32.5771C85.2576 32.5771 85.2081 32.5986 85.1681 32.6414C85.128 32.6843 85.1033 32.7444 85.0938 32.8218H85.5217V32.8108C85.5175 32.7365 85.4975 32.679 85.4617 32.6383C85.426 32.5975 85.3775 32.5771 85.3165 32.5771ZM85.3346 33.3428C85.2188 33.3428 85.1246 33.3048 85.0521 33.2287C84.9794 33.1527 84.9431 33.051 84.9431 32.9236V32.8968C84.9431 32.8121 84.9593 32.7364 84.9916 32.6699C85.024 32.6033 85.0692 32.5511 85.1274 32.5135C85.1855 32.476 85.2486 32.4571 85.3165 32.4571C85.4275 32.4571 85.5138 32.4937 85.5754 32.5669C85.6369 32.64 85.6677 32.7447 85.6677 32.881V32.9418H85.0892C85.0912 33.026 85.1158 33.094 85.163 33.1459C85.21 33.1977 85.2699 33.2236 85.3425 33.2236C85.3941 33.2236 85.4378 33.2131 85.4736 33.1921C85.5093 33.171 85.5407 33.1431 85.5675 33.1084L85.6567 33.1778C85.5851 33.2878 85.4778 33.3428 85.3346 33.3428Z" fill="black"/>
<path d="M86.6735 32.9156C86.6735 32.8083 86.6551 32.725 86.6183 32.6658C86.5814 32.6066 86.5306 32.577 86.4659 32.577C86.4327 32.577 86.4038 32.5823 86.3791 32.5928V33.2109C86.4027 33.2199 86.4322 33.2243 86.4675 33.2243C86.5328 33.2243 86.5833 33.199 86.6194 33.1485C86.6555 33.098 86.6735 33.0204 86.6735 32.9156ZM85.9512 32.9323C85.9512 33.028 85.9683 33.1007 86.0025 33.1501C86.0367 33.1996 86.0859 33.2243 86.1502 33.2243C86.1807 33.2243 86.2083 33.2196 86.2331 33.2101V32.5904C86.211 32.5814 86.1838 32.577 86.1517 32.577C86.0876 32.577 86.0381 32.6057 86.0033 32.663C85.9685 32.7204 85.9512 32.8101 85.9512 32.9323ZM85.8052 32.9156C85.8052 32.773 85.8328 32.6609 85.8881 32.5794C85.9433 32.4978 86.0191 32.4571 86.1154 32.4571C86.1601 32.4571 86.1994 32.4647 86.2331 32.4799V32.1144H86.3791V32.4846C86.4159 32.4662 86.459 32.4571 86.5085 32.4571C86.6053 32.4571 86.6814 32.4978 86.7366 32.5794C86.7919 32.6609 86.8195 32.7786 86.8195 32.9323C86.8195 33.058 86.792 33.158 86.737 33.2322C86.682 33.3064 86.6064 33.3435 86.5101 33.3435C86.459 33.3435 86.4154 33.3351 86.3791 33.3182V33.6553H86.2331V33.3206C86.1983 33.3359 86.1586 33.3435 86.1139 33.3435C86.018 33.3435 85.9426 33.3064 85.8876 33.2322C85.8327 33.158 85.8052 33.0564 85.8052 32.9275V32.9156Z" fill="black"/>
<path d="M87.1171 32.9094C87.1171 33.0042 87.139 33.0802 87.1829 33.1375C87.2269 33.1949 87.2857 33.2236 87.3594 33.2236C87.4336 33.2236 87.4926 33.1945 87.5362 33.1364C87.5799 33.0782 87.6017 32.9968 87.6017 32.8921C87.6017 32.7984 87.5794 32.7224 87.535 32.6643C87.4905 32.6062 87.4315 32.5771 87.3579 32.5771C87.2857 32.5771 87.2275 32.6058 87.1833 32.6631C87.1392 32.7204 87.1171 32.8026 87.1171 32.9094ZM86.9702 32.8921C86.9702 32.8084 86.9867 32.7331 87.0196 32.6663C87.0524 32.5995 87.0982 32.5479 87.1569 32.5115C87.2156 32.4753 87.2826 32.4571 87.3579 32.4571C87.4742 32.4571 87.5681 32.4973 87.6401 32.5779C87.7118 32.6584 87.7477 32.7654 87.7477 32.8992V32.9094C87.7477 32.9926 87.7318 33.0671 87.7001 33.1332C87.6682 33.1992 87.6227 33.2507 87.5634 33.2875C87.5043 33.3244 87.4363 33.3428 87.3594 33.3428C87.2436 33.3428 87.1498 33.3025 87.078 33.222C87.0061 33.1415 86.9702 33.0349 86.9702 32.9023V32.8921Z" fill="black"/>
<path d="M88.6286 33.3271H88.4825V32.9624H88.0902V33.3271H87.9434V32.473H88.0902V32.8432H88.4825V32.473H88.6286V33.3271Z" fill="black"/>
<path d="M89.148 33.2157C89.1938 33.2157 89.2372 33.2038 89.2783 33.1801C89.3193 33.1565 89.349 33.1257 89.3675 33.0878V32.9126H89.253C89.0741 32.9126 88.9847 32.9649 88.9847 33.0696C88.9847 33.1155 88.9999 33.1512 89.0304 33.177C89.0609 33.2028 89.1002 33.2157 89.148 33.2157ZM89.3904 33.327C89.3819 33.3102 89.3751 33.2802 89.3699 33.237C89.302 33.3075 89.221 33.3428 89.1267 33.3428C89.0425 33.3428 88.9734 33.319 88.9195 33.2714C88.8655 33.2237 88.8386 33.1633 88.8386 33.0902C88.8386 33.0012 88.8724 32.9321 88.9401 32.8829C89.0077 32.8338 89.1028 32.8092 89.2254 32.8092H89.3675V32.7421C89.3675 32.691 89.3522 32.6504 89.3217 32.6201C89.2912 32.5899 89.2462 32.5747 89.1867 32.5747C89.1347 32.5747 89.0909 32.5879 89.0557 32.6142C89.0204 32.6405 89.0028 32.6723 89.0028 32.7097H88.856C88.856 32.6671 88.871 32.6259 88.9013 32.5862C88.9316 32.5464 88.9726 32.515 89.0244 32.4918C89.0763 32.4687 89.1333 32.4571 89.1954 32.4571C89.2938 32.4571 89.3709 32.4817 89.4267 32.5308C89.4825 32.5801 89.5114 32.6479 89.5135 32.7342V33.1273C89.5135 33.2057 89.5236 33.268 89.5435 33.3144V33.327H89.3904Z" fill="black"/>
<path d="M73.5603 38.019H98.8841" stroke="black" stroke-width="0.0898148" stroke-miterlimit="10"/>
</g>
<mask id="mask8_3522_19657" style="mask-type:luminance" maskUnits="userSpaceOnUse" x="0" y="0" width="173" height="97">
<path d="M0 3.09944e-06H172.444V97H0V3.09944e-06Z" fill="white"/>
</mask>
<g mask="url(#mask8_3522_19657)">
<path d="M103.679 42.5236L109.101 50.729C109.101 50.729 110.42 52.3408 109.394 53.3665C108.368 54.3921 106.463 55.8574 106.463 55.8574C106.463 55.8574 107.782 58.3483 108.368 59.374C108.954 60.3997 107.56 61.8649 107.56 61.8649L106.17 63.0371C106.17 63.0371 106.903 65.3815 107.343 66.1141C107.782 66.8468 108.075 68.6052 106.903 69.4843C105.731 70.3634 101.932 74.8609 101.311 74.726C99.2455 74.277 98.8059 72.1827 99.2455 70.864C99.6851 69.5452 103.646 65.9912 103.646 65.9912L103.613 64.7955C103.613 64.7955 101.205 68.0073 100.005 67.965C98.1677 67.9001 97.6479 65.4702 98.527 63.8584C99.4061 62.2467 103.679 58.9816 103.679 58.9816L103.646 57.7622C103.646 57.7622 101.158 59.8541 100.144 59.8168C99.0435 59.7763 96.8674 57.1063 99.2455 55.0566C101.292 53.2926 103.646 51.8019 103.646 51.8019L103.679 42.5236Z" fill="#FFD000"/>
<path d="M99.0157 59.1062C99.2534 59.4009 99.4856 59.7075 99.8664 59.8199C100.497 60.0061 101.132 59.6032 101.649 59.2943C102.239 58.9414 102.814 58.5583 103.353 58.1315C103.505 58.0107 103.662 57.8871 103.794 57.7438C103.885 57.6463 103.941 57.556 103.898 57.4202C103.839 57.2275 103.698 57.053 103.593 56.8841C103.402 56.5766 103.238 56.2519 102.993 55.982C102.687 55.6447 102.273 55.4158 101.812 55.4073C101.705 55.4053 101.585 55.4065 101.484 55.4419C101.345 55.4902 101.214 55.564 101.087 55.6348C100.679 55.8615 100.286 56.118 99.9053 56.3885C99.5566 56.6366 99.1799 56.8986 98.9068 57.2327C98.5591 57.658 98.6229 58.2958 98.8232 58.7741C98.8736 58.8945 98.9352 59.0035 99.0157 59.1062C99.1227 59.2424 99.3123 59.0506 99.2062 58.9156C99.058 58.7269 98.9858 58.4671 98.9504 58.2339C98.9134 57.9896 98.9149 57.7033 99.0512 57.4876C99.2242 57.2139 99.5619 56.975 99.83 56.775C100.195 56.5024 100.576 56.2491 100.968 56.0151C101.114 55.9276 101.262 55.8421 101.414 55.7659C101.441 55.7522 101.469 55.7391 101.496 55.7262C101.537 55.7071 101.508 55.7184 101.547 55.705C101.562 55.6995 101.578 55.6951 101.593 55.6897C101.599 55.6878 101.625 55.6825 101.601 55.6873C101.576 55.6922 101.613 55.686 101.62 55.6855C101.945 55.6587 102.241 55.7237 102.513 55.9126C102.751 56.0772 102.936 56.3116 103.084 56.5565C103.235 56.8052 103.385 57.0539 103.536 57.3018C103.57 57.3565 103.62 57.4465 103.635 57.4805C103.639 57.4911 103.642 57.5024 103.645 57.5133C103.648 57.525 103.657 57.5071 103.646 57.5217C103.647 57.5214 103.679 57.4684 103.646 57.5029C103.643 57.5061 103.627 57.5293 103.638 57.5148C103.649 57.5005 103.628 57.5263 103.625 57.5302C103.603 57.5538 103.581 57.5771 103.559 57.5996C103.498 57.6593 103.435 57.7155 103.37 57.7706C102.942 58.1364 102.472 58.4567 101.998 58.7606C101.683 58.9629 101.363 59.1622 101.032 59.3384C100.78 59.4725 100.498 59.5903 100.209 59.5951C99.8346 59.6015 99.5747 59.3755 99.3523 59.0998C99.303 59.0388 99.2554 58.9767 99.2062 58.9156C99.0974 58.7806 98.9079 58.9724 99.0157 59.1062Z" fill="#020202"/>
<path d="M99.1768 67.4766C99.4756 67.708 99.7644 67.9528 100.157 67.9906C100.787 68.0512 101.306 67.552 101.723 67.1515C102.23 66.6639 102.716 66.1489 103.154 65.5979C103.283 65.4352 103.414 65.2698 103.521 65.0909C103.587 64.9794 103.637 64.8724 103.574 64.7476C103.492 64.5882 103.329 64.4617 103.204 64.3383C102.946 64.0848 102.711 63.8058 102.421 63.5888C102.032 63.2985 101.552 63.1483 101.07 63.2501C100.963 63.2728 100.845 63.3026 100.752 63.3621C100.632 63.4392 100.524 63.5397 100.419 63.6355C100.078 63.9463 99.758 64.2823 99.4536 64.6286C99.1698 64.9516 98.8663 65.2935 98.6711 65.68C98.424 66.1691 98.6196 66.7736 98.921 67.1958C98.995 67.2992 99.077 67.3972 99.1768 67.4766C99.3111 67.5834 99.503 67.394 99.3673 67.2861C99.1729 67.1313 99.0347 66.9052 98.9421 66.6771C98.8456 66.4394 98.7795 66.1607 98.8626 65.9098C98.8997 65.798 98.9948 65.6515 99.0728 65.5371C99.1888 65.3671 99.3167 65.2054 99.4484 65.0474C99.7335 64.7057 100.038 64.379 100.355 64.0673C100.48 63.9445 100.607 63.8233 100.741 63.7096C100.791 63.667 100.822 63.6404 100.859 63.6143C100.876 63.603 100.893 63.5928 100.909 63.5815C100.915 63.5775 100.922 63.5749 100.928 63.5713C100.942 63.5635 100.893 63.5837 100.926 63.5729C101.242 63.4688 101.548 63.4555 101.864 63.5792C102.147 63.6901 102.39 63.8883 102.599 64.1047C102.797 64.3096 102.999 64.5096 103.199 64.7124C103.247 64.7606 103.298 64.8135 103.324 64.8545C103.33 64.8638 103.335 64.8743 103.341 64.8837C103.337 64.878 103.346 64.8736 103.343 64.8928C103.346 64.8765 103.343 64.8621 103.342 64.8458C103.342 64.851 103.337 64.8662 103.334 64.87C103.332 64.8731 103.345 64.848 103.333 64.8722C103.327 64.8843 103.321 64.8962 103.315 64.9079C103.3 64.9351 103.284 64.9615 103.268 64.9876C103.222 65.0617 103.171 65.1332 103.119 65.2036C102.784 65.66 102.398 66.0822 102.005 66.4887C101.745 66.7577 101.48 67.026 101.198 67.2721C100.987 67.4558 100.745 67.6269 100.471 67.6971C100.12 67.7866 99.817 67.6354 99.5448 67.4259C99.4852 67.3799 99.4269 67.3322 99.3673 67.2861C99.3094 67.2412 99.2335 67.2306 99.1768 67.2861C99.1299 67.332 99.1194 67.4321 99.1768 67.4766Z" fill="#020202"/>
<path d="M100.312 74.1838C100.612 74.4075 100.904 74.6401 101.294 74.6635C101.931 74.702 102.443 74.181 102.856 73.7684C103.352 73.2731 103.824 72.7507 104.252 72.1945C104.374 72.035 104.498 71.8723 104.597 71.6967C104.66 71.583 104.703 71.4777 104.634 71.3555C104.543 71.1936 104.374 71.0671 104.241 70.9409C103.979 70.6899 103.738 70.4128 103.439 70.2038C103.047 69.9304 102.568 69.7967 102.097 69.9101C101.992 69.9353 101.878 69.9671 101.788 70.0285C101.667 70.1114 101.559 70.2144 101.453 70.3149C101.116 70.6338 100.801 70.9769 100.501 71.3307C100.226 71.6556 99.9285 72.0004 99.7457 72.3887C99.5108 72.8876 99.7279 73.494 100.043 73.9093C100.122 74.0135 100.209 74.104 100.312 74.1838C100.371 74.2284 100.463 74.1923 100.497 74.1355C100.538 74.0664 100.506 73.9952 100.449 73.9511C100.256 73.8028 100.117 73.5624 100.027 73.3408C99.9336 73.1104 99.8666 72.8357 99.9505 72.5926C100.056 72.2879 100.322 71.973 100.533 71.7125C100.813 71.3676 101.111 71.0369 101.423 70.7212C101.545 70.5983 101.668 70.477 101.799 70.3632C101.82 70.344 101.842 70.3253 101.865 70.3068C101.876 70.2973 101.888 70.2879 101.899 70.2787C101.88 70.2937 101.905 70.2746 101.912 70.2699C101.927 70.2589 101.944 70.2491 101.959 70.2383C101.992 70.2153 101.934 70.2447 101.979 70.2292C102.299 70.1186 102.612 70.1065 102.933 70.2324C103.222 70.3458 103.467 70.5475 103.682 70.7664C103.877 70.9639 104.079 71.1517 104.276 71.3467C104.323 71.3933 104.371 71.4449 104.396 71.4818C104.414 71.51 104.404 71.5095 104.405 71.4824C104.404 71.4971 104.4 71.4524 104.407 71.4692C104.408 71.4739 104.4 71.4908 104.398 71.4952C104.408 71.4727 104.387 71.5182 104.377 71.5369C104.362 71.5652 104.346 71.5927 104.329 71.62C104.282 71.6965 104.231 71.7704 104.179 71.8432C103.846 72.3087 103.464 72.7412 103.073 73.1577C102.816 73.4305 102.556 73.7054 102.275 73.9529C102.069 74.134 101.832 74.3016 101.562 74.3691C101.208 74.4577 100.904 74.295 100.628 74.088C100.568 74.0428 100.509 73.9962 100.449 73.9511C100.31 73.8472 100.175 74.081 100.312 74.1838Z" fill="#020202"/>
</g>
<mask id="mask9_3522_19657" style="mask-type:luminance" maskUnits="userSpaceOnUse" x="0" y="0" width="173" height="97">
<path d="M0 3.09944e-06H172.444V97H0V3.09944e-06Z" fill="white"/>
</mask>
<g mask="url(#mask9_3522_19657)">
<path d="M97.9429 45.0869H74.5013C74.154 45.0869 73.8726 44.8054 73.8726 44.4582V41.3147C73.8726 40.9675 74.154 40.686 74.5013 40.686H97.9429C98.2902 40.686 98.5716 40.9675 98.5716 41.3147V44.4582C98.5716 44.8054 98.2902 45.0869 97.9429 45.0869Z" fill="#00C151"/>
<path d="M83.0294 42.747C83.0294 42.6106 83.002 42.5061 82.9473 42.4332C82.8926 42.3603 82.816 42.3239 82.7176 42.3239C82.6219 42.3239 82.5465 42.3603 82.4914 42.4332C82.4365 42.5061 82.4082 42.6072 82.4066 42.7367V42.8212C82.4066 42.9533 82.4344 43.0571 82.4899 43.1326C82.5454 43.2081 82.6219 43.2459 82.7192 43.2459C82.8171 43.2459 82.8928 43.2102 82.9465 43.1389C83.0002 43.0676 83.0278 42.9654 83.0294 42.8322V42.747ZM83.1802 42.8212C83.1802 42.9338 83.1613 43.032 83.1234 43.116C83.0855 43.1999 83.0318 43.264 82.9623 43.3082C82.8928 43.3524 82.8118 43.3745 82.7192 43.3745C82.6287 43.3745 82.5485 43.3523 82.4784 43.3079C82.4085 43.2634 82.3541 43.1999 82.3154 43.1176C82.2768 43.0352 82.2568 42.9398 82.2559 42.8314V42.7486C82.2559 42.638 82.2751 42.5404 82.3134 42.4557C82.3519 42.3709 82.4062 42.3061 82.4764 42.2611C82.5467 42.2161 82.6272 42.1936 82.7176 42.1936C82.8097 42.1936 82.8909 42.2158 82.9612 42.2604C83.0314 42.3048 83.0855 42.3692 83.1234 42.4537C83.1613 42.5382 83.1802 42.6365 83.1802 42.7486V42.8212Z" fill="white"/>
<path d="M84.0195 42.6232H83.733V43.3589H83.5869V42.6232H83.3059V42.5048H84.0195V42.6232Z" fill="white"/>
<path d="M84.8601 43.3589H84.714V42.6255H84.3209V43.3589H84.1741V42.5047H84.8601V43.3589Z" fill="white"/>
<path d="M85.6702 42.925C85.6702 42.8287 85.6496 42.7526 85.6086 42.6968C85.5675 42.6411 85.5112 42.6131 85.4397 42.6131C85.3512 42.6131 85.285 42.6524 85.2408 42.7308V43.1389C85.2844 43.2168 85.3512 43.2558 85.4412 43.2558C85.5112 43.2558 85.5669 43.228 85.6082 43.1724C85.6495 43.1169 85.6702 43.0345 85.6702 42.925ZM85.8162 42.9416C85.8162 43.0716 85.7865 43.1763 85.727 43.2558C85.6676 43.3352 85.587 43.3749 85.4854 43.3749C85.3818 43.3749 85.3002 43.3421 85.2408 43.2762V43.6875H85.0947V42.505H85.2281L85.2352 42.5998C85.2947 42.5261 85.3773 42.4892 85.4831 42.4892C85.5857 42.4892 85.6668 42.5279 85.7266 42.6052C85.7863 42.6827 85.8162 42.7903 85.8162 42.9281V42.9416Z" fill="white"/>
<path d="M86.2867 43.2474C86.3325 43.2474 86.376 43.2356 86.417 43.2119C86.4581 43.1882 86.4878 43.1574 86.5062 43.1195V42.9443H86.3917C86.2128 42.9443 86.1233 42.9967 86.1233 43.1014C86.1233 43.1472 86.1386 43.1829 86.169 43.2087C86.1996 43.2345 86.2388 43.2474 86.2867 43.2474ZM86.5291 43.3587C86.5207 43.3419 86.5138 43.3119 86.5085 43.2687C86.4406 43.3392 86.3596 43.3745 86.2654 43.3745C86.1812 43.3745 86.1121 43.3507 86.0582 43.3031C86.0042 43.2554 85.9773 43.1951 85.9773 43.122C85.9773 43.0329 86.0111 42.9639 86.0787 42.9147C86.1463 42.8655 86.2414 42.8409 86.3641 42.8409H86.5062V42.7738C86.5062 42.7227 86.4909 42.6821 86.4604 42.6519C86.4299 42.6216 86.3849 42.6064 86.3254 42.6064C86.2733 42.6064 86.2296 42.6196 86.1944 42.6459C86.1591 42.6722 86.1415 42.704 86.1415 42.7414H85.9946C85.9946 42.6988 86.0098 42.6576 86.04 42.6179C86.0703 42.5781 86.1113 42.5467 86.1632 42.5235C86.215 42.5004 86.272 42.4888 86.3341 42.4888C86.4326 42.4888 86.5096 42.5135 86.5654 42.5626C86.6212 42.6118 86.6501 42.6796 86.6523 42.7659V43.159C86.6523 43.2375 86.6622 43.2998 86.6823 43.3461V43.3587H86.5291Z" fill="white"/>
<path d="M87.0406 42.9839V43.2412H87.2821C87.3432 43.2412 87.3888 43.2299 87.419 43.2073C87.4493 43.1846 87.4645 43.1529 87.4645 43.1118C87.4645 43.0266 87.4018 42.9839 87.2766 42.9839H87.0406ZM87.0406 42.8671H87.2293C87.3661 42.8671 87.4345 42.8271 87.4345 42.7471C87.4345 42.6671 87.3697 42.6258 87.2403 42.6231H87.0406V42.8671ZM86.8945 43.3589V42.5047H87.2277C87.3414 42.5047 87.4285 42.5246 87.4893 42.5644C87.5501 42.6041 87.5805 42.6624 87.5805 42.7392C87.5805 42.7787 87.5687 42.8143 87.545 42.8461C87.5213 42.878 87.4863 42.9024 87.44 42.9192C87.4915 42.9313 87.5329 42.955 87.5643 42.9902C87.5956 43.0255 87.6113 43.0676 87.6113 43.1166C87.6113 43.195 87.5824 43.255 87.5249 43.2965C87.4672 43.338 87.3858 43.3589 87.2806 43.3589H86.8945Z" fill="white"/>
<path d="M88.3573 42.5047H88.5034V43.3589H88.3573V42.736L87.9634 43.3589H87.8174V42.5047H87.9634V43.1283L88.3573 42.5047Z" fill="white"/>
<path d="M89.3723 42.6232H89.0858V43.3589H88.9397V42.6232H88.6587V42.5048H89.3723V42.6232Z" fill="white"/>
<path d="M89.6739 42.9184V43.2397H89.891C89.9457 43.2397 89.988 43.2256 90.018 43.1975C90.048 43.1693 90.063 43.1308 90.063 43.0818C90.063 43.0345 90.0484 42.9957 90.0193 42.9654C89.99 42.9351 89.9491 42.9195 89.8965 42.9184H89.6739ZM89.6739 42.7993H89.8957C89.9925 42.8003 90.0691 42.8256 90.1254 42.8751C90.1817 42.9245 90.2099 42.9915 90.2099 43.0763C90.2099 43.1616 90.181 43.23 90.123 43.2816C90.0651 43.3331 89.9872 43.3589 89.8893 43.3589H89.5278V42.5048H89.6739V42.7993Z" fill="white"/>
</g>
<path d="M74.1152 36.3766H74.5426V36.5608H74.1152V37.0449H73.9194V36.5608H73.4922V36.3766H73.9194V35.9293H74.1152V36.3766Z" fill="black"/>
<path d="M75.7485 35.7757L75.1139 37.1987H74.9097L75.5422 35.8262H74.7129V35.6662H75.7485V35.7757Z" fill="black"/>
<path d="M76.5159 36.5766C76.5159 36.418 76.5371 36.2658 76.5795 36.1198C76.622 35.9739 76.6853 35.8412 76.7695 35.7219C76.8538 35.6027 76.9411 35.5185 77.0316 35.4694L77.0716 35.5978C76.9692 35.6764 76.8851 35.7963 76.8195 35.9577C76.7539 36.1191 76.718 36.2998 76.7117 36.4998L76.7106 36.5893C76.7106 36.8601 76.7601 37.0951 76.859 37.2944C76.9186 37.4137 76.9895 37.507 77.0716 37.5744L77.0316 37.6934C76.9383 37.6414 76.8492 37.5544 76.7643 37.4323C76.5987 37.1937 76.5159 36.9085 76.5159 36.5766Z" fill="black"/>
<path d="M77.6862 36.525C77.7515 36.525 77.8115 36.505 77.8667 36.465C77.9217 36.4251 77.9619 36.3756 77.9872 36.3166V36.2387C77.9872 36.1111 77.9595 36.0071 77.904 35.9272C77.8486 35.8472 77.7784 35.8072 77.6935 35.8072C77.6079 35.8072 77.5391 35.84 77.4872 35.9057C77.4353 35.9712 77.4093 36.0577 77.4093 36.165C77.4093 36.2696 77.4344 36.3557 77.4846 36.4234C77.5347 36.4912 77.602 36.525 77.6862 36.525ZM77.9861 36.525C77.9455 36.5734 77.8969 36.6124 77.8404 36.6419C77.7839 36.6713 77.7219 36.6861 77.6545 36.6861C77.5662 36.6861 77.4892 36.6643 77.4235 36.6208C77.358 36.5773 77.3072 36.516 77.2715 36.4371C77.2356 36.3582 77.2178 36.271 77.2178 36.1755C77.2178 36.0732 77.2373 35.9808 77.2762 35.8987C77.3151 35.8166 77.3704 35.7539 77.442 35.7104C77.5135 35.6668 77.5971 35.6451 77.6924 35.6451C77.8441 35.6451 77.9635 35.7018 78.0509 35.8151C78.1382 35.9284 78.1819 36.0829 78.1819 36.2787V36.3356C78.1819 36.6338 78.1229 36.8515 78.0051 36.9886C77.8872 37.1258 77.7093 37.1962 77.4714 37.1997H77.4335V37.0344H77.4746C77.6353 37.0317 77.7588 36.9898 77.8451 36.9089C77.9314 36.8281 77.9784 36.7001 77.9861 36.525Z" fill="black"/>
<path d="M78.7334 36.3377H78.8798C78.9716 36.3363 79.0439 36.3121 79.0966 36.2651C79.1492 36.2181 79.1755 36.1546 79.1755 36.0746C79.1755 35.895 79.0861 35.8051 78.9071 35.8051C78.8229 35.8051 78.7557 35.8292 78.7055 35.8773C78.6554 35.9253 78.6303 35.989 78.6303 36.0683H78.4356C78.4356 35.9469 78.48 35.846 78.5687 35.7657C78.6575 35.6853 78.7703 35.6452 78.9071 35.6452C79.0517 35.6452 79.165 35.6834 79.2471 35.7599C79.3292 35.8364 79.3702 35.9427 79.3702 36.0788C79.3702 36.1455 79.3487 36.21 79.3055 36.2724C79.2624 36.335 79.2035 36.3816 79.1292 36.4125C79.2134 36.4391 79.2784 36.4833 79.3244 36.5451C79.3704 36.6068 79.3934 36.6823 79.3934 36.7714C79.3934 36.9089 79.3485 37.018 79.2587 37.0987C79.1689 37.1794 79.052 37.2197 78.9081 37.2197C78.7643 37.2197 78.6473 37.1808 78.5571 37.103C78.467 37.025 78.4219 36.9223 78.4219 36.7945H78.6177C78.6177 36.8752 78.644 36.9398 78.6966 36.9882C78.7492 37.0366 78.8198 37.0608 78.9081 37.0608C79.0022 37.0608 79.0741 37.0362 79.124 36.9871C79.1737 36.9381 79.1987 36.8675 79.1987 36.7756C79.1987 36.6865 79.1713 36.6181 79.1166 36.5704C79.0618 36.5227 78.9829 36.4981 78.8798 36.4967H78.7334V36.3377Z" fill="black"/>
<path d="M80.3005 37.1987H80.1047V35.901L79.7122 36.0451V35.8683L80.27 35.6589H80.3005V37.1987Z" fill="black"/>
<path d="M81.3405 36.5872C81.3405 36.7437 81.3199 36.8936 81.2788 37.0372C81.2378 37.1806 81.175 37.3131 81.0905 37.4345C81.0059 37.5559 80.9173 37.6422 80.8247 37.6934L80.7837 37.5744C80.8917 37.4916 80.9786 37.3631 81.0442 37.1887C81.1098 37.0144 81.1433 36.8209 81.1447 36.6082V36.5745C81.1447 36.4272 81.1292 36.2902 81.0984 36.1635C81.0675 36.0369 81.0245 35.9234 80.9694 35.8231C80.9144 35.7227 80.8524 35.6445 80.7837 35.5884L80.8247 35.4695C80.9173 35.5206 81.0055 35.6062 81.0894 35.7262C81.1733 35.8462 81.2361 35.9785 81.2779 36.123C81.3196 36.2675 81.3405 36.4223 81.3405 36.5872Z" fill="black"/>
<path d="M82.7939 37.1987H82.5981V35.901L82.2056 36.0451V35.8683L82.7634 35.6589H82.7939V37.1987Z" fill="black"/>
<path d="M83.6475 36.3377H83.7938C83.8857 36.3363 83.958 36.3121 84.0106 36.2651C84.0633 36.2181 84.0896 36.1546 84.0896 36.0746C84.0896 35.895 84.0001 35.8051 83.8212 35.8051C83.737 35.8051 83.6698 35.8292 83.6196 35.8773C83.5695 35.9253 83.5444 35.989 83.5444 36.0683H83.3497C83.3497 35.9469 83.394 35.846 83.4828 35.7657C83.5715 35.6853 83.6843 35.6452 83.8212 35.6452C83.9657 35.6452 84.0791 35.6834 84.1612 35.7599C84.2432 35.8364 84.2843 35.9427 84.2843 36.0788C84.2843 36.1455 84.2627 36.21 84.2195 36.2724C84.1764 36.335 84.1176 36.3816 84.0432 36.4125C84.1275 36.4391 84.1925 36.4833 84.2385 36.5451C84.2845 36.6068 84.3075 36.6823 84.3075 36.7714C84.3075 36.9089 84.2626 37.018 84.1727 37.0987C84.0829 37.1794 83.9661 37.2197 83.8222 37.2197C83.6784 37.2197 83.5614 37.1808 83.4712 37.103C83.381 37.025 83.3359 36.9223 83.3359 36.7945H83.5317C83.5317 36.8752 83.558 36.9398 83.6107 36.9882C83.6633 37.0366 83.7338 37.0608 83.8222 37.0608C83.9162 37.0608 83.9882 37.0362 84.038 36.9871C84.0878 36.9381 84.1127 36.8675 84.1127 36.7756C84.1127 36.6865 84.0854 36.6181 84.0307 36.5704C83.9759 36.5227 83.8969 36.4981 83.7938 36.4967H83.6475V36.3377Z" fill="black"/>
<path d="M84.6643 36.4303L84.7422 35.6662H85.5273V35.8462H84.9074L84.8611 36.264C84.9362 36.2198 85.0215 36.1977 85.1169 36.1977C85.2566 36.1977 85.3674 36.2439 85.4495 36.3361C85.5316 36.4285 85.5726 36.5531 85.5726 36.7103C85.5726 36.8682 85.53 36.9926 85.4447 37.0834C85.3595 37.1743 85.2404 37.2197 85.0874 37.2197C84.952 37.2197 84.8415 37.1822 84.7559 37.1071C84.6702 37.032 84.6215 36.9282 84.6096 36.7955H84.7937C84.8057 36.8833 84.8369 36.9494 84.8874 36.9939C84.938 37.0385 85.0046 37.0608 85.0874 37.0608C85.178 37.0608 85.249 37.0299 85.3006 36.9682C85.3521 36.9065 85.3779 36.8212 85.3779 36.7125C85.3779 36.61 85.3501 36.5277 85.2943 36.4656C85.2385 36.4035 85.1642 36.3724 85.0716 36.3724C84.9868 36.3724 84.9201 36.3911 84.8717 36.4283L84.8201 36.4703L84.6643 36.4303Z" fill="black"/>
<path d="M86.2104 36.627H85.6968V36.468H86.2104V36.627Z" fill="black"/>
<path d="M87.3839 37.1987H86.3798V37.0587L86.9103 36.4693C86.9889 36.3802 87.0431 36.3078 87.0729 36.252C87.1027 36.1962 87.1176 36.1385 87.1176 36.0788C87.1176 35.9989 87.0935 35.9332 87.0451 35.882C86.9966 35.8309 86.9321 35.8052 86.8513 35.8052C86.7545 35.8052 86.6792 35.8327 86.6256 35.8878C86.5719 35.9429 86.5451 36.0196 86.5451 36.1178H86.3503C86.3503 35.9768 86.3958 35.8627 86.4867 35.7757C86.5775 35.6888 86.6991 35.6452 86.8513 35.6452C86.9938 35.6452 87.1064 35.6826 87.1892 35.7573C87.272 35.832 87.3134 35.9315 87.3134 36.0557C87.3134 36.2065 87.2173 36.3862 87.025 36.5945L86.6146 37.0398H87.3839V37.1987Z" fill="black"/>
<path d="M87.8733 36.3377H88.0196C88.1115 36.3363 88.1838 36.3121 88.2365 36.2651C88.2891 36.2181 88.3154 36.1546 88.3154 36.0746C88.3154 35.895 88.2259 35.8051 88.047 35.8051C87.9628 35.8051 87.8956 35.8292 87.8454 35.8773C87.7953 35.9253 87.7702 35.989 87.7702 36.0683H87.5755C87.5755 35.9469 87.6199 35.846 87.7086 35.7657C87.7974 35.6853 87.9102 35.6452 88.047 35.6452C88.1915 35.6452 88.3049 35.6834 88.387 35.7599C88.4691 35.8364 88.5101 35.9427 88.5101 36.0788C88.5101 36.1455 88.4886 36.21 88.4454 36.2724C88.4023 36.335 88.3434 36.3816 88.2691 36.4125C88.3533 36.4391 88.4183 36.4833 88.4643 36.5451C88.5103 36.6068 88.5333 36.6823 88.5333 36.7714C88.5333 36.9089 88.4884 37.018 88.3986 37.0987C88.3088 37.1794 88.1919 37.2197 88.048 37.2197C87.9042 37.2197 87.7872 37.1808 87.697 37.103C87.6069 37.025 87.5618 36.9223 87.5618 36.7945H87.7576C87.7576 36.8752 87.7839 36.9398 87.8365 36.9882C87.8891 37.0366 87.9596 37.0608 88.048 37.0608C88.1421 37.0608 88.214 37.0362 88.2638 36.9871C88.3136 36.9381 88.3386 36.8675 88.3386 36.7756C88.3386 36.6865 88.3112 36.6181 88.2565 36.5704C88.2017 36.5227 88.1228 36.4981 88.0196 36.4967H87.8733V36.3377Z" fill="black"/>
<path d="M89.567 36.2787C89.567 36.1138 89.5438 35.9937 89.4976 35.9182C89.4512 35.8428 89.378 35.8051 89.2775 35.8051C89.1779 35.8051 89.1053 35.8427 89.0597 35.9177C89.0141 35.9928 88.9906 36.1083 88.9892 36.264V36.5756C88.9892 36.7411 89.0132 36.8634 89.0613 36.9424C89.1093 37.0213 89.1822 37.0608 89.2797 37.0608C89.3758 37.0608 89.4472 37.0236 89.4939 36.9492C89.5405 36.8748 89.565 36.7576 89.567 36.5977V36.2787ZM89.7617 36.545C89.7617 36.7731 89.7228 36.9426 89.6449 37.0534C89.567 37.1642 89.4453 37.2197 89.2797 37.2197C89.1162 37.2197 88.9952 37.1655 88.9166 37.0571C88.838 36.9487 88.7973 36.7867 88.7944 36.5714V36.3113C88.7944 36.0861 88.8334 35.9188 88.9113 35.8093C88.9892 35.6999 89.1113 35.6451 89.2775 35.6451C89.4424 35.6451 89.5639 35.6979 89.6417 35.8035C89.7196 35.9091 89.7597 36.0721 89.7617 36.2924V36.545Z" fill="black"/>
<path d="M90.4365 36.627H89.9229V36.468H90.4365V36.627Z" fill="black"/>
<path d="M91.372 36.2787C91.372 36.1138 91.3488 35.9937 91.3025 35.9182C91.2562 35.8428 91.1829 35.8051 91.0825 35.8051C90.9829 35.8051 90.9102 35.8427 90.8647 35.9177C90.8191 35.9928 90.7955 36.1083 90.7941 36.264V36.5756C90.7941 36.7411 90.8182 36.8634 90.8662 36.9424C90.9143 37.0213 90.9871 37.0608 91.0846 37.0608C91.1807 37.0608 91.2521 37.0236 91.2988 36.9492C91.3455 36.8748 91.3699 36.7576 91.372 36.5977V36.2787ZM91.5667 36.545C91.5667 36.7731 91.5277 36.9426 91.4498 37.0534C91.372 37.1642 91.2503 37.2197 91.0846 37.2197C90.9211 37.2197 90.8001 37.1655 90.7215 37.0571C90.6429 36.9487 90.6022 36.7867 90.5994 36.5714V36.3113C90.5994 36.0861 90.6383 35.9188 90.7162 35.8093C90.7941 35.6999 90.9162 35.6451 91.0825 35.6451C91.2474 35.6451 91.3688 35.6979 91.4467 35.8035C91.5245 35.9091 91.5646 36.0721 91.5667 36.2924V36.545Z" fill="black"/>
<path d="M92.5824 36.2787C92.5824 36.1138 92.5592 35.9937 92.513 35.9182C92.4666 35.8428 92.3933 35.8051 92.2929 35.8051C92.1933 35.8051 92.1207 35.8427 92.0751 35.9177C92.0295 35.9928 92.006 36.1083 92.0045 36.264V36.5756C92.0045 36.7411 92.0286 36.8634 92.0767 36.9424C92.1247 37.0213 92.1975 37.0608 92.2951 37.0608C92.3912 37.0608 92.4626 37.0236 92.5093 36.9492C92.5559 36.8748 92.5803 36.7576 92.5824 36.5977V36.2787ZM92.7771 36.545C92.7771 36.7731 92.7381 36.9426 92.6603 37.0534C92.5824 37.1642 92.4607 37.2197 92.2951 37.2197C92.1315 37.2197 92.0106 37.1655 91.932 37.0571C91.8534 36.9487 91.8127 36.7867 91.8098 36.5714V36.3113C91.8098 36.0861 91.8488 35.9188 91.9267 35.8093C92.0045 35.6999 92.1267 35.6451 92.2929 35.6451C92.4578 35.6451 92.5793 35.6979 92.6571 35.8035C92.735 35.9091 92.7751 36.0721 92.7771 36.2924V36.545Z" fill="black"/>
<mask id="mask10_3522_19657" style="mask-type:luminance" maskUnits="userSpaceOnUse" x="0" y="0" width="173" height="97">
<path d="M0 0H172.444V97H0V0Z" fill="white"/>
</mask>
<g mask="url(#mask10_3522_19657)">
<path d="M64.9591 78.5061C64.9591 78.5061 69.4763 57.2994 70.1454 56.8729C70.8144 56.4465 85.5375 42.5857 85.5375 42.5857C85.5375 42.5857 86.523 41.7619 88.0747 42.8166C89.4565 43.7557 89.8541 45.9329 86.1353 50.7582C82.4854 55.4942 79.8355 59.9376 79.8355 59.9376C79.8355 59.9376 82.5519 63.477 84.0431 69.0516C86.1331 76.8643 78.6679 86.4953 75.6863 86.7605C64.5769 87.7488 64.9591 78.5061 64.9591 78.5061Z" fill="#FFD000"/>
<path d="M81.7115 46.378C82.1473 46.8275 82.5831 47.2771 83.019 47.7267C83.0819 47.7915 83.1448 47.8565 83.2079 47.9214C83.2592 47.9744 83.3465 47.9712 83.3984 47.9214C83.9901 47.353 84.5749 46.7773 85.1531 46.1951C85.5669 45.7785 85.9788 45.359 86.3744 44.9249C86.5413 44.7419 86.7339 44.5577 86.8305 44.3262C86.937 44.0704 86.9187 43.7839 86.8308 43.5253C86.6909 43.114 86.4099 42.7274 86.0928 42.4318C85.9661 42.3137 85.7751 42.5038 85.9023 42.6223C86.1512 42.8543 86.3683 43.1426 86.5122 43.4506C86.6147 43.6701 86.6761 43.9257 86.6041 44.1635C86.5379 44.3825 86.349 44.5528 86.199 44.7179C85.4464 45.5455 84.6449 46.3301 83.8454 47.112C83.6336 47.3191 83.4214 47.5258 83.2079 47.7309H83.3984C82.9625 47.2814 82.5267 46.8318 82.0908 46.3822C82.0279 46.3173 81.9649 46.2524 81.902 46.1875C81.7811 46.0628 81.5907 46.2534 81.7115 46.378Z" fill="#020202"/>
<path d="M84.1565 74.6809C84.1559 74.6862 84.1552 74.6914 84.1545 74.6967C84.1482 74.7462 84.1588 74.6679 84.1527 74.711C84.144 74.7711 84.1355 74.8311 84.1262 74.8911C84.0915 75.1151 84.0517 75.3384 84.0086 75.561C83.8602 76.3259 83.6718 77.0835 83.4485 77.83C83.1413 78.8572 82.7668 79.8657 82.3098 80.8358C81.7981 81.9224 81.1844 82.9691 80.4374 83.9116C79.6503 84.9047 78.7155 85.7853 77.6329 86.4491C77.4966 86.5327 77.358 86.6128 77.2177 86.6895C77.0655 86.7728 77.2013 87.0056 77.3537 86.9222C78.4859 86.3024 79.4814 85.4555 80.3194 84.4767C81.1261 83.5344 81.7944 82.4793 82.3487 81.3711C82.8467 80.3754 83.2571 79.3357 83.5934 78.2748C83.8464 77.4767 84.0584 76.6653 84.226 75.845C84.2779 75.5918 84.3254 75.3375 84.367 75.0823C84.3873 74.9573 84.4207 74.8229 84.4241 74.6958C84.4242 74.6908 84.4253 74.6858 84.426 74.6809C84.4468 74.5091 84.1772 74.5106 84.1565 74.6809Z" fill="#020202"/>
</g>
</svg>
