<svg width="78" height="125" viewBox="0 0 78 125" fill="none" xmlns="http://www.w3.org/2000/svg">
<mask id="mask0_3749_67" style="mask-type:alpha" maskUnits="userSpaceOnUse" x="0" y="0" width="78" height="128">
<rect width="78" height="127.263" fill="#D9D9D9"/>
</mask>
<g mask="url(#mask0_3749_67)">
<mask id="mask1_3749_67" style="mask-type:luminance" maskUnits="userSpaceOnUse" x="-80" y="-6" width="237" height="134">
<path d="M-79.3695 -5.47317H156.607V127.264H-79.3695V-5.47317Z" fill="white"/>
</mask>
<g mask="url(#mask1_3749_67)">
<path d="M10.8582 111.99C10.8582 111.99 5.06645 99.2414 18.2203 82.7271C30.4922 67.3201 56.1704 45.5485 62.0941 42.7054C68.1196 39.8134 68.4045 40.0172 70.8203 40.0015C71.7162 39.9957 74.0159 43.0741 72.4181 45.4093C71.326 47.0057 62.4081 51.6371 62.4081 51.6371C62.4081 51.6371 61.9357 63.8682 61.9357 71.8884C61.9357 79.9088 59.4482 110.317 56.4405 118.537C53.4329 126.758 50.0495 131.688 50.0495 131.688C50.0495 131.688 21.1473 131.889 18.3401 131.688C15.5331 131.488 10.8582 111.99 10.8582 111.99Z" fill="#FFD000"/>
<path d="M38.1275 119.95C38.0587 119.232 38.034 118.508 38.0175 117.787C37.9771 116.037 38.0333 114.283 38.1969 112.541C38.4012 110.366 38.7755 108.195 39.4307 106.108C39.7977 104.939 40.2746 103.814 40.7947 102.706C41.2707 101.693 41.7878 100.698 42.3502 99.73C42.7353 99.0672 43.1412 98.4159 43.5752 97.7839C43.7079 97.5906 43.8434 97.3992 43.9826 97.2106C44.0276 97.1496 44.073 97.0891 44.1188 97.0289C44.1268 97.0183 44.1349 97.0079 44.1429 96.9973C44.1146 97.0336 44.1678 96.9648 44.1429 96.9973C44.1548 96.9821 44.1669 96.9668 44.1788 96.9517C44.1879 96.9402 44.197 96.9287 44.2062 96.9174C44.3545 96.7348 44.0952 96.4725 43.9454 96.6568C43.3624 97.3739 42.8611 98.1668 42.3819 98.9547C41.8393 99.8471 41.3382 100.765 40.873 101.7C40.3164 102.818 39.7907 103.963 39.3678 105.14C38.6094 107.25 38.1742 109.467 37.9172 111.691C37.7049 113.527 37.6194 115.379 37.6393 117.228C37.6489 118.121 37.669 119.022 37.7553 119.912C37.7565 119.925 37.7575 119.938 37.7587 119.95C37.7811 120.185 38.1501 120.187 38.1275 119.95Z" fill="#020202"/>
</g>
<mask id="mask2_3749_67" style="mask-type:luminance" maskUnits="userSpaceOnUse" x="-80" y="-6" width="237" height="134">
<path d="M-79.3695 -5.47317H156.607V127.264H-79.3695V-5.47317Z" fill="white"/>
</mask>
<g mask="url(#mask2_3749_67)">
<path d="M60.6794 96.6602H16.5567C15.5386 96.6602 14.7131 95.8347 14.7131 94.8166V5.71085C14.7131 4.69271 15.5386 3.86728 16.5567 3.86728H60.6794C61.6975 3.86728 62.523 4.69271 62.523 5.71085V94.8166C62.523 95.8347 61.6975 96.6602 60.6794 96.6602Z" fill="black"/>
<path d="M60.8632 90.5146H16.3718V9.5206H60.8632V90.5146Z" fill="white"/>
</g>
<mask id="mask3_3749_67" style="mask-type:luminance" maskUnits="userSpaceOnUse" x="32" y="19" width="24" height="12">
<path d="M50.4404 19.9064C50.4073 19.9064 50.3815 19.9164 50.3631 19.9368C50.3446 19.9571 50.3354 19.9821 50.3354 20.0116C50.3354 20.2035 50.2304 20.2995 50.0205 20.2995C49.8068 20.2995 49.7 20.2035 49.7 20.0116C49.7 19.9821 49.6908 19.9571 49.6724 19.9368C49.6539 19.9164 49.6281 19.9064 49.5949 19.9064H49.1308C49.0977 19.9064 49.0718 19.9164 49.0535 19.9368C49.0351 19.9571 49.0259 19.9821 49.0259 20.0116C49.0259 20.2516 49.1069 20.4453 49.269 20.593C49.4311 20.7406 49.6816 20.8145 50.0205 20.8145C50.3557 20.8145 50.6043 20.7406 50.7664 20.593C50.9286 20.4453 51.0097 20.2516 51.0097 20.0116C51.0097 19.9821 51.0004 19.9571 50.982 19.9368C50.9636 19.9164 50.9378 19.9064 50.9046 19.9064H50.4404ZM44.6245 21.3821C44.3169 21.646 44.1558 22.0215 44.141 22.5089C44.1373 22.6158 44.1355 22.7764 44.1355 22.9905C44.1355 23.2046 44.1373 23.3633 44.141 23.4668C44.1595 23.9613 44.3197 24.3361 44.6217 24.5907C44.9238 24.8454 45.3364 24.9727 45.8595 24.9727C46.3827 24.9727 46.7943 24.8454 47.0946 24.5907C47.3948 24.3361 47.5541 23.9613 47.5725 23.4668C47.5799 23.2601 47.5836 23.1013 47.5836 22.9905C47.5836 22.8835 47.5799 22.7228 47.5725 22.5089C47.5578 22.0215 47.3966 21.646 47.089 21.3821C46.7814 21.1181 46.3716 20.9861 45.8595 20.9861C45.3439 20.9861 44.9322 21.1181 44.6245 21.3821ZM45.3954 23.9679C45.2812 23.8516 45.2204 23.6734 45.213 23.4335C45.2093 23.3264 45.2075 23.1733 45.2075 22.9738C45.2075 22.7783 45.2093 22.6287 45.213 22.5255C45.2204 22.2855 45.2812 22.1073 45.3954 21.9911C45.5096 21.8748 45.6643 21.8167 45.8595 21.8167C46.0511 21.8167 46.204 21.8748 46.3183 21.9911C46.4325 22.1073 46.4932 22.2855 46.5006 22.5255C46.5079 22.7322 46.5116 22.8816 46.5116 22.9738C46.5116 23.0662 46.5079 23.2194 46.5006 23.4335C46.4932 23.6734 46.4325 23.8516 46.3183 23.9679C46.204 24.0841 46.0511 24.1423 45.8595 24.1423C45.6643 24.1423 45.5096 24.0841 45.3954 23.9679ZM33.6006 21.3764C33.2967 21.6367 33.1355 22.0068 33.1171 22.4866C33.1134 22.59 33.1116 22.7561 33.1116 22.985C33.1116 23.2102 33.1134 23.3726 33.1171 23.4723C33.1355 23.9632 33.295 24.3361 33.5951 24.5907C33.8953 24.8454 34.3088 24.9727 34.8357 24.9727C35.1635 24.9727 35.4573 24.9193 35.717 24.8122C35.9767 24.7052 36.182 24.5501 36.3332 24.3471C36.4841 24.144 36.5634 23.9041 36.5707 23.6273C36.5707 23.5941 36.5588 23.5665 36.5347 23.5442C36.5109 23.5221 36.4824 23.511 36.4492 23.511H35.6644C35.6129 23.511 35.5742 23.5212 35.5484 23.5414C35.5226 23.5618 35.5024 23.5996 35.4877 23.6551C35.4398 23.8322 35.3615 23.9577 35.2528 24.0314C35.1442 24.1053 35.0051 24.1423 34.8357 24.1423C34.4193 24.1423 34.2038 23.9096 34.1891 23.4445C34.1854 23.3376 34.1836 23.1807 34.1836 22.9738C34.1836 22.7672 34.1854 22.6141 34.1891 22.5144C34.2038 22.0492 34.4193 21.8167 34.8357 21.8167C35.0087 21.8167 35.1477 21.8527 35.2528 21.9247C35.3578 21.9966 35.4361 22.1231 35.4877 22.3039C35.506 22.3593 35.5273 22.3971 35.5512 22.4174C35.5752 22.4377 35.6129 22.4479 35.6644 22.4479H36.4492C36.4824 22.4479 36.5109 22.4368 36.5347 22.4147C36.5588 22.3925 36.5707 22.3648 36.5707 22.3316C36.5634 22.0547 36.4841 21.8148 36.3332 21.6118C36.182 21.4087 35.9767 21.2538 35.717 21.1466C35.4573 21.0397 35.1635 20.9861 34.8357 20.9861C34.3162 20.9861 33.9044 21.1162 33.6006 21.3764ZM50.9599 21.0414C50.8789 21.0414 50.8161 21.0765 50.772 21.1466L49.2469 23.3504V21.1854C49.2469 21.1449 49.2331 21.1107 49.2054 21.083C49.1779 21.0553 49.1437 21.0414 49.1032 21.0414H48.3516C48.3112 21.0414 48.2771 21.0553 48.2495 21.083C48.2218 21.1107 48.2079 21.1449 48.2079 21.1854V24.7735C48.2079 24.8141 48.221 24.8482 48.2467 24.8759C48.2725 24.9037 48.3057 24.9174 48.3461 24.9174H49.0259C49.0738 24.9174 49.1115 24.9082 49.1392 24.8896C49.1668 24.8713 49.1915 24.8454 49.2137 24.8122L50.7388 22.6971V24.779C50.7388 24.8196 50.7527 24.8529 50.7803 24.8786C50.8079 24.9045 50.8419 24.9174 50.8825 24.9174H51.6396C51.6801 24.9174 51.7132 24.9037 51.739 24.8759C51.7648 24.8482 51.7777 24.8159 51.7777 24.779V21.1854C51.7777 21.1449 51.7648 21.1107 51.739 21.083C51.7132 21.0553 51.6801 21.0414 51.6396 21.0414H50.9599ZM40.6432 21.0414C40.6027 21.0414 40.5696 21.0553 40.5437 21.083C40.5179 21.1107 40.505 21.1449 40.505 21.1854V24.779C40.505 24.8159 40.5189 24.8482 40.5466 24.8759C40.5742 24.9037 40.6064 24.9174 40.6432 24.9174H41.439C41.4794 24.9174 41.5126 24.9037 41.5384 24.8759C41.5642 24.8482 41.5771 24.8159 41.5771 24.779V23.583H42.2071C42.686 23.583 43.0617 23.4787 43.3342 23.2703C43.6069 23.0616 43.7432 22.7469 43.7432 22.3261C43.7432 21.9052 43.6069 21.586 43.3342 21.3682C43.0617 21.1504 42.686 21.0414 42.2071 21.0414H40.6432ZM41.5605 21.8389H42.1794C42.3451 21.8389 42.4677 21.883 42.5468 21.9716C42.6261 22.0603 42.6657 22.1765 42.6657 22.3206C42.6657 22.4756 42.6224 22.5928 42.5358 22.6721C42.4493 22.7515 42.3304 22.7913 42.1794 22.7913H41.5605V21.8389ZM36.8745 21.0414C36.8341 21.0414 36.8001 21.0553 36.7724 21.083C36.7448 21.1107 36.731 21.1449 36.731 21.1854V21.8056C36.731 21.8462 36.7448 21.8795 36.7724 21.9052C36.8001 21.9311 36.8341 21.944 36.8745 21.944H37.8472V24.779C37.8472 24.8196 37.861 24.8529 37.8886 24.8786C37.9163 24.9045 37.9503 24.9174 37.9908 24.9174H38.7589C38.7995 24.9174 38.8335 24.9045 38.8611 24.8786C38.8887 24.8529 38.9026 24.8196 38.9026 24.779V21.944H39.8751C39.9157 21.944 39.9497 21.9311 39.9774 21.9052C40.0049 21.8795 40.0188 21.8462 40.0188 21.8056V21.1854C40.0188 21.1449 40.0049 21.1107 39.9774 21.083C39.9497 21.0553 39.9157 21.0414 39.8751 21.0414H36.8745ZM52.5237 26.3017C52.4831 26.3017 52.45 26.3155 52.4242 26.3432C52.3984 26.3709 52.3856 26.4051 52.3856 26.4457V30.0392C52.3856 30.0762 52.3994 30.1084 52.4269 30.1361C52.4545 30.1637 52.4869 30.1777 52.5237 30.1777H53.3194C53.36 30.1777 53.393 30.1637 53.4188 30.1361C53.4447 30.1084 53.4576 30.0762 53.4576 30.0392V28.8432H54.0874C54.5664 28.8432 54.9421 28.739 55.2147 28.5303C55.4873 28.3219 55.6236 28.0071 55.6236 27.5863C55.6236 27.1655 55.4873 26.8463 55.2147 26.6284C54.9421 26.4106 54.5664 26.3017 54.0874 26.3017H52.5237ZM53.441 27.099H54.0598C54.2256 27.099 54.3481 27.1433 54.4273 27.232C54.5064 27.3206 54.546 27.4368 54.546 27.5809C54.546 27.7357 54.5029 27.853 54.4162 27.9324C54.3297 28.0118 54.2108 28.0514 54.0598 28.0514H53.441V27.099ZM48.9761 26.3017C48.9357 26.3017 48.9025 26.3155 48.8767 26.3432C48.8509 26.3709 48.8379 26.4051 48.8379 26.4457V30.0392C48.8379 30.0762 48.8517 30.1084 48.8794 30.1361C48.907 30.1637 48.9392 30.1777 48.9761 30.1777H51.6285C51.6689 30.1777 51.7031 30.1647 51.7307 30.1389C51.7584 30.1131 51.7722 30.0798 51.7722 30.0392V29.4911C51.7722 29.4504 51.7584 29.4163 51.7307 29.3886C51.7031 29.3609 51.6689 29.3471 51.6285 29.3471H49.8382V28.6272H51.4627C51.5032 28.6272 51.5373 28.6134 51.565 28.5858C51.5926 28.5581 51.6064 28.5239 51.6064 28.4834V27.9795C51.6064 27.9389 51.5926 27.9047 51.565 27.8771C51.5373 27.8493 51.5032 27.8354 51.4627 27.8354H49.8382V27.1323H51.5842C51.6248 27.1323 51.659 27.1194 51.6865 27.0934C51.7142 27.0676 51.7279 27.0345 51.7279 26.9938V26.4457C51.7279 26.4051 51.7142 26.3709 51.6865 26.3432C51.659 26.3155 51.6248 26.3017 51.5842 26.3017H48.9761ZM45.2075 26.3017C45.167 26.3017 45.1329 26.3155 45.1052 26.3432C45.0777 26.3709 45.0639 26.4051 45.0639 26.4457V27.0658C45.0639 27.1064 45.0777 27.1397 45.1052 27.1655C45.1329 27.1914 45.167 27.2043 45.2075 27.2043H46.1801V30.0392C46.1801 30.0798 46.1939 30.1131 46.2214 30.1389C46.2491 30.1647 46.2831 30.1777 46.3238 30.1777H47.0917C47.1324 30.1777 47.1664 30.1647 47.1941 30.1389C47.2216 30.1131 47.2355 30.0798 47.2355 30.0392V27.2043H48.2079C48.2486 27.2043 48.2827 27.1914 48.3103 27.1655C48.3379 27.1397 48.3516 27.1064 48.3516 27.0658V26.4457C48.3516 26.4051 48.3379 26.3709 48.3103 26.3432C48.2827 26.3155 48.2486 26.3017 48.2079 26.3017H45.2075ZM43.6825 26.3017C43.6418 26.3017 43.6077 26.3155 43.5802 26.3432C43.5526 26.3709 43.5388 26.4051 43.5388 26.4457V27.7579H42.2347V26.4457C42.2347 26.4051 42.2208 26.3709 42.1932 26.3432C42.1656 26.3155 42.1315 26.3017 42.091 26.3017H41.334C41.2933 26.3017 41.2602 26.3155 41.2345 26.3432C41.2087 26.3709 41.1959 26.4051 41.1959 26.4457V30.0392C41.1959 30.0798 41.2087 30.1131 41.2345 30.1389C41.2602 30.1647 41.2933 30.1777 41.334 30.1777H42.091C42.1315 30.1777 42.1656 30.1647 42.1932 30.1389C42.2208 30.1131 42.2347 30.0798 42.2347 30.0392V28.6826H43.5388V30.0392C43.5388 30.0798 43.5526 30.1131 43.5802 30.1389C43.6077 30.1647 43.6418 30.1777 43.6825 30.1777H44.4339C44.4745 30.1777 44.5085 30.1647 44.5362 30.1389C44.5638 30.1131 44.5776 30.0798 44.5776 30.0392V26.4457C44.5776 26.4051 44.5638 26.3709 44.5362 26.3432C44.5085 26.3155 44.4745 26.3017 44.4339 26.3017H43.6825ZM38.3997 26.3017C38.2892 26.3017 38.2156 26.3553 38.1787 26.4623L36.8911 30.0116C36.8876 30.0226 36.8856 30.0392 36.8856 30.0613C36.8856 30.0908 36.8977 30.1176 36.9216 30.1416C36.9456 30.1657 36.9723 30.1777 37.0016 30.1777H37.7201C37.8085 30.1777 37.8711 30.1371 37.9079 30.0558L38.1069 29.5188H39.5546L39.7536 30.0558C39.7903 30.1371 39.853 30.1777 39.9415 30.1777H40.6598C40.6893 30.1777 40.7159 30.1657 40.7399 30.1416C40.7639 30.1176 40.7758 30.0908 40.7758 30.0613C40.7758 30.0392 40.7739 30.0226 40.7703 30.0116L39.4827 26.4623C39.446 26.3553 39.3722 26.3017 39.2617 26.3017H38.3997ZM38.8308 27.2762L39.3226 28.6881H38.339L38.8308 27.2762ZM35.6312 26.3017C35.5539 26.3017 35.4894 26.3423 35.4379 26.4235L34.7914 27.3871L34.167 26.4235C34.1155 26.3423 34.0491 26.3017 33.9681 26.3017H33.1226C33.0931 26.3017 33.0665 26.3137 33.0425 26.3377C33.0185 26.3618 33.0066 26.3885 33.0066 26.418C33.0066 26.4402 33.0121 26.4623 33.0231 26.4844L34.1338 28.2009L32.9292 29.995C32.9181 30.0171 32.9126 30.0392 32.9126 30.0613C32.9126 30.0908 32.9246 30.1176 32.9486 30.1416C32.9725 30.1657 32.9992 30.1777 33.0286 30.1777H33.8742C33.9552 30.1777 34.0196 30.1407 34.0675 30.0669L34.7584 29.0371L35.4656 30.0669C35.5135 30.1407 35.578 30.1777 35.6589 30.1777H36.532C36.5615 30.1777 36.5882 30.1657 36.6121 30.1416C36.6361 30.1176 36.648 30.0908 36.648 30.0613C36.648 30.0392 36.6425 30.0171 36.6314 29.995L35.4158 28.1899L36.5375 26.4844C36.5486 26.4623 36.5541 26.4402 36.5541 26.418C36.5541 26.3885 36.5422 26.3618 36.5181 26.3377C36.4943 26.3137 36.4675 26.3017 36.4381 26.3017H35.6312Z" fill="white"/>
</mask>
<g mask="url(#mask3_3749_67)">
<path d="M32.6282 19.621H55.9098V30.4629H32.6282V19.621Z" fill="black"/>
</g>
<mask id="mask4_3749_67" style="mask-type:luminance" maskUnits="userSpaceOnUse" x="21" y="20" width="10" height="11">
<path d="M24.1921 20.8762C23.2764 20.8762 22.9443 20.9714 22.6095 21.1505C22.2748 21.3296 22.0121 21.5923 21.833 21.927C21.6541 22.2618 21.5587 22.5939 21.5587 23.5097V27.601C21.5587 28.5167 21.6541 28.8488 21.833 29.1835C22.0121 29.5183 22.2748 29.781 22.6095 29.9601C22.9443 30.1391 23.2764 30.2344 24.1921 30.2344H30.6887V27.8949C30.6905 27.1265 30.5003 26.5464 30.1182 26.1546C29.7358 25.7626 29.1651 25.5629 28.4062 25.5553C29.1671 25.5458 29.7376 25.3461 30.1182 24.9561C30.4985 24.5663 30.6887 23.986 30.6887 23.2158V20.8762H24.1921Z" fill="white"/>
</mask>
<g mask="url(#mask4_3749_67)">
<path d="M21.2737 20.5906H30.9744V30.5195H21.2737V20.5906Z" fill="#00C63F"/>
</g>
<mask id="mask5_3749_67" style="mask-type:luminance" maskUnits="userSpaceOnUse" x="23" y="23" width="6" height="5">
<path d="M25.5322 24.9634C25.2 25.2958 24.6555 25.4931 23.899 25.5557C24.6555 25.6184 25.2 25.8158 25.5322 26.1481C25.8645 26.4803 26.0619 27.0246 26.1245 27.7812C26.187 27.0246 26.3845 26.4803 26.7169 26.1481C27.0491 25.8158 27.5934 25.6184 28.3499 25.5557C27.5934 25.4931 27.0491 25.2958 26.7169 24.9634C26.3845 24.6311 26.187 24.0867 26.1245 23.3303C26.0619 24.0867 25.8645 24.6311 25.5322 24.9634Z" fill="white"/>
</mask>
<g mask="url(#mask5_3749_67)">
<path d="M23.6139 23.0449H28.6354V28.0664H23.6139V23.0449Z" fill="#FFD100"/>
</g>
<mask id="mask6_3749_67" style="mask-type:luminance" maskUnits="userSpaceOnUse" x="-80" y="-6" width="237" height="134">
<path d="M-79.3695 -5.47317H156.607V127.264H-79.3695V-5.47317Z" fill="white"/>
</mask>
<g mask="url(#mask6_3749_67)">
<path d="M16.3883 60.501H60.8506V90.6387H16.3883V60.501Z" fill="#CBCDD2"/>
<path d="M16.3883 60.501H60.8506V90.6387H16.3883V60.501Z" fill="#D0D4DA"/>
<path d="M31.0308 88.9727H46.3259C46.4895 88.9727 46.6222 89.1053 46.6222 89.269C46.6222 89.4327 46.4895 89.5654 46.3259 89.5654H31.0308C30.8671 89.5654 30.7344 89.4327 30.7344 89.269C30.7344 89.1053 30.8671 88.9727 31.0308 88.9727Z" fill="black"/>
<path fill-rule="evenodd" clip-rule="evenodd" d="M53.4779 83.3281C53.4715 83.3345 53.4638 83.3395 53.455 83.3432C53.4286 83.3542 53.3981 83.3482 53.3778 83.3279C53.3646 83.3146 53.357 83.2964 53.357 83.2777C53.357 83.2589 53.3646 83.2406 53.3778 83.2275V83.2276C53.3817 83.2236 53.3858 83.2205 53.3903 83.2178L53.6979 82.9096L53.3778 82.5898L53.3788 82.5888C53.3726 82.5825 53.3673 82.5747 53.3637 82.5661C53.3527 82.5396 53.3587 82.5091 53.3791 82.4889C53.3925 82.4755 53.4104 82.4679 53.4293 82.4679C53.4483 82.4679 53.4662 82.4755 53.4797 82.4889H53.4794C53.4828 82.4922 53.4858 82.4959 53.4885 82.4999L53.7979 82.8093L54.1085 82.4985C54.1108 82.4951 54.1138 82.4916 54.1169 82.4887C54.137 82.4684 54.1675 82.4623 54.1941 82.4732C54.2206 82.4843 54.2378 82.5101 54.2378 82.5387C54.2378 82.5578 54.2302 82.5757 54.2173 82.5886L54.218 82.5893L53.8983 82.9096L54.2077 83.2189C54.2116 83.2213 54.2152 83.2243 54.2184 83.2277L54.2183 83.2278C54.2385 83.2481 54.2446 83.2786 54.2336 83.3051C54.2228 83.3314 54.1969 83.3488 54.1681 83.3488C54.1491 83.3488 54.1313 83.341 54.1182 83.3282L54.1177 83.3289L53.7982 83.0098L53.4791 83.3293L53.4779 83.3281ZM52.9111 83.6231L52.6381 83.3499C52.6381 83.3499 52.6327 83.345 52.6321 83.3445C52.6279 83.3404 52.6242 83.3368 52.6151 83.328C52.6087 83.3215 52.6037 83.3166 52.592 83.305L52.347 83.0594C52.3441 83.0565 52.3402 83.0524 52.3356 83.0479C52.3322 83.0445 52.3295 83.0418 52.3234 83.0357C52.3161 83.0282 52.3107 83.0228 52.3056 83.0174C52.2865 82.9982 52.2702 82.9804 52.255 82.9616L52.2498 82.9558C52.2458 82.9517 52.2425 82.947 52.2399 82.9418C52.2339 82.9209 52.2339 82.8989 52.2399 82.8779C52.2425 82.8728 52.2458 82.868 52.25 82.8638L52.2546 82.8585C52.27 82.8396 52.2862 82.8215 52.3034 82.8044C52.3128 82.7948 52.318 82.7893 52.3221 82.7852C52.3274 82.7802 52.3274 82.7801 52.3313 82.776C52.3378 82.7696 52.3429 82.7644 52.3479 82.7592L52.592 82.5149C52.5946 82.5122 52.5968 82.5099 52.6034 82.5037C52.6088 82.4983 52.612 82.4951 52.6155 82.4914C52.6211 82.486 52.6265 82.4806 52.6318 82.4755C52.633 82.4747 52.6344 82.4733 52.6382 82.4698L52.9109 82.1967C52.927 82.1804 52.9388 82.1686 52.9505 82.1575C52.9617 82.1463 52.9724 82.1358 52.9837 82.125C52.9863 82.1225 52.9877 82.1211 52.9948 82.1137L53.0003 82.1079C53.0255 82.0824 53.0541 82.0615 53.0855 82.0456C53.117 82.0298 53.1512 82.0184 53.1865 82.0123C53.2246 82.006 53.264 82.0026 53.3036 82.0021C53.326 82.0015 53.3444 82.0012 53.3621 82.0012C53.3823 82.001 53.3979 82.001 53.4328 82.001H54.2266C54.2618 82.001 54.2774 82.001 54.2966 82.0012C54.3151 82.0012 54.3337 82.0015 54.3548 82.0021C54.3952 82.0026 54.4348 82.006 54.4739 82.0124C54.5082 82.0184 54.5421 82.0298 54.5741 82.0457C54.6054 82.0615 54.6339 82.0824 54.6585 82.1073C54.6838 82.1324 54.7045 82.1611 54.7206 82.1926C54.7363 82.2241 54.7476 82.2581 54.7536 82.2934C54.76 82.3319 54.7633 82.3712 54.7638 82.4106C54.7641 82.418 54.7642 82.4242 54.7643 82.4309C54.7645 82.4385 54.7646 82.4444 54.7647 82.4583L54.7648 82.4702V82.5402V83.3451L54.7646 83.3596C54.7643 83.3818 54.7642 83.3915 54.7638 83.4033C54.7633 83.4448 54.7599 83.4846 54.7534 83.5239C54.7474 83.5589 54.7359 83.5933 54.7198 83.6258C54.7039 83.6571 54.6828 83.6861 54.6575 83.7113C54.6326 83.7365 54.6034 83.7575 54.5716 83.7736C54.5395 83.7899 54.5051 83.8013 54.4696 83.8072C54.4309 83.8137 54.3911 83.8172 54.3511 83.8176C54.3262 83.8181 54.3091 83.8184 54.2921 83.8184H53.3622C53.3436 83.8184 53.3244 83.8181 53.3045 83.8176C53.2643 83.8172 53.2248 83.8137 53.1859 83.8072C53.1513 83.8014 53.1172 83.7901 53.0853 83.774C53.0542 83.7582 53.0256 83.7374 53.0008 83.7124C52.9992 83.7108 52.9972 83.7089 52.9946 83.706L52.9943 83.7057C52.9881 83.6993 52.9866 83.6977 52.9852 83.6963L52.9836 83.6946C52.9744 83.6861 52.9656 83.6775 52.9512 83.6632C52.9397 83.6518 52.931 83.6431 52.9111 83.6231ZM52.5321 82.3529L52.5324 82.3526C52.532 82.353 52.5318 82.3531 52.5314 82.3534L52.5321 82.3529ZM52.8393 82.0451C52.8278 82.0563 52.8154 82.0686 52.7991 82.0852L52.5267 82.3575C52.5183 82.3654 52.5112 82.3723 52.504 82.3795C52.5007 82.3829 52.4976 82.3858 52.4915 82.392C52.4861 82.3974 52.4833 82.3998 52.4803 82.403L52.2348 82.6487C52.2297 82.6542 52.2251 82.6587 52.2193 82.6647L52.2127 82.6712C52.2052 82.6787 52.1993 82.6848 52.1908 82.6936C52.1717 82.7125 52.1522 82.7339 52.1338 82.7565C52.1167 82.7746 52.103 82.7956 52.0931 82.8186L52.0905 82.8254C52.0728 82.8803 52.0728 82.9395 52.0905 82.9946L52.0932 83.0017C52.1032 83.0245 52.1171 83.0454 52.1342 83.0636C52.1525 83.0859 52.1719 83.1074 52.1926 83.1278C52.1967 83.1325 52.2032 83.139 52.2117 83.1474L52.2234 83.1591C52.2273 83.1632 52.2309 83.1669 52.2341 83.1703L52.4802 83.4167C52.4923 83.4288 52.4977 83.4343 52.5076 83.4438C52.5157 83.4518 52.5203 83.4563 52.5291 83.4645L52.7993 83.7351C52.8195 83.7552 52.8286 83.7643 52.84 83.7755C52.8549 83.7904 52.8647 83.7999 52.88 83.8149C52.8859 83.8211 52.8878 83.8232 52.8909 83.8261C52.9256 83.8608 52.9676 83.8915 53.0139 83.9149C53.0601 83.9383 53.1091 83.9544 53.1597 83.9632C53.207 83.971 53.2543 83.9752 53.3016 83.9758C53.3217 83.9762 53.3421 83.9764 53.362 83.9766H53.4093H54.2921C54.3104 83.9766 54.3286 83.9762 54.3538 83.9758C54.4009 83.9752 54.4487 83.971 54.4959 83.9632C54.5474 83.9543 54.5968 83.938 54.643 83.9146C54.6897 83.891 54.7325 83.86 54.7695 83.8231C54.8064 83.7862 54.8372 83.7437 54.8608 83.6973C54.8843 83.6505 54.9005 83.6011 54.9092 83.5501C54.9172 83.5023 54.9213 83.4545 54.9219 83.4068C54.9223 83.395 54.9224 83.3845 54.9226 83.3614L54.9229 83.3468V83.2742V82.4694L54.9228 82.4566C54.9226 82.4423 54.9225 82.4362 54.9224 82.4283C54.9223 82.4207 54.922 82.414 54.9219 82.4073C54.9213 82.3615 54.9173 82.314 54.9095 82.2672C54.9008 82.216 54.8847 82.167 54.8617 82.1212C54.8377 82.0746 54.8071 82.0323 54.7707 81.9957C54.7341 81.959 54.6918 81.9281 54.6454 81.9046C54.5995 81.8815 54.5506 81.8653 54.5 81.8565C54.4524 81.8488 54.4052 81.8448 54.3578 81.8442C54.3363 81.8436 54.3165 81.8433 54.2974 81.8433C54.2782 81.8431 54.2624 81.8431 54.2266 81.8431H53.4328C53.3974 81.8431 53.3814 81.8431 53.3613 81.8433C53.3431 81.8433 53.3233 81.8436 53.3007 81.8442C53.2542 81.8448 53.207 81.8488 53.1603 81.8563C53.1088 81.8653 53.0599 81.8815 53.014 81.9046C52.9675 81.9284 52.9253 81.9591 52.8887 81.9958C52.887 81.9976 52.8859 81.9989 52.8755 82.0098C52.8625 82.022 52.8507 82.0336 52.8393 82.0451Z" fill="black"/>
<path fill-rule="evenodd" clip-rule="evenodd" d="M31.6829 80.8946C31.6829 80.5672 31.9483 80.3019 32.2758 80.3019H44.9622C45.2896 80.3019 45.5551 80.5672 45.5551 80.8946V85.163C45.5551 85.4904 45.2896 85.7559 44.9622 85.7559H32.2758C31.9483 85.7559 31.6829 85.4904 31.6829 85.163V80.8946Z" fill="#FBFBFD"/>
<path d="M38.6201 83.7845C38.2929 83.7845 38.1121 83.4516 38.1121 82.9305C38.1121 82.421 38.2973 82.0824 38.6201 82.0824C38.9428 82.0824 39.1251 82.4183 39.1251 82.932C39.1251 83.4531 38.9457 83.7845 38.6201 83.7845ZM38.6201 84.0117C39.1064 84.0117 39.3871 83.5906 39.3871 82.9305C39.3871 82.275 39.105 81.8538 38.6201 81.8538C38.1352 81.8538 37.8501 82.2778 37.8501 82.932C37.8501 83.5921 38.1323 84.0117 38.6201 84.0117Z" fill="black"/>
<path fill-rule="evenodd" clip-rule="evenodd" d="M46.2668 74.4918C46.2668 74.1644 46.5322 73.8989 46.8596 73.8989H59.5462C59.8736 73.8989 60.1391 74.1644 60.1391 74.4918V78.8787C60.1391 79.2061 59.8736 79.4717 59.5462 79.4717H46.8596C46.5322 79.4717 46.2668 79.2061 46.2668 78.8787V74.4918Z" fill="#FBFBFD"/>
<path d="M54.6882 78.5977H55.3332V78.4536H54.9024V78.4432L55.3215 77.8758V77.7624H54.698V77.9064H55.1085V77.9169L54.6882 78.4837V78.5977ZM54.0401 78.5977V78.2857L54.3308 77.7624H54.1414L53.9579 78.1137H53.9474L53.7634 77.7624H53.574L53.8652 78.2857V78.5977H54.0401ZM52.4812 78.5977H52.67L52.8517 78.3106H52.8622L53.0417 78.5977H53.2407L52.9698 78.1798L53.2449 77.7624H53.0491L52.8731 78.0581H52.8627L52.6884 77.7624H52.483L52.7481 78.1768L52.4812 78.5977ZM51.5893 78.035H51.5986L51.7565 78.5977H51.9205L52.1422 77.7624H51.9614L51.8326 78.3593H51.8231L51.668 77.7624H51.5205L51.3681 78.3593H51.3588L51.2287 77.7624H51.0469L51.268 78.5977H51.433L51.5893 78.035Z" fill="black"/>
<path d="M53.1632 75.9162C52.8896 75.9162 52.6887 75.7179 52.6887 75.4458C52.6887 75.1838 52.8998 74.9753 53.1676 74.9753C53.4369 74.9753 53.6452 75.1853 53.6452 75.4529C53.6452 75.7193 53.4397 75.9162 53.1632 75.9162ZM53.1488 76.9004C53.6596 76.9004 53.9579 76.4893 53.9579 75.7858C53.9579 74.9941 53.5382 74.7408 53.1648 74.7408C52.7362 74.7408 52.4252 75.042 52.4252 75.4544C52.4252 75.851 52.7203 76.1448 53.1185 76.1448C53.3847 76.1448 53.6134 76.0102 53.7017 75.8032H53.7061C53.6987 76.3576 53.5062 76.673 53.1517 76.673C52.9347 76.673 52.771 76.5732 52.7131 76.3806H52.4483C52.5091 76.6948 52.7885 76.9004 53.1488 76.9004Z" fill="black"/>
<path fill-rule="evenodd" clip-rule="evenodd" d="M31.6829 74.4918C31.6829 74.1644 31.9483 73.8989 32.2758 73.8989H44.9622C45.2896 73.8989 45.5551 74.1644 45.5551 74.4918V78.8787C45.5551 79.2061 45.2896 79.4717 44.9622 79.4717H32.2758C31.9483 79.4717 31.6829 79.2061 31.6829 78.8787V74.4918Z" fill="#FBFBFD"/>
<path d="M39.8058 78.5976L40.0843 77.7624H39.896L39.7097 78.4066H39.6992L39.5094 77.7624H39.3119L39.5944 78.5976H39.8058ZM38.4067 77.7624H38.2319V78.3094C38.2319 78.494 38.3685 78.6191 38.582 78.6191C38.7957 78.6191 38.9319 78.494 38.9319 78.3094V77.7624H38.757V78.2926C38.757 78.3998 38.694 78.4692 38.582 78.4692C38.4704 78.4692 38.4067 78.3998 38.4067 78.2926V77.7624ZM37.59 78.5976V77.9064H37.8406V77.7624H37.1646V77.9064H37.4153V78.5976H37.59Z" fill="black"/>
<path d="M38.6178 76.673C38.3312 76.673 38.1257 76.5096 38.1257 76.2822C38.1257 76.0537 38.3312 75.89 38.6178 75.89C38.9059 75.89 39.1099 76.0521 39.1099 76.2822C39.1099 76.5096 38.9059 76.673 38.6178 76.673ZM38.6178 75.6614C38.3688 75.6614 38.1951 75.5182 38.1951 75.3154C38.1951 75.1114 38.3688 74.9666 38.6178 74.9666C38.8667 74.9666 39.0404 75.1099 39.0404 75.3154C39.0404 75.5182 38.8653 75.6614 38.6178 75.6614ZM38.6178 76.9004C39.0608 76.9004 39.3761 76.6513 39.3761 76.3011C39.3761 76.042 39.1968 75.8278 38.9262 75.764V75.7584C39.1577 75.6845 39.298 75.5094 39.298 75.2924C39.298 74.9739 39.0129 74.7423 38.6178 74.7423C38.2256 74.7423 37.9361 74.9753 37.9361 75.2908C37.9361 75.5108 38.0795 75.6873 38.3096 75.7584V75.764C38.0403 75.8263 37.8608 76.0406 37.8608 76.3011C37.8608 76.65 38.1765 76.9004 38.6178 76.9004Z" fill="black"/>
<path fill-rule="evenodd" clip-rule="evenodd" d="M17.0996 74.4918C17.0996 74.1644 17.3651 73.8989 17.6924 73.8989H30.3789C30.7064 73.8989 30.9718 74.1644 30.9718 74.4918V78.8787C30.9718 79.2061 30.7064 79.4717 30.3789 79.4717H17.6924C17.3651 79.4717 17.0996 79.2061 17.0996 78.8787V74.4918Z" fill="#FBFBFD"/>
<path d="M25.332 78.3668C25.3384 78.5214 25.4674 78.6192 25.6666 78.6192C25.8762 78.6192 26.0052 78.5161 26.0052 78.3494C26.0052 78.2204 25.9328 78.148 25.765 78.1121L25.6643 78.0906C25.5665 78.0691 25.5265 78.0385 25.5265 77.9858C25.5265 77.9204 25.5844 77.8781 25.6718 77.8781C25.7564 77.8781 25.8177 77.9227 25.8258 77.9909H25.9901C25.985 77.8433 25.8547 77.7409 25.6706 77.7409C25.4779 77.7409 25.351 77.8439 25.351 77.9998C25.351 78.1265 25.4257 78.2047 25.578 78.2371L25.6868 78.2609C25.7893 78.2833 25.831 78.3153 25.831 78.3702C25.831 78.4351 25.7668 78.4808 25.6759 78.4808C25.5774 78.4808 25.5091 78.4362 25.501 78.3668H25.332ZM24.484 77.899H24.6357C24.7226 77.899 24.7769 77.9499 24.7769 78.031C24.7769 78.1137 24.7254 78.1619 24.6374 78.1619H24.484V77.899ZM24.484 78.292H24.627L24.7828 78.5977H24.9808L24.8047 78.2661C24.9008 78.2284 24.9565 78.1357 24.9565 78.0287C24.9565 77.8636 24.8435 77.7624 24.66 77.7624H24.3092V78.5977H24.484V78.292ZM23.5059 78.4768C23.367 78.4768 23.2771 78.3627 23.2771 78.1798C23.2771 77.9981 23.367 77.8828 23.5052 77.8828C23.643 77.8828 23.7322 77.9981 23.7322 78.1798C23.7322 78.2741 23.7085 78.3499 23.6656 78.3963L23.6095 78.3228H23.4462L23.5575 78.4704C23.5406 78.475 23.5238 78.4768 23.5059 78.4768ZM23.5052 78.6192C23.5586 78.6192 23.6084 78.6111 23.6524 78.596L23.716 78.6807H23.8787L23.7675 78.5318C23.8561 78.4594 23.9065 78.336 23.9065 78.1798C23.9065 77.9088 23.7508 77.7409 23.5052 77.7409C23.2598 77.7409 23.103 77.9088 23.103 78.1798C23.103 78.4524 23.2581 78.6192 23.5052 78.6192ZM22.2788 77.9012H22.4061C22.5069 77.9012 22.5642 77.9528 22.5642 78.05C22.5642 78.1449 22.5057 78.1972 22.4055 78.1972H22.2788V77.9012ZM22.1039 77.7624V78.5977H22.2788V78.3343H22.4437C22.6197 78.3343 22.7419 78.2198 22.7419 78.0494C22.7419 77.877 22.6244 77.7624 22.4524 77.7624H22.1039Z" fill="black"/>
<path d="M23.5145 76.8662H23.7881L24.7173 75.0194V74.7776H23.3351V75.0092H24.4595V75.0149L23.5145 76.8662Z" fill="black"/>
<path fill-rule="evenodd" clip-rule="evenodd" d="M46.2668 68.0896C46.2668 67.7622 46.5322 67.4967 46.8596 67.4967H59.5462C59.8736 67.4967 60.1391 67.7622 60.1391 68.0896V72.4764C60.1391 72.8039 59.8736 73.0693 59.5462 73.0693H46.8596C46.5322 73.0693 46.2668 72.8039 46.2668 72.4764V68.0896Z" fill="#FBFBFD"/>
<path d="M54.4393 71.4867C54.5749 71.4867 54.6623 71.5997 54.6623 71.7774C54.6623 71.9546 54.5754 72.0686 54.4393 72.0686C54.3017 72.0686 54.2159 71.9546 54.2159 71.7774C54.2159 71.5997 54.3033 71.4867 54.4393 71.4867ZM54.4393 71.3386C54.1934 71.3386 54.037 71.5064 54.037 71.7774C54.037 72.0477 54.1909 72.2168 54.4393 72.2168C54.686 72.2168 54.8411 72.0477 54.8411 71.7774C54.8411 71.507 54.6854 71.3386 54.4393 71.3386ZM53.0929 72.1954V71.661H53.1033L53.489 72.1954H53.6337V71.36H53.4664V71.8921H53.4559L53.0716 71.36H52.9257V72.1954H53.0929ZM52.4859 72.1954V71.36H52.2805L52.0488 71.9361H52.0384L51.8073 71.36H51.6012V72.1954H51.7634V71.6298H51.7728L51.9856 72.1544H52.102L52.3145 71.6298H52.3238V72.1954H52.4859Z" fill="black"/>
<path d="M53.2379 70.2673C52.9701 70.2673 52.7617 70.0546 52.7617 69.7869C52.7617 69.5206 52.9657 69.3237 53.2422 69.3237C53.5186 69.3237 53.7155 69.5206 53.7155 69.794C53.7155 70.0576 53.5041 70.2673 53.2379 70.2673ZM53.2406 70.499C53.6692 70.499 53.9803 70.1979 53.9803 69.7854C53.9803 69.3888 53.6852 69.0951 53.2871 69.0951C53.0034 69.0951 52.7893 69.2456 52.7038 69.4337H52.6995C52.7081 68.8779 52.9064 68.5682 53.2552 68.5682C53.4695 68.5682 53.6257 68.6768 53.6865 68.8649H53.9514C53.8862 68.545 53.6128 68.3381 53.2581 68.3381C52.7473 68.3381 52.4475 68.7506 52.4475 69.454C52.4475 70.2312 52.8558 70.499 53.2406 70.499Z" fill="black"/>
<path fill-rule="evenodd" clip-rule="evenodd" d="M31.6829 68.0896C31.6829 67.7622 31.9483 67.4967 32.2758 67.4967H44.9622C45.2896 67.4967 45.5551 67.7622 45.5551 68.0896V72.4764C45.5551 72.8039 45.2896 73.0693 44.9622 73.0693H32.2758C31.9483 73.0693 31.6829 72.8039 31.6829 72.4764V68.0896Z" fill="#FBFBFD"/>
<path d="M39.9289 72.0483H39.5572V71.3599H39.3823V72.1953H39.9289V72.0483ZM38.4782 72.1953V71.94L38.5611 71.8406L38.8037 72.1953H39.0132L38.6872 71.7259L38.9919 71.3599H38.7973L38.4887 71.7351H38.4782V71.3599H38.3035V72.1953H38.4782ZM37.2958 71.9539C37.2958 72.1149 37.408 72.2168 37.5793 72.2168C37.7567 72.2168 37.8631 72.1161 37.8631 71.9383V71.3599H37.6882V71.9372C37.6882 72.0211 37.6489 72.0657 37.5771 72.0657C37.5099 72.0657 37.4659 72.0216 37.4648 71.9539H37.2958Z" fill="black"/>
<path d="M38.6406 70.498C39.0762 70.498 39.3845 70.2042 39.3845 69.7845C39.3845 69.3835 39.095 69.0925 38.6942 69.0925C38.4915 69.0925 38.3179 69.1679 38.2194 69.3082H38.2136L38.2846 68.6063H39.2658V68.3747H38.0703L37.9633 69.5659H38.1934C38.2903 69.3981 38.4496 69.3171 38.6479 69.3171C38.9257 69.3171 39.124 69.5153 39.124 69.7917C39.124 70.0724 38.9272 70.2693 38.6434 70.2693C38.3931 70.2693 38.2034 70.1159 38.1803 69.893H37.9241C37.9459 70.249 38.2412 70.498 38.6406 70.498Z" fill="black"/>
<path fill-rule="evenodd" clip-rule="evenodd" d="M17.0996 68.0896C17.0996 67.7622 17.3651 67.4967 17.6924 67.4967H30.3789C30.7064 67.4967 30.9718 67.7622 30.9718 68.0896V72.4764C30.9718 72.8039 30.7064 73.0693 30.3789 73.0693H17.6924C17.3651 73.0693 17.0996 72.8039 17.0996 72.4764V68.0896Z" fill="#FBFBFD"/>
<path d="M25.2756 71.36H25.1007V72.1954H25.2756V71.36ZM24.661 72.1954V71.36H24.4861V71.6992H24.1099V71.36H23.935V72.1954H24.1099V71.8434H24.4861V72.1954H24.661ZM23.53 71.8562V71.7501H23.1791V71.8776H23.3604L23.3598 71.8933C23.3562 71.9974 23.2769 72.0675 23.1623 72.0675C23.0245 72.0675 22.9377 71.9569 22.9377 71.7752C22.9377 71.5967 23.0206 71.4874 23.1554 71.4874C23.2526 71.4874 23.3227 71.5371 23.3487 71.6245H23.5225C23.4982 71.4515 23.3528 71.3386 23.1554 71.3386C22.9123 71.3386 22.7588 71.5083 22.7588 71.7768C22.7588 72.0495 22.9111 72.2168 23.1595 72.2168C23.3876 72.2168 23.53 72.0778 23.53 71.8562Z" fill="black"/>
<path d="M23.5108 69.7943C23.6757 69.5049 23.903 69.156 24.2981 68.5915H24.3024V69.8001H23.5108V69.7943ZM24.3024 70.4629H24.5544V70.0287H24.8496V69.8001H24.5544V68.3744H24.1693C23.6757 69.0822 23.4313 69.4629 23.2532 69.7928V70.0287H24.3024V70.4629Z" fill="black"/>
<path fill-rule="evenodd" clip-rule="evenodd" d="M46.2668 61.8048C46.2668 61.4774 46.5322 61.212 46.8596 61.212H59.5462C59.8736 61.212 60.1391 61.4774 60.1391 61.8048V66.0731C60.1391 66.4007 59.8736 66.666 59.5462 66.666H46.8596C46.5322 66.666 46.2668 66.4007 46.2668 66.0731V61.8048Z" fill="#FBFBFD"/>
<path d="M54.1738 65.8359V65.5072H54.5137V65.3688H54.1738V65.1447H54.5459V65.0006H53.999V65.8359H54.1738ZM53.5777 65.6918H53.199V65.4805H53.5563V65.3463H53.199V65.1447H53.5777V65.0006H53.0241V65.8359H53.5777V65.6918ZM52.075 65.1447H52.2013C52.3529 65.1447 52.4426 65.2432 52.4426 65.4156C52.4426 65.5946 52.3558 65.6918 52.2013 65.6918H52.075V65.1447ZM51.9003 65.0006V65.8359H52.229C52.479 65.8359 52.621 65.6832 52.621 65.4128C52.621 65.1505 52.4773 65.0006 52.229 65.0006H51.9003Z" fill="black"/>
<path d="M52.9206 63.2079H53.1825C53.4763 63.2079 53.6601 63.3527 53.6587 63.6102C53.6573 63.8288 53.4734 63.9852 53.1985 63.9852C52.9206 63.9852 52.7252 63.8448 52.7092 63.6233H52.4589C52.4777 63.9692 52.7656 64.2109 53.1985 64.2109C53.6081 64.2109 53.9235 63.9606 53.9235 63.6016C53.9235 63.3049 53.7165 63.1152 53.4127 63.0892V63.0834C53.6746 63.0285 53.8554 62.8505 53.8554 62.5913C53.8554 62.2933 53.6139 62.053 53.1956 62.053C52.8048 62.053 52.5298 62.2801 52.5009 62.6348H52.7511C52.7672 62.409 52.9495 62.2786 53.1956 62.2786C53.4632 62.2786 53.5936 62.4191 53.5936 62.6261C53.5936 62.8345 53.4199 62.9879 53.1708 62.9879H52.9206V63.2079Z" fill="black"/>
<path fill-rule="evenodd" clip-rule="evenodd" d="M31.6829 61.8048C31.6829 61.4774 31.9483 61.212 32.2758 61.212H44.9622C45.2896 61.212 45.5551 61.4774 45.5551 61.8048V66.0731C45.5551 66.4007 45.2896 66.666 44.9622 66.666H32.2758C31.9483 66.666 31.6829 66.4007 31.6829 66.0731V61.8048Z" fill="#FBFBFD"/>
<path d="M39.7184 65.8584C39.92 65.8584 40.067 65.7362 40.0814 65.5579H39.9111C39.8944 65.65 39.8191 65.7089 39.7189 65.7089C39.587 65.7089 39.5054 65.5978 39.5054 65.419C39.5054 65.2401 39.587 65.1288 39.7184 65.1288C39.818 65.1288 39.8938 65.1926 39.9107 65.2892H40.0808C40.0682 65.1098 39.9163 64.9801 39.7184 64.9801C39.4758 64.9801 39.3266 65.1475 39.3266 65.419C39.3266 65.6905 39.4763 65.8584 39.7184 65.8584ZM38.4792 65.7067V65.4641H38.6309C38.734 65.4641 38.79 65.5058 38.79 65.584C38.79 65.6638 38.7356 65.7067 38.6349 65.7067H38.4792ZM38.4792 65.1312H38.6251C38.7084 65.1312 38.7565 65.1717 38.7565 65.2401C38.7565 65.3095 38.705 65.3488 38.6106 65.3488H38.4792V65.1312ZM38.6795 65.8369C38.8579 65.8369 38.9682 65.7448 38.9682 65.5978C38.9682 65.4902 38.8878 65.4073 38.7774 65.3987V65.3883C38.863 65.3755 38.9283 65.2984 38.9283 65.21C38.9283 65.0809 38.8317 65.0015 38.6697 65.0015H38.3044V65.8369H38.6795ZM37.5213 65.1711H37.5317L37.6353 65.5035H37.4164L37.5213 65.1711ZM37.7355 65.8369H37.9248L37.6347 65.0015H37.4292L37.1392 65.8369H37.3145L37.3788 65.6343H37.6724L37.7355 65.8369Z" fill="black"/>
<path d="M37.9354 62.6918H38.1873C38.1873 62.4573 38.3812 62.2807 38.6389 62.2807C38.8776 62.2807 39.0311 62.4443 39.0311 62.6498C39.0311 62.8235 38.966 62.9364 38.6837 63.2303L37.9485 63.9973V64.1768H39.3262V63.9452H38.306V63.9394L38.8024 63.43C39.186 63.0363 39.2916 62.864 39.2916 62.6339C39.2916 62.317 39.0252 62.0536 38.6389 62.0536C38.2364 62.0536 37.9354 62.3257 37.9354 62.6918Z" fill="black"/>
<path fill-rule="evenodd" clip-rule="evenodd" d="M17.0996 61.8048C17.0996 61.4774 17.3651 61.212 17.6924 61.212H30.3789C30.7064 61.212 30.9718 61.4774 30.9718 61.8048V66.0731C30.9718 66.4007 30.7064 66.666 30.3789 66.666H17.6924C17.3651 66.666 17.0996 66.4007 17.0996 66.0731V61.8048Z" fill="#FBFBFD"/>
<path d="M24.0803 64.1768H24.3322V62.0884H24.0775L23.5217 62.4878V62.7497L24.0746 62.3648H24.0803V64.1768Z" fill="black"/>
<path d="M16.3737 9.62099H60.8651V14.8516H16.3737V9.62099Z" fill="white"/>
<mask id="mask7_3749_67" style="mask-type:luminance" maskUnits="userSpaceOnUse" x="56" y="11" width="3" height="3">
<path d="M56.2783 11.6821H58.8888V13.0293H56.2783V11.6821Z" fill="white"/>
</mask>
<g mask="url(#mask7_3749_67)">
<g opacity="0.350006">
<path d="M56.5953 11.7413H58.5727C58.7146 11.7413 58.8297 11.8566 58.8297 11.9989V12.7121C58.8297 12.8543 58.7146 12.9697 58.5727 12.9697H56.5953C56.4533 12.9697 56.3381 12.8543 56.3381 12.7121V11.9989C56.3381 11.8566 56.4533 11.7413 56.5953 11.7413Z" stroke="black" stroke-width="0.118726"/>
</g>
</g>
<mask id="mask8_3749_67" style="mask-type:luminance" maskUnits="userSpaceOnUse" x="59" y="12" width="1" height="1">
<path d="M59.0072 12.1173H59.1645V12.5928H59.0072V12.1173Z" fill="white"/>
</mask>
<g mask="url(#mask8_3749_67)">
<g opacity="0.399994">
<path d="M59.0072 12.1173V12.5928C59.1027 12.5525 59.1648 12.4588 59.1648 12.355C59.1648 12.2512 59.1027 12.1576 59.0072 12.1173Z" fill="black"/>
</g>
</g>
<path d="M56.6731 11.9193H58.4923C58.5797 11.9193 58.6505 11.9903 58.6505 12.0778V12.6325C58.6505 12.7201 58.5797 12.791 58.4923 12.791H56.6731C56.5857 12.791 56.5149 12.7201 56.5149 12.6325V12.0778C56.5149 11.9903 56.5857 11.9193 56.6731 11.9193Z" fill="black"/>
<path fill-rule="evenodd" clip-rule="evenodd" d="M55.0505 12.7103C55.0508 12.7206 55.0467 12.7305 55.0393 12.7378L54.8015 12.9782C54.7944 12.9852 54.7849 12.9893 54.775 12.9893C54.765 12.9893 54.7556 12.9852 54.7487 12.9782L54.5106 12.7378C54.5034 12.7305 54.4993 12.7206 54.4995 12.7103C54.4998 12.6999 54.5042 12.6901 54.5118 12.6832C54.6637 12.5545 54.8862 12.5545 55.0382 12.6832C55.0459 12.6902 55.0504 12.6999 55.0505 12.7103ZM54.775 12.4057C54.92 12.4057 55.0599 12.4597 55.1673 12.5571C55.1819 12.571 55.2049 12.5706 55.2189 12.5565L55.3566 12.4174C55.3638 12.41 55.3677 12.4002 55.3677 12.3899C55.3676 12.3795 55.3633 12.3697 55.3559 12.3626C55.0287 12.0578 54.5217 12.0578 54.1944 12.3626C54.1869 12.3697 54.1827 12.3797 54.1826 12.3899C54.1826 12.4002 54.1865 12.4101 54.1938 12.4174L54.3312 12.5565C54.3455 12.5706 54.3684 12.571 54.3828 12.5571C54.4903 12.4598 54.6301 12.4057 54.775 12.4057ZM54.775 11.9531C55.039 11.9531 55.2928 12.0547 55.4841 12.2367C55.4985 12.2507 55.5215 12.2506 55.5358 12.2363L55.6733 12.0972C55.6805 12.09 55.6846 12.0801 55.6845 12.0699C55.6845 12.0597 55.6804 12.0499 55.673 12.0428C55.171 11.5611 54.379 11.5611 53.8768 12.0428C53.8695 12.0499 53.8654 12.0597 53.8652 12.0699C53.8651 12.0801 53.8693 12.09 53.8764 12.0972L54.0142 12.2363C54.0285 12.2506 54.0513 12.2508 54.0658 12.2367C54.2571 12.0547 54.511 11.9531 54.775 11.9531Z" fill="black"/>
<path fill-rule="evenodd" clip-rule="evenodd" d="M51.4923 12.5137H51.3737C51.3082 12.5137 51.255 12.567 51.255 12.6326V12.8703C51.255 12.936 51.3082 12.9893 51.3737 12.9893H51.4923C51.5578 12.9893 51.6111 12.936 51.6111 12.8703V12.6326C51.6111 12.567 51.5578 12.5137 51.4923 12.5137ZM52.0461 12.2759H51.9274C51.8619 12.2759 51.8088 12.3293 51.8088 12.3949V12.8703C51.8088 12.936 51.8619 12.9893 51.9274 12.9893H52.0461C52.1115 12.9893 52.1647 12.936 52.1647 12.8703V12.3949C52.1647 12.3293 52.1115 12.2759 52.0461 12.2759ZM52.4811 11.9986H52.5997C52.6653 11.9986 52.7184 12.0519 52.7184 12.1175V12.8703C52.7184 12.936 52.6653 12.9893 52.5997 12.9893H52.4811C52.4156 12.9893 52.3624 12.936 52.3624 12.8703V12.1175C52.3624 12.0519 52.4156 11.9986 52.4811 11.9986ZM53.1534 11.7213H53.0348C52.9693 11.7213 52.9161 11.7745 52.9161 11.8401V12.8703C52.9161 12.936 52.9693 12.9893 53.0348 12.9893H53.1534C53.2189 12.9893 53.272 12.936 53.272 12.8703V11.8401C53.272 11.7745 53.2189 11.7213 53.1534 11.7213Z" fill="black"/>
<path d="M23.4842 12.95H23.7083V11.6935H23.485L23.1574 11.9244V12.1359L23.4694 11.9148H23.4842V12.95ZM22.21 12.5155C22.3325 12.3022 22.4777 12.0697 22.6063 11.873H22.6184V12.5285H22.21V12.5155ZM22.615 12.95H22.8296V12.7088H22.9991V12.5234H22.8296V11.6935H22.5133C22.343 11.9531 22.1649 12.2421 22.0023 12.5251V12.7088H22.615V12.95ZM21.6555 12.9674C21.7379 12.9674 21.7945 12.9091 21.7945 12.8316C21.7945 12.7549 21.7379 12.6966 21.6555 12.6966C21.5737 12.6966 21.5163 12.7549 21.5163 12.8316C21.5163 12.9091 21.5737 12.9674 21.6555 12.9674ZM21.6555 12.3283C21.7379 12.3283 21.7945 12.27 21.7945 12.1934C21.7945 12.1158 21.7379 12.0584 21.6555 12.0584C21.5737 12.0584 21.5163 12.1158 21.5163 12.1934C21.5163 12.27 21.5737 12.3283 21.6555 12.3283ZM20.781 12.3465C20.635 12.3465 20.5343 12.2438 20.5343 12.0958C20.5343 11.954 20.6403 11.8451 20.7819 11.8451C20.9236 11.8451 21.0295 11.9557 21.0295 12.1002C21.0295 12.243 20.9261 12.3465 20.781 12.3465ZM20.7733 12.9805C21.0922 12.9805 21.2816 12.7306 21.2816 12.3066C21.2816 11.8903 21.0799 11.6622 20.7801 11.6622C20.5073 11.6622 20.3143 11.8459 20.3143 12.1028C20.3143 12.3439 20.4882 12.5198 20.7272 12.5198C20.874 12.5198 20.993 12.452 21.0521 12.3326H21.067C21.0643 12.6279 20.9592 12.7967 20.7758 12.7967C20.6681 12.7967 20.582 12.7375 20.5551 12.6417H20.3318C20.3683 12.8464 20.5438 12.9805 20.7733 12.9805Z" fill="black"/>
<path d="M21.6741 39.3972V39.9632H22.0165C22.113 39.9632 22.1892 39.9383 22.245 39.8882C22.3008 39.8381 22.3287 39.7691 22.3287 39.6814C22.3287 39.492 22.2257 39.3972 22.0199 39.3972H21.6741ZM21.6741 39.2308H21.9874C22.0781 39.2308 22.1506 39.2081 22.2051 39.1627C22.2594 39.1173 22.2866 39.0556 22.2866 38.9775C22.2866 38.891 22.2614 38.8281 22.211 38.7886C22.1606 38.7494 22.0839 38.7296 21.9809 38.7296H21.6741V39.2308ZM21.4668 40.1328V38.56H21.9809C22.1516 38.56 22.2799 38.5954 22.366 38.6659C22.4521 38.7365 22.4951 38.841 22.4951 38.9792C22.4951 39.0526 22.4742 39.1176 22.4325 39.1742C22.3907 39.2307 22.3338 39.2744 22.2617 39.3054C22.3468 39.3291 22.4139 39.3744 22.4632 39.441C22.5126 39.5076 22.5372 39.587 22.5372 39.6792C22.5372 39.8203 22.4915 39.9312 22.4 40.0119C22.3086 40.0925 22.1793 40.1328 22.0122 40.1328H21.4668Z" fill="black"/>
<path d="M23.2039 39.9804C23.2666 39.9804 23.326 39.9642 23.3821 39.9317C23.4383 39.8994 23.479 39.8572 23.5042 39.8054V39.5656H23.3476C23.1028 39.5656 22.9804 39.6372 22.9804 39.7805C22.9804 39.8432 23.0013 39.8921 23.0429 39.9274C23.0847 39.9627 23.1384 39.9804 23.2039 39.9804ZM23.5355 40.1327C23.524 40.1097 23.5146 40.0686 23.5075 40.0095C23.4146 40.106 23.3037 40.1543 23.1748 40.1543C23.0595 40.1543 22.965 40.1217 22.8913 40.0566C22.8174 39.9913 22.7805 39.9087 22.7805 39.8087C22.7805 39.6869 22.8267 39.5924 22.9193 39.525C23.0118 39.4578 23.142 39.4241 23.3097 39.4241H23.5042V39.3323C23.5042 39.2624 23.4833 39.2068 23.4416 39.1654C23.3998 39.124 23.3383 39.1032 23.2569 39.1032C23.1856 39.1032 23.1258 39.1213 23.0776 39.1573C23.0293 39.1933 23.0052 39.2368 23.0052 39.2879H22.8042C22.8042 39.2297 22.825 39.1733 22.8663 39.1189C22.9077 39.0645 22.9639 39.0215 23.0349 38.9898C23.1058 38.9582 23.1838 38.9423 23.2687 38.9423C23.4034 38.9423 23.5088 38.976 23.5853 39.0432C23.6616 39.1106 23.7012 39.2034 23.704 39.3215V39.8594C23.704 39.9667 23.7178 40.052 23.7451 40.1155V40.1327H23.5355Z" fill="black"/>
<path d="M24.2345 38.964V39.9697H24.6622V38.964H24.8621V39.9697H25.2888V38.964H25.4897V40.1328H24.0336V38.964H24.2345Z" fill="black"/>
<path d="M27.309 40.1328H27.1091V39.6337H26.5723V40.1328H26.3713V38.964H26.5723V39.4706H27.1091V38.964H27.309V40.1328Z" fill="black"/>
<path d="M27.777 39.5613C27.777 39.6909 27.8071 39.7949 27.8672 39.8735C27.9273 39.952 28.0078 39.9912 28.1086 39.9912C28.2101 39.9912 28.2909 39.9514 28.3506 39.8719C28.4103 39.7922 28.4402 39.6809 28.4402 39.5376C28.4402 39.4094 28.4098 39.3054 28.349 39.2259C28.2882 39.1464 28.2073 39.1065 28.1065 39.1065C28.0078 39.1065 27.9282 39.1457 27.8677 39.2243C27.8072 39.3027 27.777 39.4151 27.777 39.5613ZM27.576 39.5376C27.576 39.423 27.5985 39.32 27.6436 39.2286C27.6886 39.1371 27.7513 39.0666 27.8316 39.0168C27.9118 38.9672 28.0035 38.9423 28.1065 38.9423C28.2657 38.9423 28.3943 38.9974 28.4927 39.1076C28.591 39.2178 28.64 39.3643 28.64 39.5473V39.5613C28.64 39.6751 28.6183 39.7771 28.5748 39.8676C28.5311 39.9579 28.4688 40.0283 28.3878 40.0787C28.3068 40.1291 28.2138 40.1543 28.1086 40.1543C27.9502 40.1543 27.8219 40.0992 27.7235 39.989C27.6252 39.8789 27.576 39.733 27.576 39.5516V39.5376Z" fill="black"/>
<path d="M29.5632 39.8682L29.9606 38.9641H30.2103V40.1328H30.0104V39.2827L29.6322 40.1328H29.4941L29.1084 39.2644V40.1328H28.9086V38.9641H29.1678L29.5632 39.8682Z" fill="black"/>
<path d="M30.9914 39.1065C30.9108 39.1065 30.843 39.1359 30.7883 39.1945C30.7335 39.2533 30.6997 39.3355 30.6867 39.4415H31.2722V39.4263C31.2664 39.3247 31.2392 39.246 31.1901 39.1902C31.1412 39.1344 31.075 39.1065 30.9914 39.1065ZM31.0162 40.1543C30.8578 40.1543 30.7289 40.1023 30.6296 39.9982C30.5301 39.8942 30.4805 39.755 30.4805 39.5807V39.5441C30.4805 39.4281 30.5026 39.3246 30.5468 39.2335C30.5912 39.1424 30.6531 39.071 30.7327 39.0195C30.8122 38.9681 30.8985 38.9423 30.9914 38.9423C31.1433 38.9423 31.2614 38.9924 31.3457 39.0925C31.4299 39.1926 31.4721 39.3359 31.4721 39.5224V39.6057H30.6803C30.6831 39.7208 30.7168 39.8139 30.7813 39.8849C30.8457 39.9558 30.9276 39.9912 31.027 39.9912C31.0976 39.9912 31.1574 39.9768 31.2063 39.9481C31.2553 39.9192 31.2982 39.8811 31.3349 39.8335L31.4569 39.9285C31.359 40.0791 31.2121 40.1543 31.0162 40.1543Z" fill="black"/>
<path d="M32.4908 39.5386C32.4908 39.4068 32.4627 39.3027 32.4065 39.2264C32.3503 39.1501 32.2733 39.1118 32.1754 39.1118C32.0544 39.1118 31.9637 39.1656 31.9032 39.2729V39.8313C31.9629 39.9379 32.0544 39.9912 32.1775 39.9912C32.2733 39.9912 32.3495 39.9533 32.406 39.8772C32.4626 39.8012 32.4908 39.6884 32.4908 39.5386ZM32.6907 39.5613C32.6907 39.7392 32.65 39.8825 32.5686 39.9912C32.4873 40.0999 32.377 40.1543 32.238 40.1543C32.0962 40.1543 31.9846 40.1093 31.9032 40.0193V40.582H31.7034V38.9639H31.8859L31.8956 39.0935C31.977 38.9928 32.09 38.9422 32.2348 38.9422C32.3753 38.9422 32.4863 38.9952 32.568 39.101C32.6497 39.207 32.6907 39.3542 32.6907 39.5429V39.5613Z" fill="black"/>
<path d="M34.3605 39.1261H33.9684V40.1328H33.7686V39.1261H33.384V38.9641H34.3605V39.1261Z" fill="black"/>
<path d="M34.9292 39.1065C34.8486 39.1065 34.7809 39.1359 34.7262 39.1945C34.6714 39.2533 34.6376 39.3355 34.6246 39.4415H35.2101V39.4263C35.2043 39.3247 35.177 39.246 35.128 39.1902C35.0791 39.1344 35.0128 39.1065 34.9292 39.1065ZM34.9541 40.1543C34.7957 40.1543 34.6667 40.1023 34.5674 39.9982C34.468 39.8942 34.4183 39.755 34.4183 39.5807V39.5441C34.4183 39.4281 34.4405 39.3246 34.4847 39.2335C34.5291 39.1424 34.5909 39.071 34.6705 39.0195C34.7501 38.9681 34.8363 38.9423 34.9292 38.9423C35.0812 38.9423 35.1993 38.9924 35.2836 39.0925C35.3678 39.1926 35.4099 39.3359 35.4099 39.5224V39.6057H34.6182C34.621 39.7208 34.6547 39.8139 34.7192 39.8849C34.7835 39.9558 34.8655 39.9912 34.9649 39.9912C35.0354 39.9912 35.0953 39.9768 35.1442 39.9481C35.1931 39.9192 35.236 39.8811 35.2728 39.8335L35.3948 39.9285C35.2969 40.0791 35.15 40.1543 34.9541 40.1543Z" fill="black"/>
<path d="M36.5992 38.964V40.1328H36.3983V39.1293H36.0008L35.9771 39.5667C35.9641 39.7677 35.9304 39.9113 35.8761 39.9977C35.8216 40.0841 35.7355 40.1291 35.6174 40.1328H35.5374V39.9567L35.5946 39.9524C35.6595 39.9451 35.7059 39.9078 35.734 39.8401C35.762 39.7723 35.7801 39.6471 35.788 39.4641L35.8096 38.964H36.5992Z" fill="black"/>
<path d="M37.3799 39.1065C37.2993 39.1065 37.2316 39.1359 37.1769 39.1945C37.1221 39.2533 37.0883 39.3355 37.0753 39.4415H37.6608V39.4263C37.655 39.3247 37.6277 39.246 37.5787 39.1902C37.5298 39.1344 37.4635 39.1065 37.3799 39.1065ZM37.4048 40.1543C37.2463 40.1543 37.1174 40.1023 37.0181 39.9982C36.9187 39.8942 36.869 39.755 36.869 39.5807V39.5441C36.869 39.4281 36.8911 39.3246 36.9354 39.2335C36.9798 39.1424 37.0416 39.071 37.1212 39.0195C37.2007 38.9681 37.287 38.9423 37.3799 38.9423C37.5318 38.9423 37.65 38.9924 37.7343 39.0925C37.8185 39.1926 37.8606 39.3359 37.8606 39.5224V39.6057H37.0689C37.0717 39.7208 37.1054 39.8139 37.1699 39.8849C37.2342 39.9558 37.3161 39.9912 37.4156 39.9912C37.4861 39.9912 37.546 39.9768 37.5949 39.9481C37.6438 39.9192 37.6867 39.8811 37.7235 39.8335L37.8455 39.9285C37.7475 40.0791 37.6007 40.1543 37.4048 40.1543Z" fill="black"/>
<path d="M39.2358 39.5699C39.2358 39.423 39.2107 39.309 39.1603 39.228C39.1099 39.147 39.0403 39.1064 38.9517 39.1064C38.9063 39.1064 38.8668 39.1137 38.833 39.1281V39.9739C38.8653 39.9862 38.9056 39.9923 38.9539 39.9923C39.0433 39.9923 39.1125 39.9577 39.1619 39.8886C39.2111 39.8194 39.2358 39.7132 39.2358 39.5699ZM38.2475 39.5927C38.2475 39.7237 38.2708 39.8231 38.3176 39.8907C38.3645 39.9584 38.4318 39.9923 38.5197 39.9923C38.5615 39.9923 38.5992 39.9858 38.6331 39.9728V39.1249C38.6029 39.1126 38.5658 39.1064 38.5218 39.1064C38.434 39.1064 38.3663 39.1458 38.3187 39.2242C38.2712 39.3027 38.2475 39.4255 38.2475 39.5927ZM38.0476 39.5699C38.0476 39.3747 38.0855 39.2214 38.161 39.1098C38.2366 38.9982 38.3404 38.9424 38.4721 38.9424C38.5333 38.9424 38.587 38.9528 38.6331 38.9736V38.4735H38.833V38.9801C38.8834 38.9549 38.9424 38.9424 39.0101 38.9424C39.1426 38.9424 39.2467 38.9982 39.3222 39.1098C39.3978 39.2214 39.4357 39.3824 39.4357 39.5927C39.4357 39.7647 39.398 39.9015 39.3227 40.003C39.2475 40.1047 39.144 40.1554 39.0123 40.1554C38.9424 40.1554 38.8826 40.1439 38.833 40.1208V40.582H38.6331V40.1241C38.5856 40.145 38.5312 40.1554 38.47 40.1554C38.3389 40.1554 38.2357 40.1047 38.1604 40.003C38.0852 39.9015 38.0476 39.7625 38.0476 39.5861V39.5699Z" fill="black"/>
<path d="M39.8432 39.5613C39.8432 39.6909 39.8731 39.7949 39.9332 39.8735C39.9935 39.952 40.074 39.9912 40.1748 39.9912C40.2763 39.9912 40.357 39.9514 40.4168 39.8719C40.4765 39.7922 40.5064 39.6809 40.5064 39.5376C40.5064 39.4094 40.4759 39.3054 40.415 39.2259C40.3542 39.1464 40.2734 39.1065 40.1727 39.1065C40.074 39.1065 39.9943 39.1457 39.9339 39.2243C39.8734 39.3027 39.8432 39.4151 39.8432 39.5613ZM39.6422 39.5376C39.6422 39.423 39.6647 39.32 39.7098 39.2286C39.7547 39.1371 39.8174 39.0666 39.8977 39.0168C39.978 38.9672 40.0697 38.9423 40.1727 38.9423C40.3318 38.9423 40.4604 38.9974 40.5588 39.1076C40.657 39.2178 40.7062 39.3643 40.7062 39.5473V39.5613C40.7062 39.6751 40.6844 39.7771 40.6409 39.8676C40.5973 39.9579 40.5351 40.0283 40.454 40.0787C40.3731 40.1291 40.28 40.1543 40.1748 40.1543C40.0163 40.1543 39.8879 40.0992 39.7897 39.989C39.6914 39.8789 39.6422 39.733 39.6422 39.5516V39.5376Z" fill="black"/>
<path d="M41.9116 40.1328H41.7118V39.6337H41.1749V40.1328H40.974V38.964H41.1749V39.4706H41.7118V38.964H41.9116V40.1328Z" fill="black"/>
<path d="M42.6237 39.9804C42.6864 39.9804 42.7458 39.9642 42.8019 39.9317C42.8581 39.8994 42.8988 39.8572 42.924 39.8054V39.5656H42.7674C42.5226 39.5656 42.4002 39.6372 42.4002 39.7805C42.4002 39.8432 42.4211 39.8921 42.4627 39.9274C42.5045 39.9627 42.5582 39.9804 42.6237 39.9804ZM42.9553 40.1327C42.9438 40.1097 42.9344 40.0686 42.9273 40.0095C42.8344 40.106 42.7235 40.1543 42.5946 40.1543C42.4793 40.1543 42.3848 40.1217 42.3111 40.0566C42.2371 39.9913 42.2003 39.9087 42.2003 39.8087C42.2003 39.6869 42.2465 39.5924 42.3392 39.525C42.4316 39.4578 42.5618 39.4241 42.7295 39.4241H42.924V39.3323C42.924 39.2624 42.9031 39.2068 42.8614 39.1654C42.8196 39.124 42.7581 39.1032 42.6767 39.1032C42.6054 39.1032 42.5456 39.1213 42.4974 39.1573C42.4491 39.1933 42.425 39.2368 42.425 39.2879H42.224C42.224 39.2297 42.2447 39.1733 42.2861 39.1189C42.3275 39.0645 42.3837 39.0215 42.4546 38.9898C42.5255 38.9582 42.6036 38.9423 42.6885 38.9423C42.8232 38.9423 42.9286 38.976 43.0051 39.0432C43.0814 39.1106 43.121 39.2034 43.1238 39.3215V39.8594C43.1238 39.9667 43.1376 40.052 43.1649 40.1155V40.1327H42.9553Z" fill="black"/>
<path d="M21.2932 46.5537H55.9469" stroke="black" stroke-width="0.122904" stroke-miterlimit="10"/>
</g>
<mask id="mask9_3749_67" style="mask-type:luminance" maskUnits="userSpaceOnUse" x="-80" y="-6" width="237" height="134">
<path d="M-79.3695 -5.47317H156.607V127.264H-79.3695V-5.47317Z" fill="white"/>
</mask>
<g mask="url(#mask9_3749_67)">
<path d="M62.5082 52.7165L69.927 63.9449C69.927 63.9449 71.7317 66.1506 70.3281 67.5541C68.9246 68.9577 66.3179 70.9628 66.3179 70.9628C66.3179 70.9628 68.1225 74.3714 68.9246 75.775C69.7265 77.1785 67.8186 79.1836 67.8186 79.1836L65.9169 80.7876C65.9169 80.7876 66.9195 83.9958 67.521 84.9983C68.1225 86.0009 68.5235 88.4071 66.9195 89.6101C65.3154 90.8131 60.1167 96.9676 59.2675 96.783C56.4407 96.1685 55.8391 93.3028 56.4407 91.4981C57.0422 89.6935 62.463 84.8301 62.463 84.8301L62.4178 83.1939C62.4178 83.1939 59.1221 87.589 57.4802 87.5312C54.9658 87.4423 54.2544 84.1171 55.4574 81.9116C56.6604 79.7061 62.5082 75.238 62.5082 75.238L62.463 73.5693C62.463 73.5693 59.058 76.432 57.6697 76.3809C56.1643 76.3255 53.1864 72.6718 56.4407 69.867C59.2412 67.4531 62.463 65.4131 62.463 65.4131L62.5082 52.7165Z" fill="#FFD000"/>
<path d="M56.1258 75.4088C56.451 75.8121 56.7687 76.2317 57.2898 76.3854C58.1526 76.6403 59.0221 76.089 59.729 75.6662C60.5362 75.1833 61.323 74.6591 62.0608 74.0751C62.2696 73.9098 62.4834 73.7407 62.6648 73.5445C62.7883 73.4111 62.8651 73.2875 62.8073 73.1017C62.7257 72.838 62.5324 72.5992 62.389 72.3681C62.1279 71.9472 61.9037 71.5029 61.5686 71.1336C61.1499 70.6721 60.5828 70.3588 59.9518 70.3471C59.8063 70.3444 59.6414 70.3462 59.5029 70.3946C59.3138 70.4606 59.1345 70.5616 58.9602 70.6585C58.4017 70.9688 57.8635 71.3197 57.343 71.6899C56.8659 72.0295 56.3504 72.388 55.9767 72.8452C55.5009 73.4271 55.5882 74.2999 55.8623 74.9545C55.9313 75.1191 56.0155 75.2684 56.1258 75.4088C56.2721 75.5953 56.5316 75.3328 56.3864 75.148C56.1836 74.8898 56.0848 74.5342 56.0364 74.2152C55.9858 73.8809 55.9877 73.4891 56.1743 73.194C56.411 72.8194 56.8731 72.4924 57.24 72.2187C57.7401 71.8457 58.2615 71.4991 58.7968 71.179C58.9968 71.0592 59.1992 70.9422 59.4077 70.8379C59.4449 70.8192 59.4825 70.8013 59.5201 70.7836C59.5762 70.7574 59.5365 70.7729 59.589 70.7546C59.6101 70.7471 59.6317 70.741 59.6529 70.7337C59.6605 70.731 59.6964 70.7238 59.6631 70.7304C59.629 70.737 59.6794 70.7286 59.689 70.7279C60.1337 70.6913 60.5389 70.7801 60.9119 71.0387C61.2367 71.2639 61.4901 71.5847 61.693 71.9198C61.899 72.2601 62.1042 72.6005 62.3118 72.9397C62.3575 73.0145 62.427 73.1377 62.4466 73.1841C62.4528 73.1986 62.4562 73.2141 62.4604 73.2291C62.4649 73.2451 62.4776 73.2206 62.4626 73.2406C62.463 73.2402 62.5068 73.1677 62.4622 73.2149C62.4582 73.2192 62.4364 73.251 62.4513 73.2311C62.4658 73.2115 62.4374 73.2468 62.4326 73.2522C62.4031 73.2846 62.3735 73.3164 62.3424 73.3472C62.26 73.4288 62.1729 73.5058 62.0847 73.5811C61.4985 74.0817 60.8554 74.5201 60.2074 74.9359C59.7758 75.2128 59.3373 75.4855 58.8844 75.7265C58.5397 75.91 58.1548 76.0713 57.7583 76.0779C57.2463 76.0867 56.8907 75.7773 56.5863 75.4001C56.5189 75.3167 56.4538 75.2316 56.3864 75.148C56.2375 74.9633 55.9782 75.2257 56.1258 75.4088Z" fill="#020202"/>
<path d="M56.3471 86.863C56.756 87.1797 57.1512 87.5147 57.688 87.5664C58.5502 87.6493 59.2607 86.9662 59.8309 86.4182C60.5247 85.7509 61.1897 85.0462 61.789 84.2922C61.9661 84.0695 62.1455 83.8432 62.2913 83.5984C62.3822 83.4459 62.4512 83.2994 62.3637 83.1286C62.2518 82.9105 62.029 82.7373 61.8577 82.5686C61.5053 82.2216 61.184 81.8399 60.7862 81.5429C60.254 81.1456 59.597 80.9401 58.9381 81.0795C58.7918 81.1104 58.6297 81.1512 58.5025 81.2327C58.3381 81.3382 58.1902 81.4757 58.0465 81.6067C57.58 82.0321 57.1425 82.4919 56.7259 82.9658C56.3376 83.4078 55.9221 83.8757 55.6551 84.4045C55.317 85.0739 55.5846 85.901 55.9971 86.4788C56.0983 86.6202 56.2106 86.7543 56.3471 86.863C56.5309 87.0092 56.7935 86.75 56.6078 86.6023C56.3417 86.3905 56.1526 86.0811 56.026 85.769C55.8939 85.4437 55.8034 85.0623 55.9171 84.719C55.9679 84.566 56.098 84.3656 56.2048 84.209C56.3635 83.9763 56.5385 83.7551 56.7188 83.5389C57.1089 83.0712 57.5251 82.6242 57.9595 82.1976C58.1306 82.0296 58.3046 81.8638 58.4872 81.7082C58.5556 81.6499 58.5983 81.6135 58.6496 81.5778C58.6721 81.5623 58.6956 81.5483 58.718 81.5328C58.7258 81.5274 58.7352 81.5239 58.7435 81.519C58.762 81.5083 58.6951 81.5359 58.7403 81.5211C59.1726 81.3786 59.5916 81.3604 60.0244 81.5298C60.4118 81.6814 60.7439 81.9527 61.0303 82.2489C61.3011 82.5292 61.578 82.8029 61.8514 83.0805C61.9163 83.1463 61.9867 83.2187 62.0226 83.2749C62.0309 83.2877 62.0371 83.3019 62.0452 83.3148C62.0403 83.3071 62.0525 83.3011 62.0477 83.3273C62.0518 83.305 62.0477 83.2853 62.0462 83.263C62.0467 83.2701 62.0406 83.2909 62.0361 83.2962C62.0328 83.3003 62.0506 83.2659 62.0347 83.2991C62.0268 83.3157 62.0184 83.3319 62.0097 83.3479C61.9898 83.3851 61.9678 83.4213 61.9454 83.457C61.882 83.5584 61.8127 83.6563 61.742 83.7526C61.2836 84.3771 60.7554 84.9549 60.2178 85.5111C59.8621 85.8792 59.4991 86.2464 59.1131 86.5831C58.8246 86.8346 58.4933 87.0687 58.1175 87.1647C57.6381 87.2872 57.2232 87.0804 56.8507 86.7937C56.7691 86.7307 56.6893 86.6655 56.6078 86.6023C56.5285 86.5408 56.4247 86.5265 56.3471 86.6023C56.2829 86.6652 56.2685 86.8021 56.3471 86.863Z" fill="#020202"/>
<path d="M57.9015 96.041C58.3109 96.3472 58.7116 96.6654 59.2445 96.6974C60.117 96.7502 60.8163 96.0372 61.3817 95.4726C62.0606 94.7947 62.7073 94.0799 63.2918 93.3188C63.4594 93.1005 63.6294 92.8779 63.7641 92.6375C63.8513 92.4819 63.9096 92.3379 63.815 92.1707C63.69 91.9491 63.4589 91.776 63.278 91.6033C62.9182 91.2599 62.5897 90.8807 62.1798 90.5947C61.6435 90.2205 60.9882 90.0376 60.3433 90.1928C60.2001 90.2273 60.0433 90.2708 59.9206 90.3548C59.7554 90.4683 59.6068 90.6091 59.4617 90.7466C59.001 91.1831 58.5694 91.6526 58.1595 92.1367C57.7832 92.5814 57.3761 93.0532 57.1259 93.5845C56.8045 94.2672 57.1015 95.0971 57.5329 95.6654C57.6411 95.808 57.7597 95.9317 57.9015 96.041C57.9811 96.1021 58.1073 96.0526 58.1539 95.9749C58.2104 95.8804 58.1661 95.7829 58.0877 95.7226C57.8237 95.5196 57.6343 95.1906 57.5111 94.8874C57.383 94.5722 57.2913 94.1962 57.4061 93.8636C57.55 93.4466 57.9143 93.0157 58.2033 92.6592C58.5859 92.1872 58.9943 91.7347 59.4215 91.3027C59.5878 91.1345 59.757 90.9685 59.9351 90.8128C59.965 90.7866 59.9951 90.7609 60.0257 90.7356C60.0413 90.7227 60.057 90.7098 60.0731 90.6972C60.047 90.7176 60.0809 90.6916 60.0902 90.6851C60.1115 90.6701 60.1338 90.6567 60.1551 90.6419C60.2005 90.6103 60.1198 90.6507 60.1814 90.6294C60.6194 90.4781 61.0487 90.4615 61.488 90.6338C61.8831 90.7889 62.2184 91.065 62.5129 91.3645C62.7786 91.6348 63.0563 91.8919 63.3252 92.1587C63.3893 92.2224 63.456 92.293 63.4889 92.3435C63.514 92.3821 63.5 92.3814 63.5018 92.3444C63.5008 92.3644 63.4954 92.3034 63.504 92.3263C63.5065 92.3327 63.4954 92.3558 63.4926 92.3619C63.5065 92.3311 63.4771 92.3933 63.4636 92.4189C63.443 92.4576 63.4206 92.4952 63.3977 92.5326C63.3335 92.6373 63.2637 92.7384 63.1924 92.8381C62.7372 93.475 62.2138 94.0669 61.6784 94.6368C61.3279 95.0102 60.9711 95.3863 60.5864 95.725C60.3048 95.9728 59.9805 96.2023 59.6115 96.2946C59.1268 96.4157 58.7112 96.1932 58.3337 95.9099C58.2513 95.848 58.1702 95.7843 58.0877 95.7226C57.8976 95.5804 57.7136 95.9003 57.9015 96.041Z" fill="#020202"/>
</g>
<mask id="mask10_3749_67" style="mask-type:luminance" maskUnits="userSpaceOnUse" x="-80" y="-6" width="237" height="134">
<path d="M-79.3695 -5.47317H156.607V127.264H-79.3695V-5.47317Z" fill="white"/>
</mask>
<g mask="url(#mask10_3749_67)">
<path d="M54.6592 56.2246H22.5812C22.106 56.2246 21.7208 55.8394 21.7208 55.3643V51.0626C21.7208 50.5875 22.106 50.2023 22.5812 50.2023H54.6592C55.1344 50.2023 55.5196 50.5875 55.5196 51.0626V55.3643C55.5196 55.8394 55.1344 56.2246 54.6592 56.2246Z" fill="#00C151"/>
<path d="M34.2517 53.0231C34.2517 52.8365 34.2142 52.6935 34.1394 52.5937C34.0645 52.494 33.9597 52.4441 33.825 52.4441C33.694 52.4441 33.5908 52.494 33.5155 52.5937C33.4403 52.6935 33.4016 52.8319 33.3993 53.0091V53.1246C33.3993 53.3054 33.4374 53.4475 33.5134 53.5507C33.5894 53.6541 33.694 53.7058 33.8272 53.7058C33.9611 53.7058 34.0648 53.657 34.1383 53.5595C34.2117 53.4619 34.2495 53.322 34.2517 53.1397V53.0231ZM34.458 53.1246C34.458 53.2787 34.4321 53.4132 34.3802 53.5281C34.3284 53.6429 34.2549 53.7307 34.1599 53.7911C34.0648 53.8516 33.9539 53.8818 33.8272 53.8818C33.7033 53.8818 33.5935 53.8515 33.4977 53.7906C33.4019 53.7298 33.3276 53.6429 33.2746 53.5302C33.2218 53.4175 33.1945 53.287 33.1931 53.1386V53.0253C33.1931 52.874 33.2194 52.7404 33.2719 52.6245C33.3245 52.5085 33.3989 52.4198 33.495 52.3582C33.5911 52.2966 33.7012 52.2659 33.825 52.2659C33.9511 52.2659 34.0622 52.2962 34.1583 52.3572C34.2544 52.418 34.3284 52.5062 34.3802 52.6218C34.4321 52.7373 34.458 52.8719 34.458 53.0253V53.1246Z" fill="white"/>
<path d="M35.6064 52.8536H35.2143V53.8604H35.0145V52.8536H34.6299V52.6917H35.6064V52.8536Z" fill="white"/>
<path d="M36.7564 53.8604H36.5565V52.8568H36.0186V53.8604H35.8176V52.6915H36.7564V53.8604Z" fill="white"/>
<path d="M37.864 53.2661C37.864 53.1344 37.8358 53.0303 37.7797 52.9539C37.7235 52.8776 37.6464 52.8394 37.5486 52.8394C37.4276 52.8394 37.3368 52.8931 37.2764 53.0004V53.5589C37.3361 53.6654 37.4276 53.7188 37.5507 53.7188C37.6464 53.7188 37.7226 53.6808 37.7792 53.6047C37.8357 53.5288 37.864 53.4159 37.864 53.2661ZM38.0638 53.2888C38.0638 53.4667 38.0231 53.61 37.9418 53.7188C37.8604 53.8274 37.7502 53.8819 37.6112 53.8819C37.4693 53.8819 37.3577 53.8369 37.2764 53.7468V54.3096H37.0765V52.6914H37.2591L37.2688 52.8211C37.3501 52.7203 37.4632 52.6698 37.608 52.6698C37.7485 52.6698 37.8594 52.7228 37.9412 52.8286C38.0229 52.9345 38.0638 53.0818 38.0638 53.2704V53.2888Z" fill="white"/>
<path d="M38.708 53.7079C38.7706 53.7079 38.8301 53.6917 38.8863 53.6593C38.9425 53.6269 38.9831 53.5848 39.0083 53.5329V53.2931H38.8516C38.6068 53.2931 38.4844 53.3648 38.4844 53.5081C38.4844 53.5708 38.5053 53.6197 38.5469 53.655C38.5887 53.6902 38.6424 53.7079 38.708 53.7079ZM39.0397 53.8602C39.0281 53.8372 39.0188 53.7962 39.0115 53.7371C38.9186 53.8335 38.8078 53.8818 38.6788 53.8818C38.5635 53.8818 38.469 53.8493 38.3953 53.7841C38.3214 53.7189 38.2845 53.6363 38.2845 53.5362C38.2845 53.4144 38.3308 53.3199 38.4233 53.2526C38.5159 53.1853 38.646 53.1517 38.8139 53.1517H39.0083V53.0599C39.0083 52.9899 38.9874 52.9344 38.9456 52.8929C38.9039 52.8515 38.8423 52.8308 38.7609 52.8308C38.6896 52.8308 38.6298 52.8488 38.5816 52.8848C38.5333 52.9208 38.5092 52.9644 38.5092 53.0155H38.3083C38.3083 52.9572 38.329 52.9008 38.3703 52.8465C38.4118 52.792 38.4679 52.749 38.539 52.7173C38.6099 52.6857 38.6878 52.6699 38.7728 52.6699C38.9075 52.6699 39.013 52.7036 39.0893 52.7708C39.1656 52.8381 39.2052 52.9309 39.2082 53.049V53.587C39.2082 53.6943 39.2218 53.7796 39.2492 53.843V53.8602H39.0397Z" fill="white"/>
<path d="M39.7393 53.3472V53.6993H40.0698C40.1533 53.6993 40.2158 53.6839 40.2572 53.6529C40.2986 53.6219 40.3194 53.5784 40.3194 53.5222C40.3194 53.4056 40.2336 53.3472 40.0623 53.3472H39.7393ZM39.7393 53.1873H39.9975C40.1847 53.1873 40.2783 53.1326 40.2783 53.0231C40.2783 52.9137 40.1897 52.8572 40.0126 52.8535H39.7393V53.1873ZM39.5394 53.8604V52.6915H39.9953C40.1509 52.6915 40.2701 52.7187 40.3533 52.7731C40.4365 52.8275 40.4782 52.9072 40.4782 53.0123C40.4782 53.0664 40.4619 53.1152 40.4295 53.1587C40.3972 53.2023 40.3492 53.2356 40.2858 53.2586C40.3564 53.2752 40.413 53.3077 40.4559 53.3558C40.4988 53.4041 40.5202 53.4618 40.5202 53.5288C40.5202 53.6361 40.4808 53.7182 40.402 53.7749C40.3231 53.8318 40.2117 53.8604 40.0677 53.8604H39.5394Z" fill="white"/>
<path d="M41.5411 52.6915H41.741V53.8604H41.5411V53.008L41.0021 53.8604H40.8022V52.6915H41.0021V53.5449L41.5411 52.6915Z" fill="white"/>
<path d="M42.9302 52.8536H42.5381V53.8604H42.3383V52.8536H41.9537V52.6917H42.9302V52.8536Z" fill="white"/>
<path d="M43.3439 53.2576V53.6973H43.6409C43.7158 53.6973 43.7738 53.678 43.8149 53.6395C43.8559 53.6009 43.8764 53.5482 43.8764 53.4812C43.8764 53.4164 43.8564 53.3633 43.8166 53.3219C43.7765 53.2805 43.7205 53.2591 43.6486 53.2576H43.3439ZM43.3439 53.0945H43.6475C43.78 53.096 43.8847 53.1305 43.9617 53.1983C44.0388 53.2659 44.0774 53.3577 44.0774 53.4737C44.0774 53.5903 44.0378 53.684 43.9585 53.7545C43.8793 53.8251 43.7727 53.8604 43.6387 53.8604H43.144V52.6917H43.3439V53.0945Z" fill="white"/>
</g>
<path d="M22.0518 44.3052H22.6366V44.5573H22.0518V45.2197H21.7839V44.5573H21.1992V44.3052H21.7839V43.6931H22.0518V44.3052Z" fill="black"/>
<path d="M24.2872 43.4824L23.4188 45.4297H23.1393L24.0049 43.5515H22.87V43.3326H24.2872V43.4824Z" fill="black"/>
<path d="M25.3379 44.5783C25.3379 44.3612 25.3669 44.1529 25.425 43.9532C25.4832 43.7534 25.5698 43.5719 25.685 43.4087C25.8003 43.2455 25.9197 43.1303 26.0436 43.0631L26.0983 43.2388C25.9582 43.3464 25.8432 43.5105 25.7534 43.7313C25.6636 43.9522 25.6144 44.1995 25.6058 44.4732L25.6043 44.5956C25.6043 44.9661 25.6721 45.2878 25.8074 45.5605C25.889 45.7237 25.986 45.8514 26.0983 45.9436L26.0436 46.1064C25.9159 46.0353 25.794 45.9163 25.6778 45.7492C25.4512 45.4227 25.3379 45.0324 25.3379 44.5783Z" fill="black"/>
<path d="M26.9394 44.5074C27.0288 44.5074 27.111 44.48 27.1864 44.4253C27.2618 44.3706 27.3167 44.3029 27.3514 44.2223V44.1156C27.3514 43.9409 27.3134 43.7987 27.2376 43.6894C27.1617 43.5798 27.0656 43.5252 26.9495 43.5252C26.8324 43.5252 26.7382 43.57 26.6672 43.6599C26.5961 43.7496 26.5606 43.8679 26.5606 44.0148C26.5606 44.1579 26.5949 44.2757 26.6636 44.3684C26.7322 44.4611 26.8242 44.5074 26.9394 44.5074ZM27.3499 44.5074C27.2942 44.5737 27.2277 44.627 27.1504 44.6673C27.0731 44.7076 26.9883 44.7278 26.8961 44.7278C26.7752 44.7278 26.6699 44.698 26.58 44.6384C26.4903 44.5789 26.4209 44.4951 26.372 44.3871C26.3229 44.2792 26.2985 44.1598 26.2985 44.0292C26.2985 43.8891 26.3251 43.7627 26.3785 43.6504C26.4317 43.5381 26.5073 43.4521 26.6052 43.3927C26.7032 43.3331 26.8175 43.3033 26.948 43.3033C27.1555 43.3033 27.3189 43.3809 27.4385 43.536C27.558 43.691 27.6178 43.9025 27.6178 44.1704V44.2482C27.6178 44.6562 27.5371 44.9542 27.3758 45.1418C27.2145 45.3295 26.9711 45.4259 26.6455 45.4307H26.5937V45.2045H26.65C26.8698 45.2007 27.0388 45.1434 27.1569 45.0327C27.2749 44.9221 27.3393 44.7469 27.3499 44.5074Z" fill="black"/>
<path d="M28.373 44.2511H28.5732C28.699 44.2491 28.7979 44.2161 28.8699 44.1517C28.9419 44.0874 28.9779 44.0005 28.9779 43.891C28.9779 43.6452 28.8555 43.5223 28.6107 43.5223C28.4954 43.5223 28.4035 43.5552 28.3348 43.621C28.2662 43.6867 28.2319 43.7738 28.2319 43.8824H27.9655C27.9655 43.7162 28.0262 43.5782 28.1476 43.4683C28.269 43.3583 28.4234 43.3034 28.6107 43.3034C28.8085 43.3034 28.9636 43.3557 29.0759 43.4603C29.1882 43.565 29.2444 43.7106 29.2444 43.8968C29.2444 43.9879 29.2149 44.0763 29.1558 44.1617C29.0968 44.2473 29.0163 44.3111 28.9145 44.3533C29.0298 44.3898 29.1188 44.4503 29.1817 44.5349C29.2446 44.6193 29.2761 44.7225 29.2761 44.8445C29.2761 45.0326 29.2147 45.182 29.0918 45.2925C28.9689 45.4028 28.809 45.458 28.6121 45.458C28.4153 45.458 28.2551 45.4048 28.1317 45.2982C28.0084 45.1916 27.9467 45.0509 27.9467 44.8762H28.2146C28.2146 44.9865 28.2506 45.0749 28.3226 45.1412C28.3946 45.2074 28.4911 45.2406 28.6121 45.2406C28.7407 45.2406 28.8392 45.2069 28.9074 45.1397C28.9755 45.0726 29.0097 44.976 29.0097 44.8502C29.0097 44.7283 28.9722 44.6347 28.8973 44.5694C28.8223 44.5041 28.7143 44.4705 28.5732 44.4686H28.373V44.2511Z" fill="black"/>
<path d="M30.5167 45.4297H30.2488V43.6538L29.7115 43.8511V43.6091L30.4749 43.3225H30.5167V45.4297Z" fill="black"/>
<path d="M31.9396 44.5928C31.9396 44.8069 31.9115 45.0121 31.8553 45.2085C31.7991 45.4048 31.7132 45.5861 31.5976 45.7522C31.4818 45.9183 31.3606 46.0364 31.2339 46.1064L31.1777 45.9437C31.3256 45.8304 31.4444 45.6545 31.5342 45.4158C31.624 45.1773 31.6698 44.9126 31.6717 44.6215V44.5754C31.6717 44.3739 31.6505 44.1863 31.6084 44.013C31.5661 43.8397 31.5072 43.6844 31.4319 43.5471C31.3566 43.4098 31.2718 43.3027 31.1777 43.2259L31.2339 43.0632C31.3606 43.1333 31.4813 43.2504 31.5961 43.4146C31.7109 43.5788 31.7968 43.7598 31.854 43.9576C31.9111 44.1553 31.9396 44.3671 31.9396 44.5928Z" fill="black"/>
<path d="M33.9281 45.4297H33.6601V43.6538L33.1229 43.8511V43.6091L33.8863 43.3225H33.9281V45.4297Z" fill="black"/>
<path d="M35.0974 44.2511H35.2976C35.4233 44.2491 35.5223 44.2161 35.5943 44.1517C35.6663 44.0874 35.7023 44.0005 35.7023 43.891C35.7023 43.6452 35.5799 43.5223 35.3351 43.5223C35.2198 43.5223 35.1279 43.5552 35.0592 43.621C34.9906 43.6867 34.9563 43.7738 34.9563 43.8824H34.6898C34.6898 43.7162 34.7505 43.5782 34.872 43.4683C34.9934 43.3583 35.1478 43.3034 35.3351 43.3034C35.5328 43.3034 35.6879 43.3557 35.8003 43.4603C35.9126 43.565 35.9688 43.7106 35.9688 43.8968C35.9688 43.9879 35.9393 44.0763 35.8802 44.1617C35.8212 44.2473 35.7407 44.3111 35.6389 44.3533C35.7542 44.3898 35.8432 44.4503 35.9061 44.5349C35.969 44.6193 36.0005 44.7225 36.0005 44.8445C36.0005 45.0326 35.939 45.182 35.8161 45.2925C35.6932 45.4028 35.5333 45.458 35.3364 45.458C35.1397 45.458 34.9795 45.4048 34.8561 45.2982C34.7327 45.1916 34.671 45.0509 34.671 44.8762H34.939C34.939 44.9865 34.975 45.0749 35.047 45.1412C35.119 45.2074 35.2155 45.2406 35.3364 45.2406C35.4651 45.2406 35.5636 45.2069 35.6318 45.1397C35.6999 45.0726 35.734 44.976 35.734 44.8502C35.734 44.7283 35.6965 44.6347 35.6217 44.5694C35.5467 44.5041 35.4387 44.4705 35.2976 44.4686H35.0974V44.2511Z" fill="black"/>
<path d="M36.4879 44.3778L36.5945 43.3321H37.6689V43.5784H36.8206L36.7572 44.1502C36.86 44.0897 36.9767 44.0595 37.1073 44.0595C37.2984 44.0595 37.45 44.1227 37.5624 44.2489C37.6747 44.3752 37.7309 44.5458 37.7309 44.7609C37.7309 44.977 37.6726 45.1472 37.5559 45.2714C37.4392 45.3958 37.2762 45.458 37.0669 45.458C36.8816 45.458 36.7304 45.4066 36.6133 45.3039C36.496 45.2011 36.4293 45.0591 36.4131 44.8775H36.665C36.6814 44.9976 36.7242 45.0881 36.7932 45.149C36.8624 45.21 36.9536 45.2406 37.0669 45.2406C37.1908 45.2406 37.288 45.1983 37.3586 45.1138C37.4291 45.0293 37.4644 44.9127 37.4644 44.7638C37.4644 44.6236 37.4263 44.511 37.35 44.4261C37.2737 44.3411 37.172 44.2985 37.0453 44.2985C36.9292 44.2985 36.838 44.3241 36.7717 44.375L36.7011 44.4325L36.4879 44.3778Z" fill="black"/>
<path d="M38.6035 44.6475H37.9006V44.4299H38.6035V44.6475Z" fill="black"/>
<path d="M40.21 45.4297H38.836V45.2381L39.562 44.4316C39.6695 44.3097 39.7436 44.2105 39.7844 44.1342C39.8252 44.0578 39.8456 43.9788 39.8456 43.8972C39.8456 43.7878 39.8126 43.698 39.7463 43.6279C39.6801 43.5579 39.5917 43.5227 39.4812 43.5227C39.3487 43.5227 39.2457 43.5604 39.1724 43.6358C39.0989 43.7112 39.0621 43.8161 39.0621 43.9505H38.7957C38.7957 43.7576 38.8578 43.6015 38.9822 43.4824C39.1065 43.3634 39.2729 43.3038 39.4812 43.3038C39.6761 43.3038 39.8303 43.3549 39.9436 43.4572C40.0569 43.5594 40.1136 43.6956 40.1136 43.8655C40.1136 44.072 39.9821 44.3178 39.7189 44.6029L39.1572 45.2121H40.21V45.4297Z" fill="black"/>
<path d="M40.8798 44.2511H41.0801C41.2058 44.2491 41.3047 44.2161 41.3767 44.1517C41.4488 44.0874 41.4848 44.0005 41.4848 43.891C41.4848 43.6452 41.3624 43.5223 41.1175 43.5223C41.0023 43.5223 40.9103 43.5552 40.8416 43.621C40.773 43.6867 40.7388 43.7738 40.7388 43.8824H40.4723C40.4723 43.7162 40.533 43.5782 40.6544 43.4683C40.7759 43.3583 40.9302 43.3034 41.1175 43.3034C41.3153 43.3034 41.4704 43.3557 41.5827 43.4603C41.6951 43.565 41.7512 43.7106 41.7512 43.8968C41.7512 43.9879 41.7217 44.0763 41.6626 44.1617C41.6036 44.2473 41.5231 44.3111 41.4214 44.3533C41.5366 44.3898 41.6256 44.4503 41.6886 44.5349C41.7515 44.6193 41.7829 44.7225 41.7829 44.8445C41.7829 45.0326 41.7215 45.182 41.5986 45.2925C41.4757 45.4028 41.3158 45.458 41.1189 45.458C40.9221 45.458 40.762 45.4048 40.6386 45.2982C40.5152 45.1916 40.4535 45.0509 40.4535 44.8762H40.7214C40.7214 44.9865 40.7574 45.0749 40.8295 45.1412C40.9015 45.2074 40.998 45.2406 41.1189 45.2406C41.2476 45.2406 41.346 45.2069 41.4142 45.1397C41.4823 45.0726 41.5165 44.976 41.5165 44.8502C41.5165 44.7283 41.479 44.6347 41.4042 44.5694C41.3292 44.5041 41.2212 44.4705 41.0801 44.4686H40.8798V44.2511Z" fill="black"/>
<path d="M43.1972 44.1703C43.1972 43.9447 43.1655 43.7802 43.1022 43.677C43.0388 43.5738 42.9385 43.5223 42.8011 43.5223C42.6648 43.5223 42.5654 43.5736 42.5031 43.6763C42.4406 43.779 42.4084 43.9371 42.4065 44.1502V44.5765C42.4065 44.803 42.4394 44.9704 42.5052 45.0785C42.5709 45.1865 42.6706 45.2405 42.8041 45.2405C42.9356 45.2405 43.0333 45.1896 43.0972 45.0878C43.161 44.9861 43.1944 44.8257 43.1972 44.6068V44.1703ZM43.4637 44.5347C43.4637 44.8468 43.4104 45.0787 43.3038 45.2304C43.1972 45.3821 43.0307 45.458 42.8041 45.458C42.5803 45.458 42.4147 45.3838 42.3072 45.2354C42.1996 45.0871 42.1439 44.8655 42.14 44.5708V44.215C42.14 43.9067 42.1934 43.6777 42.2999 43.5279C42.4065 43.3782 42.5736 43.3032 42.8011 43.3032C43.0268 43.3032 43.1929 43.3755 43.2995 43.5201C43.4061 43.6646 43.4609 43.8875 43.4637 44.189V44.5347Z" fill="black"/>
<path d="M44.3872 44.6475H43.6843V44.4299H44.3872V44.6475Z" fill="black"/>
<path d="M45.6666 44.1703C45.6666 43.9447 45.6349 43.7802 45.5716 43.677C45.5082 43.5738 45.4079 43.5223 45.2705 43.5223C45.1342 43.5223 45.0347 43.5736 44.9724 43.6763C44.91 43.779 44.8778 43.9371 44.8758 44.1502V44.5765C44.8758 44.803 44.9088 44.9704 44.9745 45.0785C45.0403 45.1865 45.14 45.2405 45.2734 45.2405C45.4049 45.2405 45.5026 45.1896 45.5666 45.0878C45.6303 44.9861 45.6638 44.8257 45.6666 44.6068V44.1703ZM45.9331 44.5347C45.9331 44.8468 45.8797 45.0787 45.7732 45.2304C45.6666 45.3821 45.5001 45.458 45.2734 45.458C45.0496 45.458 44.8841 45.3838 44.7765 45.2354C44.669 45.0871 44.6133 44.8655 44.6094 44.5708V44.215C44.6094 43.9067 44.6627 43.6777 44.7693 43.5279C44.8758 43.3782 45.043 43.3032 45.2705 43.3032C45.4961 43.3032 45.6623 43.3755 45.7689 43.5201C45.8754 43.6646 45.9302 43.8875 45.9331 44.189V44.5347Z" fill="black"/>
<path d="M47.3235 44.1703C47.3235 43.9447 47.2918 43.7802 47.2285 43.677C47.165 43.5738 47.0647 43.5223 46.9273 43.5223C46.791 43.5223 46.6916 43.5736 46.6293 43.6763C46.5669 43.779 46.5347 43.9371 46.5327 44.1502V44.5765C46.5327 44.803 46.5656 44.9704 46.6314 45.0785C46.6971 45.1865 46.7968 45.2405 46.9303 45.2405C47.0618 45.2405 47.1595 45.1896 47.2234 45.0878C47.2872 44.9861 47.3206 44.8257 47.3235 44.6068V44.1703ZM47.5899 44.5347C47.5899 44.8468 47.5366 45.0787 47.43 45.2304C47.3235 45.3821 47.1569 45.458 46.9303 45.458C46.7065 45.458 46.5409 45.3838 46.4334 45.2354C46.3258 45.0871 46.2702 44.8655 46.2662 44.5708V44.215C46.2662 43.9067 46.3196 43.6777 46.4261 43.5279C46.5327 43.3782 46.6998 43.3032 46.9273 43.3032C47.153 43.3032 47.3192 43.3755 47.4257 43.5201C47.5323 43.6646 47.5871 43.8875 47.5899 44.189V44.5347Z" fill="black"/>
<mask id="mask11_3749_67" style="mask-type:luminance" maskUnits="userSpaceOnUse" x="-80" y="-6" width="237" height="134">
<path d="M-79.3695 -5.47317H156.607V127.264H-79.3695V-5.47317Z" fill="white"/>
</mask>
<g mask="url(#mask11_3749_67)">
<path d="M9.5228 101.957C9.5228 101.957 15.7043 72.9371 16.6198 72.3535C17.5353 71.77 37.6827 52.8026 37.6827 52.8026C37.6827 52.8026 39.0313 51.6752 41.1546 53.1185C43.0455 54.4037 43.5896 57.3829 38.5007 63.9859C33.5061 70.4668 29.88 76.5473 29.88 76.5473C29.88 76.5473 33.5971 81.3907 35.6378 89.019C38.4978 99.7101 28.2822 112.889 24.2021 113.252C8.99972 114.605 9.5228 101.957 9.5228 101.957Z" fill="#FFD000"/>
<path d="M32.448 57.9915C33.0444 58.6066 33.6408 59.2217 34.2372 59.837C34.3234 59.9257 34.4094 60.0146 34.4957 60.1035C34.566 60.176 34.6853 60.1717 34.7564 60.1035C35.5661 59.3257 36.3664 58.5379 37.1576 57.7412C37.7239 57.1711 38.2875 56.597 38.8288 56.003C39.0572 55.7525 39.3208 55.5006 39.4529 55.1837C39.5987 54.8337 39.5737 54.4416 39.4534 54.0878C39.2619 53.5249 38.8775 52.9959 38.4435 52.5914C38.2701 52.4298 38.0088 52.69 38.1828 52.8521C38.5234 53.1696 38.8205 53.5641 39.0175 53.9855C39.1577 54.2859 39.2416 54.6357 39.1432 54.9611C39.0526 55.2608 38.794 55.4938 38.5888 55.7197C37.559 56.8523 36.4622 57.926 35.3681 58.9959C35.0783 59.2793 34.788 59.5621 34.4957 59.8428H34.7564C34.1599 59.2276 33.5636 58.6125 32.9671 57.9973C32.881 57.9084 32.7948 57.8197 32.7087 57.7308C32.5432 57.5601 32.2827 57.821 32.448 57.9915Z" fill="#020202"/>
<path d="M35.7926 96.7215C35.7918 96.7287 35.7908 96.7359 35.7899 96.7431C35.7812 96.811 35.7957 96.7038 35.7873 96.7628C35.7755 96.845 35.7639 96.9271 35.7511 97.0092C35.7036 97.3157 35.6492 97.6213 35.5902 97.9258C35.3872 98.9726 35.1293 100.009 34.8238 101.031C34.4034 102.437 33.8909 103.817 33.2656 105.144C32.5653 106.631 31.7255 108.063 30.7033 109.353C29.6263 110.712 28.3471 111.917 26.8656 112.825C26.679 112.94 26.4894 113.049 26.2974 113.154C26.0892 113.268 26.275 113.587 26.4835 113.473C28.0328 112.625 29.3951 111.466 30.5418 110.126C31.6457 108.837 32.5602 107.393 33.3188 105.877C34.0003 104.514 34.5619 103.091 35.022 101.64C35.3682 100.547 35.6584 99.4371 35.8878 98.3146C35.9587 97.968 36.0237 97.62 36.0806 97.2709C36.1085 97.0998 36.1542 96.9158 36.1588 96.7419C36.1589 96.7351 36.1605 96.7282 36.1613 96.7215C36.1899 96.4865 35.8209 96.4885 35.7926 96.7215Z" fill="#020202"/>
</g>
</g>
</svg>
