<svg width="88" height="130" viewBox="0 0 88 130" fill="none" xmlns="http://www.w3.org/2000/svg">
<mask id="mask0_3749_731" style="mask-type:alpha" maskUnits="userSpaceOnUse" x="0" y="0" width="88" height="130">
<rect x="0.700195" width="87.2993" height="130" fill="#D9D9D9"/>
</mask>
<g mask="url(#mask0_3749_731)">
<path d="M64.1015 82.2513L59.5469 163.52L42.0014 163.455L35.9702 82.0866" fill="#00345C"/>
<mask id="mask1_3749_731" style="mask-type:luminance" maskUnits="userSpaceOnUse" x="-129" y="-8" width="309" height="174">
<path d="M-128.351 -7.59128H179.094V165.347H-128.351V-7.59128Z" fill="white"/>
</mask>
<g mask="url(#mask1_3749_731)">
<path d="M44.7298 93.9399C44.7964 96.9893 44.8893 100.039 44.9924 103.087C45.1868 108.827 45.4163 114.569 45.8087 120.299C46.183 125.763 46.6784 131.221 47.1019 136.681C47.5325 142.232 47.954 147.783 48.3702 153.335C48.5887 156.247 48.7846 159.162 49.0207 162.073C49.0243 162.116 49.0272 162.159 49.0302 162.202C49.0528 162.507 49.5319 162.51 49.5093 162.202C49.3309 159.78 49.1505 157.359 48.9693 154.937C48.5676 149.566 48.161 144.194 47.7468 138.823C47.3191 133.28 46.856 127.74 46.4259 122.196C45.9815 116.472 45.7452 110.729 45.538 104.992C45.4071 101.366 45.2954 97.7392 45.2128 94.112L45.2089 93.9399C45.2022 93.6321 44.7231 93.631 44.7298 93.9399Z" fill="black"/>
</g>
<mask id="mask2_3749_731" style="mask-type:luminance" maskUnits="userSpaceOnUse" x="-129" y="-8" width="309" height="174">
<path d="M-128.351 -7.59128H179.094V165.347H-128.351V-7.59128Z" fill="white"/>
</mask>
<g mask="url(#mask2_3749_731)">
<path d="M25.3082 77.5473C24.931 77.7188 21.9924 79.8407 21.4195 80.1241C19.257 81.1938 9.46646 85.6389 9.192 85.5715C8.01762 85.2838 8.72411 84.3019 8.96574 84.1454C8.20129 84.4091 7.83764 84.6458 7.07303 84.9095C6.86711 84.9805 6.4362 85.0633 6.24197 84.9501C6.00338 84.8111 5.72603 84.4517 5.80898 84.1637C5.89177 83.8754 6.09321 83.6577 6.29801 83.4679C5.92027 83.679 5.52059 83.8954 5.09785 83.8621C4.67512 83.8288 4.23573 83.4461 4.24806 82.9597C4.26311 82.3677 4.85702 82.0761 5.3515 81.9212C4.92636 81.9891 4.54557 81.0959 4.78352 80.6886C4.86118 80.5557 4.9792 80.4628 5.09561 80.3752C8.11642 78.1062 11.168 76.8301 14.8247 75.1472C14.9209 75.1028 14.9997 74.9831 14.9875 74.8636C14.9768 74.7586 14.8993 74.6628 14.8109 74.6324C12.7835 73.9352 12.0663 73.2843 10.8601 72.2847C10.7797 72.2181 10.6982 72.1461 10.6498 72.0465C10.4998 71.7374 10.7702 71.3502 11.0716 71.3016C11.3731 71.2529 11.6682 71.4197 11.9504 71.5602C14.3439 72.7525 17.0503 72.262 19.6387 72.2044C20.0245 72.1959 20.4251 72.2008 20.7784 72.388C21.1321 72.5752 21.3997 72.9243 21.6533 73.2655C22.9671 75.0325 25.2446 77.5864 25.0771 77.6891" fill="#FFCA0A"/>
<path d="M5.41406 82.0009C6.5239 81.2697 7.65921 80.5788 8.83342 79.9555C9.80748 79.4385 10.8035 78.9644 11.7892 78.4705C11.9372 78.3962 11.8072 78.1744 11.6594 78.2484C10.6736 78.7423 9.67762 79.2164 8.70356 79.7334C7.52934 80.3567 6.39404 81.0476 5.28419 81.7789C5.14664 81.8696 5.27523 82.0923 5.41406 82.0009Z" fill="black"/>
<path d="M6.23527 83.5556C8.02422 82.5857 9.8327 81.6528 11.6274 80.6939C11.7514 80.6276 11.8756 80.5615 11.9988 80.4934C12.0575 80.4611 12.1318 80.4307 12.171 80.3737C12.2042 80.3255 12.1875 80.2579 12.1509 80.2179L12.1506 80.2175C12.0388 80.0952 11.8572 80.2774 11.9688 80.3994L11.9691 80.3998C11.9624 80.3479 11.9557 80.296 11.949 80.2438C12.0012 80.1681 11.9963 80.2063 11.9547 80.2233C11.9204 80.2374 11.8875 80.2613 11.855 80.279C11.7486 80.3375 11.6417 80.3948 11.5345 80.452C11.1759 80.6438 10.8162 80.8339 10.4564 81.0239C9.48395 81.5378 8.51053 82.0504 7.53903 82.5661C7.06041 82.8204 6.58195 83.0752 6.10541 83.3335C5.96001 83.4123 6.08956 83.6345 6.23527 83.5556Z" fill="black"/>
<path d="M8.88486 84.2593C9.44643 83.8175 10.0991 83.5084 10.7491 83.2207C11.4865 82.8942 12.2322 82.5882 12.9505 82.2205C13.0978 82.1449 12.968 81.923 12.8208 81.9984C11.4616 82.6945 9.91577 83.1238 8.70296 84.0774C8.5731 84.1797 8.75612 84.3605 8.88486 84.2593Z" fill="black"/>
<path d="M21.9822 79.3506C21.9822 79.3506 31.6966 76.2167 36.8936 74.1429C37.8101 73.777 41.9027 72.1853 42.653 71.5852C43.6777 70.7661 45.6245 65.3376 46.5353 63.7188C48.6663 59.9311 50.3035 57.0603 51.7411 52.9998C52.0386 52.1599 52.0532 51.3234 51.9912 50.4363C51.9195 49.4117 55.6866 44.0837 55.1576 43.1692C54.4724 41.9845 51.1915 37.6729 49.8734 37.0844C48.2756 36.3709 45.1028 37.9552 43.7885 39.0059C42.4742 40.0565 40.7461 42.3686 38.9847 47.1724C37.7248 50.6086 35.5637 58.0465 34.7198 63.3018C34.5781 64.1854 33.1784 66.0145 30.1139 67.0275C27.5508 67.8747 22.517 70.3372 20.0337 71.4531C19.0336 71.9024 19.0842 71.8673 19.0842 71.8673" fill="white"/>
</g>
<mask id="mask3_3749_731" style="mask-type:luminance" maskUnits="userSpaceOnUse" x="-129" y="-8" width="309" height="174">
<path d="M-128.351 -7.59128H179.094V165.347H-128.351V-7.59128Z" fill="white"/>
</mask>
<g mask="url(#mask3_3749_731)">
<path d="M34.339 88.3254C34.8874 74.4587 37.0727 61.1884 41.2809 48.2586C42.4363 44.7074 43.8408 41.0411 46.4328 38.84C50.379 35.489 55.9092 36.7462 60.3485 38.5638C72.7696 43.6498 71.7849 49.2598 72.8611 55.4766C74.554 65.2537 74.9386 75.8718 74.4284 89.0131C61.2645 89.2232 46.3215 89.2232 34.322 88.2711" fill="#E4FF2E"/>
<path d="M47.1088 37.8014C45.6763 39.1016 46.7927 44.7902 47.0361 46.3778C47.3269 48.2752 47.7642 50.0324 47.9812 53.3604C51.1077 49.4896 54.8644 46.0294 58.0873 38.105C56.16 35.828 51.7278 37.2728 48.1994 36.5871" fill="white"/>
<path d="M75.1428 71.2877L35.1138 71.291L36.0566 65.4625L74.6812 65.4401L75.1428 71.2877Z" fill="white"/>
<path d="M74.8654 79.9014L34.5002 79.8621L35.0103 74.0335L74.4076 74.0538L74.8654 79.9014Z" fill="white"/>
<path d="M47.9123 52.9208C47.4025 55.083 47.0401 57.2615 46.7708 59.4646C46.4877 61.7826 46.2579 64.1071 46.0454 66.4327C45.794 69.1813 45.5722 71.9326 45.3765 74.6857C45.1916 77.2876 45.0284 79.8912 44.9098 82.497C44.8214 84.4352 44.7397 86.3796 44.778 88.3202C44.781 88.4821 44.7857 88.644 44.7916 88.8057C44.797 88.9537 45.0278 88.9545 45.0223 88.8057C44.9556 86.9993 45.0284 85.1854 45.1022 83.3806C45.207 80.8219 45.3607 78.2653 45.5357 75.7106C45.7242 72.9604 45.9399 70.212 46.1831 67.4661C46.3972 65.0503 46.6297 62.6356 46.9107 60.2266C47.1351 58.3025 47.4166 56.401 47.8031 54.5022C47.9066 53.9939 48.0158 53.487 48.1349 52.9821C48.169 52.8377 47.9464 52.776 47.9123 52.9208Z" fill="black"/>
<path d="M50.0871 40.4341C49.7025 40.5879 48.3945 41.819 48.3945 43.6656C48.3945 44.1881 50.1337 44.251 51.0874 44.2041C51.2462 43.6925 51.549 43.3578 51.8032 42.656C51.95 42.2507 51.89 41.2366 51.6259 40.8957C51.4887 40.7183 50.2322 40.2337 50.0871 40.4341Z" fill="#00345C"/>
<path d="M49.0095 43.6657C48.5071 44.2907 47.2408 46.2339 47.0859 46.6664C46.7625 47.5708 47.8105 52.2519 48.0092 53.3604C49.2923 52.1554 51.1727 49.7917 51.1639 49.5903C51.087 47.8206 50.7022 45.2046 50.7793 44.0504" fill="#00345C"/>
<path d="M51.7326 40.8828C52.2534 42.2053 52.5307 43.608 52.549 45.0295C52.5499 45.1123 52.6479 45.1795 52.7226 45.1291C53.6202 44.524 54.5538 43.9749 55.3615 43.2471C55.4723 43.1475 55.3085 42.9847 55.1985 43.0839C54.4052 43.7984 53.4873 44.3357 52.606 44.9297C52.664 44.9629 52.7219 44.9962 52.7797 45.0295C52.7613 43.5887 52.4832 42.1622 51.9552 40.8215C51.9014 40.6847 51.678 40.7443 51.7326 40.8828Z" fill="black"/>
<path d="M49.8625 40.1301C48.4563 40.6406 47.7757 42.0659 47.1546 43.32C47.2073 43.3061 47.2598 43.2925 47.3125 43.2785C47.223 43.24 47.1616 43.0217 47.1272 42.9267C47.0364 42.6763 46.966 42.4182 46.9006 42.1601C46.7506 41.5687 46.6295 40.9684 46.5421 40.3645C46.521 40.2182 46.2984 40.2805 46.3195 40.426C46.4134 41.0749 46.5448 41.721 46.7125 42.3548C46.7797 42.6087 46.8515 42.8637 46.9503 43.1074C46.9991 43.2279 47.0641 43.4209 47.1961 43.4779C47.25 43.5013 47.3237 43.4976 47.354 43.4364C47.9423 42.2488 48.5866 40.838 49.9238 40.3527C50.0624 40.3024 50.0026 40.0794 49.8625 40.1301Z" fill="black"/>
</g>
<mask id="mask4_3749_731" style="mask-type:luminance" maskUnits="userSpaceOnUse" x="-129" y="-8" width="309" height="174">
<path d="M-128.351 -7.59128H179.094V165.347H-128.351V-7.59128Z" fill="white"/>
</mask>
<g mask="url(#mask4_3749_731)">
<path d="M46.2796 31.0988C46.4042 31.2122 46.5861 31.3803 46.7523 31.3815C51.4566 31.4112 55.7688 31.2036 59.152 27.8306C61.7419 25.2487 63.2741 20.6883 63.785 17.1034C63.9633 15.852 63.74 14.5424 63.2649 13.3764C62.4673 11.419 60.6252 10.0656 58.6538 9.45598C56.6828 8.84621 54.5797 8.88944 52.5289 9.06687C50.6742 9.22731 48.6281 9.60634 47.4961 11.1309C46.8137 12.05 46.5882 13.2355 46.396 14.3762C45.6245 18.9519 43.5965 27.4294 46.241 31.1211" fill="#FFCA0A"/>
<path d="M48.8312 28.7807C48.4525 31.4879 48.0737 34.195 47.6946 36.9021C47.649 37.228 47.604 37.5636 47.6953 37.8814C47.7835 38.1881 47.9915 38.4531 48.2029 38.7048C48.825 39.4457 49.5323 40.1538 50.4309 40.6007C51.3297 41.0478 52.452 41.2012 53.384 40.8147C54.6363 40.2952 56.6957 38.4091 57.1311 37.2199C58.3648 33.851 58.7644 29.2749 59.8533 26.3055C59.9995 25.9071 58.5894 26.545 58.2024 26.3088C57.8791 26.1116 57.4466 26.231 57.0823 26.3561C55.1161 27.0315 53.1499 27.7069 51.1835 28.3823C50.2323 28.7092 49.1481 29.1702 48.9366 30.076" fill="#FFCA0A"/>
<path d="M52.9341 15.7921L52.667 15.6807C52.667 15.6807 59.098 16.6205 59.3118 16.8355C59.5254 17.0504 60.6548 19.4837 60.7324 19.885C60.8103 20.2863 59.6228 23.9779 59.6228 23.9779L60.4316 25.0313L61.3339 21.9716L62.1894 22.2927L59.6228 27.3486L62.3116 27.5615C62.3116 27.5615 63.8436 25.8584 64.2713 24.1958C64.6991 22.5334 65.0978 20.0858 65.0978 20.0858L64.2713 15.6807C64.2713 15.6807 65.0101 7.52619 59.8769 7.04468C54.7437 6.56318 50.7932 6.29752 50.1629 6.51065C49.5326 6.72362 45.9341 12.5821 45.9341 12.5821" fill="black"/>
<path d="M61.3575 21.9558C61.0592 23.1438 60.3761 24.1944 60.0864 25.3848C60.6195 25.4128 61.1606 25.5904 61.677 25.4487C62.2246 25.2985 62.6432 24.8003 62.8417 24.2413C62.9919 23.8183 63.0313 23.3395 62.8847 22.915C62.738 22.4905 62.3871 22.1341 61.9642 22.0617C61.896 22.05 61.7987 21.973 61.8614 22.0031" fill="#FFCA0A"/>
<path d="M46.1276 32.2009C48.472 32.5256 51.9377 32.4569 54.1356 31.6124C55.4951 31.0901 59.4049 26.4177 60.2606 24.7323L59.7514 23.6295L54.7458 29.1442L52.7321 24.9477C52.7321 24.9477 51.0629 23.9564 49.1502 23.7293C47.2376 23.5022 45.3792 23.9917 44.9044 24.3082C44.6498 24.4779 44.8195 25.9202 45.1575 28.3464C45.3145 29.4726 46.1276 32.2009 46.1276 32.2009Z" fill="black"/>
<path d="M61.7287 22.9097C61.7723 22.917 61.816 22.927 61.8572 22.9442C61.8123 22.9256 61.8764 22.9563 61.8797 22.9583C61.8991 22.9693 61.9179 22.9816 61.9361 22.9943C61.8994 22.969 61.954 23.0105 61.9572 23.0135C61.9739 23.029 61.989 23.0457 62.005 23.0619C62.0503 23.108 61.9878 23.0305 62.0239 23.0846C62.0365 23.1035 62.0492 23.1226 62.0605 23.1424C62.0719 23.1623 62.0826 23.1828 62.0919 23.2036C62.0753 23.1661 62.0978 23.2233 62.1004 23.2319C62.1073 23.2539 62.1119 23.2763 62.118 23.2985C62.1283 23.3373 62.1193 23.2936 62.1217 23.319C62.1262 23.3685 62.126 23.4183 62.1212 23.4676C62.1195 23.4849 62.1198 23.4841 62.1219 23.4654C62.1198 23.4776 62.1174 23.4899 62.1147 23.5019C62.1094 23.5262 62.1031 23.5503 62.0959 23.5741C62.0511 23.721 61.9449 23.8595 61.8064 23.9431C61.7143 23.9988 61.665 24.0172 61.5539 24.0417C61.5287 24.0473 61.5034 24.0526 61.4778 24.0558C61.5102 24.0518 61.4628 24.0561 61.4519 24.0567C61.3962 24.0604 61.3406 24.0595 61.2849 24.0553C61.1552 24.046 61.0447 24.1725 61.0447 24.2955C61.0447 24.4334 61.1548 24.5264 61.2849 24.5357C61.852 24.5768 62.4117 24.2393 62.5661 23.6779C62.6386 23.4145 62.6094 23.1266 62.4695 22.8901C62.3385 22.6689 62.1137 22.4894 61.8564 22.4465C61.7286 22.4252 61.5979 22.48 61.5609 22.6143C61.5294 22.7293 61.6 22.8883 61.7287 22.9097Z" fill="black"/>
<path d="M46.0082 12.2616C45.0749 12.2616 44.9818 12.1758 44.3165 12.5904C43.6512 13.0049 43.6944 13.1859 43.9083 13.947C53.2318 15.9385 57.9435 16.4853 67.0079 20.8486C68.1976 20.6429 68.8556 19.8536 66.9283 18.578C66.8305 12.3098 69.5392 5.60976 62.2636 3.27333C60.0607 2.56589 57.908 1.7486 54.2524 2.71161C51.6399 3.39983 48.8971 5.39839 47.7764 7.00623C46.6305 8.65026 46.4749 9.8541 45.8838 12.2386" fill="white"/>
<path d="M50.2548 10.7592C51.0987 7.91867 52.9448 5.38657 55.4047 3.73021C56.092 3.26728 56.8255 2.87032 57.5935 2.55871C57.8763 2.44406 57.7527 1.97905 57.4657 2.09562C54.6122 3.25335 52.239 5.45494 50.7978 8.17103C50.3818 8.95502 50.0444 9.78079 49.7916 10.6316C49.7035 10.9284 50.1669 11.0554 50.2548 10.7592Z" fill="black"/>
<path d="M49.9689 10.9316C51.4905 11.2626 52.9808 11.7212 54.4256 12.3016C54.525 12.3417 54.6447 12.2741 54.6967 12.1911C55.6368 10.6975 56.5681 9.19755 57.5183 7.71045C58.3377 6.42814 59.2382 5.23583 60.5519 4.42799C61.1928 4.03391 61.9286 3.67635 62.6919 3.63423C62.9993 3.6171 63.0014 3.13672 62.6919 3.15385C61.9784 3.19324 61.2956 3.46546 60.6733 3.80285C60.0464 4.1428 59.4517 4.5681 58.9425 5.0685C57.7231 6.26705 56.8796 7.82125 55.9763 9.25664C55.4115 10.154 54.8467 11.0514 54.2821 11.9487C54.3724 11.912 54.4628 11.8752 54.5532 11.8384C53.1084 11.2579 51.6181 10.7993 50.0966 10.4683C49.7952 10.4028 49.6664 10.8658 49.9689 10.9316Z" fill="black"/>
<path d="M60.6254 7.50331C61.2228 6.79923 61.8944 6.1552 62.6363 5.6042C62.9426 5.37682 63.2593 5.15984 63.5863 4.96289C63.8704 4.79187 64.2147 4.57506 64.5594 4.59683C64.8681 4.61637 64.867 4.13583 64.5594 4.11645C64.1846 4.09275 63.8118 4.28154 63.4944 4.46025C63.1322 4.66409 62.7854 4.90204 62.4504 5.14751C61.6521 5.73294 60.9263 6.40884 60.2856 7.16352C60.0867 7.39795 60.4249 7.7395 60.6254 7.50331Z" fill="black"/>
<path d="M45.8281 12.4531C48.5936 13.3832 51.4223 14.1084 54.2409 14.8559C57.0293 15.5955 59.8029 16.3705 62.5257 17.3279C63.9928 17.8438 65.4623 18.3418 66.9765 18.7034C67.277 18.7752 67.4053 18.3121 67.1041 18.2402C64.4045 17.5955 61.832 16.5222 59.176 15.7274C56.3432 14.8797 53.4708 14.1737 50.6199 13.3905C49.0543 12.9606 47.4947 12.5074 45.9559 11.9899C45.6622 11.8913 45.5362 12.355 45.8281 12.4531Z" fill="black"/>
<path d="M52.6528 4.26571C52.7998 4.10863 52.9463 3.95074 53.0989 3.79894C53.1609 3.73745 53.2238 3.67692 53.289 3.6188C53.3167 3.59398 53.3449 3.56964 53.3735 3.54578C53.3876 3.53409 53.4019 3.52256 53.416 3.51119C53.4252 3.5035 53.4349 3.49614 53.4443 3.48861C53.4219 3.50591 53.4176 3.50927 53.4315 3.4987C53.7332 3.27404 54.075 3.11439 54.4161 2.95907C54.5341 2.90527 54.5631 2.73441 54.5023 2.63049C54.4312 2.50911 54.2922 2.49038 54.1737 2.54434C53.8276 2.70174 53.4787 2.86347 53.1746 3.09486C52.8558 3.33745 52.5862 3.63449 52.3132 3.92608C52.2244 4.02072 52.2192 4.17188 52.3132 4.26571C52.4027 4.35538 52.5638 4.36067 52.6528 4.26571Z" fill="black"/>
<path d="M50.6656 17.7413C49.9271 19.3224 49.2281 20.9216 48.5682 22.5372C48.5234 22.647 48.6182 22.8159 48.736 22.8326C49.1119 22.8854 49.4886 23.0446 49.8489 23.1581C50.2092 23.2717 50.5862 23.4308 50.962 23.4837C51.0914 23.5019 51.2183 23.4521 51.2572 23.3159C51.2894 23.2038 51.2179 23.0387 51.0896 23.0206C50.7139 22.9676 50.3368 22.8086 49.9767 22.695C49.6164 22.5814 49.2396 22.4223 48.8638 22.3693C48.9197 22.4678 48.9756 22.5663 49.0316 22.6649C49.6757 21.0877 50.3594 19.5272 51.0805 17.9838C51.2103 17.7053 50.7964 17.4611 50.6656 17.7413Z" fill="black"/>
</g>
<mask id="mask5_3749_731" style="mask-type:luminance" maskUnits="userSpaceOnUse" x="-129" y="-8" width="309" height="174">
<path d="M-128.351 -7.59128H179.094V165.347H-128.351V-7.59128Z" fill="white"/>
</mask>
<g mask="url(#mask5_3749_731)">
<path d="M80.9206 116.926C76.1336 116.707 71.3211 117.447 66.5147 117.579C59.7362 117.765 53.0448 116.739 46.498 115.462C46.0876 115.382 45.1241 114.508 45.0852 114.231C44.7574 111.905 44.9074 101.455 45.819 93.0011C49.1081 92.92 52.325 93.5834 55.5992 93.7484C57.667 93.8524 59.7489 93.7573 61.826 93.7135C67.2331 93.5994 72.6361 93.8342 77.9709 94.4145C78.5485 94.4774 79.1727 94.5644 79.5573 94.9221C79.8625 95.206 79.9554 95.6067 80.0327 95.9876C80.7117 99.3341 81.0671 102.736 81.0945 106.149C81.1054 107.532 81.063 108.916 81.0202 110.3C80.9543 112.442 80.8881 114.585 80.8222 116.727" fill="#EA4D28"/>
<path d="M65.9291 110.688C64.781 111.362 64.5567 112.566 63.4084 113.24C62.9312 113.52 62.023 114.309 61.7684 114.801C61.5138 115.292 61.6497 116.029 62.1668 116.225C62.4843 116.347 63.4241 115.75 63.7456 115.64C65.075 115.184 64.9419 115.191 67.1426 114.273C67.7315 117.037 67.6957 119.903 68.6591 120.066C69.4876 120.207 69.9691 119.901 70.1085 119.073C69.9844 119.484 70.586 120.566 71.4559 120.481C72.2237 120.405 72.5579 119.425 72.593 118.905C72.6337 119.474 72.9061 120.338 74.0836 120.05C74.7498 119.887 74.5498 118.718 74.8711 118.423C74.9496 118.914 75.3209 119.326 75.8164 119.277C76.8401 119.176 76.9901 118.068 76.9786 117.957C76.6633 114.912 76.2534 114.327 75.9381 111.282C72.9362 110.366 69.7128 110.186 66.6274 110.761" fill="#FFCA0A"/>
</g>
<mask id="mask6_3749_731" style="mask-type:luminance" maskUnits="userSpaceOnUse" x="-129" y="-8" width="309" height="174">
<path d="M-128.351 -7.59128H179.094V165.347H-128.351V-7.59128Z" fill="white"/>
</mask>
<g mask="url(#mask6_3749_731)">
<path d="M63.6419 80.2365C63.0661 81.9667 63.4973 84.3606 63.541 86.1836C63.7333 94.1857 64.2742 102.179 65.1614 110.134C65.1778 110.281 65.1988 110.438 65.2967 110.549C65.4102 110.678 65.595 110.709 65.7647 110.732C69.2614 111.205 72.7903 111.439 76.3189 111.431C76.6441 111.431 77.0137 111.408 77.2209 111.157C77.3877 110.956 77.3927 110.67 77.3889 110.408C77.3029 104.731 76.7692 99.0715 76.2359 93.4193C76.0817 91.7828 75.9274 90.1465 75.773 88.5101C75.4513 85.1005 76.3618 75.8797 70.3703 74.7148C64.6057 73.5939 63.909 78.4254 63.5385 80.9356" fill="white"/>
</g>
<mask id="mask7_3749_731" style="mask-type:luminance" maskUnits="userSpaceOnUse" x="-129" y="-8" width="309" height="174">
<path d="M-128.351 -7.59128H179.094V165.347H-128.351V-7.59128Z" fill="white"/>
</mask>
<g mask="url(#mask7_3749_731)">
<path d="M61.5612 74.8744C61.035 65.0613 60.5607 63.5204 61.345 53.7359C61.6096 50.4378 61.9785 47.0346 63.3324 44.217C63.966 42.8985 64.9903 41.6445 66.1868 41.7879C66.6555 41.8439 67.0928 42.1129 67.5005 42.4168C72.0725 45.8236 73.6119 53.298 74.3439 60.0488C75.0537 66.5944 75.3503 72.2683 75.3322 78.8776C75.3295 79.8558 75.1721 84.3219 68.767 84.1618C64.3394 84.0512 63.3226 84.1618 61.5612 74.8744Z" fill="white"/>
</g>
<mask id="mask8_3749_731" style="mask-type:luminance" maskUnits="userSpaceOnUse" x="-129" y="-8" width="309" height="174">
<path d="M-128.351 -7.59128H179.094V165.347H-128.351V-7.59128Z" fill="white"/>
</mask>
<g mask="url(#mask8_3749_731)">
<path d="M46.6188 25.3489C47.6182 25.5405 48.1599 26.1561 50.5619 25.9276C50.8867 25.8967 51.0904 26.4126 51.0941 26.8433C51.0989 27.3633 50.4228 27.7887 49.9937 27.8842C48.5892 28.1967 47.6191 27.7806 47.124 27.3479C46.3834 26.7008 46.3304 25.651 46.5453 25.3564" fill="white"/>
</g>
<mask id="mask9_3749_731" style="mask-type:luminance" maskUnits="userSpaceOnUse" x="-129" y="-8" width="309" height="174">
<path d="M-128.351 -7.59128H179.094V165.347H-128.351V-7.59128Z" fill="white"/>
</mask>
<g mask="url(#mask9_3749_731)">
<path d="M46.855 17.903C46.855 18.3012 47.1398 18.624 47.4913 18.624C47.8428 18.624 48.1275 18.3012 48.1275 17.903C48.1275 17.5047 47.8428 17.1818 47.4913 17.1818C47.1398 17.1818 46.855 17.5047 46.855 17.903Z" fill="black"/>
</g>
<mask id="mask10_3749_731" style="mask-type:luminance" maskUnits="userSpaceOnUse" x="-129" y="-8" width="309" height="174">
<path d="M-128.351 -7.59128H179.094V165.347H-128.351V-7.59128Z" fill="white"/>
</mask>
<g mask="url(#mask10_3749_731)">
<path d="M53.2633 16.5526C53.3829 16.1728 54.6755 16.2415 56.1502 16.706C57.6252 17.1705 58.7238 17.8551 58.604 18.2351C58.4843 18.6149 57.1917 18.5462 55.7169 18.0817C54.2422 17.617 53.1437 16.9326 53.2633 16.5526Z" fill="black"/>
</g>
<mask id="mask11_3749_731" style="mask-type:luminance" maskUnits="userSpaceOnUse" x="-129" y="-8" width="309" height="174">
<path d="M-128.351 -7.59128H179.094V165.347H-128.351V-7.59128Z" fill="white"/>
</mask>
<g mask="url(#mask11_3749_731)">
<path d="M53.9822 19.9392C53.9822 20.3843 54.3052 20.7451 54.7034 20.7451C55.1016 20.7451 55.4244 20.3843 55.4244 19.9392C55.4244 19.494 55.1016 19.1331 54.7034 19.1331C54.3052 19.1331 53.9822 19.494 53.9822 19.9392Z" fill="black"/>
</g>
<mask id="mask12_3749_731" style="mask-type:luminance" maskUnits="userSpaceOnUse" x="-129" y="-8" width="309" height="174">
<path d="M-128.351 -7.59128H179.094V165.347H-128.351V-7.59128Z" fill="white"/>
</mask>
<g mask="url(#mask12_3749_731)">
<path d="M44.969 14.7544C45.0535 14.3651 46.3469 14.3156 47.858 14.6439C49.3691 14.9722 50.5254 15.5537 50.4408 15.9429C50.3563 16.3321 49.0628 16.3816 47.5518 16.0533C46.0407 15.7251 44.8844 15.1435 44.969 14.7544Z" fill="black"/>
</g>
</g>
</svg>
