<svg width="20" height="20" viewBox="0 0 20 20" xmlns="http://www.w3.org/2000/svg">
<path  clip-rule="evenodd" d="M3.96243 9.16592C7.72052 7.47245 10.2265 6.356 11.4804 5.81659C15.0604 4.27646 15.8043 4.00893 16.2892 4.00009C16.3959 3.99815 16.6343 4.02549 16.7887 4.15511C16.9192 4.26457 16.955 4.41242 16.9722 4.5162C16.9894 4.61997 17.0108 4.85637 16.9938 5.04108C16.7998 7.1494 15.9603 12.2657 15.5332 14.6271C15.3525 15.6263 14.9967 15.9613 14.6522 15.9941C13.9036 16.0653 13.3351 15.4823 12.6101 14.9908C11.4755 14.2215 10.8345 13.7426 9.73315 12.992C8.46037 12.1245 9.28546 11.6477 10.0108 10.8685C10.2006 10.6646 13.4991 7.56151 13.5629 7.28001C13.5709 7.2448 13.5783 7.11357 13.503 7.04428C13.4276 6.97498 13.3163 6.99868 13.236 7.01753C13.1223 7.04424 11.3097 8.28334 7.79841 10.7348C7.28392 11.1002 6.81791 11.2783 6.40039 11.2689C5.9401 11.2586 5.05469 10.9998 4.39648 10.7785C3.58916 10.507 2.94752 10.3635 3.00339 9.90257C3.03249 9.66247 3.35217 9.41692 3.96243 9.16592Z"/>
</svg>
