<svg width="98" height="127" viewBox="0 0 98 127" fill="none" xmlns="http://www.w3.org/2000/svg">
<mask id="mask0_3749_387" style="mask-type:alpha" maskUnits="userSpaceOnUse" x="0" y="0" width="98" height="127">
<rect width="98" height="127" fill="#D9D9D9"/>
</mask>
<g mask="url(#mask0_3749_387)">
<path d="M14.3754 73.2082L18.6693 145.492L35.2105 145.435L40.8966 73.0617" fill="#00345C"/>
<mask id="mask1_3749_387" style="mask-type:luminance" maskUnits="userSpaceOnUse" x="-22" y="-8" width="276" height="155">
<path d="M-22 -8H253.556V147H-22V-8Z" fill="white"/>
</mask>
<g mask="url(#mask1_3749_387)">
<path d="M32.1957 83.6045C32.133 86.3169 32.0454 89.0291 31.9481 91.7403C31.7646 96.859 31.5476 101.979 31.1757 107.088C30.8215 111.956 30.3542 116.817 29.9544 121.682C29.5512 126.585 29.1568 131.488 28.7669 136.391C28.6272 138.147 28.4883 139.904 28.3501 141.66C28.2834 142.507 28.1945 143.357 28.1503 144.206C28.1483 144.244 28.1443 144.282 28.1413 144.32C28.1195 144.601 28.5582 144.6 28.58 144.32C28.7475 142.173 28.9172 140.026 29.0874 137.88C29.4664 133.1 29.8497 128.32 30.2405 123.541C30.644 118.606 31.081 113.673 31.487 108.737C31.9035 103.673 32.1262 98.5909 32.321 93.5135C32.4457 90.2623 32.552 87.0102 32.6307 83.7575C32.632 83.7066 32.6331 83.6555 32.6343 83.6045C32.6409 83.3221 32.2021 83.3222 32.1957 83.6045Z" fill="black"/>
</g>
<mask id="mask2_3749_387" style="mask-type:luminance" maskUnits="userSpaceOnUse" x="-22" y="-8" width="276" height="155">
<path d="M-22 -8H253.556V147H-22V-8Z" fill="white"/>
</mask>
<g mask="url(#mask2_3749_387)">
<path d="M13.4609 38.3033C16.9034 34.9569 20.0701 33.6536 24.6221 32.9897C29.1739 32.3259 33.9001 33.1876 38.0148 35.4318C38.8881 35.9081 39.2488 36.4492 39.9869 37.1497C41.5769 38.6588 42.716 40.8347 43.2185 43.079C43.7211 45.3235 44.2785 47.6554 44.3081 49.9667C44.4177 58.5614 43.8884 67.1634 43.0504 75.7092C35.5849 74.9397 28.0748 76.2718 20.5771 76.1696C17.1274 76.1227 13.6455 75.7744 10.2487 76.4392C9.54961 76.5759 8.82829 76.7551 8.13897 76.5676C7.19691 76.3113 6.49324 75.3942 6.16587 74.388C5.83851 73.3818 5.82832 72.2879 5.84927 71.2194C5.95332 65.9167 6.72861 60.6609 7.50218 55.4258C8.40921 49.2868 9.50641 42.7216 13.4872 38.3096" fill="#EA4D28"/>
<path d="M43.5907 71.2451H6.3385V66.906L43.8363 66.9878L43.5907 71.2451Z" fill="white"/>
<path d="M43.9238 64.4492H7.15698V60.1099H44.1637L43.9238 64.4492Z" fill="white"/>
<path d="M30.4493 34.7113C30.4343 37.4014 30.5154 40.091 30.6545 42.7773C30.7963 45.5185 30.9975 48.2565 31.2181 50.9923C31.441 53.7574 31.6837 56.5208 31.9087 59.2859C32.1292 61.9942 32.3576 64.7063 32.4786 67.4213C32.5883 69.8844 32.5986 72.4067 32.0644 74.8263C32.0014 75.1113 31.9297 75.3945 31.8496 75.6752C31.7737 75.9422 32.189 76.0561 32.2648 75.7898C32.9402 73.4183 33.0122 70.8999 32.9462 68.4504C32.8743 65.7809 32.6442 63.1131 32.433 60.4519C32.211 57.6545 31.9658 54.8589 31.7358 52.0621C31.5103 49.3209 31.2993 46.5783 31.1426 43.8322C30.9882 41.1289 30.8863 38.4218 30.8784 35.7138C30.8774 35.3797 30.878 35.0456 30.8798 34.7113C30.8814 34.4342 30.4508 34.4339 30.4493 34.7113Z" fill="black"/>
</g>
<mask id="mask3_3749_387" style="mask-type:luminance" maskUnits="userSpaceOnUse" x="-22" y="-8" width="276" height="155">
<path d="M-22 -8H253.556V147H-22V-8Z" fill="white"/>
</mask>
<g mask="url(#mask3_3749_387)">
<path d="M24.0872 18.6885C24.2191 20.3356 24.356 22.0059 24.9191 23.5595C25.4821 25.1131 26.5335 26.5625 28.0424 27.236C29.0301 27.6767 29.6575 28.1864 30.7364 28.2613C31.7909 28.3345 33.0388 28.3518 34.0932 28.425C34.7815 28.4728 35.7847 28.1429 36.4186 27.8705C37.5996 27.3629 38.084 25.9707 38.3795 24.7195C39.2477 21.0424 39.5653 17.0368 37.9936 13.601C36.4219 10.165 32.4809 7.60208 28.8497 8.64589C26.3976 9.35071 24.5623 11.5408 23.782 13.97C23.0015 16.399 23.1498 19.0375 23.6452 21.5403C23.8902 22.7779 24.2286 24.0238 24.9226 25.0773C26.0638 26.8093 28.0614 27.8312 30.0971 28.2287" fill="#FFCA0A"/>
<path d="M25.0919 24.5424C25.4566 27.2874 25.8211 30.0323 26.1858 32.7772C26.235 33.1485 26.4638 33.3974 26.7763 33.6037C28.8537 34.9754 30.5729 34.4841 32.9043 33.5814C33.6682 30.9408 34.4399 28.6331 34.1855 25.8961C32.6262 26.2026 30.9947 26.1355 29.4659 25.7016C28.2241 25.3491 26.8569 25.4579 25.6865 26.0023C25.6031 26.041 25.5044 26.1091 25.5258 26.1986C25.5473 26.288 25.7224 26.1869 25.6364 26.154" fill="#FFCA0A"/>
<path d="M25.2508 26.8702C24.0127 27.3184 22.2533 24.2907 21.6705 23.11C21.1885 22.1335 21.0519 20.9907 21.2903 19.928C21.4922 19.0277 21.9538 18.1771 21.9706 17.2544C21.9838 16.5226 21.7147 15.8187 21.5899 15.0975C21.1621 12.6251 22.5452 10.0574 24.6328 8.66542C26.7204 7.27372 29.3801 6.93904 31.8642 7.29281C33.0432 7.46058 34.21 7.77733 35.2647 8.33031C37.6333 9.5726 39.2892 11.9806 39.8762 14.5902C39.9531 14.9319 40.0107 15.3019 39.8705 15.6228C39.6288 16.1759 38.9286 16.3396 38.3258 16.3692C36.6303 16.452 34.9548 16.0421 33.2699 15.8355C31.5852 15.6287 29.78 15.6492 28.3147 16.5061C27.7317 16.8471 27.182 17.3971 27.1796 18.0725C27.1787 18.3572 27.2753 18.6514 27.1806 18.9198C26.9166 19.6683 25.7853 19.2987 25.0199 19.5082C23.8629 19.8251 23.8204 21.6342 24.709 22.4398C25.5977 23.2455 25.2797 23.1573 26.4789 23.1859C25.8494 24.6677 26.6907 27.5902 25.2508 26.8702Z" fill="black"/>
<path d="M35.6117 19.2829C35.5824 19.6715 35.5531 20.06 35.5238 20.4485C35.4957 20.8222 35.436 21.2076 35.4928 21.5807C35.5205 21.7626 35.5719 21.939 35.6207 22.1158C35.6448 22.2029 35.6689 22.29 35.6931 22.377C35.707 22.4275 35.7133 22.4937 35.7381 22.5402C35.7441 22.562 35.7502 22.5838 35.7562 22.6055C35.767 22.5736 35.7777 22.5416 35.7885 22.5096C35.7769 22.4988 35.5719 22.5782 35.5449 22.5852C35.4627 22.6065 35.3792 22.6243 35.2952 22.637C35.1039 22.6659 34.9094 22.6662 34.7168 22.652C34.4404 22.6316 34.4417 23.0623 34.7168 23.0825C35.1263 23.1128 35.5484 23.0611 35.9327 22.9134C36.0816 22.8563 36.1977 22.7632 36.1879 22.5877C36.1767 22.3834 36.0813 22.1653 36.027 21.9687C35.9686 21.7577 35.9045 21.5466 35.8996 21.326C35.895 21.116 35.92 20.9049 35.9357 20.6958C35.9712 20.2248 36.0068 19.7539 36.0422 19.2829C36.0632 19.0064 35.6325 19.0079 35.6117 19.2829Z" fill="black"/>
<path d="M26.7531 20.3992C26.4466 20.2286 26.0879 20.0661 25.7322 20.1801C25.4294 20.2771 25.2137 20.5252 25.1 20.8151C24.8642 21.4169 25.1828 22.15 25.7435 22.4435C26.0741 22.6163 26.4624 22.6565 26.8209 22.5528C27.0866 22.4761 26.9736 22.0604 26.7064 22.1376C26.1455 22.2998 25.5392 21.9528 25.4607 21.3576C25.4274 21.106 25.5082 20.8227 25.7169 20.6644C25.9723 20.4705 26.2886 20.6333 26.5358 20.7709C26.778 20.906 26.9953 20.5343 26.7531 20.3992Z" fill="black"/>
<path d="M26.6522 25.3687C28.272 26.6918 30.1341 27.7008 32.1312 28.3251C32.706 28.5048 33.2905 28.6507 33.8818 28.765C34.1525 28.8174 34.2685 28.4024 33.9962 28.3498C31.4238 27.8525 28.9871 26.7227 26.9568 25.0643C26.7438 24.8904 26.4374 25.1934 26.6522 25.3687Z" fill="black"/>
<path d="M20.83 19.092C20.6809 18.9376 18.3738 22.3669 19.6839 21.7937C20.5717 21.4054 20.3111 21.649 21.0919 21.1365C24.3947 18.9684 28.1697 17.7956 31.9757 17.2506C35.7816 16.7058 39.7427 17.1271 40.4877 17.2308C42.6082 17.2908 42.5448 16.8156 42.8539 16.6358C42.6092 16.4901 40.8059 15.5534 40.5614 15.4077C40.4766 14.0596 39.9847 12.8052 39.579 11.5597C37.8733 6.325 32.0466 5.99233 29.3448 6.07413C29.202 6.07844 27.5437 6.07413 23.5319 8.2028C22.8961 8.54021 21.1841 10.252 20.6663 12.2147C19.9769 14.8273 19.6474 16.1196 20.83 19.092Z" fill="#EA4D28" stroke="#EA4D28" stroke-width="0.0818055" stroke-miterlimit="10"/>
<path d="M21.0633 19.21C21.9458 18.4433 22.9627 17.8539 24.0103 17.3438C25.1032 16.8115 26.2287 16.338 27.3588 15.891C29.6977 14.9654 32.1392 14.2131 34.6614 14.0403C36.0718 13.9436 37.4925 14.0271 38.8701 14.3535C39.1395 14.4172 39.2545 14.0021 38.9846 13.9383C36.4626 13.3408 33.8273 13.53 31.3268 14.1406C28.867 14.7413 26.4829 15.7127 24.1923 16.7818C22.9683 17.353 21.7827 18.0161 20.7589 18.9054C20.5494 19.0876 20.8549 19.3911 21.0633 19.21Z" fill="black"/>
<path d="M23.996 8.37701C24.6163 8.51278 25.1975 8.7704 25.7156 9.13737C25.9658 9.31462 26.1965 9.51913 26.4065 9.7423C26.5133 9.85583 26.6155 9.97409 26.7095 10.0984C26.7574 10.1615 26.8032 10.2262 26.8475 10.292C26.8642 10.3165 26.9839 10.4702 26.9705 10.4988C26.8537 10.7482 27.2247 10.9671 27.3422 10.7161C27.5178 10.3413 27.1547 9.96246 26.9303 9.68791C26.6943 9.39901 26.4243 9.14067 26.1297 8.91219C25.5355 8.45164 24.8455 8.1227 24.1105 7.96181C23.8404 7.90283 23.725 8.31774 23.996 8.37701Z" fill="black"/>
<path d="M26.2594 7.31209C27.4415 7.65883 28.6289 8.14033 29.5391 8.99585C29.9549 9.38679 30.3046 9.84462 30.5486 10.3619C30.667 10.6129 30.7544 10.8792 30.811 11.1509C30.8585 11.379 30.8888 11.6448 31.1098 11.7769C31.3614 11.9274 31.7538 11.7933 32.0223 11.7554C32.37 11.7063 32.7178 11.6573 33.0654 11.6083C33.4131 11.5592 33.7609 11.5101 34.1085 11.4612C34.4037 11.4196 34.7857 11.4272 35.0066 11.195C35.3683 10.8148 35.0903 10.2348 34.9202 9.83356C34.7328 9.39153 34.5237 8.95853 34.2788 8.54534C33.6854 7.54416 32.8692 6.64717 31.7868 6.17485C31.5353 6.06505 31.3157 6.43591 31.5695 6.54656C32.462 6.93607 33.1631 7.62008 33.6957 8.42507C33.9463 8.80353 34.1626 9.20395 34.3547 9.6147C34.445 9.80787 34.53 10.0032 34.6099 10.2007C34.6822 10.3794 34.8065 10.6358 34.7336 10.8314C34.6922 10.9431 34.5769 10.96 34.47 10.9786C34.3009 11.0078 34.1293 11.0269 33.9593 11.0509C33.6347 11.0967 33.3102 11.1425 32.9857 11.1882L32.0121 11.3254C31.8614 11.3467 31.7107 11.3681 31.5601 11.3893C31.4171 11.4093 31.3295 11.4536 31.2806 11.3018C31.2048 11.0665 31.1817 10.8172 31.0997 10.5813C31.0146 10.3365 30.907 10.0984 30.7797 9.87274C30.5231 9.41836 30.1858 9.00604 29.8023 8.65312C28.8421 7.76934 27.6109 7.25985 26.3738 6.89689C26.1074 6.81867 25.9936 7.23416 26.2594 7.31209Z" fill="black"/>
</g>
<mask id="mask4_3749_387" style="mask-type:luminance" maskUnits="userSpaceOnUse" x="-22" y="-8" width="276" height="155">
<path d="M-22 -8H253.556V147H-22V-8Z" fill="white"/>
</mask>
<g mask="url(#mask4_3749_387)">
<path d="M10.074 82.8787C7.44402 83.0104 5.20499 80.9854 5.0731 78.3553L4.2727 62.3907C4.1408 59.7607 6.16599 57.5218 8.79597 57.3899C11.4261 57.258 13.665 59.2832 13.7969 61.9132L14.5973 77.8778C14.7292 80.5078 12.704 82.7468 10.074 82.8787Z" fill="#00345C"/>
</g>
<mask id="mask5_3749_387" style="mask-type:luminance" maskUnits="userSpaceOnUse" x="-22" y="-8" width="276" height="155">
<path d="M-22 -8H253.556V147H-22V-8Z" fill="white"/>
</mask>
<g mask="url(#mask5_3749_387)">
<path d="M8.82124 65.2578L7.87631 64.9747C5.42014 64.2392 4.02514 61.6519 4.76067 59.1957L10.2564 40.8421C10.992 38.3858 13.5795 36.9909 16.0356 37.7263L16.9806 38.0093C19.4367 38.7449 20.8317 41.3322 20.0962 43.7885L14.6004 62.1421C13.8649 64.5983 11.2774 65.9933 8.82124 65.2578Z" fill="#00345C"/>
</g>
<mask id="mask6_3749_387" style="mask-type:luminance" maskUnits="userSpaceOnUse" x="-22" y="-8" width="276" height="155">
<path d="M-22 -8H253.556V147H-22V-8Z" fill="white"/>
</mask>
<g mask="url(#mask6_3749_387)">
<path d="M7.60529 80.2111C6.88784 81.7752 7.45072 83.3615 7.48603 83.9241C7.6195 86.0468 8.51951 95.4878 8.68728 95.6705C9.40516 96.4519 9.83141 95.4878 9.84389 95.2349C9.97608 95.9364 9.95641 96.3177 10.0886 97.0194C10.1242 97.2084 10.2478 97.5755 10.4152 97.6767C10.6209 97.8012 11.007 97.8609 11.1854 97.674C11.3639 97.4868 11.4392 97.2386 11.4923 96.9997C11.4977 97.3811 11.5083 97.7813 11.7145 98.0926C11.9208 98.4039 12.3936 98.5787 12.7497 98.3612C13.1831 98.0964 13.145 97.5143 13.0477 97.0672C13.1797 97.4238 14.0068 97.335 14.2073 96.9775C14.2727 96.861 14.291 96.7304 14.306 96.6032C14.6953 93.3064 14.3334 90.4105 14.0144 86.8747C14.0059 86.7817 14.0612 86.6697 14.1552 86.6281C14.2377 86.5914 14.3817 86.5608 14.4422 86.6157C15.8305 87.8791 17.3125 89.1123 18.5727 89.6137C18.6568 89.6471 18.7484 89.6493 18.8399 89.6738C19.4283 89.8303 19.4639 89.0858 19.3708 88.8328C19.2775 88.5799 18.0675 87.7817 17.9129 87.5544C16.4693 85.4307 14.915 82.4272 13.8468 80.4091C13.6875 80.1083 12.9162 77.489 9.95713 78.2402C7.96753 78.745 7.61749 80.0221 7.61304 80.195" fill="#FFCA0A"/>
<path d="M13.1835 97.0545C13.2505 95.886 13.2764 94.7162 13.2355 93.5465C13.2015 92.5747 13.1264 91.6053 13.0701 90.6349C13.0618 90.4919 12.8382 90.491 12.8465 90.6349C12.9028 91.6053 12.978 92.5747 13.012 93.5465C13.0529 94.7162 13.0269 95.886 12.9599 97.0545C12.9517 97.1982 13.1753 97.1978 13.1835 97.0545Z" fill="black"/>
<path d="M11.6771 97.0884C11.6303 95.3189 11.5494 93.5506 11.4911 91.7815C11.4868 91.651 11.4825 91.5206 11.4794 91.3901C11.4785 91.3515 11.4809 91.3116 11.4772 91.2732C11.4728 91.2268 11.4989 91.1901 11.4636 91.268C11.4215 91.2851 11.3793 91.3023 11.3373 91.3194L11.3377 91.3195C11.4778 91.3509 11.5376 91.1354 11.3971 91.1039L11.3967 91.1038C11.3525 91.0938 11.2912 91.1094 11.2705 91.1552C11.2149 91.2782 11.2581 91.4775 11.2619 91.6064C11.2727 91.9577 11.2858 92.3091 11.2985 92.6605C11.3348 93.6497 11.3729 94.6387 11.4073 95.6278C11.4243 96.1146 11.4408 96.6014 11.4535 97.0884C11.4574 97.2319 11.6809 97.2326 11.6771 97.0884Z" fill="black"/>
<path d="M10.0082 95.4063C10.1967 94.0596 9.85209 92.6901 9.78564 91.345C9.77861 91.2018 9.555 91.201 9.56218 91.345C9.5972 92.0557 9.68991 92.7604 9.76382 93.4677C9.82898 94.0901 9.87979 94.724 9.79267 95.3469C9.77301 95.4876 9.98829 95.5484 10.0082 95.4063Z" fill="black"/>
</g>
<mask id="mask7_3749_387" style="mask-type:luminance" maskUnits="userSpaceOnUse" x="-22" y="-8" width="276" height="155">
<path d="M-22 -8H253.556V147H-22V-8Z" fill="white"/>
</mask>
<g mask="url(#mask7_3749_387)">
<path d="M29.8708 18.4131C30.4867 18.5228 31.094 18.2992 31.7105 18.2541C32.0443 18.2297 32.3795 18.2265 32.7141 18.229C32.8823 18.2301 33.8259 18.1657 33.9053 18.2877C33.9869 18.0872 34.0685 17.8868 34.15 17.6862C33.5041 17.8837 32.7012 17.7811 32.0316 17.7877C31.4066 17.7938 30.688 17.6558 30.0976 17.8682C29.809 17.9718 29.6487 18.4602 30.0003 18.6116C30.6587 18.8953 31.4632 18.7834 32.172 18.7491C32.8806 18.7149 33.695 18.7121 34.3677 18.4758C34.6002 18.3943 34.7707 18.1077 34.6124 17.8745C34.1544 17.1991 32.911 17.4138 32.2108 17.4593C31.3957 17.5124 30.3374 17.5539 29.8044 18.2496C29.7626 18.304 29.8055 18.4015 29.8708 18.4131Z" fill="black"/>
</g>
<mask id="mask8_3749_387" style="mask-type:luminance" maskUnits="userSpaceOnUse" x="-22" y="-8" width="276" height="155">
<path d="M-22 -8H253.556V147H-22V-8Z" fill="white"/>
</mask>
<g mask="url(#mask8_3749_387)">
<path d="M36.8254 18.2487C37.1588 18.38 37.5513 18.3682 37.9056 18.3987C38.3084 18.4333 38.7022 18.5037 39.096 18.5934C39.1412 18.2589 39.1865 17.9245 39.2318 17.5899C38.8786 17.6341 38.5271 17.6515 38.1714 17.6244C37.8151 17.5973 37.4784 17.4898 37.124 17.4583C36.6214 17.4136 36.3935 18.2213 36.8607 18.431C37.6236 18.7734 38.5588 18.7222 39.3675 18.5934C39.8631 18.5146 39.8473 17.7006 39.3675 17.6082C38.5635 17.4532 37.5087 17.2205 36.7378 17.5789C36.4202 17.7266 36.5649 18.1461 36.8254 18.2487Z" fill="black"/>
</g>
<mask id="mask9_3749_387" style="mask-type:luminance" maskUnits="userSpaceOnUse" x="-22" y="-8" width="276" height="155">
<path d="M-22 -8H253.556V147H-22V-8Z" fill="white"/>
</mask>
<g mask="url(#mask9_3749_387)">
<path d="M33.701 24.7142C34.165 24.5221 34.6547 24.4759 35.1525 24.5097C35.4002 24.5267 35.6455 24.5623 35.8896 24.607C36.0168 24.6304 36.1437 24.6561 36.2703 24.683C36.3648 24.703 36.5191 24.7069 36.5965 24.7584C36.5636 24.7155 36.5306 24.6726 36.4976 24.6297L36.5079 24.6551C36.5151 24.5999 36.5224 24.5446 36.5296 24.4893C36.5264 24.4941 36.5231 24.4988 36.5198 24.5037C36.5818 24.4681 36.6437 24.4325 36.7058 24.3971C36.7307 24.4042 36.7555 24.4114 36.7805 24.4186C36.8135 24.4997 36.8465 24.5808 36.8793 24.6617C36.8808 24.6575 36.8824 24.6534 36.8838 24.6492C36.9748 24.3869 36.559 24.2742 36.4686 24.5347C36.4672 24.5389 36.4657 24.5432 36.4642 24.5473C36.4336 24.6357 36.4845 24.7454 36.5632 24.7904C36.6909 24.8635 36.855 24.8233 36.9122 24.6809C36.9765 24.5215 36.8538 24.3824 36.707 24.3385C36.3678 24.237 35.998 24.1832 35.6481 24.1337C34.9566 24.0358 34.2422 24.0274 33.5865 24.299C33.4782 24.3438 33.4039 24.4414 33.4362 24.564C33.463 24.6657 33.5936 24.7587 33.701 24.7142Z" fill="black"/>
</g>
<mask id="mask10_3749_387" style="mask-type:luminance" maskUnits="userSpaceOnUse" x="-22" y="-8" width="276" height="155">
<path d="M-22 -8H253.556V147H-22V-8Z" fill="white"/>
</mask>
<g mask="url(#mask10_3749_387)">
<path d="M33.4907 24.6589C33.9748 25.0887 34.5637 25.4739 35.2337 25.4804C35.5125 25.4831 35.7837 25.4131 36.034 25.2931C36.1699 25.2279 36.2952 25.1454 36.4145 25.0536C36.4791 25.0038 36.5418 24.9522 36.6021 24.8974C36.6331 24.8693 36.6633 24.8404 36.693 24.811C36.7166 24.7878 36.8195 24.7202 36.7252 24.7482L36.5593 24.7265L36.5072 24.6552C36.5144 24.5999 36.5215 24.5447 36.5289 24.4893C36.5256 24.4941 36.5224 24.4989 36.5191 24.5036C36.581 24.468 36.643 24.4326 36.705 24.397C36.7298 24.4043 36.7548 24.4115 36.7797 24.4186C36.8126 24.4997 36.8456 24.5808 36.8786 24.6618C36.88 24.6576 36.8815 24.6534 36.8829 24.6493C36.9741 24.3868 36.5583 24.2741 36.4677 24.5347C36.4663 24.5389 36.4648 24.5431 36.4634 24.5474C36.4327 24.6358 36.4836 24.7454 36.5623 24.7905C36.7296 24.8861 36.9479 24.7714 36.9261 24.5693C36.9067 24.3899 36.7028 24.2651 36.5403 24.3602C36.4555 24.4099 36.3878 24.5098 36.316 24.5764C36.2534 24.6344 36.1886 24.69 36.1195 24.74C35.9889 24.8347 35.8467 24.9185 35.694 24.9718C34.9883 25.2183 34.3106 24.8122 33.7951 24.3545C33.5886 24.1711 33.283 24.4745 33.4907 24.6589Z" fill="black"/>
</g>
<mask id="mask11_3749_387" style="mask-type:luminance" maskUnits="userSpaceOnUse" x="-22" y="-8" width="276" height="155">
<path d="M-22 -8H253.556V147H-22V-8Z" fill="white"/>
</mask>
<g mask="url(#mask11_3749_387)">
<path d="M32.1056 20.5808C32.2194 20.8049 32.5575 20.8235 32.7628 20.6784C32.968 20.5331 33.069 20.2843 33.1491 20.0459C33.1779 19.9596 33.2058 19.867 33.1823 19.7792C33.1184 19.5393 32.7632 19.5473 32.5498 19.6746C32.312 19.8162 32.1235 20.0386 32.0223 20.2962" fill="black"/>
</g>
<mask id="mask12_3749_387" style="mask-type:luminance" maskUnits="userSpaceOnUse" x="-22" y="-8" width="276" height="155">
<path d="M-22 -8H253.556V147H-22V-8Z" fill="white"/>
</mask>
<g mask="url(#mask12_3749_387)">
<path d="M37.5355 20.0878C37.5355 20.5182 37.7646 20.5768 38.048 20.6305C38.2174 20.6626 38.4196 20.6005 38.4875 20.4419C38.5195 20.3672 38.5176 20.282 38.5024 20.2019C38.4551 19.9536 38.2591 19.7246 38.0083 19.6933C37.7574 19.6621 37.4892 19.8817 37.5167 20.133" fill="black"/>
</g>
<mask id="mask13_3749_387" style="mask-type:luminance" maskUnits="userSpaceOnUse" x="-22" y="-8" width="276" height="155">
<path d="M-22 -8H253.556V147H-22V-8Z" fill="white"/>
</mask>
<g mask="url(#mask13_3749_387)">
<path d="M91.9401 83.9071C91.9401 83.9071 89.8658 80.5558 89.5786 80.2174C89.2916 79.8788 86.7998 72.8072 82.1158 73.9535C76.8944 75.2311 79.521 82.3555 79.521 82.3555L82.8088 93.065C82.8088 93.065 83.3307 93.9031 83.7899 93.7799C84.6446 93.5505 84.496 92.9089 84.496 92.9089C84.496 92.9089 84.8571 94.9353 86.2419 94.7226C87.1207 94.5877 86.6861 93.441 86.6861 93.441C86.6861 93.441 87.2108 94.8794 88.3633 94.6677C89.5084 94.4573 89.0123 92.6954 89.0123 92.6954C89.0123 92.6954 89.4644 93.401 90.3194 93.159C91.1559 92.9222 91.0095 91.339 91.0095 91.339L88.9115 83.5751L90.5673 85.1998C90.5673 85.1998 91.366 85.7857 91.8512 85.2079C92.465 84.4773 91.9401 83.9071 91.9401 83.9071Z" fill="#FFCA0A"/>
<path d="M89.2516 92.6298C89.0528 91.9496 88.854 91.2691 88.6553 90.5887C88.3384 89.5044 88.0215 88.4199 87.7047 87.3354C87.632 87.0866 87.5592 86.8379 87.4866 86.5889C87.3973 86.2835 86.9193 86.4135 87.009 86.7205C87.2077 87.4009 87.4065 88.0813 87.6053 88.7617C87.9222 89.8462 88.2389 90.9304 88.5558 92.015C88.6286 92.2637 88.7013 92.5127 88.7739 92.7616C88.8631 93.0669 89.3413 92.937 89.2516 92.6298Z" fill="black"/>
<path d="M86.984 93.2421C86.7852 92.5619 86.5865 91.8814 86.3877 91.201C86.0708 90.1167 85.754 89.0322 85.4372 87.9477C85.3644 87.6989 85.2916 87.4502 85.219 87.2012C85.1297 86.8958 84.6517 87.0258 84.7414 87.3329C84.9402 88.0132 85.1389 88.6936 85.3377 89.374C85.6546 90.4585 85.9715 91.5427 86.2882 92.6273C86.361 92.876 86.4337 93.125 86.5064 93.3739C86.5956 93.6792 87.0737 93.5493 86.984 93.2421Z" fill="black"/>
<path d="M84.8345 93.0995C84.3886 91.5611 83.9427 90.0229 83.4967 88.4845L83.3043 87.821C83.2157 87.5155 82.7377 87.6455 82.8267 87.9528C83.2727 89.491 83.7186 91.0292 84.1645 92.5676L84.3569 93.2311C84.4454 93.5367 84.9236 93.4068 84.8345 93.0995Z" fill="black"/>
</g>
<mask id="mask14_3749_387" style="mask-type:luminance" maskUnits="userSpaceOnUse" x="-22" y="-8" width="276" height="155">
<path d="M-22 -8H253.556V147H-22V-8Z" fill="white"/>
</mask>
<g mask="url(#mask14_3749_387)">
<path d="M79.2646 80.3369C79.2646 80.3369 80.7265 82.3045 84.0754 81.9378C88.224 81.4836 86.2237 76.4362 86.2237 76.4362L80.3281 56.9939C80.3281 56.9939 77.5757 53.0253 73.1368 55.4795C69.2436 57.6318 70.3422 61.4916 70.3422 61.4916L79.2646 80.3369Z" fill="#FFCA0A"/>
</g>
<mask id="mask15_3749_387" style="mask-type:luminance" maskUnits="userSpaceOnUse" x="-22" y="-8" width="276" height="155">
<path d="M-22 -8H253.556V147H-22V-8Z" fill="white"/>
</mask>
<g mask="url(#mask15_3749_387)">
<path d="M80.3716 38.803C80.3716 38.803 80.1423 32.8098 74.0815 33.1996C68.9155 33.5317 68.498 39.8006 68.498 39.8006L69.6373 57.5168C69.6373 57.5168 70.7867 62.0464 75.8374 61.7216C80.2671 61.4367 81.5457 57.0631 81.5457 57.0631L80.3716 38.803Z" fill="#FFCA0A"/>
<path d="M81.539 44.814C81.539 44.814 82.6295 32.6501 74.3153 33.1847C66.3084 33.6997 67.9409 45.6885 67.9409 45.6885L81.539 44.814Z" fill="white"/>
</g>
<path d="M46.7996 76.3504L52.5799 145.758L74.8471 145.703L82.5015 76.2097" fill="black"/>
<mask id="mask16_3749_387" style="mask-type:luminance" maskUnits="userSpaceOnUse" x="-22" y="-8" width="276" height="155">
<path d="M-22 -8H253.556V147H-22V-8Z" fill="white"/>
</mask>
<g mask="url(#mask16_3749_387)">
<path d="M75.6807 33.8369C75.6807 33.8369 72.1866 31.4317 63.8782 31.5096C55.5696 31.5875 50.0806 34.0031 50.0806 34.0031C50.0806 34.0031 45.8373 53.1288 45.9642 54.0387C46.0911 54.9486 80.169 51.1252 80.169 51.1252L75.5145 34.5018" fill="white"/>
<path d="M60.2205 31.1774C63.5453 34.5021 68.0335 44.8086 68.0335 44.8086L68.8758 31.3175L74.3505 32.6734C74.3505 32.6734 80.3348 42.9799 81.4898 55.0464C82.554 66.1659 82.782 75.1553 82.3422 85.1383C74.5689 86.4106 47.5867 85.0372 47.5867 85.0372C47.5867 85.0372 45.2507 69.0436 45.4616 58.8007C45.6728 48.5578 41.5597 38.5119 49.2491 33.006" fill="#EA4D28"/>
<path d="M82.319 66.3813L45.4259 66.4189L45.1328 61.1289H82.0755L82.319 66.3813Z" fill="white"/>
<path d="M82.5738 76.1806L46.4228 76.2266L45.9242 70.4085L82.6512 70.4578L82.5738 76.1806Z" fill="white"/>
<path d="M67.6354 44.947C67.8462 46.2025 68.0394 47.4612 68.2288 48.7201C68.6664 51.6267 69.0668 54.5392 69.4153 57.4581C69.8061 60.7321 70.1446 64.0178 70.3054 67.3119C70.5023 71.3455 70.555 75.3909 70.6224 79.4285C70.6581 81.5625 70.6873 83.6969 70.6992 85.831C70.6993 85.8613 70.6995 85.8917 70.6996 85.9219C70.7011 86.2406 71.1963 86.2412 71.1949 85.9219C71.1869 84.1501 71.1633 82.3784 71.1365 80.6066C71.0748 76.5231 70.9845 72.4394 70.8443 68.3578C70.7328 65.1056 70.4159 61.8604 70.0472 58.6285C69.6983 55.5697 69.2881 52.5179 68.8383 49.4723C68.6863 48.4431 68.5295 47.4145 68.3672 46.387C68.2879 45.8861 68.2251 45.3777 68.1239 44.8809C68.1196 44.8592 68.1167 44.8371 68.113 44.8154C68.0603 44.5017 67.583 44.6347 67.6354 44.947Z" fill="black"/>
<path d="M70.8313 86.3321C70.7469 88.937 70.6289 91.5412 70.498 94.1442C70.2508 99.0615 69.9581 103.982 69.4584 108.881C69.2313 111.106 68.9381 113.323 68.6738 115.543C68.383 117.986 68.0984 120.428 67.8167 122.871C67.2723 127.594 66.7394 132.318 66.2129 137.043C66.0256 138.724 65.839 140.405 65.6536 142.086C65.5642 142.896 65.4493 143.709 65.3855 144.522C65.3826 144.558 65.3776 144.595 65.3736 144.631C65.3387 144.95 65.8377 144.947 65.8723 144.631C66.097 142.576 66.3247 140.522 66.553 138.468C67.0619 133.889 67.5767 129.311 68.1013 124.735C68.6439 119.999 69.2282 115.269 69.7774 110.534C70.3432 105.657 70.6446 100.748 70.9082 95.8468C71.0761 92.7257 71.2194 89.6029 71.3251 86.4791C71.3267 86.4301 71.3284 86.3812 71.33 86.3321C71.3404 86.0112 70.8416 86.0115 70.8313 86.3321Z" fill="#303030"/>
</g>
<mask id="mask17_3749_387" style="mask-type:luminance" maskUnits="userSpaceOnUse" x="-22" y="-8" width="276" height="155">
<path d="M-22 -8H253.556V147H-22V-8Z" fill="white"/>
</mask>
<g mask="url(#mask17_3749_387)">
<path d="M62.9269 12.1497C62.793 12.1497 62.6525 12.1525 62.4715 12.1586C62.162 12.1691 61.8369 12.1982 61.5052 12.2452C61.1718 12.2924 60.8859 12.3491 60.6312 12.4183L60.4726 12.4615C60.2849 12.5121 60.0511 12.5753 59.8316 12.6432C59.5053 12.7442 59.1931 12.8604 58.9038 12.9883C58.5806 13.1314 58.2855 13.315 58.0111 13.4905C57.5131 13.8091 57.0846 14.2089 56.7714 14.6471C56.6259 14.8503 56.5003 15.0896 56.3984 15.3581C56.3241 15.5527 56.2728 15.768 56.2323 16.0562C56.2148 16.1328 56.2026 16.2129 56.192 16.2835C56.1689 16.4366 56.1586 16.5813 56.1507 16.7158C56.1497 16.7367 56.1482 16.758 56.1467 16.7791L56.1452 16.7996C56.1409 16.8536 56.1365 16.9161 56.1365 16.976C56.1368 17.0858 56.1373 17.1956 56.1381 17.3055C56.1403 17.7013 56.1642 18.104 56.1871 18.4458C56.2123 18.8084 56.2768 19.1741 56.3393 19.5276L56.3483 19.5803C56.3582 19.6348 56.3708 19.6895 56.3839 19.7442C56.3904 19.771 56.3968 19.7981 56.4028 19.825C56.4087 19.8528 56.4146 19.8796 56.4201 19.9065L56.4231 19.9211C56.4343 19.9739 56.4455 20.0265 56.4594 20.0781C56.4726 20.1282 56.4855 20.1786 56.4984 20.2288C56.528 20.3452 56.5613 20.4771 56.6051 20.6028C56.7352 20.9817 56.8704 21.3537 57.0068 21.7089C57.14 22.057 57.2927 22.4173 57.4733 22.8107C57.527 22.9278 57.7057 23.2774 57.7057 23.2774C57.8247 23.5144 57.9607 23.7414 58.11 23.9524C58.2636 24.1697 58.6759 25.5349 58.9576 25.728L59.6179 26.2233C59.6179 26.2233 59.6138 26.8578 59.6179 26.8838C59.6263 26.9339 60.2308 31.2564 60.2784 31.5068C60.2865 31.5486 62.9202 34.4786 66.2222 34.3136C68.5543 34.1969 68.6893 31.7502 68.6988 31.6718C68.7044 31.6235 69.029 29.3603 69.029 29.3603C69.03 29.1601 69.2295 29.0483 69.5899 29.0823C69.7814 29.1004 69.9785 29.1013 70.1693 29.1021L70.2191 29.1024L70.3369 29.1029C70.505 29.1029 70.6845 29.099 70.8573 29.0703C70.9464 29.0558 71.0129 29.0325 71.0971 29.0031C71.1785 28.9743 71.2256 28.9434 71.2968 28.8966C71.3566 28.8577 71.3926 28.8186 71.4381 28.7688L71.4549 28.7504C71.5011 28.7006 71.5237 28.6555 71.5522 28.5984L71.5641 28.5743C71.6553 28.3924 71.6838 28.1898 71.7114 27.9938L71.7167 27.9574C71.7428 27.7686 71.7661 27.5767 71.7899 27.3538C71.8246 27.0336 71.8311 26.7078 71.8371 26.3927L71.8403 26.2385C71.8473 25.9163 71.8502 25.5984 71.8529 25.2461L71.8536 25.1841C71.8594 24.4398 71.864 23.6959 71.8684 22.9514C71.8691 22.8307 71.87 22.7116 71.871 22.5929C71.8762 21.9798 71.8815 21.3458 71.8391 20.7199C71.8142 20.3537 71.7872 19.9953 71.7302 19.636C71.7233 19.5929 71.7168 19.5494 71.7104 19.5059L71.7038 19.461C71.6808 19.3047 71.6576 19.1463 71.6217 18.9931C71.6127 18.9557 71.604 18.9181 71.5956 18.8803L71.5875 18.8447C71.5571 18.7111 71.5261 18.5752 71.4853 18.4439L71.4706 18.3964C71.3849 18.1217 71.2968 17.8395 71.1792 17.5686C71.015 17.1894 70.7972 16.8145 70.5317 16.4544C70.4028 16.2798 70.2863 16.1231 70.1641 15.9712C70.0266 15.8001 69.8962 15.6417 69.7653 15.4871C69.6476 15.3481 69.5216 15.2108 69.3997 15.0781L69.3873 15.0645L69.3504 15.0244C69.2147 14.8775 69.0686 14.7362 68.9273 14.5999L68.8531 14.5278C68.816 14.4918 68.7746 14.4578 68.7344 14.4249L68.6837 14.383L68.4293 14.169L68.4228 14.1634C68.3673 14.1168 68.3077 14.0723 68.2552 14.033C68.2242 14.0096 68.1975 13.9896 68.1709 13.9693L68.1264 13.9344C68.0733 13.8931 68.0211 13.8524 67.9671 13.8148L67.9371 13.7937L67.9288 13.788C67.7392 13.6555 67.5433 13.5186 67.3392 13.3949L67.0254 13.2042C66.7736 13.0513 66.4855 12.9256 66.2367 12.823C65.8522 12.6644 65.447 12.5467 65.0307 12.4303C64.8907 12.391 64.7443 12.3607 64.6026 12.3313L64.5919 12.3291C64.535 12.3172 64.4782 12.3053 64.4217 12.2931C64.1164 12.2268 63.8005 12.1972 63.477 12.1703C63.3084 12.1565 63.1284 12.1497 62.9269 12.1497Z" fill="#FFCA0A"/>
<path d="M57.4883 21.1234C58.247 19.9984 59.0143 20.6725 59.2583 20.6042C60.1855 20.3446 59.8877 18.54 60.4316 18.3702C63.2536 17.4888 66.2465 17.2612 69.1539 17.7068C70.1597 17.8611 71.3442 18.0335 72.0461 17.2345C72.7743 16.4054 72.3343 15.0757 72.3228 13.9287C72.3096 12.6069 70.417 10.8814 68.9514 10.3512C67.4857 9.82106 61.011 10.0216 59.7836 10.5384C56.6466 11.8592 57.1391 11.6511 56.4204 12.8634C55.629 14.1981 55.5801 15.8995 55.7674 17.4748C55.8943 18.5415 56.1177 19.5947 56.4329 20.6142C56.5127 20.8717 56.5988 21.1266 56.6893 21.3798C56.7858 21.6496 56.7468 21.9434 56.7712 22.2308C56.8161 22.7593 56.9129 23.2821 57.0545 23.7899C57.6288 25.8499 58.9224 27.6597 60.5595 28.8541C62.9976 30.6325 66.0679 31.1545 68.9932 30.894C69.9298 30.8108 70.96 30.5911 71.5237 29.7729C71.6964 29.5221 71.812 29.2308 71.9108 28.9366C72.2831 27.8266 72.4338 26.6292 72.3494 25.4512C72.3248 25.1087 72.2729 24.7474 72.0701 24.4841C71.8165 24.1547 71.3948 24.059 71.0062 23.9835C69.4685 23.6852 67.2655 23.7195 65.6641 24.2388C65.2231 24.3819 64.6654 25.0479 64.3155 25.3638C63.6229 25.9891 62.9366 26.492 62.0397 26.5753C61.143 26.6587 60.1956 26.1368 59.7639 25.2773C59.3938 24.5403 59.4373 24.1205 59.3426 23.2868C59.2163 22.1733 56.9826 24.758 57.4883 21.1234Z" fill="black"/>
<path d="M58.6573 20.9931C58.465 20.9967 58.286 21.0871 58.158 21.2291C58.0346 21.3659 57.937 21.5434 57.9103 21.7269C57.8787 21.9445 57.9348 22.1436 58.0763 22.3124C58.1972 22.4567 58.3837 22.5394 58.5707 22.5429C58.7705 22.5467 58.9874 22.4544 59.1108 22.2949C59.1529 22.2405 59.1833 22.1918 59.1833 22.1198C59.1833 22.0591 59.1563 21.9864 59.1108 21.9447C59.0223 21.8634 58.8452 21.8352 58.7605 21.9447C58.7486 21.96 58.7362 21.9748 58.7226 21.9887C58.717 21.9943 58.6701 22.0365 58.7039 22.0074C58.7368 21.9791 58.689 22.0156 58.681 22.0203C58.6738 22.0243 58.6172 22.0522 58.6584 22.0332C58.6991 22.0146 58.6422 22.0374 58.6335 22.0398C58.6241 22.0425 58.6148 22.0447 58.6053 22.0467C58.5788 22.0516 58.5865 22.051 58.6284 22.0448C58.6149 22.0431 58.5989 22.0474 58.5852 22.0476C58.5756 22.0479 58.566 22.0476 58.5564 22.0471C58.5296 22.045 58.5372 22.0464 58.5792 22.0516C58.5666 22.0466 58.5501 22.0463 58.5369 22.0427C58.5275 22.0402 58.5184 22.0375 58.5092 22.0344C58.4845 22.025 58.4905 22.0278 58.5271 22.0424C58.5164 22.0342 58.4998 22.0283 58.4881 22.0212C58.4796 22.016 58.4713 22.0105 58.4633 22.0047C58.4934 22.0288 58.4984 22.0325 58.4783 22.0157C58.4678 22.0052 58.4565 21.9955 58.4462 21.9846C58.4394 21.9772 58.4328 21.9698 58.4265 21.962C58.4495 21.9927 58.4535 21.9975 58.4383 21.9762C58.4307 21.9633 58.4221 21.951 58.4149 21.9378C58.4101 21.929 58.4057 21.9201 58.4014 21.9111C58.416 21.9474 58.4188 21.9531 58.4093 21.9286C58.4046 21.9117 58.3988 21.8953 58.3949 21.8782C58.3813 21.8177 58.3939 21.9262 58.3941 21.8772C58.3941 21.8583 58.3949 21.8387 58.3942 21.8198C58.3958 21.8007 58.3945 21.8077 58.3906 21.8406C58.3925 21.8287 58.3948 21.8168 58.3974 21.805C58.4028 21.7813 58.4097 21.7581 58.4176 21.7351C58.4198 21.7294 58.4218 21.7236 58.4239 21.7181C58.434 21.6925 58.4327 21.6954 58.4198 21.7267C58.4222 21.6964 58.4558 21.6548 58.472 21.6288C58.4763 21.6217 58.509 21.5833 58.5073 21.5773C58.4859 21.6047 58.481 21.6111 58.4928 21.5969C58.4978 21.591 58.5029 21.5852 58.508 21.5793C58.5218 21.5641 58.5363 21.5494 58.5515 21.5356C58.559 21.5287 58.5667 21.5221 58.5746 21.5157C58.5659 21.5224 58.5571 21.529 58.5484 21.5359C58.5565 21.5369 58.5901 21.5085 58.5987 21.5038C58.6073 21.4989 58.6162 21.4946 58.6251 21.4903C58.6144 21.4949 58.6038 21.4993 58.593 21.5039C58.603 21.5062 58.6382 21.4904 58.6493 21.4873C58.6758 21.4825 58.6685 21.4833 58.6273 21.4896C58.6372 21.4889 58.6472 21.4884 58.6573 21.4884C58.7867 21.4861 58.911 21.3763 58.905 21.2409C58.899 21.1087 58.7961 20.9906 58.6573 20.9931Z" fill="black"/>
<path d="M73.6598 16.3454C73.6598 16.3454 76.8635 17.1621 76.9619 16.6767C77.0273 16.3531 73.5121 14.4448 73.0668 14.1443C72.9413 14.0595 72.8017 13.9906 72.7172 13.8445C72.621 13.6784 72.6147 13.4459 72.6092 13.2275C72.5854 12.2872 72.5088 11.3387 72.2184 10.5163C71.8731 9.53879 70.8926 8.06615 70.2488 7.41357C68.4987 5.63896 65.1906 4.66232 65.1906 4.66232C64.7204 3.43294 59.7155 2.76228 59.8578 4.69547C59.8578 4.69547 57.3063 5.76038 56.6085 6.8184C55.3098 8.78747 54.3996 10.698 54.541 13.6306C54.5599 14.022 54.802 14.6135 54.7459 15.0387C54.6493 15.7698 51.9555 16.6265 52.3509 17.5929C52.8017 18.6948 58.1225 14.044 73.6598 16.3454Z" fill="#EA4D28"/>
<path d="M54.9443 15.3839C56.9765 14.3302 59.2319 13.8222 61.4764 13.4571C63.8767 13.0667 66.3612 12.732 68.7845 13.1163C70.1242 13.3287 71.4196 13.7442 72.708 14.1576C72.9723 14.2424 73.0856 13.8269 72.8224 13.7424C71.6537 13.3675 70.4804 12.9912 69.2718 12.7656C68.0466 12.537 66.7992 12.4843 65.556 12.5461C64.3011 12.6086 63.0536 12.7781 61.8129 12.9704C60.6629 13.1486 59.5159 13.3562 58.3886 13.6472C57.1246 13.9737 55.8873 14.4104 54.727 15.0122C54.4808 15.1397 54.6984 15.5114 54.9443 15.3839Z" fill="black"/>
<path d="M59.9064 4.96378C61.2416 5.1594 62.5356 5.65856 63.5825 6.5234C64.4049 7.20296 65.0833 8.08502 65.4619 9.08736C65.6357 9.54733 65.7518 10.0311 65.7666 10.5237C65.77 10.6409 65.8623 10.7378 65.9819 10.739C66.92 10.748 67.8539 10.8796 68.7922 10.8887C69.0694 10.8914 69.0695 10.4608 68.7922 10.4581C67.8539 10.4491 66.92 10.3175 65.9819 10.3084L66.1971 10.5237C66.129 8.25524 64.4032 6.24053 62.438 5.28311C61.6756 4.91169 60.8591 4.67144 60.0208 4.54859C59.7499 4.50883 59.6329 4.92374 59.9064 4.96378Z" fill="black"/>
<path d="M64.887 4.84844C66.0309 5.38434 67.222 6.07021 67.9529 7.13526C68.4092 7.7999 68.611 8.56112 68.6781 9.3565C68.7116 9.75447 68.7212 10.154 68.7584 10.5516C68.7839 10.8253 69.2148 10.8278 69.1889 10.5516C69.1176 9.78892 69.1309 9.01808 68.9372 8.27107C68.6846 7.29729 68.0932 6.47493 67.3256 5.83599C66.6551 5.2777 65.8922 4.84571 65.1042 4.47658C64.8548 4.35976 64.6359 4.7309 64.887 4.84844Z" fill="black"/>
<path d="M58.5431 5.69092C58.6021 5.65791 58.6575 5.6394 58.754 5.62361C58.796 5.61672 58.752 5.62261 58.7922 5.61916C58.8173 5.61701 58.8425 5.61558 58.8676 5.61457C58.9204 5.61271 58.9735 5.61371 59.0263 5.61672C59.2607 5.63036 59.4929 5.69178 59.713 5.77201C60.1333 5.92486 60.5812 6.1875 60.7977 6.59394C60.9282 6.8385 61.3001 6.62121 61.1696 6.37651C60.8992 5.86946 60.3511 5.54726 59.8276 5.35681C59.3745 5.19191 58.7717 5.06935 58.3258 5.31921C58.084 5.45455 58.3008 5.82655 58.5431 5.69092Z" fill="black"/>
<path d="M67.6844 19.2775C67.8016 20.5027 67.9394 21.7453 67.8279 22.9761C67.8884 22.8964 67.949 22.8168 68.0096 22.7371C67.6723 22.8232 67.331 22.8875 66.9846 22.923C66.6705 22.9551 66.6672 23.4508 66.9846 23.4184C67.3751 23.3784 67.7608 23.3118 68.1413 23.2149C68.2543 23.1859 68.3133 23.0843 68.3232 22.9761C68.4348 21.7453 68.2969 20.5027 68.1796 19.2775C68.1496 18.963 67.6539 18.9599 67.6844 19.2775Z" fill="black"/>
</g>
<mask id="mask18_3749_387" style="mask-type:luminance" maskUnits="userSpaceOnUse" x="-22" y="-8" width="276" height="155">
<path d="M-22 -8H253.556V147H-22V-8Z" fill="white"/>
</mask>
<g mask="url(#mask18_3749_387)">
<path d="M55.9252 87.6015C55.9252 87.6015 54.5784 83.8975 54.3663 83.5076C54.1543 83.1177 53.1578 75.6864 48.3385 75.8528C42.9662 76.0383 44.0841 83.5488 44.0841 83.5488L45.1177 94.7036C45.1177 94.7036 45.4574 95.6308 45.9323 95.6038C46.8157 95.5535 46.8012 94.8951 46.8012 94.8951C46.8012 94.8951 46.7413 96.9526 48.1403 97.027C49.0282 97.0741 48.8367 95.8628 48.8367 95.8628C48.8367 95.8628 49.057 97.3781 50.2283 97.4059C51.3923 97.4336 51.266 95.6077 51.266 95.6077C51.266 95.6077 51.5646 96.3905 52.4509 96.3281C53.3182 96.267 53.4979 94.6873 53.4979 94.6873L53.0282 86.6587L54.3177 88.5869C54.3177 88.5869 54.98 89.3235 55.5729 88.857C56.3229 88.2668 55.9252 87.6015 55.9252 87.6015Z" fill="#FFCA0A"/>
<path d="M51.514 95.608C51.4581 94.9013 51.4023 94.1946 51.3465 93.4881L51.0798 90.1094L51.0185 89.3339C50.9937 89.0182 50.4981 89.0155 50.5233 89.3339C50.5791 90.0405 50.6349 90.7472 50.6906 91.4538C50.7796 92.58 50.8684 93.7062 50.9574 94.8326C50.9778 95.0909 50.9982 95.3495 51.0185 95.608C51.0435 95.9236 51.5391 95.9263 51.514 95.608Z" fill="black"/>
<path d="M49.1684 95.7447L49.001 93.6248C48.9121 92.4986 48.8232 91.3723 48.7342 90.2461C48.7139 89.9876 48.6933 89.7291 48.673 89.4706C48.6481 89.1549 48.1526 89.1522 48.1777 89.4706C48.2335 90.1772 48.2893 90.8839 48.345 91.5906C48.434 92.7166 48.5228 93.8429 48.6118 94.9693C48.6323 95.2276 48.6527 95.4861 48.6731 95.7447C48.6981 96.0603 49.1935 96.063 49.1684 95.7447Z" fill="black"/>
<path d="M47.0953 95.1665C46.9728 93.5694 46.8501 91.9725 46.7273 90.3756C46.7095 90.1461 46.6919 89.9165 46.6744 89.6868C46.6501 89.3711 46.1546 89.3685 46.1791 89.6868C46.3017 91.2838 46.4244 92.8807 46.5471 94.4776C46.5647 94.7073 46.5824 94.9367 46.6 95.1665C46.6243 95.4823 47.1199 95.4848 47.0953 95.1665Z" fill="black"/>
</g>
<mask id="mask19_3749_387" style="mask-type:luminance" maskUnits="userSpaceOnUse" x="-22" y="-8" width="276" height="155">
<path d="M-22 -8H253.556V147H-22V-8Z" fill="white"/>
</mask>
<g mask="url(#mask19_3749_387)">
<path d="M44.0586 79.196C44.0586 79.196 44.8599 81.5481 48.2527 82.3169C52.4558 83.2696 52.1116 77.8194 52.1116 77.8194L52.5558 57.4284C52.5558 57.4284 51.1314 52.7497 46.0055 53.5959C41.5099 54.3377 41.3514 58.3618 41.3514 58.3618L44.0586 79.196Z" fill="#FFCA0A"/>
</g>
<mask id="mask20_3749_387" style="mask-type:luminance" maskUnits="userSpaceOnUse" x="-22" y="-8" width="276" height="155">
<path d="M-22 -8H253.556V147H-22V-8Z" fill="white"/>
</mask>
<g mask="url(#mask20_3749_387)">
<path d="M54.4313 39.6988C54.4313 39.6988 55.0107 33.7293 48.9527 33.2998C43.789 32.9335 42.5315 39.089 42.5315 39.089L41.5627 56.941C41.5627 56.941 41.805 61.4406 46.8536 61.7985C51.2814 62.1125 52.5629 57.9509 52.5629 57.9509L54.4313 39.6988Z" fill="#FFCA0A"/>
<path d="M54.7789 45.8115C54.7789 45.8115 57.4967 33.9051 49.1862 33.3158C41.183 32.7482 41.187 44.8477 41.187 44.8477L54.7789 45.8115Z" fill="white"/>
</g>
<mask id="mask21_3749_387" style="mask-type:luminance" maskUnits="userSpaceOnUse" x="-22" y="-8" width="276" height="155">
<path d="M-22 -8H253.556V147H-22V-8Z" fill="white"/>
</mask>
<g mask="url(#mask21_3749_387)">
<path d="M66.3481 25.7404C67.0901 25.2457 67.9607 25.1125 68.8311 25.29C68.8835 25.3006 68.9435 25.3193 68.962 25.37C68.9864 25.4371 68.9208 25.5006 68.862 25.5399C68.2243 25.9653 67.4563 26.1861 66.6935 26.1638C66.5873 26.1606 66.2373 26.2285 66.1945 26.1297C66.1371 25.9968 66.2102 25.7787 66.3481 25.7404Z" fill="white"/>
</g>
<mask id="mask22_3749_387" style="mask-type:luminance" maskUnits="userSpaceOnUse" x="-22" y="-8" width="276" height="155">
<path d="M-22 -8H253.556V147H-22V-8Z" fill="white"/>
</mask>
<g mask="url(#mask22_3749_387)">
<path d="M65.7198 26.3378C66.1017 26.8668 66.8233 27.1435 67.4391 27.2501C68.5897 27.4495 69.8974 27.2618 70.7129 26.357C70.8847 26.1663 71.0393 25.9513 71.1364 25.7123C71.2406 25.4557 70.8243 25.3441 70.7212 25.5978C70.7634 25.4942 70.6928 25.6502 70.6747 25.6823C70.6178 25.7838 70.5479 25.8867 70.4817 25.9674C70.229 26.2761 69.9007 26.5188 69.5315 26.67C68.9659 26.9018 68.317 26.9317 67.716 26.859C67.2791 26.8064 66.8445 26.6751 66.4715 26.438C66.3511 26.3616 66.2757 26.3052 66.1717 26.2033C66.1427 26.1749 66.1166 26.1439 66.0883 26.1148C66.0477 26.0729 66.0867 26.1138 66.0916 26.1205C65.9309 25.8979 65.5573 26.1126 65.7198 26.3378Z" fill="white"/>
</g>
<mask id="mask23_3749_387" style="mask-type:luminance" maskUnits="userSpaceOnUse" x="-22" y="-8" width="276" height="155">
<path d="M-22 -8H253.556V147H-22V-8Z" fill="white"/>
</mask>
<g mask="url(#mask23_3749_387)">
<path d="M63.7072 21.021C63.8209 21.211 64.0657 21.2324 64.2687 21.2255C64.6303 21.213 65.0546 20.9845 65.0663 20.5762C65.0774 20.1969 64.6905 19.9253 64.3574 19.9777C64.0244 20.0303 63.2867 20.3179 63.7072 21.021Z" fill="black"/>
</g>
<mask id="mask24_3749_387" style="mask-type:luminance" maskUnits="userSpaceOnUse" x="-22" y="-8" width="276" height="155">
<path d="M-22 -8H253.556V147H-22V-8Z" fill="white"/>
</mask>
<g mask="url(#mask24_3749_387)">
<path d="M68.5839 18.8119C68.7924 19.14 69.1602 19.1327 69.52 19.1746C70.0514 19.2364 70.5852 19.2667 71.1157 19.3396C71.6995 19.42 71.9521 18.5262 71.3622 18.4451C70.8175 18.3702 70.2628 18.2888 69.7118 18.2835C69.3165 18.2797 68.8217 18.2529 68.5839 18.6144C68.547 18.6704 68.5481 18.7558 68.5839 18.8119Z" fill="black"/>
</g>
<mask id="mask25_3749_387" style="mask-type:luminance" maskUnits="userSpaceOnUse" x="-22" y="-8" width="276" height="155">
<path d="M-22 -8H253.556V147H-22V-8Z" fill="white"/>
</mask>
<g mask="url(#mask25_3749_387)">
<path d="M62.1697 19.732C62.6663 19.8118 63.1315 19.6329 63.6203 19.5424C64.2545 19.4248 64.894 19.3831 65.5381 19.3944C66.135 19.4049 66.1363 18.4674 65.5381 18.4667C64.5151 18.4651 62.7856 18.4874 62.0625 19.3261C61.9563 19.4494 61.9741 19.7005 62.1697 19.732Z" fill="black"/>
</g>
<mask id="mask26_3749_387" style="mask-type:luminance" maskUnits="userSpaceOnUse" x="-22" y="-8" width="276" height="155">
<path d="M-22 -8H253.556V147H-22V-8Z" fill="white"/>
</mask>
<g mask="url(#mask26_3749_387)">
<path d="M70.0225 21.013C70.2426 21.2884 70.7507 20.9986 70.8925 20.6747C71.0143 20.3963 70.9295 20.0201 70.6643 19.8772C70.3991 19.7344 69.3274 20.1434 70.0225 21.013Z" fill="black"/>
</g>
</g>
</svg>
